%
M48
M72
T01C0.0150
T02C0.0400
T03C0.1300
%
T01
X13536Y8252
X15786Y9002
X16536Y8252
X18786Y9002
X19536Y8252
X21786Y9002
X22536Y8252
X24786Y9002
X26036Y8252
X28286Y10252
X28286Y11702
X34736Y8252
X36986Y9002
X37736Y8252
X39986Y9002
X40736Y8252
X42986Y9002
X43736Y8252
X45986Y9002
X47236Y8252
X49486Y10252
X49486Y11702
X47236Y31952
X45986Y32702
X43736Y31952
X42986Y32702
X40736Y31952
X39986Y32702
X37736Y31952
X36986Y32702
X34736Y31952
X28286Y33952
X28286Y35402
X26036Y31952
X24786Y32702
X22536Y31952
X21786Y32702
X19536Y31952
X18786Y32702
X16536Y31952
X15786Y32702
X13536Y31952
X49486Y33952
X49486Y35402
T02
X10036Y10252
X10036Y11252
X10036Y12252
X10036Y13252
X10036Y14252
X10036Y15252
X10036Y16252
X10036Y17252
X10036Y18252
X10036Y19252
X10036Y20752
X10036Y21752
X10036Y22752
X10036Y23752
X10036Y24752
X10036Y25752
X10036Y26752
X10036Y27752
X12036Y27752
X13036Y27752
X14036Y27752
X14036Y28752
X15036Y28752
X15036Y27752
X16036Y27752
X16036Y28752
X17036Y28752
X17036Y27752
X18036Y27752
X18036Y28752
X19036Y28752
X20036Y28752
X20036Y27752
X19036Y27752
X19036Y26752
X20036Y26752
X21036Y26752
X22036Y26752
X23036Y26752
X24036Y26752
X25036Y26752
X26036Y26752
X27036Y26752
X27036Y25752
X27036Y24752
X27036Y23752
X27036Y22752
X26036Y22752
X25036Y22752
X25036Y21752
X26036Y21752
X26036Y20752
X25036Y20752
X25036Y19752
X26036Y19752
X27036Y19752
X27036Y18752
X27036Y17752
X27036Y16752
X27036Y15752
X27036Y14752
X26036Y14752
X26036Y15752
X25036Y15752
X25036Y14752
X25036Y13752
X26036Y13752
X26036Y12752
X25036Y12752
X25036Y11752
X26036Y11752
X26036Y10752
X25036Y10752
X24036Y12752
X24036Y13752
X24036Y14752
X24036Y15752
X24036Y16752
X25036Y16752
X26036Y16752
X26036Y17752
X26036Y18752
X25036Y18752
X25036Y17752
X24036Y17752
X23036Y17752
X23036Y16752
X23036Y15752
X23036Y14752
X23036Y13752
X23036Y12752
X22036Y12752
X22036Y11752
X22036Y10752
X21036Y10752
X21036Y11752
X21036Y12752
X21036Y13752
X22036Y13752
X22036Y14752
X22036Y15752
X22036Y16752
X22036Y17752
X22036Y18752
X22036Y19752
X22036Y20752
X22036Y21752
X23036Y21752
X23036Y20752
X24036Y20752
X24036Y21752
X24036Y22752
X24036Y23752
X24036Y24752
X25036Y24752
X26036Y24752
X26036Y23752
X25036Y23752
X25036Y25752
X26036Y25752
X24036Y25752
X23036Y25752
X23036Y24752
X23036Y23752
X23036Y22752
X22036Y22752
X22036Y23752
X22036Y24752
X22036Y25752
X21036Y25752
X21036Y24752
X21036Y23752
X21036Y22752
X21036Y21752
X21036Y20752
X21036Y19752
X21036Y18752
X21036Y17752
X21036Y16752
X21036Y15752
X21036Y14752
X20036Y14752
X19036Y14752
X19036Y13752
X20036Y13752
X20036Y12752
X19036Y12752
X19036Y11752
X20036Y11752
X20036Y10752
X19036Y10752
X18036Y10752
X18036Y11752
X18036Y12752
X18036Y13752
X18036Y14752
X18036Y15752
X18036Y16752
X18036Y17752
X18036Y18752
X19036Y18752
X20036Y18752
X20036Y17752
X19036Y17752
X19036Y19752
X20036Y19752
X20036Y20752
X20036Y21752
X19036Y21752
X19036Y20752
X18036Y20752
X18036Y21752
X18036Y22752
X19036Y22752
X20036Y22752
X20036Y23752
X20036Y24752
X19036Y24752
X19036Y23752
X18036Y23752
X18036Y24752
X18036Y25752
X19036Y25752
X20036Y25752
X18036Y26752
X17036Y26752
X17036Y25752
X17036Y24752
X17036Y23752
X17036Y22752
X17036Y21752
X17036Y20752
X17036Y19752
X18036Y19752
X17036Y18752
X17036Y17752
X17036Y16752
X17036Y15752
X17036Y14752
X17036Y13752
X17036Y12752
X17036Y11752
X17036Y10752
X16036Y12752
X16036Y13752
X16036Y14752
X16036Y15752
X16036Y16752
X16036Y17752
X15036Y17752
X15036Y16752
X15036Y15752
X15036Y14752
X15036Y13752
X15036Y12752
X14036Y12752
X14036Y11752
X14036Y10752
X13036Y10252
X12036Y10252
X12036Y11252
X13036Y11252
X13036Y12252
X12036Y12252
X12036Y13252
X13036Y13252
X13036Y14252
X13036Y15252
X12036Y15252
X12036Y14252
X12036Y16252
X13036Y16252
X13036Y17252
X13036Y18252
X12036Y18252
X12036Y17252
X12036Y19252
X13036Y19252
X14036Y18752
X14036Y17752
X14036Y16752
X14036Y15752
X14036Y14752
X14036Y13752
X14036Y19752
X14036Y20752
X14036Y21752
X15036Y21752
X15036Y20752
X16036Y20752
X16036Y21752
X16036Y22752
X16036Y23752
X16036Y24752
X16036Y25752
X16036Y26752
X15036Y26752
X15036Y25752
X15036Y24752
X15036Y23752
X15036Y22752
X14036Y22752
X14036Y23752
X14036Y24752
X14036Y25752
X14036Y26752
X13036Y26752
X12036Y26752
X12036Y25752
X13036Y25752
X13036Y24752
X13036Y23752
X12036Y23752
X12036Y24752
X12036Y22752
X13036Y22752
X13036Y21752
X13036Y20752
X12036Y20752
X12036Y21752
X21036Y27752
X21036Y28752
X22036Y28752
X22036Y27752
X23036Y27752
X23036Y28752
X24036Y28752
X24036Y27752
X25036Y27752
X26036Y27752
X25036Y28752
X27036Y27752
X29036Y27752
X29036Y26752
X29036Y25752
X29036Y24752
X29036Y23752
X29036Y22752
X29036Y20752
X29036Y19752
X29036Y18752
X29036Y17752
X29036Y16752
X29036Y15752
X29036Y14752
X29036Y13752
X31236Y13252
X31236Y12252
X31236Y11252
X31236Y10252
X33236Y10252
X34236Y10252
X34236Y11252
X34236Y12252
X33236Y12252
X33236Y11252
X33236Y13252
X34236Y13252
X34236Y14252
X34236Y15252
X33236Y15252
X33236Y14252
X33236Y16252
X34236Y16252
X34236Y17252
X34236Y18252
X33236Y18252
X33236Y17252
X33236Y19252
X34236Y19252
X35236Y18752
X35236Y17752
X36236Y17752
X37236Y17752
X38236Y17752
X38236Y18752
X39236Y18752
X40236Y18752
X40236Y17752
X39236Y17752
X39236Y16752
X39236Y15752
X39236Y14752
X40236Y14752
X41236Y14752
X42236Y14752
X42236Y15752
X43236Y15752
X43236Y14752
X44236Y14752
X44236Y15752
X45236Y15752
X45236Y14752
X46236Y14752
X47236Y14752
X47236Y15752
X46236Y15752
X46236Y16752
X47236Y16752
X48236Y16752
X48236Y15752
X48236Y14752
X47236Y13752
X46236Y13752
X46236Y12752
X47236Y12752
X47236Y11752
X47236Y10752
X46236Y10752
X46236Y11752
X45236Y12752
X45236Y13752
X44236Y13752
X44236Y12752
X43236Y12752
X43236Y11752
X43236Y10752
X42236Y10752
X42236Y11752
X42236Y12752
X42236Y13752
X43236Y13752
X41236Y13752
X41236Y12752
X41236Y11752
X41236Y10752
X40236Y10752
X40236Y11752
X39236Y11752
X39236Y10752
X38236Y10752
X38236Y11752
X38236Y12752
X39236Y12752
X40236Y12752
X40236Y13752
X39236Y13752
X38236Y13752
X38236Y14752
X38236Y15752
X38236Y16752
X37236Y16752
X37236Y15752
X37236Y14752
X37236Y13752
X37236Y12752
X36236Y12752
X36236Y13752
X36236Y14752
X36236Y15752
X36236Y16752
X35236Y16752
X35236Y15752
X35236Y14752
X35236Y13752
X35236Y12752
X35236Y11752
X35236Y10752
X31236Y14252
X31236Y15252
X31236Y16252
X31236Y17252
X31236Y18252
X31236Y19252
X31236Y20752
X31236Y21752
X31236Y22752
X31236Y23752
X31236Y24752
X31236Y25752
X31236Y26752
X31236Y27752
X33236Y27752
X34236Y27752
X35236Y27752
X35236Y28752
X36236Y28752
X36236Y27752
X37236Y27752
X37236Y28752
X38236Y28752
X38236Y27752
X39236Y27752
X40236Y27752
X40236Y28752
X39236Y28752
X41236Y28752
X41236Y27752
X42236Y27752
X42236Y28752
X43236Y28752
X43236Y27752
X44236Y27752
X44236Y28752
X45236Y28752
X45236Y27752
X46236Y27752
X47236Y27752
X46236Y28752
X46236Y26752
X47236Y26752
X48236Y26752
X48236Y25752
X48236Y24752
X48236Y23752
X48236Y22752
X47236Y22752
X46236Y22752
X46236Y21752
X47236Y21752
X47236Y20752
X46236Y20752
X46236Y19752
X47236Y19752
X48236Y19752
X48236Y18752
X48236Y17752
X47236Y17752
X47236Y18752
X46236Y18752
X46236Y17752
X45236Y17752
X45236Y16752
X44236Y16752
X44236Y17752
X43236Y17752
X43236Y18752
X43236Y19752
X43236Y20752
X43236Y21752
X44236Y21752
X44236Y20752
X45236Y20752
X45236Y21752
X45236Y22752
X45236Y23752
X45236Y24752
X46236Y24752
X47236Y24752
X47236Y23752
X46236Y23752
X46236Y25752
X47236Y25752
X45236Y25752
X45236Y26752
X44236Y26752
X44236Y25752
X44236Y24752
X44236Y23752
X44236Y22752
X43236Y22752
X43236Y23752
X43236Y24752
X43236Y25752
X43236Y26752
X42236Y26752
X42236Y25752
X42236Y24752
X42236Y23752
X42236Y22752
X42236Y21752
X42236Y20752
X42236Y19752
X42236Y18752
X42236Y17752
X42236Y16752
X43236Y16752
X41236Y17752
X41236Y18752
X41236Y19752
X41236Y20752
X41236Y21752
X41236Y22752
X41236Y23752
X41236Y24752
X41236Y25752
X41236Y26752
X40236Y26752
X39236Y26752
X39236Y25752
X40236Y25752
X40236Y24752
X40236Y23752
X39236Y23752
X39236Y24752
X38236Y24752
X38236Y23752
X38236Y22752
X39236Y22752
X40236Y22752
X40236Y21752
X40236Y20752
X39236Y20752
X39236Y21752
X38236Y21752
X38236Y20752
X38236Y19752
X39236Y19752
X40236Y19752
X37236Y20752
X37236Y21752
X37236Y22752
X37236Y23752
X37236Y24752
X37236Y25752
X38236Y25752
X38236Y26752
X37236Y26752
X36236Y26752
X36236Y25752
X36236Y24752
X36236Y23752
X36236Y22752
X36236Y21752
X36236Y20752
X35236Y20752
X35236Y21752
X35236Y22752
X35236Y23752
X35236Y24752
X35236Y25752
X35236Y26752
X34236Y26752
X33236Y26752
X33236Y25752
X34236Y25752
X34236Y24752
X34236Y23752
X33236Y23752
X33236Y24752
X33236Y22752
X34236Y22752
X34236Y21752
X34236Y20752
X33236Y20752
X33236Y21752
X35236Y19752
X27036Y20752
X31236Y33952
X31236Y34952
X31236Y35952
X31236Y36952
X31236Y37952
X31236Y38952
X31236Y39952
X31236Y40952
X31236Y41952
X31236Y42952
X31236Y44452
X31236Y45452
X31236Y46452
X31236Y47452
X31236Y48452
X31236Y49452
X31236Y50452
X31236Y51452
X33236Y51452
X34236Y51452
X35236Y51452
X35236Y52452
X36236Y52452
X36236Y51452
X37236Y51452
X37236Y52452
X38236Y52452
X38236Y51452
X39236Y51452
X40236Y51452
X40236Y52452
X39236Y52452
X41236Y52452
X41236Y51452
X42236Y51452
X42236Y52452
X43236Y52452
X43236Y51452
X44236Y51452
X44236Y52452
X45236Y52452
X45236Y51452
X46236Y51452
X47236Y51452
X46236Y52452
X46236Y50452
X47236Y50452
X48236Y50452
X48236Y49452
X48236Y48452
X48236Y47452
X48236Y46452
X47236Y46452
X47236Y45452
X46236Y45452
X46236Y46452
X46236Y47452
X47236Y47452
X47236Y48452
X47236Y49452
X46236Y49452
X46236Y48452
X45236Y48452
X45236Y49452
X45236Y50452
X44236Y50452
X44236Y49452
X44236Y48452
X44236Y47452
X45236Y47452
X45236Y46452
X45236Y45452
X45236Y44452
X46236Y44452
X47236Y44452
X48236Y44452
X48236Y43452
X48236Y42452
X48236Y41452
X48236Y40452
X48236Y39452
X48236Y38452
X47236Y38452
X47236Y39452
X46236Y39452
X46236Y38452
X46236Y37452
X47236Y37452
X47236Y36452
X47236Y35452
X46236Y35452
X46236Y36452
X45236Y36452
X45236Y37452
X45236Y38452
X45236Y39452
X45236Y40452
X46236Y40452
X47236Y40452
X47236Y41452
X47236Y42452
X46236Y42452
X46236Y41452
X45236Y41452
X44236Y41452
X44236Y40452
X44236Y39452
X44236Y38452
X44236Y37452
X44236Y36452
X43236Y36452
X43236Y35452
X43236Y34452
X42236Y34452
X42236Y35452
X42236Y36452
X42236Y37452
X43236Y37452
X43236Y38452
X43236Y39452
X43236Y40452
X43236Y41452
X43236Y42452
X43236Y43452
X43236Y44452
X44236Y44452
X44236Y45452
X44236Y46452
X43236Y46452
X43236Y45452
X42236Y45452
X42236Y46452
X42236Y47452
X43236Y47452
X43236Y48452
X43236Y49452
X43236Y50452
X42236Y50452
X42236Y49452
X42236Y48452
X41236Y48452
X41236Y49452
X41236Y50452
X40236Y50452
X39236Y50452
X39236Y49452
X40236Y49452
X40236Y48452
X39236Y48452
X39236Y47452
X40236Y47452
X41236Y47452
X41236Y46452
X41236Y45452
X41236Y44452
X42236Y44452
X42236Y43452
X42236Y42452
X42236Y41452
X42236Y40452
X42236Y39452
X42236Y38452
X41236Y38452
X41236Y37452
X41236Y36452
X41236Y35452
X41236Y34452
X40236Y34452
X39236Y34452
X39236Y35452
X40236Y35452
X40236Y36452
X39236Y36452
X39236Y37452
X40236Y37452
X40236Y38452
X39236Y38452
X39236Y39452
X39236Y40452
X39236Y41452
X40236Y41452
X40236Y42452
X39236Y42452
X39236Y43452
X40236Y43452
X41236Y43452
X41236Y42452
X41236Y41452
X38236Y41452
X38236Y42452
X38236Y43452
X38236Y44452
X39236Y44452
X40236Y44452
X40236Y45452
X40236Y46452
X39236Y46452
X39236Y45452
X38236Y45452
X38236Y46452
X38236Y47452
X38236Y48452
X38236Y49452
X38236Y50452
X37236Y50452
X37236Y49452
X37236Y48452
X37236Y47452
X37236Y46452
X37236Y45452
X37236Y44452
X36236Y44452
X36236Y45452
X36236Y46452
X36236Y47452
X36236Y48452
X36236Y49452
X36236Y50452
X35236Y50452
X35236Y49452
X35236Y48452
X35236Y47452
X35236Y46452
X35236Y45452
X35236Y44452
X35236Y43452
X35236Y42452
X35236Y41452
X36236Y41452
X37236Y41452
X37236Y40452
X38236Y40452
X38236Y39452
X38236Y38452
X38236Y37452
X38236Y36452
X38236Y35452
X38236Y34452
X37236Y36452
X37236Y37452
X37236Y38452
X37236Y39452
X36236Y39452
X36236Y38452
X36236Y37452
X36236Y36452
X35236Y36452
X35236Y35452
X35236Y34452
X34236Y33952
X33236Y33952
X33236Y34952
X34236Y34952
X34236Y35952
X33236Y35952
X33236Y36952
X34236Y36952
X34236Y37952
X33236Y37952
X33236Y38952
X34236Y38952
X34236Y39952
X33236Y39952
X33236Y40952
X34236Y40952
X34236Y41952
X34236Y42952
X33236Y42952
X33236Y41952
X35236Y40452
X36236Y40452
X35236Y39452
X35236Y38452
X35236Y37452
X29036Y37452
X29036Y38452
X29036Y39452
X29036Y40452
X29036Y41452
X29036Y42452
X29036Y43452
X29036Y44452
X29036Y46452
X29036Y47452
X29036Y48452
X29036Y49452
X29036Y50452
X29036Y51452
X27036Y51452
X27036Y50452
X27036Y49452
X27036Y48452
X27036Y47452
X27036Y46452
X26036Y46452
X26036Y45452
X25036Y45452
X25036Y46452
X25036Y47452
X26036Y47452
X26036Y48452
X26036Y49452
X25036Y49452
X25036Y48452
X24036Y48452
X24036Y49452
X24036Y50452
X25036Y50452
X26036Y50452
X26036Y51452
X25036Y51452
X25036Y52452
X24036Y52452
X24036Y51452
X23036Y51452
X23036Y52452
X22036Y52452
X22036Y51452
X22036Y50452
X23036Y50452
X23036Y49452
X23036Y48452
X23036Y47452
X24036Y47452
X24036Y46452
X24036Y45452
X24036Y44452
X25036Y44452
X26036Y44452
X27036Y44452
X27036Y43452
X27036Y42452
X27036Y41452
X27036Y40452
X27036Y39452
X27036Y38452
X26036Y38452
X26036Y39452
X25036Y39452
X25036Y38452
X25036Y37452
X26036Y37452
X26036Y36452
X26036Y35452
X25036Y35452
X25036Y36452
X24036Y36452
X24036Y37452
X24036Y38452
X24036Y39452
X24036Y40452
X25036Y40452
X26036Y40452
X26036Y41452
X26036Y42452
X25036Y42452
X25036Y41452
X24036Y41452
X23036Y41452
X23036Y40452
X23036Y39452
X23036Y38452
X23036Y37452
X23036Y36452
X22036Y36452
X22036Y35452
X22036Y34452
X21036Y34452
X21036Y35452
X21036Y36452
X21036Y37452
X22036Y37452
X22036Y38452
X22036Y39452
X22036Y40452
X22036Y41452
X22036Y42452
X22036Y43452
X22036Y44452
X23036Y44452
X23036Y45452
X23036Y46452
X22036Y46452
X22036Y45452
X21036Y45452
X21036Y46452
X21036Y47452
X22036Y47452
X22036Y48452
X22036Y49452
X21036Y49452
X21036Y48452
X20036Y48452
X20036Y49452
X19036Y49452
X19036Y48452
X19036Y47452
X20036Y47452
X20036Y46452
X20036Y45452
X19036Y45452
X19036Y46452
X18036Y46452
X18036Y45452
X18036Y44452
X19036Y44452
X20036Y44452
X21036Y44452
X21036Y43452
X21036Y42452
X21036Y41452
X21036Y40452
X21036Y39452
X21036Y38452
X20036Y38452
X19036Y38452
X19036Y37452
X20036Y37452
X20036Y36452
X20036Y35452
X19036Y35452
X19036Y36452
X18036Y36452
X18036Y35452
X18036Y34452
X19036Y34452
X20036Y34452
X17036Y34452
X17036Y35452
X17036Y36452
X17036Y37452
X18036Y37452
X18036Y38452
X18036Y39452
X18036Y40452
X18036Y41452
X18036Y42452
X19036Y42452
X20036Y42452
X20036Y41452
X19036Y41452
X19036Y43452
X20036Y43452
X18036Y43452
X17036Y43452
X17036Y42452
X17036Y41452
X17036Y40452
X17036Y39452
X17036Y38452
X16036Y38452
X16036Y39452
X16036Y40452
X16036Y41452
X15036Y41452
X15036Y40452
X15036Y39452
X15036Y38452
X15036Y37452
X16036Y37452
X16036Y36452
X15036Y36452
X14036Y36452
X14036Y35452
X14036Y34452
X13036Y33952
X12036Y33952
X12036Y34952
X13036Y34952
X13036Y35952
X12036Y35952
X12036Y36952
X13036Y36952
X13036Y37952
X12036Y37952
X12036Y38952
X13036Y38952
X13036Y39952
X12036Y39952
X12036Y40952
X13036Y40952
X13036Y41952
X13036Y42952
X12036Y42952
X12036Y41952
X14036Y41452
X14036Y42452
X14036Y43452
X14036Y44452
X15036Y44452
X16036Y44452
X17036Y44452
X17036Y45452
X17036Y46452
X17036Y47452
X18036Y47452
X18036Y48452
X18036Y49452
X18036Y50452
X19036Y50452
X20036Y50452
X21036Y50452
X21036Y51452
X21036Y52452
X20036Y52452
X20036Y51452
X19036Y51452
X19036Y52452
X18036Y52452
X18036Y51452
X17036Y51452
X17036Y52452
X16036Y52452
X16036Y51452
X16036Y50452
X17036Y50452
X17036Y49452
X17036Y48452
X16036Y48452
X16036Y49452
X15036Y49452
X15036Y48452
X15036Y47452
X16036Y47452
X16036Y46452
X16036Y45452
X15036Y45452
X15036Y46452
X14036Y46452
X14036Y45452
X13036Y45452
X13036Y46452
X12036Y46452
X12036Y45452
X12036Y44452
X13036Y44452
X13036Y47452
X12036Y47452
X12036Y48452
X13036Y48452
X13036Y49452
X12036Y49452
X12036Y50452
X13036Y50452
X14036Y50452
X15036Y50452
X15036Y51452
X15036Y52452
X14036Y52452
X14036Y51452
X13036Y51452
X12036Y51452
X10036Y51452
X10036Y50452
X10036Y49452
X10036Y48452
X10036Y47452
X10036Y46452
X10036Y45452
X10036Y44452
X10036Y42952
X10036Y41952
X10036Y40952
X10036Y39952
X10036Y38952
X10036Y37952
X10036Y36952
X10036Y35952
X10036Y34952
X10036Y33952
X14036Y37452
X14036Y38452
X14036Y39452
X14036Y40452
X14036Y47452
X14036Y48452
X14036Y49452
X25036Y43452
X26036Y43452
X33236Y44452
X34236Y44452
X34236Y45452
X34236Y46452
X33236Y46452
X33236Y45452
X33236Y47452
X34236Y47452
X34236Y48452
X34236Y49452
X33236Y49452
X33236Y48452
X33236Y50452
X34236Y50452
X46236Y43452
X47236Y43452
X50236Y43452
X50236Y42452
X50236Y41452
X50236Y40452
X50236Y39452
X50236Y38452
X50236Y37452
X47236Y34452
X46236Y34452
X48236Y27752
X50236Y27752
X50236Y26752
X50236Y25752
X50236Y24752
X50236Y23752
X50236Y22752
X50236Y20752
X50236Y19752
X50236Y18752
X50236Y17752
X50236Y16752
X50236Y15752
X50236Y14752
X50236Y13752
X48236Y20752
X50236Y44452
X50236Y46452
X50236Y47452
X50236Y48452
X50236Y49452
X50236Y50452
X50236Y51452
X48236Y51452
X26036Y34452
X25036Y34452
T03
X23536Y34952
X23536Y42952
X15536Y42952
X15536Y34952
X15536Y19252
X15536Y11252
X23536Y11252
X23536Y19252
X36736Y19252
X36736Y11252
X44736Y11252
X44736Y19252
X44736Y34952
X44736Y42952
X36736Y42952
X36736Y34952
M30
