G75*
%MOIN*%
%OFA0B0*%
%FSLAX25Y25*%
%IPPOS*%
%LPD*%
%AMOC8*
5,1,8,0,0,1.08239X$1,22.5*
%
%ADD10C,0.01200*%
%ADD11C,0.07400*%
%ADD12C,0.01000*%
%ADD13C,0.03100*%
%ADD14C,0.06000*%
D10*
X0190355Y0267524D02*
X0190355Y0270024D01*
X0265355Y0334524D02*
X0265355Y0424524D01*
X0270355Y0424524D01*
X0265355Y0424524D02*
X0265355Y0429524D01*
X0270355Y0434524D01*
X0190355Y0504524D02*
X0190355Y0507024D01*
X0273790Y0524624D02*
X0276993Y0524624D01*
X0275392Y0524624D02*
X0275392Y0529428D01*
X0276993Y0527826D01*
X0279315Y0524624D02*
X0282518Y0524624D01*
X0280916Y0524624D02*
X0280916Y0529428D01*
X0282518Y0527826D01*
X0284840Y0529428D02*
X0288043Y0524624D01*
X0284840Y0524624D02*
X0288043Y0529428D01*
X0402355Y0507024D02*
X0402355Y0504524D01*
X0477355Y0429524D02*
X0477355Y0424524D01*
X0482355Y0424524D01*
X0477355Y0424524D02*
X0477355Y0334524D01*
X0487392Y0292428D02*
X0487392Y0287624D01*
X0488993Y0287624D02*
X0485790Y0287624D01*
X0488993Y0290826D02*
X0487392Y0292428D01*
X0492916Y0292428D02*
X0492916Y0287624D01*
X0491315Y0287624D02*
X0494518Y0287624D01*
X0496840Y0287624D02*
X0500043Y0292428D01*
X0496840Y0292428D02*
X0500043Y0287624D01*
X0494518Y0290826D02*
X0492916Y0292428D01*
X0482355Y0197524D02*
X0477355Y0192524D01*
X0477355Y0187524D01*
X0482355Y0187524D01*
X0477355Y0187524D02*
X0477355Y0097524D01*
X0402355Y0267524D02*
X0402355Y0270024D01*
X0288043Y0287624D02*
X0284840Y0292428D01*
X0282518Y0290826D02*
X0280916Y0292428D01*
X0280916Y0287624D01*
X0279315Y0287624D02*
X0282518Y0287624D01*
X0284840Y0287624D02*
X0288043Y0292428D01*
X0276993Y0290826D02*
X0275392Y0292428D01*
X0275392Y0287624D01*
X0276993Y0287624D02*
X0273790Y0287624D01*
X0270355Y0197524D02*
X0265355Y0192524D01*
X0265355Y0187524D01*
X0270355Y0187524D01*
X0265355Y0187524D02*
X0265355Y0097524D01*
X0477355Y0429524D02*
X0482355Y0434524D01*
X0485790Y0524624D02*
X0488993Y0524624D01*
X0487392Y0524624D02*
X0487392Y0529428D01*
X0488993Y0527826D01*
X0491315Y0524624D02*
X0494518Y0524624D01*
X0492916Y0524624D02*
X0492916Y0529428D01*
X0494518Y0527826D01*
X0496840Y0529428D02*
X0500043Y0524624D01*
X0496840Y0524624D02*
X0500043Y0529428D01*
D11*
X0502355Y0514524D03*
X0502355Y0504524D03*
X0502355Y0494524D03*
X0502355Y0484524D03*
X0502355Y0474524D03*
X0502355Y0464524D03*
X0502355Y0444524D03*
X0502355Y0434524D03*
X0502355Y0424524D03*
X0502355Y0414524D03*
X0502355Y0404524D03*
X0502355Y0394524D03*
X0502355Y0384524D03*
X0502355Y0374524D03*
X0482355Y0384524D03*
X0482355Y0394524D03*
X0472355Y0394524D03*
X0462355Y0394524D03*
X0462355Y0384524D03*
X0472355Y0384524D03*
X0472355Y0374524D03*
X0462355Y0374524D03*
X0452355Y0374524D03*
X0442355Y0374524D03*
X0432355Y0374524D03*
X0422355Y0374524D03*
X0412355Y0374524D03*
X0402355Y0374524D03*
X0392355Y0374524D03*
X0382355Y0374524D03*
X0372355Y0374524D03*
X0362355Y0374524D03*
X0352355Y0374524D03*
X0352355Y0384524D03*
X0352355Y0394524D03*
X0352355Y0404524D03*
X0352355Y0414524D03*
X0352355Y0424524D03*
X0352355Y0434524D03*
X0352355Y0444524D03*
X0342355Y0444524D03*
X0332355Y0444524D03*
X0332355Y0454524D03*
X0332355Y0464524D03*
X0342355Y0464524D03*
X0342355Y0454524D03*
X0352355Y0454524D03*
X0352355Y0464524D03*
X0352355Y0474524D03*
X0342355Y0474524D03*
X0332355Y0474524D03*
X0332355Y0484524D03*
X0332355Y0494524D03*
X0342355Y0494524D03*
X0342355Y0484524D03*
X0352355Y0484524D03*
X0352355Y0494524D03*
X0352355Y0504524D03*
X0342355Y0504524D03*
X0332355Y0504524D03*
X0332355Y0514524D03*
X0342355Y0514524D03*
X0352355Y0514524D03*
X0352355Y0524524D03*
X0362355Y0524524D03*
X0362355Y0514524D03*
X0362355Y0504524D03*
X0362355Y0494524D03*
X0362355Y0484524D03*
X0362355Y0474524D03*
X0362355Y0464524D03*
X0362355Y0454524D03*
X0362355Y0444524D03*
X0372355Y0444524D03*
X0372355Y0454524D03*
X0372355Y0464524D03*
X0372355Y0474524D03*
X0372355Y0484524D03*
X0372355Y0494524D03*
X0372355Y0504524D03*
X0372355Y0514524D03*
X0372355Y0524524D03*
X0382355Y0524524D03*
X0382355Y0514524D03*
X0382355Y0504524D03*
X0382355Y0494524D03*
X0382355Y0484524D03*
X0382355Y0474524D03*
X0382355Y0464524D03*
X0382355Y0454524D03*
X0382355Y0444524D03*
X0382355Y0434524D03*
X0382355Y0424524D03*
X0382355Y0414524D03*
X0372355Y0414524D03*
X0362355Y0414524D03*
X0362355Y0404524D03*
X0362355Y0394524D03*
X0362355Y0384524D03*
X0372355Y0384524D03*
X0372355Y0394524D03*
X0372355Y0404524D03*
X0382355Y0404524D03*
X0382355Y0394524D03*
X0382355Y0384524D03*
X0392355Y0384524D03*
X0392355Y0394524D03*
X0402355Y0384524D03*
X0412355Y0384524D03*
X0422355Y0384524D03*
X0422355Y0394524D03*
X0422355Y0404524D03*
X0422355Y0414524D03*
X0422355Y0424524D03*
X0412355Y0424524D03*
X0412355Y0414524D03*
X0402355Y0414524D03*
X0392355Y0414524D03*
X0392355Y0424524D03*
X0402355Y0424524D03*
X0402355Y0434524D03*
X0392355Y0434524D03*
X0392355Y0444524D03*
X0402355Y0444524D03*
X0402355Y0454524D03*
X0392355Y0454524D03*
X0392355Y0464524D03*
X0402355Y0464524D03*
X0402355Y0474524D03*
X0392355Y0474524D03*
X0392355Y0484524D03*
X0392355Y0494524D03*
X0402355Y0494524D03*
X0402355Y0484524D03*
X0412355Y0484524D03*
X0412355Y0494524D03*
X0412355Y0504524D03*
X0402355Y0504524D03*
X0392355Y0504524D03*
X0392355Y0514524D03*
X0392355Y0524524D03*
X0402355Y0524524D03*
X0402355Y0514524D03*
X0412355Y0514524D03*
X0412355Y0524524D03*
X0422355Y0524524D03*
X0422355Y0514524D03*
X0422355Y0504524D03*
X0422355Y0494524D03*
X0422355Y0484524D03*
X0422355Y0474524D03*
X0412355Y0474524D03*
X0412355Y0464524D03*
X0412355Y0454524D03*
X0412355Y0444524D03*
X0412355Y0434524D03*
X0422355Y0434524D03*
X0422355Y0444524D03*
X0422355Y0454524D03*
X0422355Y0464524D03*
X0432355Y0464524D03*
X0432355Y0454524D03*
X0432355Y0444524D03*
X0432355Y0434524D03*
X0432355Y0424524D03*
X0432355Y0414524D03*
X0432355Y0404524D03*
X0432355Y0394524D03*
X0432355Y0384524D03*
X0442355Y0384524D03*
X0442355Y0394524D03*
X0442355Y0404524D03*
X0442355Y0414524D03*
X0452355Y0414524D03*
X0452355Y0404524D03*
X0452355Y0394524D03*
X0452355Y0384524D03*
X0462355Y0404524D03*
X0472355Y0404524D03*
X0472355Y0414524D03*
X0462355Y0414524D03*
X0462355Y0424524D03*
X0472355Y0424524D03*
X0472355Y0434524D03*
X0462355Y0434524D03*
X0462355Y0444524D03*
X0472355Y0444524D03*
X0472355Y0454524D03*
X0462355Y0454524D03*
X0462355Y0464524D03*
X0472355Y0464524D03*
X0472355Y0474524D03*
X0462355Y0474524D03*
X0452355Y0474524D03*
X0442355Y0474524D03*
X0432355Y0474524D03*
X0432355Y0484524D03*
X0432355Y0494524D03*
X0432355Y0504524D03*
X0432355Y0514524D03*
X0432355Y0524524D03*
X0442355Y0524524D03*
X0442355Y0514524D03*
X0442355Y0504524D03*
X0442355Y0494524D03*
X0442355Y0484524D03*
X0452355Y0484524D03*
X0452355Y0494524D03*
X0452355Y0504524D03*
X0452355Y0514524D03*
X0452355Y0524524D03*
X0462355Y0524524D03*
X0462355Y0514524D03*
X0472355Y0514524D03*
X0472355Y0504524D03*
X0462355Y0504524D03*
X0462355Y0494524D03*
X0462355Y0484524D03*
X0472355Y0484524D03*
X0472355Y0494524D03*
X0482355Y0494524D03*
X0482355Y0484524D03*
X0482355Y0474524D03*
X0482355Y0464524D03*
X0482355Y0444524D03*
X0482355Y0434524D03*
X0482355Y0424524D03*
X0482355Y0414524D03*
X0482355Y0404524D03*
X0472355Y0364524D03*
X0462355Y0364524D03*
X0462355Y0354524D03*
X0472355Y0354524D03*
X0472355Y0344524D03*
X0462355Y0344524D03*
X0452355Y0364524D03*
X0442355Y0364524D03*
X0432355Y0364524D03*
X0432355Y0354524D03*
X0422355Y0354524D03*
X0422355Y0364524D03*
X0412355Y0364524D03*
X0412355Y0354524D03*
X0402355Y0354524D03*
X0392355Y0354524D03*
X0392355Y0364524D03*
X0402355Y0364524D03*
X0382355Y0364524D03*
X0382355Y0354524D03*
X0382355Y0344524D03*
X0392355Y0344524D03*
X0402355Y0344524D03*
X0412355Y0344524D03*
X0422355Y0344524D03*
X0432355Y0344524D03*
X0432355Y0287524D03*
X0432355Y0277524D03*
X0422355Y0277524D03*
X0422355Y0287524D03*
X0412355Y0287524D03*
X0412355Y0277524D03*
X0402355Y0277524D03*
X0392355Y0277524D03*
X0392355Y0287524D03*
X0402355Y0287524D03*
X0382355Y0287524D03*
X0382355Y0277524D03*
X0372355Y0277524D03*
X0372355Y0287524D03*
X0362355Y0287524D03*
X0362355Y0277524D03*
X0352355Y0277524D03*
X0352355Y0287524D03*
X0342355Y0277524D03*
X0332355Y0277524D03*
X0332355Y0267524D03*
X0342355Y0267524D03*
X0342355Y0257524D03*
X0332355Y0257524D03*
X0332355Y0247524D03*
X0332355Y0237524D03*
X0342355Y0237524D03*
X0342355Y0247524D03*
X0352355Y0247524D03*
X0352355Y0237524D03*
X0352355Y0227524D03*
X0342355Y0227524D03*
X0332355Y0227524D03*
X0332355Y0217524D03*
X0332355Y0207524D03*
X0342355Y0207524D03*
X0342355Y0217524D03*
X0352355Y0217524D03*
X0352355Y0207524D03*
X0352355Y0197524D03*
X0352355Y0187524D03*
X0352355Y0177524D03*
X0352355Y0167524D03*
X0352355Y0157524D03*
X0352355Y0147524D03*
X0352355Y0137524D03*
X0352355Y0127524D03*
X0352355Y0117524D03*
X0352355Y0107524D03*
X0342355Y0112524D03*
X0332355Y0112524D03*
X0332355Y0122524D03*
X0342355Y0122524D03*
X0342355Y0132524D03*
X0332355Y0132524D03*
X0332355Y0142524D03*
X0332355Y0152524D03*
X0342355Y0152524D03*
X0342355Y0142524D03*
X0342355Y0162524D03*
X0332355Y0162524D03*
X0332355Y0172524D03*
X0332355Y0182524D03*
X0342355Y0182524D03*
X0342355Y0172524D03*
X0342355Y0192524D03*
X0332355Y0192524D03*
X0312355Y0192524D03*
X0312355Y0182524D03*
X0312355Y0172524D03*
X0312355Y0162524D03*
X0312355Y0152524D03*
X0312355Y0142524D03*
X0312355Y0132524D03*
X0312355Y0122524D03*
X0312355Y0112524D03*
X0312355Y0102524D03*
X0332355Y0102524D03*
X0342355Y0102524D03*
X0362355Y0127524D03*
X0362355Y0137524D03*
X0362355Y0147524D03*
X0362355Y0157524D03*
X0362355Y0167524D03*
X0362355Y0177524D03*
X0372355Y0177524D03*
X0372355Y0167524D03*
X0372355Y0157524D03*
X0372355Y0147524D03*
X0372355Y0137524D03*
X0372355Y0127524D03*
X0382355Y0127524D03*
X0382355Y0137524D03*
X0382355Y0147524D03*
X0382355Y0157524D03*
X0382355Y0167524D03*
X0382355Y0177524D03*
X0382355Y0187524D03*
X0382355Y0197524D03*
X0382355Y0207524D03*
X0382355Y0217524D03*
X0372355Y0217524D03*
X0372355Y0207524D03*
X0362355Y0207524D03*
X0362355Y0217524D03*
X0362355Y0227524D03*
X0362355Y0237524D03*
X0362355Y0247524D03*
X0362355Y0257524D03*
X0352355Y0257524D03*
X0352355Y0267524D03*
X0362355Y0267524D03*
X0372355Y0267524D03*
X0372355Y0257524D03*
X0372355Y0247524D03*
X0372355Y0237524D03*
X0372355Y0227524D03*
X0382355Y0227524D03*
X0382355Y0237524D03*
X0382355Y0247524D03*
X0382355Y0257524D03*
X0382355Y0267524D03*
X0392355Y0267524D03*
X0402355Y0267524D03*
X0402355Y0257524D03*
X0392355Y0257524D03*
X0392355Y0247524D03*
X0392355Y0237524D03*
X0402355Y0237524D03*
X0402355Y0247524D03*
X0412355Y0247524D03*
X0412355Y0237524D03*
X0412355Y0227524D03*
X0402355Y0227524D03*
X0392355Y0227524D03*
X0392355Y0217524D03*
X0392355Y0207524D03*
X0402355Y0207524D03*
X0402355Y0217524D03*
X0412355Y0217524D03*
X0412355Y0207524D03*
X0412355Y0197524D03*
X0402355Y0197524D03*
X0392355Y0197524D03*
X0392355Y0187524D03*
X0392355Y0177524D03*
X0402355Y0177524D03*
X0402355Y0187524D03*
X0412355Y0187524D03*
X0412355Y0177524D03*
X0422355Y0177524D03*
X0422355Y0187524D03*
X0422355Y0197524D03*
X0422355Y0207524D03*
X0422355Y0217524D03*
X0422355Y0227524D03*
X0422355Y0237524D03*
X0422355Y0247524D03*
X0422355Y0257524D03*
X0412355Y0257524D03*
X0412355Y0267524D03*
X0422355Y0267524D03*
X0432355Y0267524D03*
X0432355Y0257524D03*
X0432355Y0247524D03*
X0432355Y0237524D03*
X0432355Y0227524D03*
X0432355Y0217524D03*
X0432355Y0207524D03*
X0432355Y0197524D03*
X0432355Y0187524D03*
X0432355Y0177524D03*
X0432355Y0167524D03*
X0422355Y0167524D03*
X0422355Y0157524D03*
X0422355Y0147524D03*
X0412355Y0147524D03*
X0402355Y0147524D03*
X0392355Y0147524D03*
X0392355Y0157524D03*
X0392355Y0167524D03*
X0392355Y0137524D03*
X0402355Y0137524D03*
X0402355Y0127524D03*
X0392355Y0127524D03*
X0392355Y0117524D03*
X0392355Y0107524D03*
X0402355Y0107524D03*
X0402355Y0117524D03*
X0412355Y0117524D03*
X0412355Y0107524D03*
X0422355Y0107524D03*
X0422355Y0117524D03*
X0422355Y0127524D03*
X0412355Y0127524D03*
X0412355Y0137524D03*
X0422355Y0137524D03*
X0432355Y0137524D03*
X0432355Y0147524D03*
X0432355Y0157524D03*
X0442355Y0157524D03*
X0442355Y0147524D03*
X0442355Y0137524D03*
X0442355Y0127524D03*
X0432355Y0127524D03*
X0432355Y0117524D03*
X0432355Y0107524D03*
X0452355Y0127524D03*
X0452355Y0137524D03*
X0452355Y0147524D03*
X0452355Y0157524D03*
X0452355Y0167524D03*
X0442355Y0167524D03*
X0442355Y0177524D03*
X0452355Y0177524D03*
X0462355Y0177524D03*
X0462355Y0187524D03*
X0472355Y0187524D03*
X0472355Y0177524D03*
X0472355Y0167524D03*
X0462355Y0167524D03*
X0462355Y0157524D03*
X0462355Y0147524D03*
X0472355Y0147524D03*
X0472355Y0157524D03*
X0482355Y0157524D03*
X0482355Y0147524D03*
X0472355Y0137524D03*
X0462355Y0137524D03*
X0462355Y0127524D03*
X0472355Y0127524D03*
X0472355Y0117524D03*
X0462355Y0117524D03*
X0462355Y0107524D03*
X0472355Y0107524D03*
X0502355Y0137524D03*
X0502355Y0147524D03*
X0502355Y0157524D03*
X0502355Y0167524D03*
X0502355Y0177524D03*
X0502355Y0187524D03*
X0502355Y0197524D03*
X0502355Y0207524D03*
X0502355Y0227524D03*
X0502355Y0237524D03*
X0502355Y0247524D03*
X0502355Y0257524D03*
X0502355Y0267524D03*
X0502355Y0277524D03*
X0482355Y0277524D03*
X0472355Y0277524D03*
X0462355Y0277524D03*
X0462355Y0287524D03*
X0452355Y0287524D03*
X0452355Y0277524D03*
X0442355Y0277524D03*
X0442355Y0287524D03*
X0442355Y0267524D03*
X0442355Y0257524D03*
X0442355Y0247524D03*
X0442355Y0237524D03*
X0442355Y0227524D03*
X0442355Y0217524D03*
X0442355Y0207524D03*
X0452355Y0207524D03*
X0452355Y0217524D03*
X0452355Y0227524D03*
X0452355Y0237524D03*
X0452355Y0247524D03*
X0452355Y0257524D03*
X0452355Y0267524D03*
X0462355Y0267524D03*
X0472355Y0267524D03*
X0472355Y0257524D03*
X0462355Y0257524D03*
X0462355Y0247524D03*
X0462355Y0237524D03*
X0472355Y0237524D03*
X0472355Y0247524D03*
X0482355Y0247524D03*
X0482355Y0237524D03*
X0482355Y0227524D03*
X0472355Y0227524D03*
X0462355Y0227524D03*
X0462355Y0217524D03*
X0462355Y0207524D03*
X0472355Y0207524D03*
X0472355Y0217524D03*
X0482355Y0207524D03*
X0482355Y0197524D03*
X0472355Y0197524D03*
X0462355Y0197524D03*
X0482355Y0187524D03*
X0482355Y0177524D03*
X0482355Y0167524D03*
X0482355Y0257524D03*
X0482355Y0267524D03*
X0372355Y0364524D03*
X0362355Y0364524D03*
X0352355Y0364524D03*
X0352355Y0354524D03*
X0352355Y0344524D03*
X0342355Y0349524D03*
X0332355Y0349524D03*
X0332355Y0359524D03*
X0342355Y0359524D03*
X0342355Y0369524D03*
X0332355Y0369524D03*
X0332355Y0379524D03*
X0342355Y0379524D03*
X0342355Y0389524D03*
X0332355Y0389524D03*
X0332355Y0399524D03*
X0342355Y0399524D03*
X0342355Y0409524D03*
X0332355Y0409524D03*
X0332355Y0419524D03*
X0332355Y0429524D03*
X0342355Y0429524D03*
X0342355Y0419524D03*
X0312355Y0419524D03*
X0312355Y0429524D03*
X0312355Y0444524D03*
X0312355Y0454524D03*
X0312355Y0464524D03*
X0312355Y0474524D03*
X0312355Y0484524D03*
X0312355Y0494524D03*
X0312355Y0504524D03*
X0312355Y0514524D03*
X0290355Y0514524D03*
X0290355Y0504524D03*
X0290355Y0494524D03*
X0290355Y0484524D03*
X0290355Y0474524D03*
X0290355Y0464524D03*
X0290355Y0444524D03*
X0290355Y0434524D03*
X0290355Y0424524D03*
X0290355Y0414524D03*
X0290355Y0404524D03*
X0290355Y0394524D03*
X0290355Y0384524D03*
X0290355Y0374524D03*
X0270355Y0384524D03*
X0270355Y0394524D03*
X0260355Y0394524D03*
X0250355Y0394524D03*
X0250355Y0384524D03*
X0260355Y0384524D03*
X0260355Y0374524D03*
X0250355Y0374524D03*
X0240355Y0374524D03*
X0230355Y0374524D03*
X0220355Y0374524D03*
X0210355Y0374524D03*
X0200355Y0374524D03*
X0190355Y0374524D03*
X0180355Y0374524D03*
X0170355Y0374524D03*
X0160355Y0374524D03*
X0150355Y0374524D03*
X0140355Y0374524D03*
X0140355Y0384524D03*
X0140355Y0394524D03*
X0140355Y0404524D03*
X0140355Y0414524D03*
X0140355Y0424524D03*
X0140355Y0434524D03*
X0140355Y0444524D03*
X0130355Y0444524D03*
X0120355Y0444524D03*
X0120355Y0454524D03*
X0120355Y0464524D03*
X0130355Y0464524D03*
X0130355Y0454524D03*
X0140355Y0454524D03*
X0140355Y0464524D03*
X0140355Y0474524D03*
X0130355Y0474524D03*
X0120355Y0474524D03*
X0120355Y0484524D03*
X0120355Y0494524D03*
X0130355Y0494524D03*
X0130355Y0484524D03*
X0140355Y0484524D03*
X0140355Y0494524D03*
X0140355Y0504524D03*
X0130355Y0504524D03*
X0120355Y0504524D03*
X0120355Y0514524D03*
X0130355Y0514524D03*
X0140355Y0514524D03*
X0140355Y0524524D03*
X0150355Y0524524D03*
X0150355Y0514524D03*
X0150355Y0504524D03*
X0150355Y0494524D03*
X0150355Y0484524D03*
X0150355Y0474524D03*
X0150355Y0464524D03*
X0150355Y0454524D03*
X0150355Y0444524D03*
X0160355Y0444524D03*
X0160355Y0454524D03*
X0160355Y0464524D03*
X0160355Y0474524D03*
X0160355Y0484524D03*
X0160355Y0494524D03*
X0160355Y0504524D03*
X0160355Y0514524D03*
X0160355Y0524524D03*
X0170355Y0524524D03*
X0170355Y0514524D03*
X0170355Y0504524D03*
X0170355Y0494524D03*
X0170355Y0484524D03*
X0170355Y0474524D03*
X0170355Y0464524D03*
X0170355Y0454524D03*
X0170355Y0444524D03*
X0170355Y0434524D03*
X0170355Y0424524D03*
X0170355Y0414524D03*
X0160355Y0414524D03*
X0150355Y0414524D03*
X0150355Y0404524D03*
X0150355Y0394524D03*
X0150355Y0384524D03*
X0160355Y0384524D03*
X0160355Y0394524D03*
X0160355Y0404524D03*
X0170355Y0404524D03*
X0170355Y0394524D03*
X0170355Y0384524D03*
X0180355Y0384524D03*
X0180355Y0394524D03*
X0180355Y0404524D03*
X0180355Y0414524D03*
X0180355Y0424524D03*
X0180355Y0434524D03*
X0180355Y0444524D03*
X0180355Y0454524D03*
X0180355Y0464524D03*
X0180355Y0474524D03*
X0180355Y0484524D03*
X0180355Y0494524D03*
X0180355Y0504524D03*
X0180355Y0514524D03*
X0180355Y0524524D03*
X0190355Y0524524D03*
X0190355Y0514524D03*
X0200355Y0514524D03*
X0200355Y0524524D03*
X0210355Y0524524D03*
X0210355Y0514524D03*
X0210355Y0504524D03*
X0200355Y0504524D03*
X0190355Y0504524D03*
X0190355Y0494524D03*
X0190355Y0484524D03*
X0200355Y0484524D03*
X0200355Y0494524D03*
X0210355Y0494524D03*
X0210355Y0484524D03*
X0210355Y0474524D03*
X0200355Y0474524D03*
X0190355Y0474524D03*
X0190355Y0464524D03*
X0190355Y0454524D03*
X0200355Y0454524D03*
X0200355Y0464524D03*
X0210355Y0464524D03*
X0210355Y0454524D03*
X0210355Y0444524D03*
X0200355Y0444524D03*
X0190355Y0444524D03*
X0190355Y0434524D03*
X0200355Y0434524D03*
X0200355Y0424524D03*
X0190355Y0424524D03*
X0190355Y0414524D03*
X0200355Y0414524D03*
X0210355Y0414524D03*
X0210355Y0424524D03*
X0210355Y0434524D03*
X0220355Y0434524D03*
X0220355Y0444524D03*
X0220355Y0454524D03*
X0220355Y0464524D03*
X0220355Y0474524D03*
X0220355Y0484524D03*
X0220355Y0494524D03*
X0220355Y0504524D03*
X0220355Y0514524D03*
X0220355Y0524524D03*
X0230355Y0524524D03*
X0230355Y0514524D03*
X0230355Y0504524D03*
X0230355Y0494524D03*
X0230355Y0484524D03*
X0230355Y0474524D03*
X0230355Y0464524D03*
X0230355Y0454524D03*
X0230355Y0444524D03*
X0240355Y0444524D03*
X0240355Y0454524D03*
X0240355Y0464524D03*
X0240355Y0474524D03*
X0240355Y0484524D03*
X0240355Y0494524D03*
X0240355Y0504524D03*
X0240355Y0514524D03*
X0240355Y0524524D03*
X0250355Y0524524D03*
X0250355Y0514524D03*
X0260355Y0514524D03*
X0260355Y0504524D03*
X0250355Y0504524D03*
X0250355Y0494524D03*
X0250355Y0484524D03*
X0260355Y0484524D03*
X0260355Y0494524D03*
X0270355Y0494524D03*
X0270355Y0484524D03*
X0270355Y0474524D03*
X0260355Y0474524D03*
X0250355Y0474524D03*
X0250355Y0464524D03*
X0250355Y0454524D03*
X0260355Y0454524D03*
X0260355Y0464524D03*
X0270355Y0464524D03*
X0270355Y0444524D03*
X0260355Y0444524D03*
X0250355Y0444524D03*
X0250355Y0434524D03*
X0260355Y0434524D03*
X0260355Y0424524D03*
X0250355Y0424524D03*
X0250355Y0414524D03*
X0260355Y0414524D03*
X0260355Y0404524D03*
X0250355Y0404524D03*
X0240355Y0404524D03*
X0230355Y0404524D03*
X0220355Y0404524D03*
X0210355Y0404524D03*
X0210355Y0394524D03*
X0210355Y0384524D03*
X0200355Y0384524D03*
X0190355Y0384524D03*
X0190355Y0364524D03*
X0190355Y0354524D03*
X0200355Y0354524D03*
X0200355Y0364524D03*
X0210355Y0364524D03*
X0210355Y0354524D03*
X0210355Y0344524D03*
X0200355Y0344524D03*
X0190355Y0344524D03*
X0180355Y0344524D03*
X0170355Y0344524D03*
X0170355Y0354524D03*
X0170355Y0364524D03*
X0160355Y0364524D03*
X0150355Y0364524D03*
X0140355Y0364524D03*
X0140355Y0354524D03*
X0140355Y0344524D03*
X0130355Y0349524D03*
X0120355Y0349524D03*
X0120355Y0359524D03*
X0130355Y0359524D03*
X0130355Y0369524D03*
X0120355Y0369524D03*
X0120355Y0379524D03*
X0130355Y0379524D03*
X0130355Y0389524D03*
X0120355Y0389524D03*
X0120355Y0399524D03*
X0130355Y0399524D03*
X0130355Y0409524D03*
X0120355Y0409524D03*
X0120355Y0419524D03*
X0120355Y0429524D03*
X0130355Y0429524D03*
X0130355Y0419524D03*
X0100355Y0419524D03*
X0100355Y0429524D03*
X0100355Y0444524D03*
X0100355Y0454524D03*
X0100355Y0464524D03*
X0100355Y0474524D03*
X0100355Y0484524D03*
X0100355Y0494524D03*
X0100355Y0504524D03*
X0100355Y0514524D03*
X0100355Y0409524D03*
X0100355Y0399524D03*
X0100355Y0389524D03*
X0100355Y0379524D03*
X0100355Y0369524D03*
X0100355Y0359524D03*
X0100355Y0349524D03*
X0100355Y0339524D03*
X0120355Y0339524D03*
X0130355Y0339524D03*
X0140355Y0287524D03*
X0140355Y0277524D03*
X0130355Y0277524D03*
X0120355Y0277524D03*
X0120355Y0267524D03*
X0130355Y0267524D03*
X0130355Y0257524D03*
X0120355Y0257524D03*
X0120355Y0247524D03*
X0120355Y0237524D03*
X0130355Y0237524D03*
X0130355Y0247524D03*
X0140355Y0247524D03*
X0140355Y0237524D03*
X0140355Y0227524D03*
X0130355Y0227524D03*
X0120355Y0227524D03*
X0120355Y0217524D03*
X0120355Y0207524D03*
X0130355Y0207524D03*
X0130355Y0217524D03*
X0140355Y0217524D03*
X0140355Y0207524D03*
X0140355Y0197524D03*
X0140355Y0187524D03*
X0140355Y0177524D03*
X0140355Y0167524D03*
X0140355Y0157524D03*
X0140355Y0147524D03*
X0140355Y0137524D03*
X0140355Y0127524D03*
X0140355Y0117524D03*
X0140355Y0107524D03*
X0130355Y0112524D03*
X0120355Y0112524D03*
X0120355Y0122524D03*
X0130355Y0122524D03*
X0130355Y0132524D03*
X0120355Y0132524D03*
X0120355Y0142524D03*
X0120355Y0152524D03*
X0130355Y0152524D03*
X0130355Y0142524D03*
X0130355Y0162524D03*
X0120355Y0162524D03*
X0120355Y0172524D03*
X0120355Y0182524D03*
X0130355Y0182524D03*
X0130355Y0172524D03*
X0130355Y0192524D03*
X0120355Y0192524D03*
X0100355Y0192524D03*
X0100355Y0182524D03*
X0100355Y0172524D03*
X0100355Y0162524D03*
X0100355Y0152524D03*
X0100355Y0142524D03*
X0100355Y0132524D03*
X0100355Y0122524D03*
X0100355Y0112524D03*
X0100355Y0102524D03*
X0120355Y0102524D03*
X0130355Y0102524D03*
X0150355Y0127524D03*
X0150355Y0137524D03*
X0150355Y0147524D03*
X0150355Y0157524D03*
X0150355Y0167524D03*
X0150355Y0177524D03*
X0160355Y0177524D03*
X0160355Y0167524D03*
X0160355Y0157524D03*
X0160355Y0147524D03*
X0160355Y0137524D03*
X0160355Y0127524D03*
X0170355Y0127524D03*
X0170355Y0137524D03*
X0170355Y0147524D03*
X0170355Y0157524D03*
X0170355Y0167524D03*
X0170355Y0177524D03*
X0170355Y0187524D03*
X0170355Y0197524D03*
X0170355Y0207524D03*
X0170355Y0217524D03*
X0160355Y0217524D03*
X0160355Y0207524D03*
X0150355Y0207524D03*
X0150355Y0217524D03*
X0150355Y0227524D03*
X0150355Y0237524D03*
X0150355Y0247524D03*
X0150355Y0257524D03*
X0140355Y0257524D03*
X0140355Y0267524D03*
X0150355Y0267524D03*
X0150355Y0277524D03*
X0150355Y0287524D03*
X0160355Y0287524D03*
X0160355Y0277524D03*
X0160355Y0267524D03*
X0160355Y0257524D03*
X0160355Y0247524D03*
X0160355Y0237524D03*
X0160355Y0227524D03*
X0170355Y0227524D03*
X0170355Y0237524D03*
X0170355Y0247524D03*
X0170355Y0257524D03*
X0170355Y0267524D03*
X0170355Y0277524D03*
X0170355Y0287524D03*
X0180355Y0287524D03*
X0180355Y0277524D03*
X0180355Y0267524D03*
X0180355Y0257524D03*
X0180355Y0247524D03*
X0180355Y0237524D03*
X0180355Y0227524D03*
X0180355Y0217524D03*
X0180355Y0207524D03*
X0180355Y0197524D03*
X0180355Y0187524D03*
X0180355Y0177524D03*
X0180355Y0167524D03*
X0180355Y0157524D03*
X0180355Y0147524D03*
X0180355Y0137524D03*
X0180355Y0127524D03*
X0180355Y0117524D03*
X0180355Y0107524D03*
X0170355Y0107524D03*
X0170355Y0117524D03*
X0190355Y0117524D03*
X0190355Y0107524D03*
X0200355Y0107524D03*
X0200355Y0117524D03*
X0200355Y0127524D03*
X0190355Y0127524D03*
X0190355Y0137524D03*
X0200355Y0137524D03*
X0200355Y0147524D03*
X0190355Y0147524D03*
X0210355Y0147524D03*
X0210355Y0157524D03*
X0210355Y0167524D03*
X0210355Y0177524D03*
X0210355Y0187524D03*
X0200355Y0187524D03*
X0190355Y0187524D03*
X0190355Y0177524D03*
X0200355Y0177524D03*
X0200355Y0197524D03*
X0190355Y0197524D03*
X0190355Y0207524D03*
X0190355Y0217524D03*
X0200355Y0217524D03*
X0200355Y0207524D03*
X0210355Y0207524D03*
X0210355Y0217524D03*
X0210355Y0227524D03*
X0200355Y0227524D03*
X0190355Y0227524D03*
X0190355Y0237524D03*
X0190355Y0247524D03*
X0200355Y0247524D03*
X0200355Y0237524D03*
X0210355Y0237524D03*
X0210355Y0247524D03*
X0210355Y0257524D03*
X0200355Y0257524D03*
X0190355Y0257524D03*
X0190355Y0267524D03*
X0200355Y0267524D03*
X0200355Y0277524D03*
X0190355Y0277524D03*
X0190355Y0287524D03*
X0200355Y0287524D03*
X0210355Y0287524D03*
X0210355Y0277524D03*
X0210355Y0267524D03*
X0220355Y0267524D03*
X0220355Y0277524D03*
X0220355Y0287524D03*
X0230355Y0287524D03*
X0230355Y0277524D03*
X0230355Y0267524D03*
X0230355Y0257524D03*
X0220355Y0257524D03*
X0220355Y0247524D03*
X0220355Y0237524D03*
X0220355Y0227524D03*
X0220355Y0217524D03*
X0220355Y0207524D03*
X0220355Y0197524D03*
X0210355Y0197524D03*
X0220355Y0187524D03*
X0220355Y0177524D03*
X0220355Y0167524D03*
X0220355Y0157524D03*
X0220355Y0147524D03*
X0220355Y0137524D03*
X0210355Y0137524D03*
X0210355Y0127524D03*
X0210355Y0117524D03*
X0210355Y0107524D03*
X0220355Y0107524D03*
X0220355Y0117524D03*
X0220355Y0127524D03*
X0230355Y0127524D03*
X0230355Y0137524D03*
X0230355Y0147524D03*
X0230355Y0157524D03*
X0230355Y0167524D03*
X0230355Y0177524D03*
X0240355Y0177524D03*
X0240355Y0167524D03*
X0240355Y0157524D03*
X0240355Y0147524D03*
X0240355Y0137524D03*
X0240355Y0127524D03*
X0250355Y0127524D03*
X0260355Y0127524D03*
X0260355Y0137524D03*
X0250355Y0137524D03*
X0250355Y0147524D03*
X0250355Y0157524D03*
X0260355Y0157524D03*
X0260355Y0147524D03*
X0270355Y0147524D03*
X0270355Y0157524D03*
X0270355Y0167524D03*
X0260355Y0167524D03*
X0250355Y0167524D03*
X0250355Y0177524D03*
X0250355Y0187524D03*
X0260355Y0187524D03*
X0260355Y0177524D03*
X0270355Y0177524D03*
X0270355Y0187524D03*
X0270355Y0197524D03*
X0260355Y0197524D03*
X0250355Y0197524D03*
X0250355Y0207524D03*
X0250355Y0217524D03*
X0260355Y0217524D03*
X0260355Y0207524D03*
X0270355Y0207524D03*
X0270355Y0227524D03*
X0260355Y0227524D03*
X0250355Y0227524D03*
X0240355Y0227524D03*
X0230355Y0227524D03*
X0230355Y0237524D03*
X0230355Y0247524D03*
X0240355Y0247524D03*
X0240355Y0237524D03*
X0250355Y0237524D03*
X0250355Y0247524D03*
X0260355Y0247524D03*
X0260355Y0237524D03*
X0270355Y0237524D03*
X0270355Y0247524D03*
X0270355Y0257524D03*
X0260355Y0257524D03*
X0250355Y0257524D03*
X0240355Y0257524D03*
X0240355Y0267524D03*
X0240355Y0277524D03*
X0240355Y0287524D03*
X0250355Y0287524D03*
X0250355Y0277524D03*
X0260355Y0277524D03*
X0260355Y0267524D03*
X0250355Y0267524D03*
X0270355Y0267524D03*
X0270355Y0277524D03*
X0290355Y0277524D03*
X0290355Y0267524D03*
X0290355Y0257524D03*
X0290355Y0247524D03*
X0290355Y0237524D03*
X0290355Y0227524D03*
X0290355Y0207524D03*
X0290355Y0197524D03*
X0290355Y0187524D03*
X0290355Y0177524D03*
X0290355Y0167524D03*
X0290355Y0157524D03*
X0290355Y0147524D03*
X0290355Y0137524D03*
X0260355Y0117524D03*
X0250355Y0117524D03*
X0250355Y0107524D03*
X0260355Y0107524D03*
X0240355Y0207524D03*
X0240355Y0217524D03*
X0230355Y0217524D03*
X0230355Y0207524D03*
X0312355Y0207524D03*
X0312355Y0217524D03*
X0312355Y0227524D03*
X0312355Y0237524D03*
X0312355Y0247524D03*
X0312355Y0257524D03*
X0312355Y0267524D03*
X0312355Y0277524D03*
X0312355Y0339524D03*
X0312355Y0349524D03*
X0312355Y0359524D03*
X0312355Y0369524D03*
X0312355Y0379524D03*
X0312355Y0389524D03*
X0312355Y0399524D03*
X0312355Y0409524D03*
X0270355Y0414524D03*
X0270355Y0424524D03*
X0270355Y0434524D03*
X0270355Y0404524D03*
X0240355Y0414524D03*
X0230355Y0414524D03*
X0220355Y0414524D03*
X0220355Y0424524D03*
X0220355Y0394524D03*
X0220355Y0384524D03*
X0230355Y0384524D03*
X0230355Y0394524D03*
X0240355Y0394524D03*
X0240355Y0384524D03*
X0240355Y0364524D03*
X0230355Y0364524D03*
X0220355Y0364524D03*
X0220355Y0354524D03*
X0220355Y0344524D03*
X0250355Y0344524D03*
X0260355Y0344524D03*
X0260355Y0354524D03*
X0250355Y0354524D03*
X0250355Y0364524D03*
X0260355Y0364524D03*
X0332355Y0339524D03*
X0342355Y0339524D03*
X0392355Y0404524D03*
X0442355Y0444524D03*
X0442355Y0454524D03*
X0442355Y0464524D03*
X0452355Y0464524D03*
X0452355Y0454524D03*
X0452355Y0444524D03*
X0482355Y0504524D03*
X0482355Y0514524D03*
X0270355Y0514524D03*
X0270355Y0504524D03*
X0180355Y0364524D03*
X0180355Y0354524D03*
X0100355Y0277524D03*
X0100355Y0267524D03*
X0100355Y0257524D03*
X0100355Y0247524D03*
X0100355Y0237524D03*
X0100355Y0227524D03*
X0100355Y0217524D03*
X0100355Y0207524D03*
X0382355Y0117524D03*
X0382355Y0107524D03*
D12*
X0095255Y0097524D02*
X0095255Y0074553D01*
X0102385Y0067424D01*
X0288326Y0067424D01*
X0295455Y0074553D01*
X0295455Y0097524D01*
X0280967Y0097524D01*
X0271267Y0087824D01*
X0250252Y0087824D01*
X0249696Y0087268D01*
X0248502Y0086774D01*
X0247209Y0086774D01*
X0246014Y0087268D01*
X0245459Y0087824D01*
X0220252Y0087824D01*
X0219696Y0087268D01*
X0218502Y0086774D01*
X0217209Y0086774D01*
X0216014Y0087268D01*
X0215459Y0087824D01*
X0190252Y0087824D01*
X0189696Y0087268D01*
X0188502Y0086774D01*
X0187209Y0086774D01*
X0186014Y0087268D01*
X0185459Y0087824D01*
X0160252Y0087824D01*
X0159696Y0087268D01*
X0158502Y0086774D01*
X0157209Y0086774D01*
X0156014Y0087268D01*
X0155100Y0088183D01*
X0154605Y0089377D01*
X0154605Y0090670D01*
X0155100Y0091865D01*
X0156014Y0092779D01*
X0157209Y0093274D01*
X0158502Y0093274D01*
X0159696Y0092779D01*
X0160252Y0092224D01*
X0185459Y0092224D01*
X0186014Y0092779D01*
X0187209Y0093274D01*
X0188502Y0093274D01*
X0189696Y0092779D01*
X0190252Y0092224D01*
X0215459Y0092224D01*
X0216014Y0092779D01*
X0217209Y0093274D01*
X0218502Y0093274D01*
X0219696Y0092779D01*
X0220252Y0092224D01*
X0245459Y0092224D01*
X0246014Y0092779D01*
X0247209Y0093274D01*
X0248502Y0093274D01*
X0249696Y0092779D01*
X0250252Y0092224D01*
X0269444Y0092224D01*
X0274744Y0097524D01*
X0122395Y0097524D01*
X0121430Y0097124D01*
X0119281Y0097124D01*
X0118316Y0097524D01*
X0102395Y0097524D01*
X0101430Y0097124D01*
X0099281Y0097124D01*
X0098316Y0097524D01*
X0095255Y0097524D01*
X0095255Y0097472D02*
X0098441Y0097472D01*
X0095255Y0096473D02*
X0273694Y0096473D01*
X0274692Y0097472D02*
X0122269Y0097472D01*
X0118441Y0097472D02*
X0102269Y0097472D01*
X0100355Y0102524D02*
X0120355Y0102524D01*
X0120355Y0112524D02*
X0100355Y0112524D01*
X0100355Y0122524D02*
X0120355Y0122524D01*
X0120355Y0132524D02*
X0100355Y0132524D01*
X0100355Y0142524D02*
X0120355Y0142524D01*
X0120355Y0152524D02*
X0100355Y0152524D01*
X0100355Y0162524D02*
X0120355Y0162524D01*
X0120355Y0172524D02*
X0100355Y0172524D01*
X0100355Y0182524D02*
X0120355Y0182524D01*
X0120355Y0192524D02*
X0100355Y0192524D01*
X0100355Y0207524D02*
X0120355Y0207524D01*
X0120355Y0217524D02*
X0100355Y0217524D01*
X0100355Y0227524D02*
X0120355Y0227524D01*
X0120355Y0237524D02*
X0100355Y0237524D01*
X0100355Y0247524D02*
X0120355Y0247524D01*
X0120355Y0257524D02*
X0100355Y0257524D01*
X0100355Y0267524D02*
X0120355Y0267524D01*
X0130355Y0272524D02*
X0185355Y0272524D01*
X0187855Y0270024D01*
X0190355Y0270024D01*
X0200355Y0267524D02*
X0205355Y0272524D01*
X0260355Y0272524D01*
X0270355Y0277524D02*
X0290355Y0277524D01*
X0294355Y0277524D01*
X0297355Y0274524D01*
X0297355Y0122524D01*
X0291855Y0117024D01*
X0282855Y0117024D01*
X0282855Y0102524D02*
X0270355Y0090024D01*
X0247855Y0090024D01*
X0217855Y0090024D01*
X0187855Y0090024D01*
X0157855Y0090024D01*
X0155715Y0092479D02*
X0095255Y0092479D01*
X0095255Y0093477D02*
X0270698Y0093477D01*
X0269700Y0092479D02*
X0249996Y0092479D01*
X0245715Y0092479D02*
X0219996Y0092479D01*
X0215715Y0092479D02*
X0189996Y0092479D01*
X0185715Y0092479D02*
X0159996Y0092479D01*
X0159914Y0087486D02*
X0185796Y0087486D01*
X0189914Y0087486D02*
X0215796Y0087486D01*
X0219914Y0087486D02*
X0245796Y0087486D01*
X0249914Y0087486D02*
X0295455Y0087486D01*
X0295455Y0086488D02*
X0095255Y0086488D01*
X0095255Y0087486D02*
X0155796Y0087486D01*
X0154975Y0088485D02*
X0095255Y0088485D01*
X0095255Y0089483D02*
X0154605Y0089483D01*
X0154605Y0090482D02*
X0095255Y0090482D01*
X0095255Y0091480D02*
X0154941Y0091480D01*
X0102293Y0067516D02*
X0288418Y0067516D01*
X0289417Y0068515D02*
X0101294Y0068515D01*
X0100296Y0069513D02*
X0290415Y0069513D01*
X0291414Y0070512D02*
X0099297Y0070512D01*
X0098298Y0071510D02*
X0292412Y0071510D01*
X0293411Y0072509D02*
X0097300Y0072509D01*
X0096301Y0073507D02*
X0294409Y0073507D01*
X0295408Y0074506D02*
X0095303Y0074506D01*
X0095255Y0075504D02*
X0295455Y0075504D01*
X0295455Y0076503D02*
X0095255Y0076503D01*
X0095255Y0077501D02*
X0295455Y0077501D01*
X0295455Y0078500D02*
X0095255Y0078500D01*
X0095255Y0079498D02*
X0295455Y0079498D01*
X0295455Y0080497D02*
X0095255Y0080497D01*
X0095255Y0081495D02*
X0295455Y0081495D01*
X0295455Y0082494D02*
X0095255Y0082494D01*
X0095255Y0083492D02*
X0295455Y0083492D01*
X0295455Y0084491D02*
X0095255Y0084491D01*
X0095255Y0085489D02*
X0295455Y0085489D01*
X0295455Y0088485D02*
X0271928Y0088485D01*
X0272927Y0089483D02*
X0295455Y0089483D01*
X0295455Y0090482D02*
X0273925Y0090482D01*
X0274924Y0091480D02*
X0295455Y0091480D01*
X0295455Y0092479D02*
X0275922Y0092479D01*
X0276921Y0093477D02*
X0295455Y0093477D01*
X0295455Y0094476D02*
X0277919Y0094476D01*
X0278918Y0095474D02*
X0295455Y0095474D01*
X0295455Y0096473D02*
X0279916Y0096473D01*
X0280915Y0097472D02*
X0295455Y0097472D01*
X0307255Y0097472D02*
X0310441Y0097472D01*
X0310316Y0097524D02*
X0311281Y0097124D01*
X0313430Y0097124D01*
X0314395Y0097524D01*
X0330316Y0097524D01*
X0331281Y0097124D01*
X0333430Y0097124D01*
X0334395Y0097524D01*
X0486744Y0097524D01*
X0481444Y0092224D01*
X0462252Y0092224D01*
X0461696Y0092779D01*
X0460502Y0093274D01*
X0459209Y0093274D01*
X0458014Y0092779D01*
X0457459Y0092224D01*
X0432252Y0092224D01*
X0431696Y0092779D01*
X0430502Y0093274D01*
X0429209Y0093274D01*
X0428014Y0092779D01*
X0427459Y0092224D01*
X0402252Y0092224D01*
X0401696Y0092779D01*
X0400502Y0093274D01*
X0399209Y0093274D01*
X0398014Y0092779D01*
X0397459Y0092224D01*
X0372252Y0092224D01*
X0371696Y0092779D01*
X0370502Y0093274D01*
X0369209Y0093274D01*
X0368014Y0092779D01*
X0367100Y0091865D01*
X0366605Y0090670D01*
X0366605Y0089377D01*
X0367100Y0088183D01*
X0368014Y0087268D01*
X0369209Y0086774D01*
X0370502Y0086774D01*
X0371696Y0087268D01*
X0372252Y0087824D01*
X0397459Y0087824D01*
X0398014Y0087268D01*
X0399209Y0086774D01*
X0400502Y0086774D01*
X0401696Y0087268D01*
X0402252Y0087824D01*
X0427459Y0087824D01*
X0428014Y0087268D01*
X0429209Y0086774D01*
X0430502Y0086774D01*
X0431696Y0087268D01*
X0432252Y0087824D01*
X0457459Y0087824D01*
X0458014Y0087268D01*
X0459209Y0086774D01*
X0460502Y0086774D01*
X0461696Y0087268D01*
X0462252Y0087824D01*
X0483267Y0087824D01*
X0492967Y0097524D01*
X0507455Y0097524D01*
X0507455Y0074553D01*
X0500326Y0067424D01*
X0314385Y0067424D01*
X0307255Y0074553D01*
X0307255Y0097524D01*
X0310316Y0097524D01*
X0307255Y0096473D02*
X0485694Y0096473D01*
X0486692Y0097472D02*
X0334269Y0097472D01*
X0330441Y0097472D02*
X0314269Y0097472D01*
X0312355Y0102524D02*
X0332355Y0102524D01*
X0332355Y0112524D02*
X0312355Y0112524D01*
X0312355Y0122524D02*
X0332355Y0122524D01*
X0332355Y0132524D02*
X0312355Y0132524D01*
X0312355Y0142524D02*
X0332355Y0142524D01*
X0332355Y0152524D02*
X0312355Y0152524D01*
X0312355Y0162524D02*
X0332355Y0162524D01*
X0332355Y0172524D02*
X0312355Y0172524D01*
X0312355Y0182524D02*
X0332355Y0182524D01*
X0332355Y0192524D02*
X0312355Y0192524D01*
X0312355Y0207524D02*
X0332355Y0207524D01*
X0332355Y0217524D02*
X0312355Y0217524D01*
X0312355Y0227524D02*
X0332355Y0227524D01*
X0332355Y0237524D02*
X0312355Y0237524D01*
X0312355Y0247524D02*
X0332355Y0247524D01*
X0332355Y0257524D02*
X0312355Y0257524D01*
X0312355Y0267524D02*
X0332355Y0267524D01*
X0342355Y0272524D02*
X0397355Y0272524D01*
X0399855Y0270024D01*
X0402355Y0270024D01*
X0412355Y0267524D02*
X0417355Y0272524D01*
X0472355Y0272524D01*
X0482355Y0277524D02*
X0502355Y0277524D01*
X0506355Y0277524D01*
X0509355Y0274524D01*
X0509355Y0122524D01*
X0503855Y0117024D01*
X0494855Y0117024D01*
X0494855Y0102524D02*
X0482355Y0090024D01*
X0459855Y0090024D01*
X0429855Y0090024D01*
X0399855Y0090024D01*
X0369855Y0090024D01*
X0367715Y0092479D02*
X0307255Y0092479D01*
X0307255Y0093477D02*
X0482698Y0093477D01*
X0481700Y0092479D02*
X0461996Y0092479D01*
X0457715Y0092479D02*
X0431996Y0092479D01*
X0427715Y0092479D02*
X0401996Y0092479D01*
X0397715Y0092479D02*
X0371996Y0092479D01*
X0371914Y0087486D02*
X0397796Y0087486D01*
X0401914Y0087486D02*
X0427796Y0087486D01*
X0431914Y0087486D02*
X0457796Y0087486D01*
X0461914Y0087486D02*
X0507455Y0087486D01*
X0507455Y0086488D02*
X0307255Y0086488D01*
X0307255Y0087486D02*
X0367796Y0087486D01*
X0366975Y0088485D02*
X0307255Y0088485D01*
X0307255Y0089483D02*
X0366605Y0089483D01*
X0366605Y0090482D02*
X0307255Y0090482D01*
X0307255Y0091480D02*
X0366941Y0091480D01*
X0314293Y0067516D02*
X0500418Y0067516D01*
X0501417Y0068515D02*
X0313294Y0068515D01*
X0312296Y0069513D02*
X0502415Y0069513D01*
X0503414Y0070512D02*
X0311297Y0070512D01*
X0310298Y0071510D02*
X0504412Y0071510D01*
X0505411Y0072509D02*
X0309300Y0072509D01*
X0308301Y0073507D02*
X0506409Y0073507D01*
X0507408Y0074506D02*
X0307303Y0074506D01*
X0307255Y0075504D02*
X0507455Y0075504D01*
X0507455Y0076503D02*
X0307255Y0076503D01*
X0307255Y0077501D02*
X0507455Y0077501D01*
X0507455Y0078500D02*
X0307255Y0078500D01*
X0307255Y0079498D02*
X0507455Y0079498D01*
X0507455Y0080497D02*
X0307255Y0080497D01*
X0307255Y0081495D02*
X0507455Y0081495D01*
X0507455Y0082494D02*
X0307255Y0082494D01*
X0307255Y0083492D02*
X0507455Y0083492D01*
X0507455Y0084491D02*
X0307255Y0084491D01*
X0307255Y0085489D02*
X0507455Y0085489D01*
X0507455Y0088485D02*
X0483928Y0088485D01*
X0484927Y0089483D02*
X0507455Y0089483D01*
X0507455Y0090482D02*
X0485925Y0090482D01*
X0486924Y0091480D02*
X0507455Y0091480D01*
X0507455Y0092479D02*
X0487922Y0092479D01*
X0488921Y0093477D02*
X0507455Y0093477D01*
X0507455Y0094476D02*
X0489919Y0094476D01*
X0490918Y0095474D02*
X0507455Y0095474D01*
X0507455Y0096473D02*
X0491916Y0096473D01*
X0492915Y0097472D02*
X0507455Y0097472D01*
X0484695Y0095474D02*
X0307255Y0095474D01*
X0307255Y0094476D02*
X0483697Y0094476D01*
X0482355Y0147524D02*
X0502355Y0147524D01*
X0502355Y0157524D02*
X0482355Y0157524D01*
X0482355Y0167524D02*
X0502355Y0167524D01*
X0502355Y0177524D02*
X0482355Y0177524D01*
X0482355Y0187524D02*
X0502355Y0187524D01*
X0502355Y0197524D02*
X0482355Y0197524D01*
X0482355Y0207524D02*
X0502355Y0207524D01*
X0502355Y0227524D02*
X0482355Y0227524D01*
X0482355Y0237524D02*
X0502355Y0237524D01*
X0502355Y0247524D02*
X0482355Y0247524D01*
X0482355Y0257524D02*
X0502355Y0257524D01*
X0502355Y0267524D02*
X0482355Y0267524D01*
X0500326Y0304424D02*
X0314385Y0304424D01*
X0307255Y0311553D01*
X0307255Y0334524D01*
X0310316Y0334524D01*
X0311281Y0334124D01*
X0313430Y0334124D01*
X0314395Y0334524D01*
X0330316Y0334524D01*
X0331281Y0334124D01*
X0333430Y0334124D01*
X0334395Y0334524D01*
X0486744Y0334524D01*
X0481444Y0329224D01*
X0462252Y0329224D01*
X0461696Y0329779D01*
X0460502Y0330274D01*
X0459209Y0330274D01*
X0458014Y0329779D01*
X0457459Y0329224D01*
X0432252Y0329224D01*
X0431696Y0329779D01*
X0430502Y0330274D01*
X0429209Y0330274D01*
X0428014Y0329779D01*
X0427459Y0329224D01*
X0402252Y0329224D01*
X0401696Y0329779D01*
X0400502Y0330274D01*
X0399209Y0330274D01*
X0398014Y0329779D01*
X0397459Y0329224D01*
X0372252Y0329224D01*
X0371696Y0329779D01*
X0370502Y0330274D01*
X0369209Y0330274D01*
X0368014Y0329779D01*
X0367100Y0328865D01*
X0366605Y0327670D01*
X0366605Y0326377D01*
X0367100Y0325183D01*
X0368014Y0324268D01*
X0369209Y0323774D01*
X0370502Y0323774D01*
X0371696Y0324268D01*
X0372252Y0324824D01*
X0397459Y0324824D01*
X0398014Y0324268D01*
X0399209Y0323774D01*
X0400502Y0323774D01*
X0401696Y0324268D01*
X0402252Y0324824D01*
X0427459Y0324824D01*
X0428014Y0324268D01*
X0429209Y0323774D01*
X0430502Y0323774D01*
X0431696Y0324268D01*
X0432252Y0324824D01*
X0457459Y0324824D01*
X0458014Y0324268D01*
X0459209Y0323774D01*
X0460502Y0323774D01*
X0461696Y0324268D01*
X0462252Y0324824D01*
X0483267Y0324824D01*
X0492967Y0334524D01*
X0507455Y0334524D01*
X0507455Y0311553D01*
X0500326Y0304424D01*
X0501064Y0305162D02*
X0313647Y0305162D01*
X0312648Y0306160D02*
X0502063Y0306160D01*
X0503061Y0307159D02*
X0311650Y0307159D01*
X0310651Y0308157D02*
X0504060Y0308157D01*
X0505058Y0309156D02*
X0309653Y0309156D01*
X0308654Y0310154D02*
X0506057Y0310154D01*
X0507055Y0311153D02*
X0307656Y0311153D01*
X0307255Y0312151D02*
X0507455Y0312151D01*
X0507455Y0313150D02*
X0307255Y0313150D01*
X0307255Y0314148D02*
X0507455Y0314148D01*
X0507455Y0315147D02*
X0307255Y0315147D01*
X0307255Y0316145D02*
X0507455Y0316145D01*
X0507455Y0317144D02*
X0307255Y0317144D01*
X0307255Y0318143D02*
X0507455Y0318143D01*
X0507455Y0319141D02*
X0307255Y0319141D01*
X0307255Y0320140D02*
X0507455Y0320140D01*
X0507455Y0321138D02*
X0307255Y0321138D01*
X0307255Y0322137D02*
X0507455Y0322137D01*
X0507455Y0323135D02*
X0307255Y0323135D01*
X0307255Y0324134D02*
X0368340Y0324134D01*
X0367151Y0325132D02*
X0307255Y0325132D01*
X0307255Y0326131D02*
X0366708Y0326131D01*
X0366605Y0327129D02*
X0307255Y0327129D01*
X0307255Y0328128D02*
X0366795Y0328128D01*
X0367362Y0329126D02*
X0307255Y0329126D01*
X0307255Y0330125D02*
X0368849Y0330125D01*
X0370862Y0330125D02*
X0398849Y0330125D01*
X0400862Y0330125D02*
X0428849Y0330125D01*
X0430862Y0330125D02*
X0458849Y0330125D01*
X0460862Y0330125D02*
X0482345Y0330125D01*
X0483344Y0331123D02*
X0307255Y0331123D01*
X0307255Y0332122D02*
X0484342Y0332122D01*
X0485341Y0333120D02*
X0307255Y0333120D01*
X0307255Y0334119D02*
X0486339Y0334119D01*
X0489566Y0331123D02*
X0507455Y0331123D01*
X0507455Y0330125D02*
X0488568Y0330125D01*
X0487569Y0329126D02*
X0507455Y0329126D01*
X0507455Y0328128D02*
X0486571Y0328128D01*
X0485572Y0327129D02*
X0507455Y0327129D01*
X0507455Y0326131D02*
X0484574Y0326131D01*
X0483575Y0325132D02*
X0507455Y0325132D01*
X0507455Y0324134D02*
X0461371Y0324134D01*
X0458340Y0324134D02*
X0431371Y0324134D01*
X0428340Y0324134D02*
X0401371Y0324134D01*
X0398340Y0324134D02*
X0371371Y0324134D01*
X0369855Y0327024D02*
X0399855Y0327024D01*
X0429855Y0327024D01*
X0459855Y0327024D01*
X0482355Y0327024D01*
X0494855Y0339524D01*
X0492562Y0334119D02*
X0507455Y0334119D01*
X0507455Y0333120D02*
X0491563Y0333120D01*
X0490565Y0332122D02*
X0507455Y0332122D01*
X0503855Y0354024D02*
X0494855Y0354024D01*
X0503855Y0354024D02*
X0509355Y0359524D01*
X0509355Y0511524D01*
X0506355Y0514524D01*
X0502355Y0514524D01*
X0482355Y0514524D01*
X0482355Y0504524D02*
X0502355Y0504524D01*
X0502355Y0494524D02*
X0482355Y0494524D01*
X0482355Y0484524D02*
X0502355Y0484524D01*
X0502355Y0474524D02*
X0482355Y0474524D01*
X0482355Y0464524D02*
X0502355Y0464524D01*
X0502355Y0444524D02*
X0482355Y0444524D01*
X0482355Y0434524D02*
X0502355Y0434524D01*
X0502355Y0424524D02*
X0482355Y0424524D01*
X0482355Y0414524D02*
X0502355Y0414524D01*
X0502355Y0404524D02*
X0482355Y0404524D01*
X0482355Y0394524D02*
X0502355Y0394524D01*
X0502355Y0384524D02*
X0482355Y0384524D01*
X0412355Y0504524D02*
X0417355Y0509524D01*
X0472355Y0509524D01*
X0402355Y0507024D02*
X0399855Y0507024D01*
X0397355Y0509524D01*
X0342355Y0509524D01*
X0332355Y0514524D02*
X0312355Y0514524D01*
X0312355Y0504524D02*
X0332355Y0504524D01*
X0332355Y0494524D02*
X0312355Y0494524D01*
X0312355Y0484524D02*
X0332355Y0484524D01*
X0332355Y0474524D02*
X0312355Y0474524D01*
X0312355Y0464524D02*
X0332355Y0464524D01*
X0332355Y0454524D02*
X0312355Y0454524D01*
X0312355Y0444524D02*
X0332355Y0444524D01*
X0332355Y0429524D02*
X0312355Y0429524D01*
X0312355Y0419524D02*
X0332355Y0419524D01*
X0332355Y0409524D02*
X0312355Y0409524D01*
X0312355Y0399524D02*
X0332355Y0399524D01*
X0332355Y0389524D02*
X0312355Y0389524D01*
X0312355Y0379524D02*
X0332355Y0379524D01*
X0332355Y0369524D02*
X0312355Y0369524D01*
X0312355Y0359524D02*
X0332355Y0359524D01*
X0332355Y0349524D02*
X0312355Y0349524D01*
X0312355Y0339524D02*
X0332355Y0339524D01*
X0295455Y0334524D02*
X0295455Y0311553D01*
X0288326Y0304424D01*
X0102385Y0304424D01*
X0095255Y0311553D01*
X0095255Y0334524D01*
X0098316Y0334524D01*
X0099281Y0334124D01*
X0101430Y0334124D01*
X0102395Y0334524D01*
X0118316Y0334524D01*
X0119281Y0334124D01*
X0121430Y0334124D01*
X0122395Y0334524D01*
X0274744Y0334524D01*
X0269444Y0329224D01*
X0250252Y0329224D01*
X0249696Y0329779D01*
X0248502Y0330274D01*
X0247209Y0330274D01*
X0246014Y0329779D01*
X0245459Y0329224D01*
X0220252Y0329224D01*
X0219696Y0329779D01*
X0218502Y0330274D01*
X0217209Y0330274D01*
X0216014Y0329779D01*
X0215459Y0329224D01*
X0190252Y0329224D01*
X0189696Y0329779D01*
X0188502Y0330274D01*
X0187209Y0330274D01*
X0186014Y0329779D01*
X0185459Y0329224D01*
X0160252Y0329224D01*
X0159696Y0329779D01*
X0158502Y0330274D01*
X0157209Y0330274D01*
X0156014Y0329779D01*
X0155100Y0328865D01*
X0154605Y0327670D01*
X0154605Y0326377D01*
X0155100Y0325183D01*
X0156014Y0324268D01*
X0157209Y0323774D01*
X0158502Y0323774D01*
X0159696Y0324268D01*
X0160252Y0324824D01*
X0185459Y0324824D01*
X0186014Y0324268D01*
X0187209Y0323774D01*
X0188502Y0323774D01*
X0189696Y0324268D01*
X0190252Y0324824D01*
X0215459Y0324824D01*
X0216014Y0324268D01*
X0217209Y0323774D01*
X0218502Y0323774D01*
X0219696Y0324268D01*
X0220252Y0324824D01*
X0245459Y0324824D01*
X0246014Y0324268D01*
X0247209Y0323774D01*
X0248502Y0323774D01*
X0249696Y0324268D01*
X0250252Y0324824D01*
X0271267Y0324824D01*
X0280967Y0334524D01*
X0295455Y0334524D01*
X0295455Y0334119D02*
X0280562Y0334119D01*
X0279563Y0333120D02*
X0295455Y0333120D01*
X0295455Y0332122D02*
X0278565Y0332122D01*
X0277566Y0331123D02*
X0295455Y0331123D01*
X0295455Y0330125D02*
X0276568Y0330125D01*
X0275569Y0329126D02*
X0295455Y0329126D01*
X0295455Y0328128D02*
X0274571Y0328128D01*
X0273572Y0327129D02*
X0295455Y0327129D01*
X0295455Y0326131D02*
X0272574Y0326131D01*
X0271575Y0325132D02*
X0295455Y0325132D01*
X0295455Y0324134D02*
X0249371Y0324134D01*
X0246340Y0324134D02*
X0219371Y0324134D01*
X0216340Y0324134D02*
X0189371Y0324134D01*
X0186340Y0324134D02*
X0159371Y0324134D01*
X0156340Y0324134D02*
X0095255Y0324134D01*
X0095255Y0325132D02*
X0155151Y0325132D01*
X0154708Y0326131D02*
X0095255Y0326131D01*
X0095255Y0327129D02*
X0154605Y0327129D01*
X0154795Y0328128D02*
X0095255Y0328128D01*
X0095255Y0329126D02*
X0155362Y0329126D01*
X0156849Y0330125D02*
X0095255Y0330125D01*
X0095255Y0331123D02*
X0271344Y0331123D01*
X0272342Y0332122D02*
X0095255Y0332122D01*
X0095255Y0333120D02*
X0273341Y0333120D01*
X0274339Y0334119D02*
X0095255Y0334119D01*
X0100355Y0339524D02*
X0120355Y0339524D01*
X0120355Y0349524D02*
X0100355Y0349524D01*
X0100355Y0359524D02*
X0120355Y0359524D01*
X0120355Y0369524D02*
X0100355Y0369524D01*
X0100355Y0379524D02*
X0120355Y0379524D01*
X0120355Y0389524D02*
X0100355Y0389524D01*
X0100355Y0399524D02*
X0120355Y0399524D01*
X0120355Y0409524D02*
X0100355Y0409524D01*
X0100355Y0419524D02*
X0120355Y0419524D01*
X0120355Y0429524D02*
X0100355Y0429524D01*
X0100355Y0444524D02*
X0120355Y0444524D01*
X0120355Y0454524D02*
X0100355Y0454524D01*
X0100355Y0464524D02*
X0120355Y0464524D01*
X0120355Y0474524D02*
X0100355Y0474524D01*
X0100355Y0484524D02*
X0120355Y0484524D01*
X0120355Y0494524D02*
X0100355Y0494524D01*
X0100355Y0504524D02*
X0120355Y0504524D01*
X0130355Y0509524D02*
X0185355Y0509524D01*
X0187855Y0507024D01*
X0190355Y0507024D01*
X0200355Y0504524D02*
X0205355Y0509524D01*
X0260355Y0509524D01*
X0270355Y0514524D02*
X0290355Y0514524D01*
X0294355Y0514524D01*
X0297355Y0511524D01*
X0297355Y0359524D01*
X0291855Y0354024D01*
X0282855Y0354024D01*
X0282855Y0339524D02*
X0270355Y0327024D01*
X0247855Y0327024D01*
X0217855Y0327024D01*
X0187855Y0327024D01*
X0157855Y0327024D01*
X0158862Y0330125D02*
X0186849Y0330125D01*
X0188862Y0330125D02*
X0216849Y0330125D01*
X0218862Y0330125D02*
X0246849Y0330125D01*
X0248862Y0330125D02*
X0270345Y0330125D01*
X0292060Y0308157D02*
X0098651Y0308157D01*
X0099650Y0307159D02*
X0291061Y0307159D01*
X0290063Y0306160D02*
X0100648Y0306160D01*
X0101647Y0305162D02*
X0289064Y0305162D01*
X0293058Y0309156D02*
X0097653Y0309156D01*
X0096654Y0310154D02*
X0294057Y0310154D01*
X0295055Y0311153D02*
X0095656Y0311153D01*
X0095255Y0312151D02*
X0295455Y0312151D01*
X0295455Y0313150D02*
X0095255Y0313150D01*
X0095255Y0314148D02*
X0295455Y0314148D01*
X0295455Y0315147D02*
X0095255Y0315147D01*
X0095255Y0316145D02*
X0295455Y0316145D01*
X0295455Y0317144D02*
X0095255Y0317144D01*
X0095255Y0318143D02*
X0295455Y0318143D01*
X0295455Y0319141D02*
X0095255Y0319141D01*
X0095255Y0320140D02*
X0295455Y0320140D01*
X0295455Y0321138D02*
X0095255Y0321138D01*
X0095255Y0322137D02*
X0295455Y0322137D01*
X0295455Y0323135D02*
X0095255Y0323135D01*
X0100355Y0277524D02*
X0120355Y0277524D01*
X0270355Y0267524D02*
X0290355Y0267524D01*
X0290355Y0257524D02*
X0270355Y0257524D01*
X0270355Y0247524D02*
X0290355Y0247524D01*
X0290355Y0237524D02*
X0270355Y0237524D01*
X0270355Y0227524D02*
X0290355Y0227524D01*
X0290355Y0207524D02*
X0270355Y0207524D01*
X0270355Y0197524D02*
X0290355Y0197524D01*
X0290355Y0187524D02*
X0270355Y0187524D01*
X0270355Y0177524D02*
X0290355Y0177524D01*
X0290355Y0167524D02*
X0270355Y0167524D01*
X0270355Y0157524D02*
X0290355Y0157524D01*
X0290355Y0147524D02*
X0270355Y0147524D01*
X0272695Y0095474D02*
X0095255Y0095474D01*
X0095255Y0094476D02*
X0271697Y0094476D01*
X0312355Y0277524D02*
X0332355Y0277524D01*
X0290355Y0384524D02*
X0270355Y0384524D01*
X0270355Y0394524D02*
X0290355Y0394524D01*
X0290355Y0404524D02*
X0270355Y0404524D01*
X0270355Y0414524D02*
X0290355Y0414524D01*
X0290355Y0424524D02*
X0270355Y0424524D01*
X0270355Y0434524D02*
X0290355Y0434524D01*
X0290355Y0444524D02*
X0270355Y0444524D01*
X0270355Y0464524D02*
X0290355Y0464524D01*
X0290355Y0474524D02*
X0270355Y0474524D01*
X0270355Y0484524D02*
X0290355Y0484524D01*
X0290355Y0494524D02*
X0270355Y0494524D01*
X0270355Y0504524D02*
X0290355Y0504524D01*
X0120355Y0514524D02*
X0100355Y0514524D01*
D13*
X0157855Y0327024D03*
X0165355Y0319524D03*
X0187855Y0327024D03*
X0195355Y0319524D03*
X0217855Y0327024D03*
X0225355Y0319524D03*
X0247855Y0327024D03*
X0260355Y0319524D03*
X0282855Y0339524D03*
X0282855Y0354024D03*
X0347355Y0319524D03*
X0369855Y0327024D03*
X0377355Y0319524D03*
X0399855Y0327024D03*
X0407355Y0319524D03*
X0429855Y0327024D03*
X0437355Y0319524D03*
X0459855Y0327024D03*
X0472355Y0319524D03*
X0494855Y0339524D03*
X0494855Y0354024D03*
X0494855Y0117024D03*
X0494855Y0102524D03*
X0472355Y0082524D03*
X0459855Y0090024D03*
X0437355Y0082524D03*
X0429855Y0090024D03*
X0407355Y0082524D03*
X0399855Y0090024D03*
X0377355Y0082524D03*
X0369855Y0090024D03*
X0347355Y0082524D03*
X0282855Y0102524D03*
X0282855Y0117024D03*
X0260355Y0082524D03*
X0247855Y0090024D03*
X0225355Y0082524D03*
X0217855Y0090024D03*
X0195355Y0082524D03*
X0187855Y0090024D03*
X0165355Y0082524D03*
X0157855Y0090024D03*
X0135355Y0082524D03*
X0135355Y0319524D03*
D14*
X0130355Y0329524D02*
X0130355Y0339524D01*
X0130355Y0429524D01*
X0130355Y0444524D01*
X0130355Y0454524D01*
X0130355Y0464524D01*
X0130355Y0474524D01*
X0130355Y0484524D01*
X0130355Y0494524D01*
X0130355Y0504524D01*
X0130355Y0509524D01*
X0130355Y0514524D01*
X0160355Y0504524D02*
X0170355Y0504524D01*
X0180355Y0504524D01*
X0180355Y0494524D02*
X0170355Y0494524D01*
X0160355Y0494524D01*
X0160355Y0484524D02*
X0170355Y0484524D01*
X0180355Y0484524D01*
X0180355Y0474524D02*
X0170355Y0474524D01*
X0160355Y0474524D01*
X0160355Y0464524D02*
X0170355Y0464524D01*
X0180355Y0464524D01*
X0180355Y0454524D02*
X0170355Y0454524D01*
X0160355Y0454524D01*
X0160355Y0444524D02*
X0170355Y0444524D01*
X0180355Y0444524D01*
X0190355Y0444524D02*
X0190355Y0434524D01*
X0190355Y0424524D01*
X0190355Y0414524D01*
X0200355Y0414524D02*
X0200355Y0424524D01*
X0200355Y0434524D01*
X0200355Y0444524D01*
X0200355Y0454524D01*
X0200355Y0464524D01*
X0200355Y0474524D01*
X0200355Y0484524D01*
X0200355Y0494524D01*
X0200355Y0504524D01*
X0190355Y0504524D02*
X0190355Y0494524D01*
X0190355Y0484524D01*
X0190355Y0474524D01*
X0190355Y0464524D01*
X0190355Y0454524D01*
X0190355Y0444524D01*
X0210355Y0444524D02*
X0220355Y0444524D01*
X0230355Y0444524D01*
X0230355Y0454524D02*
X0220355Y0454524D01*
X0210355Y0454524D01*
X0210355Y0464524D02*
X0220355Y0464524D01*
X0230355Y0464524D01*
X0230355Y0474524D02*
X0220355Y0474524D01*
X0210355Y0474524D01*
X0210355Y0484524D02*
X0220355Y0484524D01*
X0230355Y0484524D01*
X0230355Y0494524D02*
X0220355Y0494524D01*
X0210355Y0494524D01*
X0210355Y0504524D02*
X0220355Y0504524D01*
X0230355Y0504524D01*
X0260355Y0509524D02*
X0260355Y0464524D01*
X0260355Y0509524D02*
X0260355Y0514524D01*
X0342355Y0514524D02*
X0342355Y0509524D01*
X0342355Y0504524D01*
X0342355Y0494524D01*
X0342355Y0484524D01*
X0342355Y0474524D01*
X0342355Y0464524D01*
X0342355Y0454524D01*
X0342355Y0444524D01*
X0342355Y0429524D01*
X0342355Y0339524D01*
X0342355Y0329524D01*
X0342355Y0369524D02*
X0332355Y0369524D01*
X0402355Y0414524D02*
X0402355Y0424524D01*
X0402355Y0434524D01*
X0402355Y0444524D01*
X0402355Y0454524D01*
X0402355Y0464524D01*
X0402355Y0474524D01*
X0402355Y0484524D01*
X0402355Y0494524D01*
X0402355Y0504524D01*
X0392355Y0504524D02*
X0382355Y0504524D01*
X0372355Y0504524D01*
X0372355Y0494524D02*
X0382355Y0494524D01*
X0392355Y0494524D01*
X0392355Y0484524D02*
X0382355Y0484524D01*
X0372355Y0484524D01*
X0372355Y0474524D02*
X0382355Y0474524D01*
X0392355Y0474524D01*
X0392355Y0464524D02*
X0382355Y0464524D01*
X0372355Y0464524D01*
X0372355Y0454524D02*
X0382355Y0454524D01*
X0392355Y0454524D01*
X0392355Y0444524D02*
X0382355Y0444524D01*
X0372355Y0444524D01*
X0412355Y0444524D02*
X0412355Y0434524D01*
X0412355Y0424524D01*
X0412355Y0414524D01*
X0412355Y0444524D02*
X0412355Y0454524D01*
X0412355Y0464524D01*
X0412355Y0474524D01*
X0412355Y0484524D01*
X0412355Y0494524D01*
X0412355Y0504524D01*
X0422355Y0504524D02*
X0432355Y0504524D01*
X0442355Y0504524D01*
X0442355Y0494524D02*
X0432355Y0494524D01*
X0422355Y0494524D01*
X0422355Y0484524D02*
X0432355Y0484524D01*
X0442355Y0484524D01*
X0442355Y0474524D02*
X0432355Y0474524D01*
X0422355Y0474524D01*
X0422355Y0464524D02*
X0432355Y0464524D01*
X0442355Y0464524D01*
X0442355Y0454524D02*
X0432355Y0454524D01*
X0422355Y0454524D01*
X0422355Y0444524D02*
X0432355Y0444524D01*
X0442355Y0444524D01*
X0472355Y0464524D02*
X0472355Y0509524D01*
X0472355Y0514524D01*
X0472355Y0277524D02*
X0472355Y0272524D01*
X0472355Y0227524D01*
X0442355Y0227524D02*
X0432355Y0227524D01*
X0422355Y0227524D01*
X0412355Y0227524D02*
X0412355Y0217524D01*
X0412355Y0207524D01*
X0412355Y0197524D01*
X0412355Y0187524D01*
X0412355Y0177524D01*
X0402355Y0177524D02*
X0402355Y0187524D01*
X0402355Y0197524D01*
X0402355Y0207524D01*
X0402355Y0217524D01*
X0402355Y0227524D01*
X0402355Y0237524D01*
X0402355Y0247524D01*
X0402355Y0257524D01*
X0402355Y0267524D01*
X0392355Y0267524D02*
X0382355Y0267524D01*
X0372355Y0267524D01*
X0372355Y0257524D02*
X0382355Y0257524D01*
X0392355Y0257524D01*
X0392355Y0247524D02*
X0382355Y0247524D01*
X0372355Y0247524D01*
X0372355Y0237524D02*
X0382355Y0237524D01*
X0392355Y0237524D01*
X0392355Y0227524D02*
X0382355Y0227524D01*
X0372355Y0227524D01*
X0372355Y0217524D02*
X0382355Y0217524D01*
X0392355Y0217524D01*
X0392355Y0207524D02*
X0382355Y0207524D01*
X0372355Y0207524D01*
X0342355Y0207524D02*
X0342355Y0192524D01*
X0342355Y0102524D01*
X0342355Y0092524D01*
X0342355Y0132524D02*
X0332355Y0132524D01*
X0342355Y0207524D02*
X0342355Y0217524D01*
X0342355Y0227524D01*
X0342355Y0237524D01*
X0342355Y0247524D01*
X0342355Y0257524D01*
X0342355Y0267524D01*
X0342355Y0272524D01*
X0342355Y0277524D01*
X0412355Y0267524D02*
X0412355Y0257524D01*
X0412355Y0247524D01*
X0412355Y0237524D01*
X0412355Y0227524D01*
X0422355Y0237524D02*
X0432355Y0237524D01*
X0442355Y0237524D01*
X0442355Y0247524D02*
X0432355Y0247524D01*
X0422355Y0247524D01*
X0422355Y0257524D02*
X0432355Y0257524D01*
X0442355Y0257524D01*
X0442355Y0267524D02*
X0432355Y0267524D01*
X0422355Y0267524D01*
X0422355Y0217524D02*
X0432355Y0217524D01*
X0442355Y0217524D01*
X0442355Y0207524D02*
X0432355Y0207524D01*
X0422355Y0207524D01*
X0260355Y0227524D02*
X0260355Y0272524D01*
X0260355Y0277524D01*
X0230355Y0267524D02*
X0220355Y0267524D01*
X0210355Y0267524D01*
X0200355Y0267524D02*
X0200355Y0257524D01*
X0200355Y0247524D01*
X0200355Y0237524D01*
X0200355Y0227524D01*
X0200355Y0217524D01*
X0200355Y0207524D01*
X0200355Y0197524D01*
X0200355Y0187524D01*
X0200355Y0177524D01*
X0190355Y0177524D02*
X0190355Y0187524D01*
X0190355Y0197524D01*
X0190355Y0207524D01*
X0190355Y0217524D01*
X0190355Y0227524D01*
X0190355Y0237524D01*
X0190355Y0247524D01*
X0190355Y0257524D01*
X0190355Y0267524D01*
X0180355Y0267524D02*
X0170355Y0267524D01*
X0160355Y0267524D01*
X0160355Y0257524D02*
X0170355Y0257524D01*
X0180355Y0257524D01*
X0180355Y0247524D02*
X0170355Y0247524D01*
X0160355Y0247524D01*
X0160355Y0237524D02*
X0170355Y0237524D01*
X0180355Y0237524D01*
X0180355Y0227524D02*
X0170355Y0227524D01*
X0160355Y0227524D01*
X0160355Y0217524D02*
X0170355Y0217524D01*
X0180355Y0217524D01*
X0180355Y0207524D02*
X0170355Y0207524D01*
X0160355Y0207524D01*
X0130355Y0207524D02*
X0130355Y0192524D01*
X0130355Y0102524D01*
X0130355Y0092524D01*
X0130355Y0132524D02*
X0120355Y0132524D01*
X0130355Y0207524D02*
X0130355Y0217524D01*
X0130355Y0227524D01*
X0130355Y0237524D01*
X0130355Y0247524D01*
X0130355Y0257524D01*
X0130355Y0267524D01*
X0130355Y0272524D01*
X0130355Y0277524D01*
X0210355Y0257524D02*
X0220355Y0257524D01*
X0230355Y0257524D01*
X0230355Y0247524D02*
X0220355Y0247524D01*
X0210355Y0247524D01*
X0210355Y0237524D02*
X0220355Y0237524D01*
X0230355Y0237524D01*
X0230355Y0227524D02*
X0220355Y0227524D01*
X0210355Y0227524D01*
X0210355Y0217524D02*
X0220355Y0217524D01*
X0230355Y0217524D01*
X0230355Y0207524D02*
X0220355Y0207524D01*
X0210355Y0207524D01*
X0130355Y0369524D02*
X0120355Y0369524D01*
M02*
