G75*
%MOIN*%
%OFA0B0*%
%FSLAX25Y25*%
%IPPOS*%
%LPD*%
%AMOC8*
5,1,8,0,0,1.08239X$1,22.5*
%
%ADD10C,0.07400*%
%ADD11R,0.03150X0.03543*%
%ADD12R,0.04331X0.03937*%
%ADD13C,0.03937*%
%ADD14R,0.04724X0.07874*%
%ADD15R,0.02362X0.05315*%
%ADD16C,0.01000*%
%ADD17C,0.03100*%
%ADD18C,0.06000*%
%ADD19C,0.01200*%
D10*
X0100355Y0102524D03*
X0100355Y0112524D03*
X0100355Y0122524D03*
X0100355Y0132524D03*
X0100355Y0142524D03*
X0100355Y0152524D03*
X0100355Y0162524D03*
X0100355Y0172524D03*
X0100355Y0182524D03*
X0100355Y0192524D03*
X0100355Y0207524D03*
X0100355Y0217524D03*
X0100355Y0227524D03*
X0100355Y0237524D03*
X0100355Y0247524D03*
X0100355Y0257524D03*
X0100355Y0267524D03*
X0100355Y0277524D03*
X0120355Y0277524D03*
X0130355Y0277524D03*
X0130355Y0267524D03*
X0120355Y0267524D03*
X0120355Y0257524D03*
X0130355Y0257524D03*
X0130355Y0247524D03*
X0120355Y0247524D03*
X0120355Y0237524D03*
X0130355Y0237524D03*
X0130355Y0227524D03*
X0120355Y0227524D03*
X0120355Y0217524D03*
X0120355Y0207524D03*
X0130355Y0207524D03*
X0130355Y0217524D03*
X0140355Y0217524D03*
X0140355Y0207524D03*
X0140355Y0197524D03*
X0140355Y0187524D03*
X0140355Y0177524D03*
X0140355Y0167524D03*
X0140355Y0157524D03*
X0140355Y0147524D03*
X0140355Y0137524D03*
X0140355Y0127524D03*
X0140355Y0117524D03*
X0140355Y0107524D03*
X0130355Y0112524D03*
X0120355Y0112524D03*
X0120355Y0122524D03*
X0130355Y0122524D03*
X0130355Y0132524D03*
X0120355Y0132524D03*
X0120355Y0142524D03*
X0120355Y0152524D03*
X0130355Y0152524D03*
X0130355Y0142524D03*
X0130355Y0162524D03*
X0120355Y0162524D03*
X0120355Y0172524D03*
X0120355Y0182524D03*
X0130355Y0182524D03*
X0130355Y0172524D03*
X0130355Y0192524D03*
X0120355Y0192524D03*
X0150355Y0207524D03*
X0150355Y0217524D03*
X0150355Y0227524D03*
X0140355Y0227524D03*
X0140355Y0237524D03*
X0140355Y0247524D03*
X0140355Y0257524D03*
X0140355Y0267524D03*
X0140355Y0277524D03*
X0140355Y0287524D03*
X0150355Y0287524D03*
X0150355Y0277524D03*
X0150355Y0267524D03*
X0150355Y0257524D03*
X0150355Y0247524D03*
X0150355Y0237524D03*
X0160355Y0237524D03*
X0160355Y0247524D03*
X0160355Y0257524D03*
X0160355Y0267524D03*
X0160355Y0277524D03*
X0160355Y0287524D03*
X0170355Y0287524D03*
X0170355Y0277524D03*
X0170355Y0267524D03*
X0170355Y0257524D03*
X0170355Y0247524D03*
X0170355Y0237524D03*
X0170355Y0227524D03*
X0160355Y0227524D03*
X0160355Y0217524D03*
X0160355Y0207524D03*
X0170355Y0207524D03*
X0170355Y0217524D03*
X0180355Y0217524D03*
X0180355Y0207524D03*
X0180355Y0197524D03*
X0170355Y0197524D03*
X0170355Y0187524D03*
X0170355Y0177524D03*
X0160355Y0177524D03*
X0150355Y0177524D03*
X0150355Y0167524D03*
X0150355Y0157524D03*
X0150355Y0147524D03*
X0150355Y0137524D03*
X0150355Y0127524D03*
X0160355Y0127524D03*
X0160355Y0137524D03*
X0160355Y0147524D03*
X0160355Y0157524D03*
X0160355Y0167524D03*
X0170355Y0167524D03*
X0170355Y0157524D03*
X0170355Y0147524D03*
X0170355Y0137524D03*
X0170355Y0127524D03*
X0170355Y0117524D03*
X0170355Y0107524D03*
X0180355Y0107524D03*
X0180355Y0117524D03*
X0180355Y0127524D03*
X0180355Y0137524D03*
X0180355Y0147524D03*
X0180355Y0157524D03*
X0180355Y0167524D03*
X0180355Y0177524D03*
X0180355Y0187524D03*
X0190355Y0187524D03*
X0190355Y0177524D03*
X0200355Y0177524D03*
X0200355Y0187524D03*
X0200355Y0197524D03*
X0190355Y0197524D03*
X0190355Y0207524D03*
X0190355Y0217524D03*
X0200355Y0217524D03*
X0200355Y0207524D03*
X0210355Y0207524D03*
X0210355Y0217524D03*
X0210355Y0227524D03*
X0200355Y0227524D03*
X0190355Y0227524D03*
X0180355Y0227524D03*
X0180355Y0237524D03*
X0180355Y0247524D03*
X0180355Y0257524D03*
X0180355Y0267524D03*
X0180355Y0277524D03*
X0180355Y0287524D03*
X0190355Y0287524D03*
X0190355Y0277524D03*
X0200355Y0277524D03*
X0200355Y0287524D03*
X0210355Y0287524D03*
X0210355Y0277524D03*
X0210355Y0267524D03*
X0200355Y0267524D03*
X0190355Y0267524D03*
X0190355Y0257524D03*
X0200355Y0257524D03*
X0200355Y0247524D03*
X0190355Y0247524D03*
X0190355Y0237524D03*
X0200355Y0237524D03*
X0210355Y0237524D03*
X0210355Y0247524D03*
X0210355Y0257524D03*
X0220355Y0257524D03*
X0220355Y0267524D03*
X0220355Y0277524D03*
X0220355Y0287524D03*
X0230355Y0287524D03*
X0230355Y0277524D03*
X0230355Y0267524D03*
X0230355Y0257524D03*
X0230355Y0247524D03*
X0230355Y0237524D03*
X0220355Y0237524D03*
X0220355Y0247524D03*
X0220355Y0227524D03*
X0220355Y0217524D03*
X0220355Y0207524D03*
X0220355Y0197524D03*
X0210355Y0197524D03*
X0210355Y0187524D03*
X0210355Y0177524D03*
X0210355Y0167524D03*
X0210355Y0157524D03*
X0210355Y0147524D03*
X0200355Y0147524D03*
X0190355Y0147524D03*
X0190355Y0137524D03*
X0200355Y0137524D03*
X0200355Y0127524D03*
X0190355Y0127524D03*
X0190355Y0117524D03*
X0190355Y0107524D03*
X0200355Y0107524D03*
X0200355Y0117524D03*
X0210355Y0117524D03*
X0210355Y0107524D03*
X0220355Y0107524D03*
X0220355Y0117524D03*
X0220355Y0127524D03*
X0210355Y0127524D03*
X0210355Y0137524D03*
X0220355Y0137524D03*
X0220355Y0147524D03*
X0220355Y0157524D03*
X0220355Y0167524D03*
X0220355Y0177524D03*
X0220355Y0187524D03*
X0230355Y0177524D03*
X0230355Y0167524D03*
X0230355Y0157524D03*
X0230355Y0147524D03*
X0230355Y0137524D03*
X0230355Y0127524D03*
X0240355Y0127524D03*
X0240355Y0137524D03*
X0240355Y0147524D03*
X0240355Y0157524D03*
X0240355Y0167524D03*
X0240355Y0177524D03*
X0250355Y0177524D03*
X0250355Y0187524D03*
X0260355Y0187524D03*
X0260355Y0177524D03*
X0260355Y0167524D03*
X0250355Y0167524D03*
X0250355Y0157524D03*
X0250355Y0147524D03*
X0260355Y0147524D03*
X0260355Y0157524D03*
X0270355Y0157524D03*
X0270355Y0147524D03*
X0260355Y0137524D03*
X0250355Y0137524D03*
X0250355Y0127524D03*
X0260355Y0127524D03*
X0260355Y0117524D03*
X0250355Y0117524D03*
X0250355Y0107524D03*
X0260355Y0107524D03*
X0290355Y0137524D03*
X0290355Y0147524D03*
X0290355Y0157524D03*
X0290355Y0167524D03*
X0290355Y0177524D03*
X0290355Y0187524D03*
X0290355Y0197524D03*
X0290355Y0207524D03*
X0290355Y0227524D03*
X0290355Y0237524D03*
X0290355Y0247524D03*
X0290355Y0257524D03*
X0290355Y0267524D03*
X0290355Y0277524D03*
X0270355Y0277524D03*
X0260355Y0277524D03*
X0250355Y0277524D03*
X0250355Y0287524D03*
X0240355Y0287524D03*
X0240355Y0277524D03*
X0240355Y0267524D03*
X0240355Y0257524D03*
X0240355Y0247524D03*
X0240355Y0237524D03*
X0240355Y0227524D03*
X0230355Y0227524D03*
X0230355Y0217524D03*
X0230355Y0207524D03*
X0240355Y0207524D03*
X0240355Y0217524D03*
X0250355Y0217524D03*
X0250355Y0207524D03*
X0260355Y0207524D03*
X0260355Y0217524D03*
X0260355Y0227524D03*
X0250355Y0227524D03*
X0250355Y0237524D03*
X0250355Y0247524D03*
X0260355Y0247524D03*
X0260355Y0237524D03*
X0270355Y0237524D03*
X0270355Y0247524D03*
X0270355Y0257524D03*
X0260355Y0257524D03*
X0250355Y0257524D03*
X0250355Y0267524D03*
X0260355Y0267524D03*
X0270355Y0267524D03*
X0270355Y0227524D03*
X0270355Y0207524D03*
X0270355Y0197524D03*
X0260355Y0197524D03*
X0250355Y0197524D03*
X0270355Y0187524D03*
X0270355Y0177524D03*
X0270355Y0167524D03*
X0312355Y0172524D03*
X0312355Y0182524D03*
X0312355Y0192524D03*
X0312355Y0207524D03*
X0312355Y0217524D03*
X0312355Y0227524D03*
X0312355Y0237524D03*
X0312355Y0247524D03*
X0312355Y0257524D03*
X0312355Y0267524D03*
X0312355Y0277524D03*
X0332355Y0277524D03*
X0342355Y0277524D03*
X0342355Y0267524D03*
X0332355Y0267524D03*
X0332355Y0257524D03*
X0342355Y0257524D03*
X0342355Y0247524D03*
X0332355Y0247524D03*
X0332355Y0237524D03*
X0342355Y0237524D03*
X0342355Y0227524D03*
X0332355Y0227524D03*
X0332355Y0217524D03*
X0332355Y0207524D03*
X0342355Y0207524D03*
X0342355Y0217524D03*
X0352355Y0217524D03*
X0352355Y0207524D03*
X0352355Y0197524D03*
X0352355Y0187524D03*
X0352355Y0177524D03*
X0352355Y0167524D03*
X0352355Y0157524D03*
X0352355Y0147524D03*
X0352355Y0137524D03*
X0352355Y0127524D03*
X0352355Y0117524D03*
X0352355Y0107524D03*
X0342355Y0112524D03*
X0332355Y0112524D03*
X0332355Y0122524D03*
X0342355Y0122524D03*
X0342355Y0132524D03*
X0332355Y0132524D03*
X0332355Y0142524D03*
X0332355Y0152524D03*
X0342355Y0152524D03*
X0342355Y0142524D03*
X0342355Y0162524D03*
X0332355Y0162524D03*
X0332355Y0172524D03*
X0332355Y0182524D03*
X0342355Y0182524D03*
X0342355Y0172524D03*
X0342355Y0192524D03*
X0332355Y0192524D03*
X0362355Y0207524D03*
X0362355Y0217524D03*
X0362355Y0227524D03*
X0352355Y0227524D03*
X0352355Y0237524D03*
X0352355Y0247524D03*
X0352355Y0257524D03*
X0352355Y0267524D03*
X0352355Y0277524D03*
X0352355Y0287524D03*
X0362355Y0287524D03*
X0362355Y0277524D03*
X0362355Y0267524D03*
X0362355Y0257524D03*
X0362355Y0247524D03*
X0362355Y0237524D03*
X0372355Y0237524D03*
X0372355Y0247524D03*
X0372355Y0257524D03*
X0372355Y0267524D03*
X0372355Y0277524D03*
X0372355Y0287524D03*
X0382355Y0287524D03*
X0382355Y0277524D03*
X0382355Y0267524D03*
X0382355Y0257524D03*
X0382355Y0247524D03*
X0382355Y0237524D03*
X0382355Y0227524D03*
X0372355Y0227524D03*
X0372355Y0217524D03*
X0372355Y0207524D03*
X0382355Y0207524D03*
X0382355Y0217524D03*
X0392355Y0217524D03*
X0392355Y0207524D03*
X0402355Y0207524D03*
X0402355Y0217524D03*
X0402355Y0227524D03*
X0392355Y0227524D03*
X0392355Y0237524D03*
X0392355Y0247524D03*
X0402355Y0247524D03*
X0402355Y0237524D03*
X0412355Y0237524D03*
X0412355Y0247524D03*
X0412355Y0257524D03*
X0402355Y0257524D03*
X0392355Y0257524D03*
X0392355Y0267524D03*
X0402355Y0267524D03*
X0402355Y0277524D03*
X0392355Y0277524D03*
X0392355Y0287524D03*
X0402355Y0287524D03*
X0412355Y0287524D03*
X0412355Y0277524D03*
X0412355Y0267524D03*
X0422355Y0267524D03*
X0422355Y0277524D03*
X0422355Y0287524D03*
X0432355Y0287524D03*
X0432355Y0277524D03*
X0432355Y0267524D03*
X0432355Y0257524D03*
X0422355Y0257524D03*
X0422355Y0247524D03*
X0422355Y0237524D03*
X0422355Y0227524D03*
X0412355Y0227524D03*
X0412355Y0217524D03*
X0412355Y0207524D03*
X0412355Y0197524D03*
X0402355Y0197524D03*
X0392355Y0197524D03*
X0382355Y0197524D03*
X0382355Y0187524D03*
X0382355Y0177524D03*
X0372355Y0177524D03*
X0362355Y0177524D03*
X0362355Y0167524D03*
X0362355Y0157524D03*
X0362355Y0147524D03*
X0362355Y0137524D03*
X0362355Y0127524D03*
X0372355Y0127524D03*
X0372355Y0137524D03*
X0372355Y0147524D03*
X0372355Y0157524D03*
X0372355Y0167524D03*
X0382355Y0167524D03*
X0382355Y0157524D03*
X0382355Y0147524D03*
X0382355Y0137524D03*
X0382355Y0127524D03*
X0382355Y0117524D03*
X0382355Y0107524D03*
X0392355Y0107524D03*
X0392355Y0117524D03*
X0402355Y0117524D03*
X0402355Y0107524D03*
X0412355Y0107524D03*
X0412355Y0117524D03*
X0412355Y0127524D03*
X0402355Y0127524D03*
X0392355Y0127524D03*
X0392355Y0137524D03*
X0402355Y0137524D03*
X0402355Y0147524D03*
X0392355Y0147524D03*
X0392355Y0157524D03*
X0392355Y0167524D03*
X0392355Y0177524D03*
X0392355Y0187524D03*
X0402355Y0187524D03*
X0402355Y0177524D03*
X0412355Y0177524D03*
X0412355Y0187524D03*
X0422355Y0187524D03*
X0422355Y0177524D03*
X0422355Y0167524D03*
X0422355Y0157524D03*
X0422355Y0147524D03*
X0412355Y0147524D03*
X0412355Y0137524D03*
X0422355Y0137524D03*
X0422355Y0127524D03*
X0422355Y0117524D03*
X0422355Y0107524D03*
X0432355Y0107524D03*
X0432355Y0117524D03*
X0432355Y0127524D03*
X0432355Y0137524D03*
X0432355Y0147524D03*
X0432355Y0157524D03*
X0432355Y0167524D03*
X0432355Y0177524D03*
X0432355Y0187524D03*
X0432355Y0197524D03*
X0422355Y0197524D03*
X0422355Y0207524D03*
X0422355Y0217524D03*
X0432355Y0217524D03*
X0432355Y0207524D03*
X0442355Y0207524D03*
X0442355Y0217524D03*
X0442355Y0227524D03*
X0432355Y0227524D03*
X0432355Y0237524D03*
X0432355Y0247524D03*
X0442355Y0247524D03*
X0442355Y0237524D03*
X0452355Y0237524D03*
X0452355Y0247524D03*
X0452355Y0257524D03*
X0442355Y0257524D03*
X0442355Y0267524D03*
X0442355Y0277524D03*
X0442355Y0287524D03*
X0452355Y0287524D03*
X0452355Y0277524D03*
X0452355Y0267524D03*
X0462355Y0267524D03*
X0472355Y0267524D03*
X0472355Y0277524D03*
X0462355Y0277524D03*
X0462355Y0287524D03*
X0482355Y0277524D03*
X0482355Y0267524D03*
X0482355Y0257524D03*
X0472355Y0257524D03*
X0462355Y0257524D03*
X0462355Y0247524D03*
X0462355Y0237524D03*
X0472355Y0237524D03*
X0472355Y0247524D03*
X0482355Y0247524D03*
X0482355Y0237524D03*
X0482355Y0227524D03*
X0472355Y0227524D03*
X0462355Y0227524D03*
X0452355Y0227524D03*
X0452355Y0217524D03*
X0452355Y0207524D03*
X0462355Y0207524D03*
X0462355Y0217524D03*
X0472355Y0217524D03*
X0472355Y0207524D03*
X0472355Y0197524D03*
X0462355Y0197524D03*
X0462355Y0187524D03*
X0462355Y0177524D03*
X0472355Y0177524D03*
X0472355Y0187524D03*
X0482355Y0187524D03*
X0482355Y0177524D03*
X0482355Y0167524D03*
X0472355Y0167524D03*
X0462355Y0167524D03*
X0452355Y0167524D03*
X0442355Y0167524D03*
X0442355Y0177524D03*
X0452355Y0177524D03*
X0452355Y0157524D03*
X0452355Y0147524D03*
X0442355Y0147524D03*
X0442355Y0157524D03*
X0442355Y0137524D03*
X0442355Y0127524D03*
X0452355Y0127524D03*
X0452355Y0137524D03*
X0462355Y0137524D03*
X0472355Y0137524D03*
X0472355Y0147524D03*
X0462355Y0147524D03*
X0462355Y0157524D03*
X0472355Y0157524D03*
X0482355Y0157524D03*
X0482355Y0147524D03*
X0502355Y0147524D03*
X0502355Y0157524D03*
X0502355Y0167524D03*
X0502355Y0177524D03*
X0502355Y0187524D03*
X0502355Y0197524D03*
X0502355Y0207524D03*
X0502355Y0227524D03*
X0502355Y0237524D03*
X0502355Y0247524D03*
X0502355Y0257524D03*
X0502355Y0267524D03*
X0502355Y0277524D03*
X0472355Y0344524D03*
X0462355Y0344524D03*
X0462355Y0354524D03*
X0462355Y0364524D03*
X0472355Y0364524D03*
X0472355Y0354524D03*
X0472355Y0374524D03*
X0462355Y0374524D03*
X0452355Y0374524D03*
X0442355Y0374524D03*
X0432355Y0374524D03*
X0422355Y0374524D03*
X0412355Y0374524D03*
X0402355Y0374524D03*
X0392355Y0374524D03*
X0382355Y0374524D03*
X0372355Y0374524D03*
X0362355Y0374524D03*
X0352355Y0374524D03*
X0352355Y0384524D03*
X0352355Y0394524D03*
X0352355Y0404524D03*
X0352355Y0414524D03*
X0352355Y0424524D03*
X0352355Y0434524D03*
X0352355Y0444524D03*
X0342355Y0444524D03*
X0332355Y0444524D03*
X0332355Y0454524D03*
X0332355Y0464524D03*
X0342355Y0464524D03*
X0342355Y0454524D03*
X0352355Y0454524D03*
X0352355Y0464524D03*
X0352355Y0474524D03*
X0342355Y0474524D03*
X0332355Y0474524D03*
X0332355Y0484524D03*
X0332355Y0494524D03*
X0342355Y0494524D03*
X0342355Y0484524D03*
X0352355Y0484524D03*
X0352355Y0494524D03*
X0352355Y0504524D03*
X0342355Y0504524D03*
X0332355Y0504524D03*
X0332355Y0514524D03*
X0342355Y0514524D03*
X0352355Y0514524D03*
X0352355Y0524524D03*
X0362355Y0524524D03*
X0362355Y0514524D03*
X0362355Y0504524D03*
X0362355Y0494524D03*
X0362355Y0484524D03*
X0362355Y0474524D03*
X0362355Y0464524D03*
X0362355Y0454524D03*
X0362355Y0444524D03*
X0372355Y0444524D03*
X0372355Y0454524D03*
X0372355Y0464524D03*
X0372355Y0474524D03*
X0372355Y0484524D03*
X0372355Y0494524D03*
X0372355Y0504524D03*
X0372355Y0514524D03*
X0372355Y0524524D03*
X0382355Y0524524D03*
X0382355Y0514524D03*
X0382355Y0504524D03*
X0382355Y0494524D03*
X0382355Y0484524D03*
X0382355Y0474524D03*
X0382355Y0464524D03*
X0382355Y0454524D03*
X0382355Y0444524D03*
X0382355Y0434524D03*
X0382355Y0424524D03*
X0382355Y0414524D03*
X0372355Y0414524D03*
X0362355Y0414524D03*
X0362355Y0404524D03*
X0362355Y0394524D03*
X0362355Y0384524D03*
X0372355Y0384524D03*
X0372355Y0394524D03*
X0372355Y0404524D03*
X0382355Y0404524D03*
X0382355Y0394524D03*
X0382355Y0384524D03*
X0392355Y0384524D03*
X0392355Y0394524D03*
X0402355Y0384524D03*
X0412355Y0384524D03*
X0422355Y0384524D03*
X0422355Y0394524D03*
X0422355Y0404524D03*
X0422355Y0414524D03*
X0422355Y0424524D03*
X0412355Y0424524D03*
X0412355Y0414524D03*
X0402355Y0414524D03*
X0392355Y0414524D03*
X0392355Y0424524D03*
X0402355Y0424524D03*
X0402355Y0434524D03*
X0392355Y0434524D03*
X0392355Y0444524D03*
X0402355Y0444524D03*
X0402355Y0454524D03*
X0392355Y0454524D03*
X0392355Y0464524D03*
X0402355Y0464524D03*
X0402355Y0474524D03*
X0392355Y0474524D03*
X0392355Y0484524D03*
X0392355Y0494524D03*
X0402355Y0494524D03*
X0402355Y0484524D03*
X0412355Y0484524D03*
X0412355Y0494524D03*
X0412355Y0504524D03*
X0402355Y0504524D03*
X0392355Y0504524D03*
X0392355Y0514524D03*
X0392355Y0524524D03*
X0402355Y0524524D03*
X0402355Y0514524D03*
X0412355Y0514524D03*
X0412355Y0524524D03*
X0422355Y0524524D03*
X0422355Y0514524D03*
X0422355Y0504524D03*
X0422355Y0494524D03*
X0422355Y0484524D03*
X0422355Y0474524D03*
X0412355Y0474524D03*
X0412355Y0464524D03*
X0412355Y0454524D03*
X0412355Y0444524D03*
X0412355Y0434524D03*
X0422355Y0434524D03*
X0422355Y0444524D03*
X0422355Y0454524D03*
X0422355Y0464524D03*
X0432355Y0464524D03*
X0432355Y0454524D03*
X0432355Y0444524D03*
X0432355Y0434524D03*
X0432355Y0424524D03*
X0432355Y0414524D03*
X0432355Y0404524D03*
X0432355Y0394524D03*
X0432355Y0384524D03*
X0442355Y0384524D03*
X0442355Y0394524D03*
X0442355Y0404524D03*
X0442355Y0414524D03*
X0452355Y0414524D03*
X0452355Y0404524D03*
X0452355Y0394524D03*
X0452355Y0384524D03*
X0462355Y0384524D03*
X0462355Y0394524D03*
X0472355Y0394524D03*
X0472355Y0384524D03*
X0482355Y0384524D03*
X0482355Y0394524D03*
X0482355Y0404524D03*
X0472355Y0404524D03*
X0462355Y0404524D03*
X0462355Y0414524D03*
X0462355Y0424524D03*
X0472355Y0424524D03*
X0472355Y0414524D03*
X0482355Y0414524D03*
X0482355Y0424524D03*
X0482355Y0434524D03*
X0472355Y0434524D03*
X0462355Y0434524D03*
X0462355Y0444524D03*
X0472355Y0444524D03*
X0472355Y0454524D03*
X0462355Y0454524D03*
X0462355Y0464524D03*
X0472355Y0464524D03*
X0472355Y0474524D03*
X0462355Y0474524D03*
X0452355Y0474524D03*
X0442355Y0474524D03*
X0432355Y0474524D03*
X0432355Y0484524D03*
X0432355Y0494524D03*
X0432355Y0504524D03*
X0432355Y0514524D03*
X0432355Y0524524D03*
X0442355Y0524524D03*
X0442355Y0514524D03*
X0442355Y0504524D03*
X0442355Y0494524D03*
X0442355Y0484524D03*
X0452355Y0484524D03*
X0452355Y0494524D03*
X0452355Y0504524D03*
X0452355Y0514524D03*
X0452355Y0524524D03*
X0462355Y0524524D03*
X0462355Y0514524D03*
X0472355Y0514524D03*
X0472355Y0504524D03*
X0462355Y0504524D03*
X0462355Y0494524D03*
X0462355Y0484524D03*
X0472355Y0484524D03*
X0472355Y0494524D03*
X0482355Y0494524D03*
X0482355Y0484524D03*
X0482355Y0474524D03*
X0482355Y0464524D03*
X0482355Y0444524D03*
X0502355Y0444524D03*
X0502355Y0434524D03*
X0502355Y0424524D03*
X0502355Y0414524D03*
X0502355Y0404524D03*
X0502355Y0394524D03*
X0502355Y0384524D03*
X0502355Y0374524D03*
X0452355Y0364524D03*
X0442355Y0364524D03*
X0432355Y0364524D03*
X0432355Y0354524D03*
X0422355Y0354524D03*
X0422355Y0364524D03*
X0412355Y0364524D03*
X0412355Y0354524D03*
X0402355Y0354524D03*
X0392355Y0354524D03*
X0392355Y0364524D03*
X0402355Y0364524D03*
X0382355Y0364524D03*
X0382355Y0354524D03*
X0382355Y0344524D03*
X0392355Y0344524D03*
X0402355Y0344524D03*
X0412355Y0344524D03*
X0422355Y0344524D03*
X0432355Y0344524D03*
X0392355Y0404524D03*
X0372355Y0364524D03*
X0362355Y0364524D03*
X0352355Y0364524D03*
X0352355Y0354524D03*
X0352355Y0344524D03*
X0342355Y0349524D03*
X0332355Y0349524D03*
X0332355Y0359524D03*
X0342355Y0359524D03*
X0342355Y0369524D03*
X0332355Y0369524D03*
X0332355Y0379524D03*
X0342355Y0379524D03*
X0342355Y0389524D03*
X0332355Y0389524D03*
X0332355Y0399524D03*
X0342355Y0399524D03*
X0342355Y0409524D03*
X0332355Y0409524D03*
X0332355Y0419524D03*
X0332355Y0429524D03*
X0342355Y0429524D03*
X0342355Y0419524D03*
X0312355Y0419524D03*
X0312355Y0429524D03*
X0312355Y0444524D03*
X0312355Y0454524D03*
X0312355Y0464524D03*
X0312355Y0474524D03*
X0312355Y0484524D03*
X0312355Y0494524D03*
X0312355Y0504524D03*
X0312355Y0514524D03*
X0290355Y0514524D03*
X0290355Y0504524D03*
X0290355Y0494524D03*
X0290355Y0484524D03*
X0290355Y0474524D03*
X0290355Y0464524D03*
X0290355Y0444524D03*
X0290355Y0434524D03*
X0290355Y0424524D03*
X0290355Y0414524D03*
X0290355Y0404524D03*
X0290355Y0394524D03*
X0290355Y0384524D03*
X0290355Y0374524D03*
X0270355Y0384524D03*
X0270355Y0394524D03*
X0260355Y0394524D03*
X0250355Y0394524D03*
X0250355Y0384524D03*
X0260355Y0384524D03*
X0260355Y0374524D03*
X0250355Y0374524D03*
X0240355Y0374524D03*
X0230355Y0374524D03*
X0220355Y0374524D03*
X0210355Y0374524D03*
X0200355Y0374524D03*
X0190355Y0374524D03*
X0180355Y0374524D03*
X0170355Y0374524D03*
X0160355Y0374524D03*
X0150355Y0374524D03*
X0140355Y0374524D03*
X0140355Y0384524D03*
X0140355Y0394524D03*
X0140355Y0404524D03*
X0140355Y0414524D03*
X0140355Y0424524D03*
X0140355Y0434524D03*
X0140355Y0444524D03*
X0130355Y0444524D03*
X0120355Y0444524D03*
X0120355Y0454524D03*
X0120355Y0464524D03*
X0130355Y0464524D03*
X0130355Y0454524D03*
X0140355Y0454524D03*
X0140355Y0464524D03*
X0140355Y0474524D03*
X0130355Y0474524D03*
X0120355Y0474524D03*
X0120355Y0484524D03*
X0120355Y0494524D03*
X0130355Y0494524D03*
X0130355Y0484524D03*
X0140355Y0484524D03*
X0140355Y0494524D03*
X0140355Y0504524D03*
X0130355Y0504524D03*
X0120355Y0504524D03*
X0120355Y0514524D03*
X0130355Y0514524D03*
X0140355Y0514524D03*
X0140355Y0524524D03*
X0150355Y0524524D03*
X0150355Y0514524D03*
X0150355Y0504524D03*
X0150355Y0494524D03*
X0150355Y0484524D03*
X0150355Y0474524D03*
X0150355Y0464524D03*
X0150355Y0454524D03*
X0150355Y0444524D03*
X0160355Y0444524D03*
X0160355Y0454524D03*
X0160355Y0464524D03*
X0160355Y0474524D03*
X0160355Y0484524D03*
X0160355Y0494524D03*
X0160355Y0504524D03*
X0160355Y0514524D03*
X0160355Y0524524D03*
X0170355Y0524524D03*
X0170355Y0514524D03*
X0170355Y0504524D03*
X0170355Y0494524D03*
X0170355Y0484524D03*
X0170355Y0474524D03*
X0170355Y0464524D03*
X0170355Y0454524D03*
X0170355Y0444524D03*
X0170355Y0434524D03*
X0170355Y0424524D03*
X0170355Y0414524D03*
X0160355Y0414524D03*
X0150355Y0414524D03*
X0150355Y0404524D03*
X0150355Y0394524D03*
X0150355Y0384524D03*
X0160355Y0384524D03*
X0160355Y0394524D03*
X0160355Y0404524D03*
X0170355Y0404524D03*
X0170355Y0394524D03*
X0170355Y0384524D03*
X0180355Y0384524D03*
X0180355Y0394524D03*
X0180355Y0404524D03*
X0180355Y0414524D03*
X0180355Y0424524D03*
X0180355Y0434524D03*
X0180355Y0444524D03*
X0180355Y0454524D03*
X0180355Y0464524D03*
X0180355Y0474524D03*
X0180355Y0484524D03*
X0180355Y0494524D03*
X0180355Y0504524D03*
X0180355Y0514524D03*
X0180355Y0524524D03*
X0190355Y0524524D03*
X0190355Y0514524D03*
X0200355Y0514524D03*
X0200355Y0524524D03*
X0210355Y0524524D03*
X0210355Y0514524D03*
X0210355Y0504524D03*
X0200355Y0504524D03*
X0190355Y0504524D03*
X0190355Y0494524D03*
X0190355Y0484524D03*
X0200355Y0484524D03*
X0200355Y0494524D03*
X0210355Y0494524D03*
X0210355Y0484524D03*
X0210355Y0474524D03*
X0200355Y0474524D03*
X0190355Y0474524D03*
X0190355Y0464524D03*
X0190355Y0454524D03*
X0200355Y0454524D03*
X0200355Y0464524D03*
X0210355Y0464524D03*
X0210355Y0454524D03*
X0210355Y0444524D03*
X0200355Y0444524D03*
X0190355Y0444524D03*
X0190355Y0434524D03*
X0200355Y0434524D03*
X0200355Y0424524D03*
X0190355Y0424524D03*
X0190355Y0414524D03*
X0200355Y0414524D03*
X0210355Y0414524D03*
X0210355Y0424524D03*
X0210355Y0434524D03*
X0220355Y0434524D03*
X0220355Y0444524D03*
X0220355Y0454524D03*
X0220355Y0464524D03*
X0220355Y0474524D03*
X0220355Y0484524D03*
X0220355Y0494524D03*
X0220355Y0504524D03*
X0220355Y0514524D03*
X0220355Y0524524D03*
X0230355Y0524524D03*
X0230355Y0514524D03*
X0230355Y0504524D03*
X0230355Y0494524D03*
X0230355Y0484524D03*
X0230355Y0474524D03*
X0230355Y0464524D03*
X0230355Y0454524D03*
X0230355Y0444524D03*
X0240355Y0444524D03*
X0240355Y0454524D03*
X0240355Y0464524D03*
X0240355Y0474524D03*
X0240355Y0484524D03*
X0240355Y0494524D03*
X0240355Y0504524D03*
X0240355Y0514524D03*
X0240355Y0524524D03*
X0250355Y0524524D03*
X0250355Y0514524D03*
X0260355Y0514524D03*
X0260355Y0504524D03*
X0250355Y0504524D03*
X0250355Y0494524D03*
X0250355Y0484524D03*
X0260355Y0484524D03*
X0260355Y0494524D03*
X0270355Y0494524D03*
X0270355Y0484524D03*
X0270355Y0474524D03*
X0260355Y0474524D03*
X0250355Y0474524D03*
X0250355Y0464524D03*
X0250355Y0454524D03*
X0260355Y0454524D03*
X0260355Y0464524D03*
X0270355Y0464524D03*
X0270355Y0444524D03*
X0260355Y0444524D03*
X0250355Y0444524D03*
X0250355Y0434524D03*
X0260355Y0434524D03*
X0260355Y0424524D03*
X0250355Y0424524D03*
X0250355Y0414524D03*
X0260355Y0414524D03*
X0260355Y0404524D03*
X0250355Y0404524D03*
X0240355Y0404524D03*
X0230355Y0404524D03*
X0220355Y0404524D03*
X0210355Y0404524D03*
X0210355Y0394524D03*
X0210355Y0384524D03*
X0200355Y0384524D03*
X0190355Y0384524D03*
X0190355Y0364524D03*
X0190355Y0354524D03*
X0200355Y0354524D03*
X0200355Y0364524D03*
X0210355Y0364524D03*
X0210355Y0354524D03*
X0210355Y0344524D03*
X0200355Y0344524D03*
X0190355Y0344524D03*
X0180355Y0344524D03*
X0170355Y0344524D03*
X0170355Y0354524D03*
X0170355Y0364524D03*
X0160355Y0364524D03*
X0150355Y0364524D03*
X0140355Y0364524D03*
X0140355Y0354524D03*
X0140355Y0344524D03*
X0130355Y0349524D03*
X0120355Y0349524D03*
X0120355Y0359524D03*
X0130355Y0359524D03*
X0130355Y0369524D03*
X0120355Y0369524D03*
X0120355Y0379524D03*
X0130355Y0379524D03*
X0130355Y0389524D03*
X0120355Y0389524D03*
X0120355Y0399524D03*
X0130355Y0399524D03*
X0130355Y0409524D03*
X0120355Y0409524D03*
X0120355Y0419524D03*
X0120355Y0429524D03*
X0130355Y0429524D03*
X0130355Y0419524D03*
X0100355Y0419524D03*
X0100355Y0429524D03*
X0100355Y0444524D03*
X0100355Y0454524D03*
X0100355Y0464524D03*
X0100355Y0474524D03*
X0100355Y0484524D03*
X0100355Y0494524D03*
X0100355Y0504524D03*
X0100355Y0514524D03*
X0100355Y0409524D03*
X0100355Y0399524D03*
X0100355Y0389524D03*
X0100355Y0379524D03*
X0100355Y0369524D03*
X0100355Y0359524D03*
X0100355Y0349524D03*
X0100355Y0339524D03*
X0120355Y0339524D03*
X0130355Y0339524D03*
X0180355Y0354524D03*
X0180355Y0364524D03*
X0220355Y0364524D03*
X0220355Y0354524D03*
X0220355Y0344524D03*
X0230355Y0364524D03*
X0240355Y0364524D03*
X0250355Y0364524D03*
X0250355Y0354524D03*
X0260355Y0354524D03*
X0260355Y0364524D03*
X0260355Y0344524D03*
X0250355Y0344524D03*
X0240355Y0384524D03*
X0240355Y0394524D03*
X0230355Y0394524D03*
X0230355Y0384524D03*
X0220355Y0384524D03*
X0220355Y0394524D03*
X0220355Y0414524D03*
X0220355Y0424524D03*
X0230355Y0414524D03*
X0240355Y0414524D03*
X0270355Y0414524D03*
X0270355Y0424524D03*
X0270355Y0434524D03*
X0270355Y0404524D03*
X0312355Y0409524D03*
X0312355Y0399524D03*
X0312355Y0389524D03*
X0312355Y0379524D03*
X0312355Y0369524D03*
X0312355Y0359524D03*
X0312355Y0349524D03*
X0312355Y0339524D03*
X0332355Y0339524D03*
X0342355Y0339524D03*
X0442355Y0444524D03*
X0442355Y0454524D03*
X0442355Y0464524D03*
X0452355Y0464524D03*
X0452355Y0454524D03*
X0452355Y0444524D03*
X0502355Y0464524D03*
X0502355Y0474524D03*
X0502355Y0484524D03*
X0502355Y0494524D03*
X0502355Y0504524D03*
X0502355Y0514524D03*
X0482355Y0514524D03*
X0482355Y0504524D03*
X0270355Y0504524D03*
X0270355Y0514524D03*
X0482355Y0207524D03*
X0482355Y0197524D03*
X0502355Y0137524D03*
X0472355Y0127524D03*
X0462355Y0127524D03*
X0462355Y0117524D03*
X0462355Y0107524D03*
X0472355Y0107524D03*
X0472355Y0117524D03*
X0342355Y0102524D03*
X0332355Y0102524D03*
X0312355Y0102524D03*
X0312355Y0112524D03*
X0312355Y0122524D03*
X0312355Y0132524D03*
X0312355Y0142524D03*
X0312355Y0152524D03*
X0312355Y0162524D03*
X0130355Y0102524D03*
X0120355Y0102524D03*
D11*
X0271615Y0108587D03*
X0275355Y0116854D03*
X0279096Y0108587D03*
X0286615Y0108587D03*
X0290355Y0116854D03*
X0294096Y0108587D03*
X0483615Y0108587D03*
X0487355Y0116854D03*
X0491096Y0108587D03*
X0498615Y0108587D03*
X0502355Y0116854D03*
X0506096Y0108587D03*
X0506096Y0345587D03*
X0502355Y0353854D03*
X0498615Y0345587D03*
X0491096Y0345587D03*
X0487355Y0353854D03*
X0483615Y0345587D03*
X0294096Y0345587D03*
X0290355Y0353854D03*
X0286615Y0345587D03*
X0279096Y0345587D03*
X0275355Y0353854D03*
X0271615Y0345587D03*
D12*
X0272009Y0334524D03*
X0278702Y0334524D03*
X0287009Y0334524D03*
X0293702Y0334524D03*
X0293702Y0359524D03*
X0287009Y0359524D03*
X0278702Y0359524D03*
X0272009Y0359524D03*
X0484009Y0359524D03*
X0490702Y0359524D03*
X0499009Y0359524D03*
X0505702Y0359524D03*
X0505702Y0334524D03*
X0499009Y0334524D03*
X0490702Y0334524D03*
X0484009Y0334524D03*
X0484009Y0122524D03*
X0490702Y0122524D03*
X0499009Y0122524D03*
X0505702Y0122524D03*
X0505702Y0097524D03*
X0499009Y0097524D03*
X0490702Y0097524D03*
X0484009Y0097524D03*
X0293702Y0097524D03*
X0287009Y0097524D03*
X0278702Y0097524D03*
X0272009Y0097524D03*
X0272009Y0122524D03*
X0278702Y0122524D03*
X0287009Y0122524D03*
X0293702Y0122524D03*
D13*
X0295355Y0082524D03*
X0317355Y0287524D03*
X0295355Y0319524D03*
X0317355Y0524524D03*
X0507355Y0319524D03*
X0507355Y0082524D03*
X0105355Y0287524D03*
X0105355Y0524524D03*
D14*
X0139332Y0305055D03*
X0161379Y0305055D03*
X0169332Y0305055D03*
X0191379Y0305055D03*
X0199332Y0305055D03*
X0221379Y0305055D03*
X0229332Y0305055D03*
X0251379Y0305055D03*
X0351332Y0305055D03*
X0373379Y0305055D03*
X0381332Y0305055D03*
X0403379Y0305055D03*
X0411332Y0305055D03*
X0433379Y0305055D03*
X0441332Y0305055D03*
X0463379Y0305055D03*
X0463379Y0068055D03*
X0441332Y0068055D03*
X0433379Y0068055D03*
X0411332Y0068055D03*
X0403379Y0068055D03*
X0381332Y0068055D03*
X0373379Y0068055D03*
X0351332Y0068055D03*
X0251379Y0068055D03*
X0229332Y0068055D03*
X0221379Y0068055D03*
X0199332Y0068055D03*
X0191379Y0068055D03*
X0169332Y0068055D03*
X0161379Y0068055D03*
X0139332Y0068055D03*
D15*
X0144450Y0082524D03*
X0148387Y0082524D03*
X0152324Y0082524D03*
X0156261Y0082524D03*
X0174450Y0082524D03*
X0178387Y0082524D03*
X0182324Y0082524D03*
X0186261Y0082524D03*
X0204450Y0082524D03*
X0208387Y0082524D03*
X0212324Y0082524D03*
X0216261Y0082524D03*
X0234450Y0082524D03*
X0238387Y0082524D03*
X0242324Y0082524D03*
X0246261Y0082524D03*
X0356450Y0082524D03*
X0360387Y0082524D03*
X0364324Y0082524D03*
X0368261Y0082524D03*
X0386450Y0082524D03*
X0390387Y0082524D03*
X0394324Y0082524D03*
X0398261Y0082524D03*
X0416450Y0082524D03*
X0420387Y0082524D03*
X0424324Y0082524D03*
X0428261Y0082524D03*
X0446450Y0082524D03*
X0450387Y0082524D03*
X0454324Y0082524D03*
X0458261Y0082524D03*
X0458261Y0319524D03*
X0454324Y0319524D03*
X0450387Y0319524D03*
X0446450Y0319524D03*
X0428261Y0319524D03*
X0424324Y0319524D03*
X0420387Y0319524D03*
X0416450Y0319524D03*
X0398261Y0319524D03*
X0394324Y0319524D03*
X0390387Y0319524D03*
X0386450Y0319524D03*
X0368261Y0319524D03*
X0364324Y0319524D03*
X0360387Y0319524D03*
X0356450Y0319524D03*
X0246261Y0319524D03*
X0242324Y0319524D03*
X0238387Y0319524D03*
X0234450Y0319524D03*
X0216261Y0319524D03*
X0212324Y0319524D03*
X0208387Y0319524D03*
X0204450Y0319524D03*
X0186261Y0319524D03*
X0182324Y0319524D03*
X0178387Y0319524D03*
X0174450Y0319524D03*
X0156261Y0319524D03*
X0152324Y0319524D03*
X0148387Y0319524D03*
X0144450Y0319524D03*
D16*
X0095255Y0097524D02*
X0095255Y0074553D01*
X0102385Y0067424D01*
X0135270Y0067424D01*
X0135270Y0072696D01*
X0136265Y0073692D01*
X0142398Y0073692D01*
X0143394Y0072696D01*
X0143394Y0067424D01*
X0157317Y0067424D01*
X0157317Y0072696D01*
X0157444Y0072824D01*
X0153444Y0072824D01*
X0152155Y0074112D01*
X0150124Y0076144D01*
X0150124Y0078166D01*
X0146502Y0078166D01*
X0146202Y0078466D01*
X0145829Y0078366D01*
X0144541Y0078366D01*
X0144541Y0082433D01*
X0144359Y0082433D01*
X0141769Y0082433D01*
X0141769Y0079669D01*
X0141871Y0079287D01*
X0142069Y0078945D01*
X0142348Y0078666D01*
X0142690Y0078468D01*
X0143071Y0078366D01*
X0144359Y0078366D01*
X0144359Y0082433D01*
X0144359Y0082614D01*
X0141769Y0082614D01*
X0141769Y0085379D01*
X0141871Y0085760D01*
X0142069Y0086102D01*
X0142348Y0086381D01*
X0142690Y0086579D01*
X0143071Y0086681D01*
X0144359Y0086681D01*
X0144359Y0082614D01*
X0144541Y0082614D01*
X0144541Y0086681D01*
X0145829Y0086681D01*
X0146187Y0086585D01*
X0146187Y0094466D01*
X0147476Y0095755D01*
X0149244Y0097524D01*
X0122395Y0097524D01*
X0121430Y0097124D01*
X0119281Y0097124D01*
X0118316Y0097524D01*
X0102395Y0097524D01*
X0101430Y0097124D01*
X0099281Y0097124D01*
X0098316Y0097524D01*
X0095255Y0097524D01*
X0095255Y0097472D02*
X0098441Y0097472D01*
X0095255Y0096473D02*
X0148194Y0096473D01*
X0149192Y0097472D02*
X0122269Y0097472D01*
X0118441Y0097472D02*
X0102269Y0097472D01*
X0095255Y0095474D02*
X0147195Y0095474D01*
X0146197Y0094476D02*
X0095255Y0094476D01*
X0095255Y0093477D02*
X0146187Y0093477D01*
X0146187Y0092479D02*
X0095255Y0092479D01*
X0095255Y0091480D02*
X0146187Y0091480D01*
X0146187Y0090482D02*
X0095255Y0090482D01*
X0095255Y0089483D02*
X0146187Y0089483D01*
X0146187Y0088485D02*
X0095255Y0088485D01*
X0095255Y0087486D02*
X0146187Y0087486D01*
X0144541Y0086488D02*
X0144359Y0086488D01*
X0144359Y0085489D02*
X0144541Y0085489D01*
X0144541Y0084491D02*
X0144359Y0084491D01*
X0144359Y0083492D02*
X0144541Y0083492D01*
X0144359Y0082494D02*
X0095255Y0082494D01*
X0095255Y0083492D02*
X0141769Y0083492D01*
X0141769Y0084491D02*
X0095255Y0084491D01*
X0095255Y0085489D02*
X0141799Y0085489D01*
X0142532Y0086488D02*
X0095255Y0086488D01*
X0095255Y0081495D02*
X0141769Y0081495D01*
X0141769Y0080497D02*
X0095255Y0080497D01*
X0095255Y0079498D02*
X0141814Y0079498D01*
X0142635Y0078500D02*
X0095255Y0078500D01*
X0095255Y0077501D02*
X0150124Y0077501D01*
X0150124Y0076503D02*
X0095255Y0076503D01*
X0095255Y0075504D02*
X0150764Y0075504D01*
X0151762Y0074506D02*
X0095303Y0074506D01*
X0096301Y0073507D02*
X0136081Y0073507D01*
X0135270Y0072509D02*
X0097300Y0072509D01*
X0098298Y0071510D02*
X0135270Y0071510D01*
X0135270Y0070512D02*
X0099297Y0070512D01*
X0100296Y0069513D02*
X0135270Y0069513D01*
X0135270Y0068515D02*
X0101294Y0068515D01*
X0102293Y0067516D02*
X0135270Y0067516D01*
X0143394Y0067516D02*
X0157317Y0067516D01*
X0157317Y0068515D02*
X0143394Y0068515D01*
X0143394Y0069513D02*
X0157317Y0069513D01*
X0157317Y0070512D02*
X0143394Y0070512D01*
X0143394Y0071510D02*
X0157317Y0071510D01*
X0157317Y0072509D02*
X0143394Y0072509D01*
X0142583Y0073507D02*
X0152761Y0073507D01*
X0154355Y0075024D02*
X0182355Y0075024D01*
X0182324Y0075055D01*
X0182324Y0082524D01*
X0186261Y0082524D02*
X0186261Y0088429D01*
X0187855Y0090024D01*
X0184605Y0089885D02*
X0184061Y0089340D01*
X0184061Y0086881D01*
X0180587Y0086881D01*
X0180587Y0095324D01*
X0206187Y0095324D01*
X0206187Y0086585D01*
X0205829Y0086681D01*
X0204541Y0086681D01*
X0204541Y0082614D01*
X0204359Y0082614D01*
X0204359Y0082433D01*
X0201769Y0082433D01*
X0201769Y0079669D01*
X0201871Y0079287D01*
X0202069Y0078945D01*
X0202348Y0078666D01*
X0202690Y0078468D01*
X0203071Y0078366D01*
X0204359Y0078366D01*
X0204359Y0082433D01*
X0204541Y0082433D01*
X0204541Y0078366D01*
X0205829Y0078366D01*
X0206202Y0078466D01*
X0206502Y0078166D01*
X0210124Y0078166D01*
X0210124Y0077224D01*
X0184524Y0077224D01*
X0184524Y0078166D01*
X0188146Y0078166D01*
X0189142Y0079162D01*
X0189142Y0085885D01*
X0188461Y0086566D01*
X0188461Y0086774D01*
X0188502Y0086774D01*
X0189696Y0087268D01*
X0190611Y0088183D01*
X0191105Y0089377D01*
X0191105Y0090670D01*
X0190611Y0091865D01*
X0189696Y0092779D01*
X0188502Y0093274D01*
X0187209Y0093274D01*
X0186014Y0092779D01*
X0185100Y0091865D01*
X0184605Y0090670D01*
X0184605Y0089885D01*
X0184204Y0089483D02*
X0180587Y0089483D01*
X0180587Y0088485D02*
X0184061Y0088485D01*
X0184061Y0087486D02*
X0180587Y0087486D01*
X0180587Y0090482D02*
X0184605Y0090482D01*
X0184941Y0091480D02*
X0180587Y0091480D01*
X0180587Y0092479D02*
X0185715Y0092479D01*
X0189996Y0092479D02*
X0206187Y0092479D01*
X0206187Y0093477D02*
X0180587Y0093477D01*
X0180587Y0094476D02*
X0206187Y0094476D01*
X0206187Y0091480D02*
X0190770Y0091480D01*
X0191105Y0090482D02*
X0206187Y0090482D01*
X0206187Y0089483D02*
X0191105Y0089483D01*
X0190736Y0088485D02*
X0206187Y0088485D01*
X0206187Y0087486D02*
X0189914Y0087486D01*
X0188539Y0086488D02*
X0202532Y0086488D01*
X0202690Y0086579D02*
X0202348Y0086381D01*
X0202069Y0086102D01*
X0201871Y0085760D01*
X0201769Y0085379D01*
X0201769Y0082614D01*
X0204359Y0082614D01*
X0204359Y0086681D01*
X0203071Y0086681D01*
X0202690Y0086579D01*
X0201799Y0085489D02*
X0189142Y0085489D01*
X0189142Y0084491D02*
X0201769Y0084491D01*
X0201769Y0083492D02*
X0189142Y0083492D01*
X0189142Y0082494D02*
X0204359Y0082494D01*
X0204359Y0083492D02*
X0204541Y0083492D01*
X0204541Y0084491D02*
X0204359Y0084491D01*
X0204359Y0085489D02*
X0204541Y0085489D01*
X0204541Y0086488D02*
X0204359Y0086488D01*
X0204359Y0081495D02*
X0204541Y0081495D01*
X0204541Y0080497D02*
X0204359Y0080497D01*
X0204359Y0079498D02*
X0204541Y0079498D01*
X0204541Y0078500D02*
X0204359Y0078500D01*
X0202635Y0078500D02*
X0188480Y0078500D01*
X0189142Y0079498D02*
X0201814Y0079498D01*
X0201769Y0080497D02*
X0189142Y0080497D01*
X0189142Y0081495D02*
X0201769Y0081495D01*
X0208387Y0082524D02*
X0208387Y0097492D01*
X0208355Y0097524D01*
X0178355Y0097524D01*
X0178387Y0097492D01*
X0178387Y0082524D01*
X0174541Y0082614D02*
X0174359Y0082614D01*
X0174359Y0082433D01*
X0171769Y0082433D01*
X0171769Y0079669D01*
X0171871Y0079287D01*
X0172069Y0078945D01*
X0172348Y0078666D01*
X0172690Y0078468D01*
X0173071Y0078366D01*
X0174359Y0078366D01*
X0174359Y0082433D01*
X0174541Y0082433D01*
X0174541Y0078366D01*
X0175829Y0078366D01*
X0176202Y0078466D01*
X0176502Y0078166D01*
X0180124Y0078166D01*
X0180124Y0077224D01*
X0155267Y0077224D01*
X0154524Y0077966D01*
X0154524Y0078166D01*
X0158146Y0078166D01*
X0159142Y0079162D01*
X0159142Y0085885D01*
X0158461Y0086566D01*
X0158461Y0086774D01*
X0158502Y0086774D01*
X0159696Y0087268D01*
X0160611Y0088183D01*
X0161105Y0089377D01*
X0161105Y0090670D01*
X0160611Y0091865D01*
X0159696Y0092779D01*
X0158502Y0093274D01*
X0157209Y0093274D01*
X0156014Y0092779D01*
X0155100Y0091865D01*
X0154605Y0090670D01*
X0154605Y0089885D01*
X0154061Y0089340D01*
X0154061Y0086881D01*
X0150587Y0086881D01*
X0150587Y0092644D01*
X0153267Y0095324D01*
X0176187Y0095324D01*
X0176187Y0086585D01*
X0175829Y0086681D01*
X0174541Y0086681D01*
X0174541Y0082614D01*
X0174359Y0082614D02*
X0174359Y0086681D01*
X0173071Y0086681D01*
X0172690Y0086579D01*
X0172348Y0086381D01*
X0172069Y0086102D01*
X0171871Y0085760D01*
X0171769Y0085379D01*
X0171769Y0082614D01*
X0174359Y0082614D01*
X0174359Y0082494D02*
X0159142Y0082494D01*
X0159142Y0083492D02*
X0171769Y0083492D01*
X0171769Y0084491D02*
X0159142Y0084491D01*
X0159142Y0085489D02*
X0171799Y0085489D01*
X0172532Y0086488D02*
X0158539Y0086488D01*
X0159914Y0087486D02*
X0176187Y0087486D01*
X0176187Y0088485D02*
X0160736Y0088485D01*
X0161105Y0089483D02*
X0176187Y0089483D01*
X0176187Y0090482D02*
X0161105Y0090482D01*
X0160770Y0091480D02*
X0176187Y0091480D01*
X0176187Y0092479D02*
X0159996Y0092479D01*
X0157855Y0090024D02*
X0156261Y0088429D01*
X0156261Y0082524D01*
X0159142Y0081495D02*
X0171769Y0081495D01*
X0171769Y0080497D02*
X0159142Y0080497D01*
X0159142Y0079498D02*
X0171814Y0079498D01*
X0172635Y0078500D02*
X0158480Y0078500D01*
X0154989Y0077501D02*
X0180124Y0077501D01*
X0182355Y0075024D02*
X0212355Y0075024D01*
X0212324Y0075055D01*
X0212324Y0082524D01*
X0216261Y0082524D02*
X0216261Y0088429D01*
X0217855Y0090024D01*
X0214605Y0089885D02*
X0214061Y0089340D01*
X0214061Y0086881D01*
X0210587Y0086881D01*
X0210587Y0095324D01*
X0236187Y0095324D01*
X0236187Y0086585D01*
X0235829Y0086681D01*
X0234541Y0086681D01*
X0234541Y0082614D01*
X0234359Y0082614D01*
X0234359Y0082433D01*
X0231769Y0082433D01*
X0231769Y0079669D01*
X0231871Y0079287D01*
X0232069Y0078945D01*
X0232348Y0078666D01*
X0232690Y0078468D01*
X0233071Y0078366D01*
X0234359Y0078366D01*
X0234359Y0082433D01*
X0234541Y0082433D01*
X0234541Y0078366D01*
X0235829Y0078366D01*
X0236202Y0078466D01*
X0236502Y0078166D01*
X0240124Y0078166D01*
X0240124Y0077224D01*
X0214524Y0077224D01*
X0214524Y0078166D01*
X0218146Y0078166D01*
X0219142Y0079162D01*
X0219142Y0085885D01*
X0218461Y0086566D01*
X0218461Y0086774D01*
X0218502Y0086774D01*
X0219696Y0087268D01*
X0220611Y0088183D01*
X0221105Y0089377D01*
X0221105Y0090670D01*
X0220611Y0091865D01*
X0219696Y0092779D01*
X0218502Y0093274D01*
X0217209Y0093274D01*
X0216014Y0092779D01*
X0215100Y0091865D01*
X0214605Y0090670D01*
X0214605Y0089885D01*
X0214204Y0089483D02*
X0210587Y0089483D01*
X0210587Y0088485D02*
X0214061Y0088485D01*
X0214061Y0087486D02*
X0210587Y0087486D01*
X0210587Y0090482D02*
X0214605Y0090482D01*
X0214941Y0091480D02*
X0210587Y0091480D01*
X0210587Y0092479D02*
X0215715Y0092479D01*
X0219996Y0092479D02*
X0236187Y0092479D01*
X0236187Y0093477D02*
X0210587Y0093477D01*
X0210587Y0094476D02*
X0236187Y0094476D01*
X0236187Y0091480D02*
X0220770Y0091480D01*
X0221105Y0090482D02*
X0236187Y0090482D01*
X0236187Y0089483D02*
X0221105Y0089483D01*
X0220736Y0088485D02*
X0236187Y0088485D01*
X0236187Y0087486D02*
X0219914Y0087486D01*
X0218539Y0086488D02*
X0232532Y0086488D01*
X0232690Y0086579D02*
X0232348Y0086381D01*
X0232069Y0086102D01*
X0231871Y0085760D01*
X0231769Y0085379D01*
X0231769Y0082614D01*
X0234359Y0082614D01*
X0234359Y0086681D01*
X0233071Y0086681D01*
X0232690Y0086579D01*
X0231799Y0085489D02*
X0219142Y0085489D01*
X0219142Y0084491D02*
X0231769Y0084491D01*
X0231769Y0083492D02*
X0219142Y0083492D01*
X0219142Y0082494D02*
X0234359Y0082494D01*
X0234359Y0083492D02*
X0234541Y0083492D01*
X0234541Y0084491D02*
X0234359Y0084491D01*
X0234359Y0085489D02*
X0234541Y0085489D01*
X0234541Y0086488D02*
X0234359Y0086488D01*
X0234359Y0081495D02*
X0234541Y0081495D01*
X0234541Y0080497D02*
X0234359Y0080497D01*
X0234359Y0079498D02*
X0234541Y0079498D01*
X0234541Y0078500D02*
X0234359Y0078500D01*
X0232635Y0078500D02*
X0218480Y0078500D01*
X0219142Y0079498D02*
X0231814Y0079498D01*
X0231769Y0080497D02*
X0219142Y0080497D01*
X0219142Y0081495D02*
X0231769Y0081495D01*
X0238387Y0082524D02*
X0238387Y0097492D01*
X0238355Y0097524D01*
X0208355Y0097524D01*
X0210124Y0077501D02*
X0184524Y0077501D01*
X0174541Y0078500D02*
X0174359Y0078500D01*
X0174359Y0079498D02*
X0174541Y0079498D01*
X0174541Y0080497D02*
X0174359Y0080497D01*
X0174359Y0081495D02*
X0174541Y0081495D01*
X0174541Y0083492D02*
X0174359Y0083492D01*
X0174359Y0084491D02*
X0174541Y0084491D01*
X0174541Y0085489D02*
X0174359Y0085489D01*
X0174359Y0086488D02*
X0174541Y0086488D01*
X0176187Y0093477D02*
X0151421Y0093477D01*
X0150587Y0092479D02*
X0155715Y0092479D01*
X0154941Y0091480D02*
X0150587Y0091480D01*
X0150587Y0090482D02*
X0154605Y0090482D01*
X0154204Y0089483D02*
X0150587Y0089483D01*
X0150587Y0088485D02*
X0154061Y0088485D01*
X0154061Y0087486D02*
X0150587Y0087486D01*
X0152324Y0082524D02*
X0152324Y0077055D01*
X0154355Y0075024D01*
X0148387Y0082524D02*
X0148387Y0093555D01*
X0152355Y0097524D01*
X0178355Y0097524D01*
X0176187Y0094476D02*
X0152419Y0094476D01*
X0144541Y0081495D02*
X0144359Y0081495D01*
X0144359Y0080497D02*
X0144541Y0080497D01*
X0144541Y0079498D02*
X0144359Y0079498D01*
X0144359Y0078500D02*
X0144541Y0078500D01*
X0212355Y0075024D02*
X0242355Y0075024D01*
X0242324Y0075055D01*
X0242324Y0082524D01*
X0246261Y0082524D02*
X0246261Y0088429D01*
X0247855Y0090024D01*
X0255855Y0084524D02*
X0255855Y0079024D01*
X0251855Y0075024D01*
X0242355Y0075024D01*
X0240124Y0077501D02*
X0214524Y0077501D01*
X0238355Y0097524D02*
X0272009Y0097524D01*
X0272009Y0094870D01*
X0273855Y0093024D01*
X0285355Y0093024D01*
X0287009Y0094677D01*
X0287009Y0097524D01*
X0287009Y0102370D01*
X0286615Y0102764D01*
X0286615Y0108587D01*
X0282855Y0102524D02*
X0279336Y0102524D01*
X0279096Y0102764D01*
X0278702Y0102370D01*
X0278702Y0097524D01*
X0279096Y0102764D02*
X0279096Y0108587D01*
X0278855Y0116854D02*
X0275355Y0116854D01*
X0278702Y0117008D02*
X0278702Y0122524D01*
X0278702Y0117008D02*
X0278855Y0116854D01*
X0282686Y0116854D01*
X0282855Y0117024D01*
X0287009Y0122524D02*
X0287009Y0126370D01*
X0285855Y0127524D01*
X0272009Y0127524D01*
X0272009Y0134177D01*
X0280355Y0142524D01*
X0280355Y0177524D01*
X0273355Y0167524D02*
X0270355Y0167524D01*
X0273355Y0167524D02*
X0276355Y0164524D01*
X0276355Y0143524D01*
X0267855Y0135024D01*
X0267855Y0115024D01*
X0271615Y0111264D01*
X0271615Y0108587D01*
X0271615Y0102764D01*
X0272009Y0102370D01*
X0272009Y0097524D01*
X0258855Y0087524D02*
X0288855Y0087524D01*
X0293702Y0092370D01*
X0293702Y0097524D01*
X0293702Y0102370D01*
X0294096Y0102764D01*
X0294096Y0108587D01*
X0292686Y0116854D02*
X0293702Y0117870D01*
X0293702Y0122524D01*
X0293702Y0127177D01*
X0290355Y0130524D01*
X0284855Y0130524D01*
X0282855Y0132524D01*
X0282855Y0265524D01*
X0284855Y0267524D01*
X0290355Y0267524D01*
X0288326Y0304424D02*
X0255441Y0304424D01*
X0255441Y0309696D01*
X0254445Y0310692D01*
X0253635Y0310692D01*
X0256767Y0313824D01*
X0258055Y0315112D01*
X0258055Y0320612D01*
X0259767Y0322324D01*
X0289767Y0322324D01*
X0294613Y0327170D01*
X0295455Y0328012D01*
X0295455Y0323192D01*
X0294626Y0323192D01*
X0293277Y0322634D01*
X0292245Y0321602D01*
X0291687Y0320253D01*
X0291687Y0318794D01*
X0292245Y0317446D01*
X0293277Y0316414D01*
X0294626Y0315855D01*
X0295455Y0315855D01*
X0295455Y0311553D01*
X0288326Y0304424D01*
X0289064Y0305162D02*
X0255441Y0305162D01*
X0255441Y0306160D02*
X0290063Y0306160D01*
X0291061Y0307159D02*
X0255441Y0307159D01*
X0255441Y0308157D02*
X0292060Y0308157D01*
X0293058Y0309156D02*
X0255441Y0309156D01*
X0254983Y0310154D02*
X0294057Y0310154D01*
X0295055Y0311153D02*
X0254096Y0311153D01*
X0255095Y0312151D02*
X0295455Y0312151D01*
X0295455Y0313150D02*
X0256093Y0313150D01*
X0257092Y0314148D02*
X0295455Y0314148D01*
X0295455Y0315147D02*
X0258055Y0315147D01*
X0258055Y0316145D02*
X0293925Y0316145D01*
X0292547Y0317144D02*
X0258055Y0317144D01*
X0258055Y0318143D02*
X0291957Y0318143D01*
X0291687Y0319141D02*
X0258055Y0319141D01*
X0258055Y0320140D02*
X0291687Y0320140D01*
X0292053Y0321138D02*
X0258581Y0321138D01*
X0259580Y0322137D02*
X0292780Y0322137D01*
X0294488Y0323135D02*
X0290578Y0323135D01*
X0291577Y0324134D02*
X0295455Y0324134D01*
X0295455Y0325132D02*
X0292575Y0325132D01*
X0293574Y0326131D02*
X0295455Y0326131D01*
X0295455Y0327129D02*
X0294572Y0327129D01*
X0293702Y0329370D02*
X0293702Y0334524D01*
X0293702Y0339370D01*
X0294096Y0339764D01*
X0294096Y0345587D01*
X0292686Y0353854D02*
X0293702Y0354870D01*
X0293702Y0359524D01*
X0293702Y0364177D01*
X0290355Y0367524D01*
X0284855Y0367524D01*
X0282855Y0369524D01*
X0282855Y0502524D01*
X0284855Y0504524D01*
X0290355Y0504524D01*
X0280355Y0414524D02*
X0280355Y0379524D01*
X0272009Y0371177D01*
X0272009Y0364524D01*
X0272009Y0359524D01*
X0272009Y0364524D02*
X0285855Y0364524D01*
X0287009Y0363370D01*
X0287009Y0359524D01*
X0290355Y0353854D02*
X0292686Y0353854D01*
X0282855Y0354024D02*
X0282686Y0353854D01*
X0278855Y0353854D01*
X0278702Y0354008D01*
X0278702Y0359524D01*
X0278855Y0353854D02*
X0275355Y0353854D01*
X0271615Y0348264D02*
X0271615Y0345587D01*
X0271615Y0339764D01*
X0272009Y0339370D01*
X0272009Y0334524D01*
X0272009Y0331870D01*
X0273855Y0330024D01*
X0285355Y0330024D01*
X0287009Y0331677D01*
X0287009Y0334524D01*
X0287009Y0339370D01*
X0286615Y0339764D01*
X0286615Y0345587D01*
X0282855Y0339524D02*
X0279336Y0339524D01*
X0279096Y0339764D01*
X0278702Y0339370D01*
X0278702Y0334524D01*
X0279096Y0339764D02*
X0279096Y0345587D01*
X0271615Y0348264D02*
X0267855Y0352024D01*
X0267855Y0372024D01*
X0276355Y0380524D01*
X0276355Y0401524D01*
X0273355Y0404524D01*
X0270355Y0404524D01*
X0272009Y0334524D02*
X0238355Y0334524D01*
X0238387Y0334492D01*
X0238387Y0319524D01*
X0234541Y0319614D02*
X0234359Y0319614D01*
X0234359Y0319433D01*
X0231769Y0319433D01*
X0231769Y0316669D01*
X0231871Y0316287D01*
X0232069Y0315945D01*
X0232348Y0315666D01*
X0232690Y0315468D01*
X0233071Y0315366D01*
X0234359Y0315366D01*
X0234359Y0319433D01*
X0234541Y0319433D01*
X0234541Y0315366D01*
X0235829Y0315366D01*
X0236202Y0315466D01*
X0236502Y0315166D01*
X0240124Y0315166D01*
X0240124Y0314224D01*
X0214524Y0314224D01*
X0214524Y0315166D01*
X0218146Y0315166D01*
X0219142Y0316162D01*
X0219142Y0322885D01*
X0218461Y0323566D01*
X0218461Y0323774D01*
X0218502Y0323774D01*
X0219696Y0324268D01*
X0220611Y0325183D01*
X0221105Y0326377D01*
X0221105Y0327670D01*
X0220611Y0328865D01*
X0219696Y0329779D01*
X0218502Y0330274D01*
X0217209Y0330274D01*
X0216014Y0329779D01*
X0215100Y0328865D01*
X0214605Y0327670D01*
X0214605Y0326885D01*
X0214061Y0326340D01*
X0214061Y0323881D01*
X0210587Y0323881D01*
X0210587Y0332324D01*
X0236187Y0332324D01*
X0236187Y0323585D01*
X0235829Y0323681D01*
X0234541Y0323681D01*
X0234541Y0319614D01*
X0234359Y0319614D02*
X0234359Y0323681D01*
X0233071Y0323681D01*
X0232690Y0323579D01*
X0232348Y0323381D01*
X0232069Y0323102D01*
X0231871Y0322760D01*
X0231769Y0322379D01*
X0231769Y0319614D01*
X0234359Y0319614D01*
X0234359Y0319141D02*
X0234541Y0319141D01*
X0234541Y0318143D02*
X0234359Y0318143D01*
X0234359Y0317144D02*
X0234541Y0317144D01*
X0234541Y0316145D02*
X0234359Y0316145D01*
X0231953Y0316145D02*
X0219126Y0316145D01*
X0219142Y0317144D02*
X0231769Y0317144D01*
X0231769Y0318143D02*
X0219142Y0318143D01*
X0219142Y0319141D02*
X0231769Y0319141D01*
X0231769Y0320140D02*
X0219142Y0320140D01*
X0219142Y0321138D02*
X0231769Y0321138D01*
X0231769Y0322137D02*
X0219142Y0322137D01*
X0218892Y0323135D02*
X0232102Y0323135D01*
X0234359Y0323135D02*
X0234541Y0323135D01*
X0234541Y0322137D02*
X0234359Y0322137D01*
X0234359Y0321138D02*
X0234541Y0321138D01*
X0234541Y0320140D02*
X0234359Y0320140D01*
X0236187Y0324134D02*
X0219371Y0324134D01*
X0220560Y0325132D02*
X0236187Y0325132D01*
X0236187Y0326131D02*
X0221003Y0326131D01*
X0221105Y0327129D02*
X0236187Y0327129D01*
X0236187Y0328128D02*
X0220916Y0328128D01*
X0220349Y0329126D02*
X0236187Y0329126D01*
X0236187Y0330125D02*
X0218862Y0330125D01*
X0216849Y0330125D02*
X0210587Y0330125D01*
X0210587Y0331123D02*
X0236187Y0331123D01*
X0236187Y0332122D02*
X0210587Y0332122D01*
X0210587Y0329126D02*
X0215362Y0329126D01*
X0214795Y0328128D02*
X0210587Y0328128D01*
X0210587Y0327129D02*
X0214605Y0327129D01*
X0214061Y0326131D02*
X0210587Y0326131D01*
X0210587Y0325132D02*
X0214061Y0325132D01*
X0214061Y0324134D02*
X0210587Y0324134D01*
X0206187Y0324134D02*
X0189371Y0324134D01*
X0189696Y0324268D02*
X0190611Y0325183D01*
X0191105Y0326377D01*
X0191105Y0327670D01*
X0190611Y0328865D01*
X0189696Y0329779D01*
X0188502Y0330274D01*
X0187209Y0330274D01*
X0186014Y0329779D01*
X0185100Y0328865D01*
X0184605Y0327670D01*
X0184605Y0326885D01*
X0184061Y0326340D01*
X0184061Y0323881D01*
X0180587Y0323881D01*
X0180587Y0332324D01*
X0206187Y0332324D01*
X0206187Y0323585D01*
X0205829Y0323681D01*
X0204541Y0323681D01*
X0204541Y0319614D01*
X0204359Y0319614D01*
X0204359Y0319433D01*
X0201769Y0319433D01*
X0201769Y0316669D01*
X0201871Y0316287D01*
X0202069Y0315945D01*
X0202348Y0315666D01*
X0202690Y0315468D01*
X0203071Y0315366D01*
X0204359Y0315366D01*
X0204359Y0319433D01*
X0204541Y0319433D01*
X0204541Y0315366D01*
X0205829Y0315366D01*
X0206202Y0315466D01*
X0206502Y0315166D01*
X0210124Y0315166D01*
X0210124Y0314224D01*
X0184524Y0314224D01*
X0184524Y0315166D01*
X0188146Y0315166D01*
X0189142Y0316162D01*
X0189142Y0322885D01*
X0188461Y0323566D01*
X0188461Y0323774D01*
X0188502Y0323774D01*
X0189696Y0324268D01*
X0190560Y0325132D02*
X0206187Y0325132D01*
X0206187Y0326131D02*
X0191003Y0326131D01*
X0191105Y0327129D02*
X0206187Y0327129D01*
X0206187Y0328128D02*
X0190916Y0328128D01*
X0190349Y0329126D02*
X0206187Y0329126D01*
X0206187Y0330125D02*
X0188862Y0330125D01*
X0186849Y0330125D02*
X0180587Y0330125D01*
X0180587Y0331123D02*
X0206187Y0331123D01*
X0206187Y0332122D02*
X0180587Y0332122D01*
X0180587Y0329126D02*
X0185362Y0329126D01*
X0184795Y0328128D02*
X0180587Y0328128D01*
X0180587Y0327129D02*
X0184605Y0327129D01*
X0184061Y0326131D02*
X0180587Y0326131D01*
X0180587Y0325132D02*
X0184061Y0325132D01*
X0184061Y0324134D02*
X0180587Y0324134D01*
X0176187Y0324134D02*
X0159371Y0324134D01*
X0159696Y0324268D02*
X0160611Y0325183D01*
X0161105Y0326377D01*
X0161105Y0327670D01*
X0160611Y0328865D01*
X0159696Y0329779D01*
X0158502Y0330274D01*
X0157209Y0330274D01*
X0156014Y0329779D01*
X0155100Y0328865D01*
X0154605Y0327670D01*
X0154605Y0326885D01*
X0154061Y0326340D01*
X0154061Y0323881D01*
X0150587Y0323881D01*
X0150587Y0329644D01*
X0153267Y0332324D01*
X0176187Y0332324D01*
X0176187Y0323585D01*
X0175829Y0323681D01*
X0174541Y0323681D01*
X0174541Y0319614D01*
X0174359Y0319614D01*
X0174359Y0319433D01*
X0171769Y0319433D01*
X0171769Y0316669D01*
X0171871Y0316287D01*
X0172069Y0315945D01*
X0172348Y0315666D01*
X0172690Y0315468D01*
X0173071Y0315366D01*
X0174359Y0315366D01*
X0174359Y0319433D01*
X0174541Y0319433D01*
X0174541Y0315366D01*
X0175829Y0315366D01*
X0176202Y0315466D01*
X0176502Y0315166D01*
X0180124Y0315166D01*
X0180124Y0314224D01*
X0155267Y0314224D01*
X0154524Y0314966D01*
X0154524Y0315166D01*
X0158146Y0315166D01*
X0159142Y0316162D01*
X0159142Y0322885D01*
X0158461Y0323566D01*
X0158461Y0323774D01*
X0158502Y0323774D01*
X0159696Y0324268D01*
X0160560Y0325132D02*
X0176187Y0325132D01*
X0176187Y0326131D02*
X0161003Y0326131D01*
X0161105Y0327129D02*
X0176187Y0327129D01*
X0176187Y0328128D02*
X0160916Y0328128D01*
X0160349Y0329126D02*
X0176187Y0329126D01*
X0176187Y0330125D02*
X0158862Y0330125D01*
X0156849Y0330125D02*
X0151068Y0330125D01*
X0150587Y0329126D02*
X0155362Y0329126D01*
X0154795Y0328128D02*
X0150587Y0328128D01*
X0150587Y0327129D02*
X0154605Y0327129D01*
X0154061Y0326131D02*
X0150587Y0326131D01*
X0150587Y0325132D02*
X0154061Y0325132D01*
X0154061Y0324134D02*
X0150587Y0324134D01*
X0146187Y0324134D02*
X0095255Y0324134D01*
X0095255Y0325132D02*
X0146187Y0325132D01*
X0146187Y0326131D02*
X0095255Y0326131D01*
X0095255Y0327129D02*
X0146187Y0327129D01*
X0146187Y0328128D02*
X0095255Y0328128D01*
X0095255Y0329126D02*
X0146187Y0329126D01*
X0146187Y0330125D02*
X0095255Y0330125D01*
X0095255Y0331123D02*
X0146187Y0331123D01*
X0146187Y0331466D02*
X0146187Y0323585D01*
X0145829Y0323681D01*
X0144541Y0323681D01*
X0144541Y0319614D01*
X0144359Y0319614D01*
X0144359Y0319433D01*
X0141769Y0319433D01*
X0141769Y0316669D01*
X0141871Y0316287D01*
X0142069Y0315945D01*
X0142348Y0315666D01*
X0142690Y0315468D01*
X0143071Y0315366D01*
X0144359Y0315366D01*
X0144359Y0319433D01*
X0144541Y0319433D01*
X0144541Y0315366D01*
X0145829Y0315366D01*
X0146202Y0315466D01*
X0146502Y0315166D01*
X0150124Y0315166D01*
X0150124Y0313144D01*
X0152155Y0311112D01*
X0153444Y0309824D01*
X0157444Y0309824D01*
X0157317Y0309696D01*
X0157317Y0304424D01*
X0143394Y0304424D01*
X0143394Y0309696D01*
X0142398Y0310692D01*
X0136265Y0310692D01*
X0135270Y0309696D01*
X0135270Y0304424D01*
X0102385Y0304424D01*
X0095255Y0311553D01*
X0095255Y0334524D01*
X0098316Y0334524D01*
X0099281Y0334124D01*
X0101430Y0334124D01*
X0102395Y0334524D01*
X0118316Y0334524D01*
X0119281Y0334124D01*
X0121430Y0334124D01*
X0122395Y0334524D01*
X0149244Y0334524D01*
X0147476Y0332755D01*
X0146187Y0331466D01*
X0146842Y0332122D02*
X0095255Y0332122D01*
X0095255Y0333120D02*
X0147841Y0333120D01*
X0148839Y0334119D02*
X0095255Y0334119D01*
X0095255Y0323135D02*
X0142102Y0323135D01*
X0142069Y0323102D02*
X0141871Y0322760D01*
X0141769Y0322379D01*
X0141769Y0319614D01*
X0144359Y0319614D01*
X0144359Y0323681D01*
X0143071Y0323681D01*
X0142690Y0323579D01*
X0142348Y0323381D01*
X0142069Y0323102D01*
X0141769Y0322137D02*
X0095255Y0322137D01*
X0095255Y0321138D02*
X0141769Y0321138D01*
X0141769Y0320140D02*
X0095255Y0320140D01*
X0095255Y0319141D02*
X0141769Y0319141D01*
X0141769Y0318143D02*
X0095255Y0318143D01*
X0095255Y0317144D02*
X0141769Y0317144D01*
X0141953Y0316145D02*
X0095255Y0316145D01*
X0095255Y0315147D02*
X0150124Y0315147D01*
X0150124Y0314148D02*
X0095255Y0314148D01*
X0095255Y0313150D02*
X0150124Y0313150D01*
X0151116Y0312151D02*
X0095255Y0312151D01*
X0095656Y0311153D02*
X0152115Y0311153D01*
X0153113Y0310154D02*
X0142936Y0310154D01*
X0143394Y0309156D02*
X0157317Y0309156D01*
X0157317Y0308157D02*
X0143394Y0308157D01*
X0143394Y0307159D02*
X0157317Y0307159D01*
X0157317Y0306160D02*
X0143394Y0306160D01*
X0143394Y0305162D02*
X0157317Y0305162D01*
X0154355Y0312024D02*
X0182355Y0312024D01*
X0182324Y0312055D01*
X0182324Y0319524D01*
X0186261Y0319524D02*
X0186261Y0325429D01*
X0187855Y0327024D01*
X0188892Y0323135D02*
X0202102Y0323135D01*
X0202069Y0323102D02*
X0201871Y0322760D01*
X0201769Y0322379D01*
X0201769Y0319614D01*
X0204359Y0319614D01*
X0204359Y0323681D01*
X0203071Y0323681D01*
X0202690Y0323579D01*
X0202348Y0323381D01*
X0202069Y0323102D01*
X0201769Y0322137D02*
X0189142Y0322137D01*
X0189142Y0321138D02*
X0201769Y0321138D01*
X0201769Y0320140D02*
X0189142Y0320140D01*
X0189142Y0319141D02*
X0201769Y0319141D01*
X0201769Y0318143D02*
X0189142Y0318143D01*
X0189142Y0317144D02*
X0201769Y0317144D01*
X0201953Y0316145D02*
X0189126Y0316145D01*
X0184524Y0315147D02*
X0210124Y0315147D01*
X0212324Y0312055D02*
X0212355Y0312024D01*
X0242355Y0312024D01*
X0242324Y0312055D01*
X0242324Y0319524D01*
X0246261Y0319524D02*
X0246261Y0325429D01*
X0247855Y0327024D01*
X0255855Y0321524D02*
X0255855Y0316024D01*
X0251855Y0312024D01*
X0242355Y0312024D01*
X0240124Y0315147D02*
X0214524Y0315147D01*
X0212324Y0312055D02*
X0212324Y0319524D01*
X0216261Y0319524D02*
X0216261Y0325429D01*
X0217855Y0327024D01*
X0208387Y0334492D02*
X0208387Y0319524D01*
X0204541Y0319141D02*
X0204359Y0319141D01*
X0204359Y0318143D02*
X0204541Y0318143D01*
X0204541Y0317144D02*
X0204359Y0317144D01*
X0204359Y0316145D02*
X0204541Y0316145D01*
X0204541Y0320140D02*
X0204359Y0320140D01*
X0204359Y0321138D02*
X0204541Y0321138D01*
X0204541Y0322137D02*
X0204359Y0322137D01*
X0204359Y0323135D02*
X0204541Y0323135D01*
X0208387Y0334492D02*
X0208355Y0334524D01*
X0178355Y0334524D01*
X0178387Y0334492D01*
X0178387Y0319524D01*
X0174541Y0319141D02*
X0174359Y0319141D01*
X0174359Y0319614D02*
X0171769Y0319614D01*
X0171769Y0322379D01*
X0171871Y0322760D01*
X0172069Y0323102D01*
X0172348Y0323381D01*
X0172690Y0323579D01*
X0173071Y0323681D01*
X0174359Y0323681D01*
X0174359Y0319614D01*
X0174359Y0320140D02*
X0174541Y0320140D01*
X0174541Y0321138D02*
X0174359Y0321138D01*
X0174359Y0322137D02*
X0174541Y0322137D01*
X0174541Y0323135D02*
X0174359Y0323135D01*
X0172102Y0323135D02*
X0158892Y0323135D01*
X0159142Y0322137D02*
X0171769Y0322137D01*
X0171769Y0321138D02*
X0159142Y0321138D01*
X0159142Y0320140D02*
X0171769Y0320140D01*
X0171769Y0319141D02*
X0159142Y0319141D01*
X0159142Y0318143D02*
X0171769Y0318143D01*
X0171769Y0317144D02*
X0159142Y0317144D01*
X0159126Y0316145D02*
X0171953Y0316145D01*
X0174359Y0316145D02*
X0174541Y0316145D01*
X0174541Y0317144D02*
X0174359Y0317144D01*
X0174359Y0318143D02*
X0174541Y0318143D01*
X0180124Y0315147D02*
X0154524Y0315147D01*
X0152324Y0314055D02*
X0154355Y0312024D01*
X0152324Y0314055D02*
X0152324Y0319524D01*
X0156261Y0319524D02*
X0156261Y0325429D01*
X0157855Y0327024D01*
X0153065Y0332122D02*
X0176187Y0332122D01*
X0176187Y0331123D02*
X0152066Y0331123D01*
X0152355Y0334524D02*
X0148387Y0330555D01*
X0148387Y0319524D01*
X0144541Y0319141D02*
X0144359Y0319141D01*
X0144359Y0318143D02*
X0144541Y0318143D01*
X0144541Y0317144D02*
X0144359Y0317144D01*
X0144359Y0316145D02*
X0144541Y0316145D01*
X0144541Y0320140D02*
X0144359Y0320140D01*
X0144359Y0321138D02*
X0144541Y0321138D01*
X0144541Y0322137D02*
X0144359Y0322137D01*
X0144359Y0323135D02*
X0144541Y0323135D01*
X0152355Y0334524D02*
X0178355Y0334524D01*
X0182355Y0312024D02*
X0212355Y0312024D01*
X0208355Y0334524D02*
X0238355Y0334524D01*
X0255855Y0321524D02*
X0258855Y0324524D01*
X0288855Y0324524D01*
X0293702Y0329370D01*
X0307255Y0329126D02*
X0358187Y0329126D01*
X0358187Y0328128D02*
X0307255Y0328128D01*
X0307255Y0327129D02*
X0358187Y0327129D01*
X0358187Y0326131D02*
X0307255Y0326131D01*
X0307255Y0325132D02*
X0358187Y0325132D01*
X0358187Y0324134D02*
X0307255Y0324134D01*
X0307255Y0323135D02*
X0354102Y0323135D01*
X0354069Y0323102D02*
X0353871Y0322760D01*
X0353769Y0322379D01*
X0353769Y0319614D01*
X0356359Y0319614D01*
X0356359Y0319433D01*
X0353769Y0319433D01*
X0353769Y0316669D01*
X0353871Y0316287D01*
X0354069Y0315945D01*
X0354348Y0315666D01*
X0354690Y0315468D01*
X0355071Y0315366D01*
X0356359Y0315366D01*
X0356359Y0319433D01*
X0356541Y0319433D01*
X0356541Y0315366D01*
X0357829Y0315366D01*
X0358202Y0315466D01*
X0358502Y0315166D01*
X0362124Y0315166D01*
X0362124Y0313144D01*
X0364155Y0311112D01*
X0365444Y0309824D01*
X0369444Y0309824D01*
X0369317Y0309696D01*
X0369317Y0304424D01*
X0355394Y0304424D01*
X0355394Y0309696D01*
X0354398Y0310692D01*
X0348265Y0310692D01*
X0347270Y0309696D01*
X0347270Y0304424D01*
X0314385Y0304424D01*
X0307255Y0311553D01*
X0307255Y0334524D01*
X0310316Y0334524D01*
X0311281Y0334124D01*
X0313430Y0334124D01*
X0314395Y0334524D01*
X0330316Y0334524D01*
X0331281Y0334124D01*
X0333430Y0334124D01*
X0334395Y0334524D01*
X0361244Y0334524D01*
X0359476Y0332755D01*
X0358187Y0331466D01*
X0358187Y0323585D01*
X0357829Y0323681D01*
X0356541Y0323681D01*
X0356541Y0319614D01*
X0356359Y0319614D01*
X0356359Y0323681D01*
X0355071Y0323681D01*
X0354690Y0323579D01*
X0354348Y0323381D01*
X0354069Y0323102D01*
X0353769Y0322137D02*
X0307255Y0322137D01*
X0307255Y0321138D02*
X0353769Y0321138D01*
X0353769Y0320140D02*
X0307255Y0320140D01*
X0307255Y0319141D02*
X0353769Y0319141D01*
X0353769Y0318143D02*
X0307255Y0318143D01*
X0307255Y0317144D02*
X0353769Y0317144D01*
X0353953Y0316145D02*
X0307255Y0316145D01*
X0307255Y0315147D02*
X0362124Y0315147D01*
X0362124Y0314148D02*
X0307255Y0314148D01*
X0307255Y0313150D02*
X0362124Y0313150D01*
X0363116Y0312151D02*
X0307255Y0312151D01*
X0307656Y0311153D02*
X0364115Y0311153D01*
X0365113Y0310154D02*
X0354936Y0310154D01*
X0355394Y0309156D02*
X0369317Y0309156D01*
X0369317Y0308157D02*
X0355394Y0308157D01*
X0355394Y0307159D02*
X0369317Y0307159D01*
X0369317Y0306160D02*
X0355394Y0306160D01*
X0355394Y0305162D02*
X0369317Y0305162D01*
X0366355Y0312024D02*
X0394355Y0312024D01*
X0394324Y0312055D01*
X0394324Y0319524D01*
X0398261Y0319524D02*
X0398261Y0325429D01*
X0399855Y0327024D01*
X0396605Y0327129D02*
X0392587Y0327129D01*
X0392587Y0326131D02*
X0396061Y0326131D01*
X0396061Y0326340D02*
X0396061Y0323881D01*
X0392587Y0323881D01*
X0392587Y0332324D01*
X0418187Y0332324D01*
X0418187Y0323585D01*
X0417829Y0323681D01*
X0416541Y0323681D01*
X0416541Y0319614D01*
X0416359Y0319614D01*
X0416359Y0319433D01*
X0413769Y0319433D01*
X0413769Y0316669D01*
X0413871Y0316287D01*
X0414069Y0315945D01*
X0414348Y0315666D01*
X0414690Y0315468D01*
X0415071Y0315366D01*
X0416359Y0315366D01*
X0416359Y0319433D01*
X0416541Y0319433D01*
X0416541Y0315366D01*
X0417829Y0315366D01*
X0418202Y0315466D01*
X0418502Y0315166D01*
X0422124Y0315166D01*
X0422124Y0314224D01*
X0396524Y0314224D01*
X0396524Y0315166D01*
X0400146Y0315166D01*
X0401142Y0316162D01*
X0401142Y0322885D01*
X0400461Y0323566D01*
X0400461Y0323774D01*
X0400502Y0323774D01*
X0401696Y0324268D01*
X0402611Y0325183D01*
X0403105Y0326377D01*
X0403105Y0327670D01*
X0402611Y0328865D01*
X0401696Y0329779D01*
X0400502Y0330274D01*
X0399209Y0330274D01*
X0398014Y0329779D01*
X0397100Y0328865D01*
X0396605Y0327670D01*
X0396605Y0326885D01*
X0396061Y0326340D01*
X0396061Y0325132D02*
X0392587Y0325132D01*
X0392587Y0324134D02*
X0396061Y0324134D01*
X0396795Y0328128D02*
X0392587Y0328128D01*
X0392587Y0329126D02*
X0397362Y0329126D01*
X0398849Y0330125D02*
X0392587Y0330125D01*
X0392587Y0331123D02*
X0418187Y0331123D01*
X0418187Y0330125D02*
X0400862Y0330125D01*
X0402349Y0329126D02*
X0418187Y0329126D01*
X0418187Y0328128D02*
X0402916Y0328128D01*
X0403105Y0327129D02*
X0418187Y0327129D01*
X0418187Y0326131D02*
X0403003Y0326131D01*
X0402560Y0325132D02*
X0418187Y0325132D01*
X0418187Y0324134D02*
X0401371Y0324134D01*
X0400892Y0323135D02*
X0414102Y0323135D01*
X0414069Y0323102D02*
X0413871Y0322760D01*
X0413769Y0322379D01*
X0413769Y0319614D01*
X0416359Y0319614D01*
X0416359Y0323681D01*
X0415071Y0323681D01*
X0414690Y0323579D01*
X0414348Y0323381D01*
X0414069Y0323102D01*
X0413769Y0322137D02*
X0401142Y0322137D01*
X0401142Y0321138D02*
X0413769Y0321138D01*
X0413769Y0320140D02*
X0401142Y0320140D01*
X0401142Y0319141D02*
X0413769Y0319141D01*
X0413769Y0318143D02*
X0401142Y0318143D01*
X0401142Y0317144D02*
X0413769Y0317144D01*
X0413953Y0316145D02*
X0401126Y0316145D01*
X0396524Y0315147D02*
X0422124Y0315147D01*
X0424324Y0312055D02*
X0424355Y0312024D01*
X0454355Y0312024D01*
X0454324Y0312055D01*
X0454324Y0319524D01*
X0458261Y0319524D02*
X0458261Y0325429D01*
X0459855Y0327024D01*
X0467855Y0321524D02*
X0467855Y0316024D01*
X0463855Y0312024D01*
X0454355Y0312024D01*
X0452124Y0314224D02*
X0426524Y0314224D01*
X0426524Y0315166D01*
X0430146Y0315166D01*
X0431142Y0316162D01*
X0431142Y0322885D01*
X0430461Y0323566D01*
X0430461Y0323774D01*
X0430502Y0323774D01*
X0431696Y0324268D01*
X0432611Y0325183D01*
X0433105Y0326377D01*
X0433105Y0327670D01*
X0432611Y0328865D01*
X0431696Y0329779D01*
X0430502Y0330274D01*
X0429209Y0330274D01*
X0428014Y0329779D01*
X0427100Y0328865D01*
X0426605Y0327670D01*
X0426605Y0326885D01*
X0426061Y0326340D01*
X0426061Y0323881D01*
X0422587Y0323881D01*
X0422587Y0332324D01*
X0448187Y0332324D01*
X0448187Y0323585D01*
X0447829Y0323681D01*
X0446541Y0323681D01*
X0446541Y0319614D01*
X0446359Y0319614D01*
X0446359Y0319433D01*
X0443769Y0319433D01*
X0443769Y0316669D01*
X0443871Y0316287D01*
X0444069Y0315945D01*
X0444348Y0315666D01*
X0444690Y0315468D01*
X0445071Y0315366D01*
X0446359Y0315366D01*
X0446359Y0319433D01*
X0446541Y0319433D01*
X0446541Y0315366D01*
X0447829Y0315366D01*
X0448202Y0315466D01*
X0448502Y0315166D01*
X0452124Y0315166D01*
X0452124Y0314224D01*
X0452124Y0315147D02*
X0426524Y0315147D01*
X0424324Y0312055D02*
X0424324Y0319524D01*
X0428261Y0319524D02*
X0428261Y0325429D01*
X0429855Y0327024D01*
X0426605Y0327129D02*
X0422587Y0327129D01*
X0422587Y0326131D02*
X0426061Y0326131D01*
X0426061Y0325132D02*
X0422587Y0325132D01*
X0422587Y0324134D02*
X0426061Y0324134D01*
X0426795Y0328128D02*
X0422587Y0328128D01*
X0422587Y0329126D02*
X0427362Y0329126D01*
X0428849Y0330125D02*
X0422587Y0330125D01*
X0422587Y0331123D02*
X0448187Y0331123D01*
X0448187Y0330125D02*
X0430862Y0330125D01*
X0432349Y0329126D02*
X0448187Y0329126D01*
X0448187Y0328128D02*
X0432916Y0328128D01*
X0433105Y0327129D02*
X0448187Y0327129D01*
X0448187Y0326131D02*
X0433003Y0326131D01*
X0432560Y0325132D02*
X0448187Y0325132D01*
X0448187Y0324134D02*
X0431371Y0324134D01*
X0430892Y0323135D02*
X0444102Y0323135D01*
X0444069Y0323102D02*
X0443871Y0322760D01*
X0443769Y0322379D01*
X0443769Y0319614D01*
X0446359Y0319614D01*
X0446359Y0323681D01*
X0445071Y0323681D01*
X0444690Y0323579D01*
X0444348Y0323381D01*
X0444069Y0323102D01*
X0443769Y0322137D02*
X0431142Y0322137D01*
X0431142Y0321138D02*
X0443769Y0321138D01*
X0443769Y0320140D02*
X0431142Y0320140D01*
X0431142Y0319141D02*
X0443769Y0319141D01*
X0443769Y0318143D02*
X0431142Y0318143D01*
X0431142Y0317144D02*
X0443769Y0317144D01*
X0443953Y0316145D02*
X0431126Y0316145D01*
X0424355Y0312024D02*
X0394355Y0312024D01*
X0392124Y0314224D02*
X0367267Y0314224D01*
X0366524Y0314966D01*
X0366524Y0315166D01*
X0370146Y0315166D01*
X0371142Y0316162D01*
X0371142Y0322885D01*
X0370461Y0323566D01*
X0370461Y0323774D01*
X0370502Y0323774D01*
X0371696Y0324268D01*
X0372611Y0325183D01*
X0373105Y0326377D01*
X0373105Y0327670D01*
X0372611Y0328865D01*
X0371696Y0329779D01*
X0370502Y0330274D01*
X0369209Y0330274D01*
X0368014Y0329779D01*
X0367100Y0328865D01*
X0366605Y0327670D01*
X0366605Y0326885D01*
X0366061Y0326340D01*
X0366061Y0323881D01*
X0362587Y0323881D01*
X0362587Y0329644D01*
X0365267Y0332324D01*
X0388187Y0332324D01*
X0388187Y0323585D01*
X0387829Y0323681D01*
X0386541Y0323681D01*
X0386541Y0319614D01*
X0386359Y0319614D01*
X0386359Y0319433D01*
X0383769Y0319433D01*
X0383769Y0316669D01*
X0383871Y0316287D01*
X0384069Y0315945D01*
X0384348Y0315666D01*
X0384690Y0315468D01*
X0385071Y0315366D01*
X0386359Y0315366D01*
X0386359Y0319433D01*
X0386541Y0319433D01*
X0386541Y0315366D01*
X0387829Y0315366D01*
X0388202Y0315466D01*
X0388502Y0315166D01*
X0392124Y0315166D01*
X0392124Y0314224D01*
X0392124Y0315147D02*
X0366524Y0315147D01*
X0364324Y0314055D02*
X0364324Y0319524D01*
X0368261Y0319524D02*
X0368261Y0325429D01*
X0369855Y0327024D01*
X0366605Y0327129D02*
X0362587Y0327129D01*
X0362587Y0326131D02*
X0366061Y0326131D01*
X0366061Y0325132D02*
X0362587Y0325132D01*
X0362587Y0324134D02*
X0366061Y0324134D01*
X0366795Y0328128D02*
X0362587Y0328128D01*
X0362587Y0329126D02*
X0367362Y0329126D01*
X0368849Y0330125D02*
X0363068Y0330125D01*
X0364066Y0331123D02*
X0388187Y0331123D01*
X0388187Y0330125D02*
X0370862Y0330125D01*
X0372349Y0329126D02*
X0388187Y0329126D01*
X0388187Y0328128D02*
X0372916Y0328128D01*
X0373105Y0327129D02*
X0388187Y0327129D01*
X0388187Y0326131D02*
X0373003Y0326131D01*
X0372560Y0325132D02*
X0388187Y0325132D01*
X0388187Y0324134D02*
X0371371Y0324134D01*
X0370892Y0323135D02*
X0384102Y0323135D01*
X0384069Y0323102D02*
X0383871Y0322760D01*
X0383769Y0322379D01*
X0383769Y0319614D01*
X0386359Y0319614D01*
X0386359Y0323681D01*
X0385071Y0323681D01*
X0384690Y0323579D01*
X0384348Y0323381D01*
X0384069Y0323102D01*
X0383769Y0322137D02*
X0371142Y0322137D01*
X0371142Y0321138D02*
X0383769Y0321138D01*
X0383769Y0320140D02*
X0371142Y0320140D01*
X0371142Y0319141D02*
X0383769Y0319141D01*
X0383769Y0318143D02*
X0371142Y0318143D01*
X0371142Y0317144D02*
X0383769Y0317144D01*
X0383953Y0316145D02*
X0371126Y0316145D01*
X0366355Y0312024D02*
X0364324Y0314055D01*
X0360387Y0319524D02*
X0360387Y0330555D01*
X0364355Y0334524D01*
X0390355Y0334524D01*
X0390387Y0334492D01*
X0390387Y0319524D01*
X0386541Y0319141D02*
X0386359Y0319141D01*
X0386359Y0318143D02*
X0386541Y0318143D01*
X0386541Y0317144D02*
X0386359Y0317144D01*
X0386359Y0316145D02*
X0386541Y0316145D01*
X0386541Y0320140D02*
X0386359Y0320140D01*
X0386359Y0321138D02*
X0386541Y0321138D01*
X0386541Y0322137D02*
X0386359Y0322137D01*
X0386359Y0323135D02*
X0386541Y0323135D01*
X0388187Y0332122D02*
X0365065Y0332122D01*
X0360839Y0334119D02*
X0307255Y0334119D01*
X0307255Y0333120D02*
X0359841Y0333120D01*
X0358842Y0332122D02*
X0307255Y0332122D01*
X0307255Y0331123D02*
X0358187Y0331123D01*
X0358187Y0330125D02*
X0307255Y0330125D01*
X0308654Y0310154D02*
X0347728Y0310154D01*
X0347270Y0309156D02*
X0309653Y0309156D01*
X0310651Y0308157D02*
X0347270Y0308157D01*
X0347270Y0307159D02*
X0311650Y0307159D01*
X0312648Y0306160D02*
X0347270Y0306160D01*
X0347270Y0305162D02*
X0313647Y0305162D01*
X0356359Y0316145D02*
X0356541Y0316145D01*
X0356541Y0317144D02*
X0356359Y0317144D01*
X0356359Y0318143D02*
X0356541Y0318143D01*
X0356541Y0319141D02*
X0356359Y0319141D01*
X0356359Y0320140D02*
X0356541Y0320140D01*
X0356541Y0321138D02*
X0356359Y0321138D01*
X0356359Y0322137D02*
X0356541Y0322137D01*
X0356541Y0323135D02*
X0356359Y0323135D01*
X0390355Y0334524D02*
X0420355Y0334524D01*
X0420387Y0334492D01*
X0420387Y0319524D01*
X0416541Y0319141D02*
X0416359Y0319141D01*
X0416359Y0318143D02*
X0416541Y0318143D01*
X0416541Y0317144D02*
X0416359Y0317144D01*
X0416359Y0316145D02*
X0416541Y0316145D01*
X0416541Y0320140D02*
X0416359Y0320140D01*
X0416359Y0321138D02*
X0416541Y0321138D01*
X0416541Y0322137D02*
X0416359Y0322137D01*
X0416359Y0323135D02*
X0416541Y0323135D01*
X0418187Y0332122D02*
X0392587Y0332122D01*
X0420355Y0334524D02*
X0450355Y0334524D01*
X0450387Y0334492D01*
X0450387Y0319524D01*
X0446541Y0319141D02*
X0446359Y0319141D01*
X0446359Y0318143D02*
X0446541Y0318143D01*
X0446541Y0317144D02*
X0446359Y0317144D01*
X0446359Y0316145D02*
X0446541Y0316145D01*
X0446541Y0320140D02*
X0446359Y0320140D01*
X0446359Y0321138D02*
X0446541Y0321138D01*
X0446541Y0322137D02*
X0446359Y0322137D01*
X0446359Y0323135D02*
X0446541Y0323135D01*
X0448187Y0332122D02*
X0422587Y0332122D01*
X0450355Y0334524D02*
X0484009Y0334524D01*
X0484009Y0331870D01*
X0485855Y0330024D01*
X0497355Y0330024D01*
X0499009Y0331677D01*
X0499009Y0334524D01*
X0499009Y0339370D01*
X0498615Y0339764D01*
X0498615Y0345587D01*
X0494855Y0339524D02*
X0491336Y0339524D01*
X0491096Y0339764D01*
X0490702Y0339370D01*
X0490702Y0334524D01*
X0491096Y0339764D02*
X0491096Y0345587D01*
X0490855Y0353854D02*
X0487355Y0353854D01*
X0490702Y0354008D02*
X0490702Y0359524D01*
X0490702Y0354008D02*
X0490855Y0353854D01*
X0494686Y0353854D01*
X0494855Y0354024D01*
X0499009Y0359524D02*
X0499009Y0363370D01*
X0497855Y0364524D01*
X0484009Y0364524D01*
X0484009Y0371177D01*
X0492355Y0379524D01*
X0492355Y0414524D01*
X0485355Y0404524D02*
X0482355Y0404524D01*
X0485355Y0404524D02*
X0488355Y0401524D01*
X0488355Y0380524D01*
X0479855Y0372024D01*
X0479855Y0352024D01*
X0483615Y0348264D01*
X0483615Y0345587D01*
X0483615Y0339764D01*
X0484009Y0339370D01*
X0484009Y0334524D01*
X0470855Y0324524D02*
X0467855Y0321524D01*
X0470055Y0320612D02*
X0471767Y0322324D01*
X0501767Y0322324D01*
X0507455Y0328012D01*
X0507455Y0323192D01*
X0506626Y0323192D01*
X0505277Y0322634D01*
X0504245Y0321602D01*
X0503687Y0320253D01*
X0503687Y0318794D01*
X0504245Y0317446D01*
X0505277Y0316414D01*
X0506626Y0315855D01*
X0507455Y0315855D01*
X0507455Y0311553D01*
X0500326Y0304424D01*
X0467441Y0304424D01*
X0467441Y0309696D01*
X0466445Y0310692D01*
X0465635Y0310692D01*
X0468767Y0313824D01*
X0470055Y0315112D01*
X0470055Y0320612D01*
X0470055Y0320140D02*
X0503687Y0320140D01*
X0503687Y0319141D02*
X0470055Y0319141D01*
X0470055Y0318143D02*
X0503957Y0318143D01*
X0504547Y0317144D02*
X0470055Y0317144D01*
X0470055Y0316145D02*
X0505925Y0316145D01*
X0507455Y0315147D02*
X0470055Y0315147D01*
X0469092Y0314148D02*
X0507455Y0314148D01*
X0507455Y0313150D02*
X0468093Y0313150D01*
X0467095Y0312151D02*
X0507455Y0312151D01*
X0507055Y0311153D02*
X0466096Y0311153D01*
X0466983Y0310154D02*
X0506057Y0310154D01*
X0505058Y0309156D02*
X0467441Y0309156D01*
X0467441Y0308157D02*
X0504060Y0308157D01*
X0503061Y0307159D02*
X0467441Y0307159D01*
X0467441Y0306160D02*
X0502063Y0306160D01*
X0501064Y0305162D02*
X0467441Y0305162D01*
X0470581Y0321138D02*
X0504053Y0321138D01*
X0504780Y0322137D02*
X0471580Y0322137D01*
X0470855Y0324524D02*
X0500855Y0324524D01*
X0505702Y0329370D01*
X0505702Y0334524D01*
X0505702Y0339370D01*
X0506096Y0339764D01*
X0506096Y0345587D01*
X0504686Y0353854D02*
X0505702Y0354870D01*
X0505702Y0359524D01*
X0505702Y0364177D01*
X0502355Y0367524D01*
X0496855Y0367524D01*
X0494855Y0369524D01*
X0494855Y0502524D01*
X0496855Y0504524D01*
X0502355Y0504524D01*
X0484009Y0364524D02*
X0484009Y0359524D01*
X0502355Y0353854D02*
X0504686Y0353854D01*
X0506572Y0327129D02*
X0507455Y0327129D01*
X0507455Y0326131D02*
X0505574Y0326131D01*
X0504575Y0325132D02*
X0507455Y0325132D01*
X0507455Y0324134D02*
X0503577Y0324134D01*
X0502578Y0323135D02*
X0506488Y0323135D01*
X0502355Y0267524D02*
X0496855Y0267524D01*
X0494855Y0265524D01*
X0494855Y0132524D01*
X0496855Y0130524D01*
X0502355Y0130524D01*
X0505702Y0127177D01*
X0505702Y0122524D01*
X0505702Y0117870D01*
X0504686Y0116854D01*
X0502355Y0116854D01*
X0499009Y0122524D02*
X0499009Y0126370D01*
X0497855Y0127524D01*
X0484009Y0127524D01*
X0484009Y0134177D01*
X0492355Y0142524D01*
X0492355Y0177524D01*
X0485355Y0167524D02*
X0482355Y0167524D01*
X0485355Y0167524D02*
X0488355Y0164524D01*
X0488355Y0143524D01*
X0479855Y0135024D01*
X0479855Y0115024D01*
X0483615Y0111264D01*
X0483615Y0108587D01*
X0483615Y0102764D01*
X0484009Y0102370D01*
X0484009Y0097524D01*
X0484009Y0094870D01*
X0485855Y0093024D01*
X0497355Y0093024D01*
X0499009Y0094677D01*
X0499009Y0097524D01*
X0499009Y0102370D01*
X0498615Y0102764D01*
X0498615Y0108587D01*
X0494855Y0102524D02*
X0491336Y0102524D01*
X0491096Y0102764D01*
X0490702Y0102370D01*
X0490702Y0097524D01*
X0491096Y0102764D02*
X0491096Y0108587D01*
X0490855Y0116854D02*
X0487355Y0116854D01*
X0490702Y0117008D02*
X0490702Y0122524D01*
X0490702Y0117008D02*
X0490855Y0116854D01*
X0494686Y0116854D01*
X0494855Y0117024D01*
X0484009Y0122524D02*
X0484009Y0127524D01*
X0506096Y0102764D02*
X0505702Y0102370D01*
X0505702Y0097524D01*
X0505702Y0092370D01*
X0500855Y0087524D01*
X0470855Y0087524D01*
X0467855Y0084524D01*
X0467855Y0079024D01*
X0463855Y0075024D01*
X0454355Y0075024D01*
X0454324Y0075055D01*
X0454324Y0082524D01*
X0458261Y0082524D02*
X0458261Y0088429D01*
X0459855Y0090024D01*
X0448187Y0090482D02*
X0433105Y0090482D01*
X0433105Y0090670D02*
X0432611Y0091865D01*
X0431696Y0092779D01*
X0430502Y0093274D01*
X0429209Y0093274D01*
X0428014Y0092779D01*
X0427100Y0091865D01*
X0426605Y0090670D01*
X0426605Y0089885D01*
X0426061Y0089340D01*
X0426061Y0086881D01*
X0422587Y0086881D01*
X0422587Y0095324D01*
X0448187Y0095324D01*
X0448187Y0086585D01*
X0447829Y0086681D01*
X0446541Y0086681D01*
X0446541Y0082614D01*
X0446359Y0082614D01*
X0446359Y0082433D01*
X0443769Y0082433D01*
X0443769Y0079669D01*
X0443871Y0079287D01*
X0444069Y0078945D01*
X0444348Y0078666D01*
X0444690Y0078468D01*
X0445071Y0078366D01*
X0446359Y0078366D01*
X0446359Y0082433D01*
X0446541Y0082433D01*
X0446541Y0078366D01*
X0447829Y0078366D01*
X0448202Y0078466D01*
X0448502Y0078166D01*
X0452124Y0078166D01*
X0452124Y0077224D01*
X0426524Y0077224D01*
X0426524Y0078166D01*
X0430146Y0078166D01*
X0431142Y0079162D01*
X0431142Y0085885D01*
X0430461Y0086566D01*
X0430461Y0086774D01*
X0430502Y0086774D01*
X0431696Y0087268D01*
X0432611Y0088183D01*
X0433105Y0089377D01*
X0433105Y0090670D01*
X0432770Y0091480D02*
X0448187Y0091480D01*
X0448187Y0092479D02*
X0431996Y0092479D01*
X0433105Y0089483D02*
X0448187Y0089483D01*
X0448187Y0088485D02*
X0432736Y0088485D01*
X0431914Y0087486D02*
X0448187Y0087486D01*
X0446541Y0086488D02*
X0446359Y0086488D01*
X0446359Y0086681D02*
X0445071Y0086681D01*
X0444690Y0086579D01*
X0444348Y0086381D01*
X0444069Y0086102D01*
X0443871Y0085760D01*
X0443769Y0085379D01*
X0443769Y0082614D01*
X0446359Y0082614D01*
X0446359Y0086681D01*
X0446359Y0085489D02*
X0446541Y0085489D01*
X0446541Y0084491D02*
X0446359Y0084491D01*
X0446359Y0083492D02*
X0446541Y0083492D01*
X0446359Y0082494D02*
X0431142Y0082494D01*
X0431142Y0083492D02*
X0443769Y0083492D01*
X0443769Y0084491D02*
X0431142Y0084491D01*
X0431142Y0085489D02*
X0443799Y0085489D01*
X0444532Y0086488D02*
X0430539Y0086488D01*
X0428261Y0088429D02*
X0428261Y0082524D01*
X0431142Y0081495D02*
X0443769Y0081495D01*
X0443769Y0080497D02*
X0431142Y0080497D01*
X0431142Y0079498D02*
X0443814Y0079498D01*
X0444635Y0078500D02*
X0430480Y0078500D01*
X0426524Y0077501D02*
X0452124Y0077501D01*
X0454355Y0075024D02*
X0424355Y0075024D01*
X0424324Y0075055D01*
X0424324Y0082524D01*
X0420387Y0082524D02*
X0420387Y0097492D01*
X0420355Y0097524D01*
X0390355Y0097524D01*
X0390387Y0097492D01*
X0390387Y0082524D01*
X0386541Y0082614D02*
X0386359Y0082614D01*
X0386359Y0082433D01*
X0383769Y0082433D01*
X0383769Y0079669D01*
X0383871Y0079287D01*
X0384069Y0078945D01*
X0384348Y0078666D01*
X0384690Y0078468D01*
X0385071Y0078366D01*
X0386359Y0078366D01*
X0386359Y0082433D01*
X0386541Y0082433D01*
X0386541Y0078366D01*
X0387829Y0078366D01*
X0388202Y0078466D01*
X0388502Y0078166D01*
X0392124Y0078166D01*
X0392124Y0077224D01*
X0367267Y0077224D01*
X0366524Y0077966D01*
X0366524Y0078166D01*
X0370146Y0078166D01*
X0371142Y0079162D01*
X0371142Y0085885D01*
X0370461Y0086566D01*
X0370461Y0086774D01*
X0370502Y0086774D01*
X0371696Y0087268D01*
X0372611Y0088183D01*
X0373105Y0089377D01*
X0373105Y0090670D01*
X0372611Y0091865D01*
X0371696Y0092779D01*
X0370502Y0093274D01*
X0369209Y0093274D01*
X0368014Y0092779D01*
X0367100Y0091865D01*
X0366605Y0090670D01*
X0366605Y0089885D01*
X0366061Y0089340D01*
X0366061Y0086881D01*
X0362587Y0086881D01*
X0362587Y0092644D01*
X0365267Y0095324D01*
X0388187Y0095324D01*
X0388187Y0086585D01*
X0387829Y0086681D01*
X0386541Y0086681D01*
X0386541Y0082614D01*
X0386359Y0082614D02*
X0386359Y0086681D01*
X0385071Y0086681D01*
X0384690Y0086579D01*
X0384348Y0086381D01*
X0384069Y0086102D01*
X0383871Y0085760D01*
X0383769Y0085379D01*
X0383769Y0082614D01*
X0386359Y0082614D01*
X0386359Y0082494D02*
X0371142Y0082494D01*
X0371142Y0083492D02*
X0383769Y0083492D01*
X0383769Y0084491D02*
X0371142Y0084491D01*
X0371142Y0085489D02*
X0383799Y0085489D01*
X0384532Y0086488D02*
X0370539Y0086488D01*
X0371914Y0087486D02*
X0388187Y0087486D01*
X0388187Y0088485D02*
X0372736Y0088485D01*
X0373105Y0089483D02*
X0388187Y0089483D01*
X0388187Y0090482D02*
X0373105Y0090482D01*
X0372770Y0091480D02*
X0388187Y0091480D01*
X0388187Y0092479D02*
X0371996Y0092479D01*
X0369855Y0090024D02*
X0368261Y0088429D01*
X0368261Y0082524D01*
X0371142Y0081495D02*
X0383769Y0081495D01*
X0383769Y0080497D02*
X0371142Y0080497D01*
X0371142Y0079498D02*
X0383814Y0079498D01*
X0384635Y0078500D02*
X0370480Y0078500D01*
X0366989Y0077501D02*
X0392124Y0077501D01*
X0394324Y0075055D02*
X0394324Y0082524D01*
X0398261Y0082524D02*
X0398261Y0088429D01*
X0399855Y0090024D01*
X0396605Y0089885D02*
X0396061Y0089340D01*
X0396061Y0086881D01*
X0392587Y0086881D01*
X0392587Y0095324D01*
X0418187Y0095324D01*
X0418187Y0086585D01*
X0417829Y0086681D01*
X0416541Y0086681D01*
X0416541Y0082614D01*
X0416359Y0082614D01*
X0416359Y0082433D01*
X0413769Y0082433D01*
X0413769Y0079669D01*
X0413871Y0079287D01*
X0414069Y0078945D01*
X0414348Y0078666D01*
X0414690Y0078468D01*
X0415071Y0078366D01*
X0416359Y0078366D01*
X0416359Y0082433D01*
X0416541Y0082433D01*
X0416541Y0078366D01*
X0417829Y0078366D01*
X0418202Y0078466D01*
X0418502Y0078166D01*
X0422124Y0078166D01*
X0422124Y0077224D01*
X0396524Y0077224D01*
X0396524Y0078166D01*
X0400146Y0078166D01*
X0401142Y0079162D01*
X0401142Y0085885D01*
X0400461Y0086566D01*
X0400461Y0086774D01*
X0400502Y0086774D01*
X0401696Y0087268D01*
X0402611Y0088183D01*
X0403105Y0089377D01*
X0403105Y0090670D01*
X0402611Y0091865D01*
X0401696Y0092779D01*
X0400502Y0093274D01*
X0399209Y0093274D01*
X0398014Y0092779D01*
X0397100Y0091865D01*
X0396605Y0090670D01*
X0396605Y0089885D01*
X0396204Y0089483D02*
X0392587Y0089483D01*
X0392587Y0088485D02*
X0396061Y0088485D01*
X0396061Y0087486D02*
X0392587Y0087486D01*
X0392587Y0090482D02*
X0396605Y0090482D01*
X0396941Y0091480D02*
X0392587Y0091480D01*
X0392587Y0092479D02*
X0397715Y0092479D01*
X0401996Y0092479D02*
X0418187Y0092479D01*
X0418187Y0093477D02*
X0392587Y0093477D01*
X0392587Y0094476D02*
X0418187Y0094476D01*
X0418187Y0091480D02*
X0402770Y0091480D01*
X0403105Y0090482D02*
X0418187Y0090482D01*
X0418187Y0089483D02*
X0403105Y0089483D01*
X0402736Y0088485D02*
X0418187Y0088485D01*
X0418187Y0087486D02*
X0401914Y0087486D01*
X0400539Y0086488D02*
X0414532Y0086488D01*
X0414690Y0086579D02*
X0414348Y0086381D01*
X0414069Y0086102D01*
X0413871Y0085760D01*
X0413769Y0085379D01*
X0413769Y0082614D01*
X0416359Y0082614D01*
X0416359Y0086681D01*
X0415071Y0086681D01*
X0414690Y0086579D01*
X0413799Y0085489D02*
X0401142Y0085489D01*
X0401142Y0084491D02*
X0413769Y0084491D01*
X0413769Y0083492D02*
X0401142Y0083492D01*
X0401142Y0082494D02*
X0416359Y0082494D01*
X0416359Y0083492D02*
X0416541Y0083492D01*
X0416541Y0084491D02*
X0416359Y0084491D01*
X0416359Y0085489D02*
X0416541Y0085489D01*
X0416541Y0086488D02*
X0416359Y0086488D01*
X0416359Y0081495D02*
X0416541Y0081495D01*
X0416541Y0080497D02*
X0416359Y0080497D01*
X0416359Y0079498D02*
X0416541Y0079498D01*
X0416541Y0078500D02*
X0416359Y0078500D01*
X0414635Y0078500D02*
X0400480Y0078500D01*
X0401142Y0079498D02*
X0413814Y0079498D01*
X0413769Y0080497D02*
X0401142Y0080497D01*
X0401142Y0081495D02*
X0413769Y0081495D01*
X0422124Y0077501D02*
X0396524Y0077501D01*
X0394324Y0075055D02*
X0394355Y0075024D01*
X0424355Y0075024D01*
X0426061Y0087486D02*
X0422587Y0087486D01*
X0422587Y0088485D02*
X0426061Y0088485D01*
X0426204Y0089483D02*
X0422587Y0089483D01*
X0422587Y0090482D02*
X0426605Y0090482D01*
X0426941Y0091480D02*
X0422587Y0091480D01*
X0422587Y0092479D02*
X0427715Y0092479D01*
X0429855Y0090024D02*
X0428261Y0088429D01*
X0422587Y0093477D02*
X0448187Y0093477D01*
X0448187Y0094476D02*
X0422587Y0094476D01*
X0420355Y0097524D02*
X0450355Y0097524D01*
X0450387Y0097492D01*
X0450387Y0082524D01*
X0446541Y0081495D02*
X0446359Y0081495D01*
X0446359Y0080497D02*
X0446541Y0080497D01*
X0446541Y0079498D02*
X0446359Y0079498D01*
X0446359Y0078500D02*
X0446541Y0078500D01*
X0450355Y0097524D02*
X0484009Y0097524D01*
X0471767Y0085324D02*
X0501767Y0085324D01*
X0506613Y0090170D01*
X0507455Y0091012D01*
X0507455Y0086192D01*
X0506626Y0086192D01*
X0505277Y0085634D01*
X0504245Y0084602D01*
X0503687Y0083253D01*
X0503687Y0081794D01*
X0504245Y0080446D01*
X0505277Y0079414D01*
X0506626Y0078855D01*
X0507455Y0078855D01*
X0507455Y0074553D01*
X0500326Y0067424D01*
X0467441Y0067424D01*
X0467441Y0072696D01*
X0466445Y0073692D01*
X0465635Y0073692D01*
X0468767Y0076824D01*
X0470055Y0078112D01*
X0470055Y0083612D01*
X0471767Y0085324D01*
X0470934Y0084491D02*
X0504200Y0084491D01*
X0503786Y0083492D02*
X0470055Y0083492D01*
X0470055Y0082494D02*
X0503687Y0082494D01*
X0503811Y0081495D02*
X0470055Y0081495D01*
X0470055Y0080497D02*
X0504224Y0080497D01*
X0505193Y0079498D02*
X0470055Y0079498D01*
X0470055Y0078500D02*
X0507455Y0078500D01*
X0507455Y0077501D02*
X0469444Y0077501D01*
X0468446Y0076503D02*
X0507455Y0076503D01*
X0507455Y0075504D02*
X0467447Y0075504D01*
X0466449Y0074506D02*
X0507408Y0074506D01*
X0506409Y0073507D02*
X0466630Y0073507D01*
X0467441Y0072509D02*
X0505411Y0072509D01*
X0504412Y0071510D02*
X0467441Y0071510D01*
X0467441Y0070512D02*
X0503414Y0070512D01*
X0502415Y0069513D02*
X0467441Y0069513D01*
X0467441Y0068515D02*
X0501417Y0068515D01*
X0500418Y0067516D02*
X0467441Y0067516D01*
X0501933Y0085489D02*
X0505133Y0085489D01*
X0503930Y0087486D02*
X0507455Y0087486D01*
X0507455Y0086488D02*
X0502931Y0086488D01*
X0504928Y0088485D02*
X0507455Y0088485D01*
X0507455Y0089483D02*
X0505927Y0089483D01*
X0506925Y0090482D02*
X0507455Y0090482D01*
X0506096Y0102764D02*
X0506096Y0108587D01*
X0394355Y0075024D02*
X0366355Y0075024D01*
X0364324Y0077055D01*
X0364324Y0082524D01*
X0360387Y0082524D02*
X0360387Y0093555D01*
X0364355Y0097524D01*
X0390355Y0097524D01*
X0388187Y0094476D02*
X0364419Y0094476D01*
X0363421Y0093477D02*
X0388187Y0093477D01*
X0386541Y0086488D02*
X0386359Y0086488D01*
X0386359Y0085489D02*
X0386541Y0085489D01*
X0386541Y0084491D02*
X0386359Y0084491D01*
X0386359Y0083492D02*
X0386541Y0083492D01*
X0386541Y0081495D02*
X0386359Y0081495D01*
X0386359Y0080497D02*
X0386541Y0080497D01*
X0386541Y0079498D02*
X0386359Y0079498D01*
X0386359Y0078500D02*
X0386541Y0078500D01*
X0369444Y0072824D02*
X0369317Y0072696D01*
X0369317Y0067424D01*
X0355394Y0067424D01*
X0355394Y0072696D01*
X0354398Y0073692D01*
X0348265Y0073692D01*
X0347270Y0072696D01*
X0347270Y0067424D01*
X0314385Y0067424D01*
X0307255Y0074553D01*
X0307255Y0097524D01*
X0310316Y0097524D01*
X0311281Y0097124D01*
X0313430Y0097124D01*
X0314395Y0097524D01*
X0330316Y0097524D01*
X0331281Y0097124D01*
X0333430Y0097124D01*
X0334395Y0097524D01*
X0361244Y0097524D01*
X0359476Y0095755D01*
X0358187Y0094466D01*
X0358187Y0086585D01*
X0357829Y0086681D01*
X0356541Y0086681D01*
X0356541Y0082614D01*
X0356359Y0082614D01*
X0356359Y0082433D01*
X0353769Y0082433D01*
X0353769Y0079669D01*
X0353871Y0079287D01*
X0354069Y0078945D01*
X0354348Y0078666D01*
X0354690Y0078468D01*
X0355071Y0078366D01*
X0356359Y0078366D01*
X0356359Y0082433D01*
X0356541Y0082433D01*
X0356541Y0078366D01*
X0357829Y0078366D01*
X0358202Y0078466D01*
X0358502Y0078166D01*
X0362124Y0078166D01*
X0362124Y0076144D01*
X0364155Y0074112D01*
X0365444Y0072824D01*
X0369444Y0072824D01*
X0369317Y0072509D02*
X0355394Y0072509D01*
X0355394Y0071510D02*
X0369317Y0071510D01*
X0369317Y0070512D02*
X0355394Y0070512D01*
X0355394Y0069513D02*
X0369317Y0069513D01*
X0369317Y0068515D02*
X0355394Y0068515D01*
X0355394Y0067516D02*
X0369317Y0067516D01*
X0364761Y0073507D02*
X0354583Y0073507D01*
X0354635Y0078500D02*
X0307255Y0078500D01*
X0307255Y0079498D02*
X0353814Y0079498D01*
X0353769Y0080497D02*
X0307255Y0080497D01*
X0307255Y0081495D02*
X0353769Y0081495D01*
X0353769Y0082614D02*
X0356359Y0082614D01*
X0356359Y0086681D01*
X0355071Y0086681D01*
X0354690Y0086579D01*
X0354348Y0086381D01*
X0354069Y0086102D01*
X0353871Y0085760D01*
X0353769Y0085379D01*
X0353769Y0082614D01*
X0353769Y0083492D02*
X0307255Y0083492D01*
X0307255Y0082494D02*
X0356359Y0082494D01*
X0356359Y0083492D02*
X0356541Y0083492D01*
X0356541Y0084491D02*
X0356359Y0084491D01*
X0356359Y0085489D02*
X0356541Y0085489D01*
X0356541Y0086488D02*
X0356359Y0086488D01*
X0354532Y0086488D02*
X0307255Y0086488D01*
X0307255Y0087486D02*
X0358187Y0087486D01*
X0358187Y0088485D02*
X0307255Y0088485D01*
X0307255Y0089483D02*
X0358187Y0089483D01*
X0358187Y0090482D02*
X0307255Y0090482D01*
X0307255Y0091480D02*
X0358187Y0091480D01*
X0358187Y0092479D02*
X0307255Y0092479D01*
X0307255Y0093477D02*
X0358187Y0093477D01*
X0358197Y0094476D02*
X0307255Y0094476D01*
X0307255Y0095474D02*
X0359195Y0095474D01*
X0360194Y0096473D02*
X0307255Y0096473D01*
X0307255Y0097472D02*
X0310441Y0097472D01*
X0314269Y0097472D02*
X0330441Y0097472D01*
X0334269Y0097472D02*
X0361192Y0097472D01*
X0362587Y0092479D02*
X0367715Y0092479D01*
X0366941Y0091480D02*
X0362587Y0091480D01*
X0362587Y0090482D02*
X0366605Y0090482D01*
X0366204Y0089483D02*
X0362587Y0089483D01*
X0362587Y0088485D02*
X0366061Y0088485D01*
X0366061Y0087486D02*
X0362587Y0087486D01*
X0356541Y0081495D02*
X0356359Y0081495D01*
X0356359Y0080497D02*
X0356541Y0080497D01*
X0356541Y0079498D02*
X0356359Y0079498D01*
X0356359Y0078500D02*
X0356541Y0078500D01*
X0362124Y0077501D02*
X0307255Y0077501D01*
X0307255Y0076503D02*
X0362124Y0076503D01*
X0362764Y0075504D02*
X0307255Y0075504D01*
X0307303Y0074506D02*
X0363762Y0074506D01*
X0353769Y0084491D02*
X0307255Y0084491D01*
X0307255Y0085489D02*
X0353799Y0085489D01*
X0348081Y0073507D02*
X0308301Y0073507D01*
X0309300Y0072509D02*
X0347270Y0072509D01*
X0347270Y0071510D02*
X0310298Y0071510D01*
X0311297Y0070512D02*
X0347270Y0070512D01*
X0347270Y0069513D02*
X0312296Y0069513D01*
X0313294Y0068515D02*
X0347270Y0068515D01*
X0347270Y0067516D02*
X0314293Y0067516D01*
X0295455Y0074553D02*
X0288326Y0067424D01*
X0255441Y0067424D01*
X0255441Y0072696D01*
X0254445Y0073692D01*
X0253635Y0073692D01*
X0256767Y0076824D01*
X0258055Y0078112D01*
X0258055Y0083612D01*
X0259767Y0085324D01*
X0289767Y0085324D01*
X0294613Y0090170D01*
X0295455Y0091012D01*
X0295455Y0086192D01*
X0294626Y0086192D01*
X0293277Y0085634D01*
X0292245Y0084602D01*
X0291687Y0083253D01*
X0291687Y0081794D01*
X0292245Y0080446D01*
X0293277Y0079414D01*
X0294626Y0078855D01*
X0295455Y0078855D01*
X0295455Y0074553D01*
X0295408Y0074506D02*
X0254449Y0074506D01*
X0254630Y0073507D02*
X0294409Y0073507D01*
X0293411Y0072509D02*
X0255441Y0072509D01*
X0255441Y0071510D02*
X0292412Y0071510D01*
X0291414Y0070512D02*
X0255441Y0070512D01*
X0255441Y0069513D02*
X0290415Y0069513D01*
X0289417Y0068515D02*
X0255441Y0068515D01*
X0255441Y0067516D02*
X0288418Y0067516D01*
X0295455Y0075504D02*
X0255447Y0075504D01*
X0256446Y0076503D02*
X0295455Y0076503D01*
X0295455Y0077501D02*
X0257444Y0077501D01*
X0258055Y0078500D02*
X0295455Y0078500D01*
X0293193Y0079498D02*
X0258055Y0079498D01*
X0258055Y0080497D02*
X0292224Y0080497D01*
X0291811Y0081495D02*
X0258055Y0081495D01*
X0258055Y0082494D02*
X0291687Y0082494D01*
X0291786Y0083492D02*
X0258055Y0083492D01*
X0258934Y0084491D02*
X0292200Y0084491D01*
X0293133Y0085489D02*
X0289933Y0085489D01*
X0290931Y0086488D02*
X0295455Y0086488D01*
X0295455Y0087486D02*
X0291930Y0087486D01*
X0292928Y0088485D02*
X0295455Y0088485D01*
X0295455Y0089483D02*
X0293927Y0089483D01*
X0294925Y0090482D02*
X0295455Y0090482D01*
X0292686Y0116854D02*
X0290355Y0116854D01*
X0272009Y0122524D02*
X0272009Y0127524D01*
X0258855Y0087524D02*
X0255855Y0084524D01*
X0135270Y0305162D02*
X0101647Y0305162D01*
X0100648Y0306160D02*
X0135270Y0306160D01*
X0135270Y0307159D02*
X0099650Y0307159D01*
X0098651Y0308157D02*
X0135270Y0308157D01*
X0135270Y0309156D02*
X0097653Y0309156D01*
X0096654Y0310154D02*
X0135728Y0310154D01*
D17*
X0135355Y0319524D03*
X0157855Y0327024D03*
X0165355Y0319524D03*
X0187855Y0327024D03*
X0195355Y0319524D03*
X0217855Y0327024D03*
X0225355Y0319524D03*
X0247855Y0327024D03*
X0260355Y0319524D03*
X0282855Y0339524D03*
X0282855Y0354024D03*
X0347355Y0319524D03*
X0369855Y0327024D03*
X0377355Y0319524D03*
X0399855Y0327024D03*
X0407355Y0319524D03*
X0429855Y0327024D03*
X0437355Y0319524D03*
X0459855Y0327024D03*
X0472355Y0319524D03*
X0494855Y0339524D03*
X0494855Y0354024D03*
X0494855Y0117024D03*
X0494855Y0102524D03*
X0472355Y0082524D03*
X0459855Y0090024D03*
X0437355Y0082524D03*
X0429855Y0090024D03*
X0407355Y0082524D03*
X0399855Y0090024D03*
X0377355Y0082524D03*
X0369855Y0090024D03*
X0347355Y0082524D03*
X0282855Y0102524D03*
X0282855Y0117024D03*
X0260355Y0082524D03*
X0247855Y0090024D03*
X0225355Y0082524D03*
X0217855Y0090024D03*
X0195355Y0082524D03*
X0187855Y0090024D03*
X0165355Y0082524D03*
X0157855Y0090024D03*
X0135355Y0082524D03*
D18*
X0130355Y0092524D02*
X0130355Y0102524D01*
X0130355Y0112524D01*
X0130355Y0122524D01*
X0130355Y0132524D01*
X0130355Y0142524D01*
X0130355Y0152524D01*
X0130355Y0162524D01*
X0130355Y0172524D01*
X0130355Y0182524D01*
X0130355Y0192524D01*
X0130355Y0207524D01*
X0130355Y0217524D01*
X0130355Y0227524D01*
X0130355Y0237524D01*
X0130355Y0247524D01*
X0130355Y0257524D01*
X0130355Y0267524D01*
X0130355Y0277524D01*
X0160355Y0267524D02*
X0170355Y0267524D01*
X0180355Y0267524D01*
X0180355Y0257524D02*
X0170355Y0257524D01*
X0160355Y0257524D01*
X0160355Y0247524D02*
X0170355Y0247524D01*
X0180355Y0247524D01*
X0180355Y0237524D02*
X0170355Y0237524D01*
X0160355Y0237524D01*
X0160355Y0227524D02*
X0170355Y0227524D01*
X0180355Y0227524D01*
X0180355Y0217524D02*
X0170355Y0217524D01*
X0160355Y0217524D01*
X0160355Y0207524D02*
X0170355Y0207524D01*
X0180355Y0207524D01*
X0190355Y0207524D02*
X0190355Y0197524D01*
X0190355Y0187524D01*
X0190355Y0177524D01*
X0200355Y0177524D02*
X0200355Y0187524D01*
X0200355Y0197524D01*
X0200355Y0207524D01*
X0200355Y0217524D01*
X0200355Y0227524D01*
X0200355Y0237524D01*
X0200355Y0247524D01*
X0200355Y0257524D01*
X0200355Y0267524D01*
X0190355Y0267524D02*
X0190355Y0257524D01*
X0190355Y0247524D01*
X0190355Y0237524D01*
X0190355Y0227524D01*
X0190355Y0217524D01*
X0190355Y0207524D01*
X0210355Y0207524D02*
X0220355Y0207524D01*
X0230355Y0207524D01*
X0230355Y0217524D02*
X0220355Y0217524D01*
X0210355Y0217524D01*
X0210355Y0227524D02*
X0220355Y0227524D01*
X0230355Y0227524D01*
X0230355Y0237524D02*
X0220355Y0237524D01*
X0210355Y0237524D01*
X0210355Y0247524D02*
X0220355Y0247524D01*
X0230355Y0247524D01*
X0230355Y0257524D02*
X0220355Y0257524D01*
X0210355Y0257524D01*
X0210355Y0267524D02*
X0220355Y0267524D01*
X0230355Y0267524D01*
X0260355Y0267524D02*
X0260355Y0257524D01*
X0260355Y0247524D01*
X0260355Y0237524D01*
X0260355Y0227524D01*
X0260355Y0267524D02*
X0260355Y0277524D01*
X0342355Y0277524D02*
X0342355Y0267524D01*
X0342355Y0257524D01*
X0342355Y0247524D01*
X0342355Y0237524D01*
X0342355Y0227524D01*
X0342355Y0217524D01*
X0342355Y0207524D01*
X0342355Y0192524D01*
X0342355Y0182524D01*
X0342355Y0172524D01*
X0342355Y0162524D01*
X0342355Y0152524D01*
X0342355Y0142524D01*
X0342355Y0132524D01*
X0342355Y0122524D01*
X0342355Y0112524D01*
X0342355Y0102524D01*
X0342355Y0092524D01*
X0402355Y0177524D02*
X0402355Y0187524D01*
X0402355Y0197524D01*
X0402355Y0207524D01*
X0402355Y0217524D01*
X0402355Y0227524D01*
X0402355Y0237524D01*
X0402355Y0247524D01*
X0402355Y0257524D01*
X0402355Y0267524D01*
X0392355Y0267524D02*
X0382355Y0267524D01*
X0372355Y0267524D01*
X0372355Y0257524D02*
X0382355Y0257524D01*
X0392355Y0257524D01*
X0392355Y0247524D02*
X0382355Y0247524D01*
X0372355Y0247524D01*
X0372355Y0237524D02*
X0382355Y0237524D01*
X0392355Y0237524D01*
X0392355Y0227524D02*
X0382355Y0227524D01*
X0372355Y0227524D01*
X0372355Y0217524D02*
X0382355Y0217524D01*
X0392355Y0217524D01*
X0392355Y0207524D02*
X0382355Y0207524D01*
X0372355Y0207524D01*
X0412355Y0207524D02*
X0412355Y0197524D01*
X0412355Y0187524D01*
X0412355Y0177524D01*
X0412355Y0207524D02*
X0412355Y0217524D01*
X0412355Y0227524D01*
X0412355Y0237524D01*
X0412355Y0247524D01*
X0412355Y0257524D01*
X0412355Y0267524D01*
X0422355Y0267524D02*
X0432355Y0267524D01*
X0442355Y0267524D01*
X0442355Y0257524D02*
X0432355Y0257524D01*
X0422355Y0257524D01*
X0422355Y0247524D02*
X0432355Y0247524D01*
X0442355Y0247524D01*
X0442355Y0237524D02*
X0432355Y0237524D01*
X0422355Y0237524D01*
X0422355Y0227524D02*
X0432355Y0227524D01*
X0442355Y0227524D01*
X0442355Y0217524D02*
X0432355Y0217524D01*
X0422355Y0217524D01*
X0422355Y0207524D02*
X0432355Y0207524D01*
X0442355Y0207524D01*
X0472355Y0227524D02*
X0472355Y0237524D01*
X0472355Y0247524D01*
X0472355Y0257524D01*
X0472355Y0267524D01*
X0472355Y0277524D01*
X0412355Y0414524D02*
X0412355Y0424524D01*
X0412355Y0434524D01*
X0412355Y0444524D01*
X0412355Y0454524D01*
X0412355Y0464524D01*
X0412355Y0474524D01*
X0412355Y0484524D01*
X0412355Y0494524D01*
X0412355Y0504524D01*
X0402355Y0504524D02*
X0402355Y0494524D01*
X0402355Y0484524D01*
X0402355Y0474524D01*
X0402355Y0464524D01*
X0402355Y0454524D01*
X0402355Y0444524D01*
X0402355Y0434524D01*
X0402355Y0424524D01*
X0402355Y0414524D01*
X0392355Y0444524D02*
X0382355Y0444524D01*
X0372355Y0444524D01*
X0372355Y0454524D02*
X0382355Y0454524D01*
X0392355Y0454524D01*
X0392355Y0464524D02*
X0382355Y0464524D01*
X0372355Y0464524D01*
X0372355Y0474524D02*
X0382355Y0474524D01*
X0392355Y0474524D01*
X0392355Y0484524D02*
X0382355Y0484524D01*
X0372355Y0484524D01*
X0372355Y0494524D02*
X0382355Y0494524D01*
X0392355Y0494524D01*
X0392355Y0504524D02*
X0382355Y0504524D01*
X0372355Y0504524D01*
X0342355Y0504524D02*
X0342355Y0494524D01*
X0342355Y0484524D01*
X0342355Y0474524D01*
X0342355Y0464524D01*
X0342355Y0454524D01*
X0342355Y0444524D01*
X0342355Y0429524D01*
X0342355Y0419524D01*
X0342355Y0409524D01*
X0342355Y0399524D01*
X0342355Y0389524D01*
X0342355Y0379524D01*
X0342355Y0369524D01*
X0342355Y0359524D01*
X0342355Y0349524D01*
X0342355Y0339524D01*
X0342355Y0329524D01*
X0422355Y0444524D02*
X0432355Y0444524D01*
X0442355Y0444524D01*
X0442355Y0454524D02*
X0432355Y0454524D01*
X0422355Y0454524D01*
X0422355Y0464524D02*
X0432355Y0464524D01*
X0442355Y0464524D01*
X0442355Y0474524D02*
X0432355Y0474524D01*
X0422355Y0474524D01*
X0422355Y0484524D02*
X0432355Y0484524D01*
X0442355Y0484524D01*
X0442355Y0494524D02*
X0432355Y0494524D01*
X0422355Y0494524D01*
X0422355Y0504524D02*
X0432355Y0504524D01*
X0442355Y0504524D01*
X0472355Y0504524D02*
X0472355Y0494524D01*
X0472355Y0484524D01*
X0472355Y0474524D01*
X0472355Y0464524D01*
X0472355Y0504524D02*
X0472355Y0514524D01*
X0342355Y0514524D02*
X0342355Y0504524D01*
X0260355Y0504524D02*
X0260355Y0494524D01*
X0260355Y0484524D01*
X0260355Y0474524D01*
X0260355Y0464524D01*
X0230355Y0464524D02*
X0220355Y0464524D01*
X0210355Y0464524D01*
X0210355Y0454524D02*
X0220355Y0454524D01*
X0230355Y0454524D01*
X0230355Y0444524D02*
X0220355Y0444524D01*
X0210355Y0444524D01*
X0200355Y0444524D02*
X0200355Y0434524D01*
X0200355Y0424524D01*
X0200355Y0414524D01*
X0190355Y0414524D02*
X0190355Y0424524D01*
X0190355Y0434524D01*
X0190355Y0444524D01*
X0190355Y0454524D01*
X0190355Y0464524D01*
X0190355Y0474524D01*
X0190355Y0484524D01*
X0190355Y0494524D01*
X0190355Y0504524D01*
X0200355Y0504524D02*
X0200355Y0494524D01*
X0200355Y0484524D01*
X0200355Y0474524D01*
X0200355Y0464524D01*
X0200355Y0454524D01*
X0200355Y0444524D01*
X0180355Y0444524D02*
X0170355Y0444524D01*
X0160355Y0444524D01*
X0160355Y0454524D02*
X0170355Y0454524D01*
X0180355Y0454524D01*
X0180355Y0464524D02*
X0170355Y0464524D01*
X0160355Y0464524D01*
X0160355Y0474524D02*
X0170355Y0474524D01*
X0180355Y0474524D01*
X0180355Y0484524D02*
X0170355Y0484524D01*
X0160355Y0484524D01*
X0160355Y0494524D02*
X0170355Y0494524D01*
X0180355Y0494524D01*
X0180355Y0504524D02*
X0170355Y0504524D01*
X0160355Y0504524D01*
X0130355Y0504524D02*
X0130355Y0494524D01*
X0130355Y0484524D01*
X0130355Y0474524D01*
X0130355Y0464524D01*
X0130355Y0454524D01*
X0130355Y0444524D01*
X0130355Y0429524D01*
X0130355Y0419524D01*
X0130355Y0409524D01*
X0130355Y0399524D01*
X0130355Y0389524D01*
X0130355Y0379524D01*
X0130355Y0369524D01*
X0130355Y0359524D01*
X0130355Y0349524D01*
X0130355Y0339524D01*
X0130355Y0329524D01*
X0210355Y0474524D02*
X0220355Y0474524D01*
X0230355Y0474524D01*
X0230355Y0484524D02*
X0220355Y0484524D01*
X0210355Y0484524D01*
X0210355Y0494524D02*
X0220355Y0494524D01*
X0230355Y0494524D01*
X0230355Y0504524D02*
X0220355Y0504524D01*
X0210355Y0504524D01*
X0260355Y0504524D02*
X0260355Y0514524D01*
X0130355Y0514524D02*
X0130355Y0504524D01*
D19*
X0190355Y0504524D02*
X0190355Y0507024D01*
X0260355Y0464524D02*
X0270355Y0454524D01*
X0275355Y0454524D01*
X0280355Y0449524D01*
X0280355Y0414524D01*
X0270355Y0414524D01*
X0402355Y0504524D02*
X0402355Y0507024D01*
X0472355Y0464524D02*
X0482355Y0454524D01*
X0487355Y0454524D01*
X0492355Y0449524D01*
X0492355Y0414524D01*
X0482355Y0414524D01*
X0402355Y0270024D02*
X0402355Y0267524D01*
X0472355Y0227524D02*
X0482355Y0217524D01*
X0487355Y0217524D01*
X0492355Y0212524D01*
X0492355Y0177524D01*
X0482355Y0177524D01*
X0280355Y0177524D02*
X0270355Y0177524D01*
X0280355Y0177524D02*
X0280355Y0212524D01*
X0275355Y0217524D01*
X0270355Y0217524D01*
X0260355Y0227524D01*
X0190355Y0267524D02*
X0190355Y0270024D01*
M02*
