G75*
%MOIN*%
%OFA0B0*%
%FSLAX25Y25*%
%IPPOS*%
%LPD*%
%AMOC8*
5,1,8,0,0,1.08239X$1,22.5*
%
%ADD10C,0.01000*%
%ADD11C,0.00500*%
%ADD12C,0.01100*%
%ADD13C,0.00800*%
%ADD14C,0.00000*%
D10*
X0052355Y0298524D02*
X0542355Y0298524D01*
X0301355Y0028524D02*
X0301355Y0588524D01*
D11*
X0300641Y0302443D02*
X0300641Y0302026D01*
X0300641Y0301192D02*
X0300641Y0299524D01*
X0300224Y0299524D02*
X0301058Y0299524D01*
X0302066Y0299524D02*
X0302900Y0299524D01*
X0302483Y0299524D02*
X0302483Y0302026D01*
X0302066Y0302026D01*
X0300641Y0301192D02*
X0300224Y0301192D01*
X0299130Y0302026D02*
X0299130Y0299524D01*
X0297462Y0299524D02*
X0297462Y0302026D01*
X0298296Y0301192D01*
X0299130Y0302026D01*
X0299173Y0297526D02*
X0298339Y0297526D01*
X0297922Y0297109D01*
X0297922Y0295441D01*
X0298339Y0295024D01*
X0299173Y0295024D01*
X0299590Y0295441D01*
X0299590Y0297109D01*
X0299173Y0297526D01*
X0300685Y0296692D02*
X0300685Y0295441D01*
X0301102Y0295024D01*
X0302353Y0295024D01*
X0302353Y0296692D01*
X0303447Y0296692D02*
X0304281Y0296692D01*
X0303864Y0297109D02*
X0303864Y0295441D01*
X0304281Y0295024D01*
X0304324Y0299524D02*
X0304324Y0302026D01*
X0303907Y0302026D01*
X0303907Y0299524D02*
X0304741Y0299524D01*
D12*
X0304204Y0018510D02*
X0303220Y0017526D01*
X0303220Y0015558D01*
X0304204Y0014574D01*
X0307157Y0014574D01*
X0309665Y0015558D02*
X0310649Y0014574D01*
X0312618Y0014574D01*
X0313602Y0015558D01*
X0313602Y0017526D01*
X0312618Y0018510D01*
X0310649Y0018510D01*
X0309665Y0017526D01*
X0309665Y0015558D01*
X0307157Y0018510D02*
X0304204Y0018510D01*
X0300711Y0018510D02*
X0297758Y0018510D01*
X0296774Y0017526D01*
X0297758Y0016542D01*
X0299727Y0016542D01*
X0300711Y0015558D01*
X0299727Y0014574D01*
X0296774Y0014574D01*
X0294266Y0017526D02*
X0290329Y0017526D01*
X0287820Y0018510D02*
X0285852Y0014574D01*
X0283883Y0018510D01*
X0316111Y0018510D02*
X0316111Y0014574D01*
X0316111Y0016542D02*
X0318079Y0018510D01*
X0319063Y0018510D01*
X0321482Y0017526D02*
X0322466Y0018510D01*
X0324435Y0018510D01*
X0325419Y0017526D01*
X0325419Y0016542D01*
X0321482Y0016542D01*
X0321482Y0015558D02*
X0321482Y0017526D01*
X0321482Y0015558D02*
X0322466Y0014574D01*
X0324435Y0014574D01*
X0044435Y0294574D02*
X0042466Y0294574D01*
X0041482Y0295558D01*
X0041482Y0297526D01*
X0042466Y0298510D01*
X0044435Y0298510D01*
X0045419Y0297526D01*
X0045419Y0296542D01*
X0041482Y0296542D01*
X0039063Y0298510D02*
X0038079Y0298510D01*
X0036111Y0296542D01*
X0036111Y0294574D02*
X0036111Y0298510D01*
X0033602Y0297526D02*
X0032618Y0298510D01*
X0030649Y0298510D01*
X0029665Y0297526D01*
X0029665Y0295558D01*
X0030649Y0294574D01*
X0032618Y0294574D01*
X0033602Y0295558D01*
X0033602Y0297526D01*
X0027157Y0298510D02*
X0024204Y0298510D01*
X0023220Y0297526D01*
X0023220Y0295558D01*
X0024204Y0294574D01*
X0027157Y0294574D01*
X0020711Y0295558D02*
X0019727Y0296542D01*
X0017758Y0296542D01*
X0016774Y0297526D01*
X0017758Y0298510D01*
X0020711Y0298510D01*
X0020711Y0295558D02*
X0019727Y0294574D01*
X0016774Y0294574D01*
X0014266Y0297526D02*
X0010329Y0297526D01*
X0007820Y0298510D02*
X0005852Y0294574D01*
X0003883Y0298510D01*
D13*
X0090355Y0072524D02*
X0100355Y0062524D01*
X0290355Y0062524D01*
X0300355Y0072524D01*
X0300355Y0287524D01*
X0290355Y0297524D01*
X0100355Y0297524D01*
X0090355Y0287524D01*
X0090355Y0072524D01*
X0100355Y0299524D02*
X0090355Y0309524D01*
X0090355Y0524524D01*
X0100355Y0534524D01*
X0290355Y0534524D01*
X0300355Y0524524D01*
X0300355Y0309524D01*
X0290355Y0299524D01*
X0100355Y0299524D01*
X0302355Y0309524D02*
X0312355Y0299524D01*
X0502355Y0299524D01*
X0512355Y0309524D01*
X0512355Y0524524D01*
X0502355Y0534524D01*
X0312355Y0534524D01*
X0302355Y0524524D01*
X0302355Y0309524D01*
X0312355Y0297524D02*
X0502355Y0297524D01*
X0512355Y0287524D01*
X0512355Y0072524D01*
X0502355Y0062524D01*
X0312355Y0062524D01*
X0302355Y0072524D01*
X0302355Y0287524D01*
X0312355Y0297524D01*
D14*
X0360855Y0349524D02*
X0360857Y0349685D01*
X0360863Y0349845D01*
X0360873Y0350006D01*
X0360887Y0350166D01*
X0360905Y0350326D01*
X0360926Y0350485D01*
X0360952Y0350644D01*
X0360982Y0350802D01*
X0361015Y0350959D01*
X0361053Y0351116D01*
X0361094Y0351271D01*
X0361139Y0351425D01*
X0361188Y0351578D01*
X0361241Y0351730D01*
X0361297Y0351881D01*
X0361358Y0352030D01*
X0361421Y0352178D01*
X0361489Y0352324D01*
X0361560Y0352468D01*
X0361634Y0352610D01*
X0361712Y0352751D01*
X0361794Y0352889D01*
X0361879Y0353026D01*
X0361967Y0353160D01*
X0362059Y0353292D01*
X0362154Y0353422D01*
X0362252Y0353550D01*
X0362353Y0353675D01*
X0362457Y0353797D01*
X0362564Y0353917D01*
X0362674Y0354034D01*
X0362787Y0354149D01*
X0362903Y0354260D01*
X0363022Y0354369D01*
X0363143Y0354474D01*
X0363267Y0354577D01*
X0363393Y0354677D01*
X0363521Y0354773D01*
X0363652Y0354866D01*
X0363786Y0354956D01*
X0363921Y0355043D01*
X0364059Y0355126D01*
X0364198Y0355206D01*
X0364340Y0355282D01*
X0364483Y0355355D01*
X0364628Y0355424D01*
X0364775Y0355490D01*
X0364923Y0355552D01*
X0365073Y0355610D01*
X0365224Y0355665D01*
X0365377Y0355716D01*
X0365531Y0355763D01*
X0365686Y0355806D01*
X0365842Y0355845D01*
X0365998Y0355881D01*
X0366156Y0355912D01*
X0366314Y0355940D01*
X0366473Y0355964D01*
X0366633Y0355984D01*
X0366793Y0356000D01*
X0366953Y0356012D01*
X0367114Y0356020D01*
X0367275Y0356024D01*
X0367435Y0356024D01*
X0367596Y0356020D01*
X0367757Y0356012D01*
X0367917Y0356000D01*
X0368077Y0355984D01*
X0368237Y0355964D01*
X0368396Y0355940D01*
X0368554Y0355912D01*
X0368712Y0355881D01*
X0368868Y0355845D01*
X0369024Y0355806D01*
X0369179Y0355763D01*
X0369333Y0355716D01*
X0369486Y0355665D01*
X0369637Y0355610D01*
X0369787Y0355552D01*
X0369935Y0355490D01*
X0370082Y0355424D01*
X0370227Y0355355D01*
X0370370Y0355282D01*
X0370512Y0355206D01*
X0370651Y0355126D01*
X0370789Y0355043D01*
X0370924Y0354956D01*
X0371058Y0354866D01*
X0371189Y0354773D01*
X0371317Y0354677D01*
X0371443Y0354577D01*
X0371567Y0354474D01*
X0371688Y0354369D01*
X0371807Y0354260D01*
X0371923Y0354149D01*
X0372036Y0354034D01*
X0372146Y0353917D01*
X0372253Y0353797D01*
X0372357Y0353675D01*
X0372458Y0353550D01*
X0372556Y0353422D01*
X0372651Y0353292D01*
X0372743Y0353160D01*
X0372831Y0353026D01*
X0372916Y0352889D01*
X0372998Y0352751D01*
X0373076Y0352610D01*
X0373150Y0352468D01*
X0373221Y0352324D01*
X0373289Y0352178D01*
X0373352Y0352030D01*
X0373413Y0351881D01*
X0373469Y0351730D01*
X0373522Y0351578D01*
X0373571Y0351425D01*
X0373616Y0351271D01*
X0373657Y0351116D01*
X0373695Y0350959D01*
X0373728Y0350802D01*
X0373758Y0350644D01*
X0373784Y0350485D01*
X0373805Y0350326D01*
X0373823Y0350166D01*
X0373837Y0350006D01*
X0373847Y0349845D01*
X0373853Y0349685D01*
X0373855Y0349524D01*
X0373853Y0349363D01*
X0373847Y0349203D01*
X0373837Y0349042D01*
X0373823Y0348882D01*
X0373805Y0348722D01*
X0373784Y0348563D01*
X0373758Y0348404D01*
X0373728Y0348246D01*
X0373695Y0348089D01*
X0373657Y0347932D01*
X0373616Y0347777D01*
X0373571Y0347623D01*
X0373522Y0347470D01*
X0373469Y0347318D01*
X0373413Y0347167D01*
X0373352Y0347018D01*
X0373289Y0346870D01*
X0373221Y0346724D01*
X0373150Y0346580D01*
X0373076Y0346438D01*
X0372998Y0346297D01*
X0372916Y0346159D01*
X0372831Y0346022D01*
X0372743Y0345888D01*
X0372651Y0345756D01*
X0372556Y0345626D01*
X0372458Y0345498D01*
X0372357Y0345373D01*
X0372253Y0345251D01*
X0372146Y0345131D01*
X0372036Y0345014D01*
X0371923Y0344899D01*
X0371807Y0344788D01*
X0371688Y0344679D01*
X0371567Y0344574D01*
X0371443Y0344471D01*
X0371317Y0344371D01*
X0371189Y0344275D01*
X0371058Y0344182D01*
X0370924Y0344092D01*
X0370789Y0344005D01*
X0370651Y0343922D01*
X0370512Y0343842D01*
X0370370Y0343766D01*
X0370227Y0343693D01*
X0370082Y0343624D01*
X0369935Y0343558D01*
X0369787Y0343496D01*
X0369637Y0343438D01*
X0369486Y0343383D01*
X0369333Y0343332D01*
X0369179Y0343285D01*
X0369024Y0343242D01*
X0368868Y0343203D01*
X0368712Y0343167D01*
X0368554Y0343136D01*
X0368396Y0343108D01*
X0368237Y0343084D01*
X0368077Y0343064D01*
X0367917Y0343048D01*
X0367757Y0343036D01*
X0367596Y0343028D01*
X0367435Y0343024D01*
X0367275Y0343024D01*
X0367114Y0343028D01*
X0366953Y0343036D01*
X0366793Y0343048D01*
X0366633Y0343064D01*
X0366473Y0343084D01*
X0366314Y0343108D01*
X0366156Y0343136D01*
X0365998Y0343167D01*
X0365842Y0343203D01*
X0365686Y0343242D01*
X0365531Y0343285D01*
X0365377Y0343332D01*
X0365224Y0343383D01*
X0365073Y0343438D01*
X0364923Y0343496D01*
X0364775Y0343558D01*
X0364628Y0343624D01*
X0364483Y0343693D01*
X0364340Y0343766D01*
X0364198Y0343842D01*
X0364059Y0343922D01*
X0363921Y0344005D01*
X0363786Y0344092D01*
X0363652Y0344182D01*
X0363521Y0344275D01*
X0363393Y0344371D01*
X0363267Y0344471D01*
X0363143Y0344574D01*
X0363022Y0344679D01*
X0362903Y0344788D01*
X0362787Y0344899D01*
X0362674Y0345014D01*
X0362564Y0345131D01*
X0362457Y0345251D01*
X0362353Y0345373D01*
X0362252Y0345498D01*
X0362154Y0345626D01*
X0362059Y0345756D01*
X0361967Y0345888D01*
X0361879Y0346022D01*
X0361794Y0346159D01*
X0361712Y0346297D01*
X0361634Y0346438D01*
X0361560Y0346580D01*
X0361489Y0346724D01*
X0361421Y0346870D01*
X0361358Y0347018D01*
X0361297Y0347167D01*
X0361241Y0347318D01*
X0361188Y0347470D01*
X0361139Y0347623D01*
X0361094Y0347777D01*
X0361053Y0347932D01*
X0361015Y0348089D01*
X0360982Y0348246D01*
X0360952Y0348404D01*
X0360926Y0348563D01*
X0360905Y0348722D01*
X0360887Y0348882D01*
X0360873Y0349042D01*
X0360863Y0349203D01*
X0360857Y0349363D01*
X0360855Y0349524D01*
X0360855Y0429524D02*
X0360857Y0429685D01*
X0360863Y0429845D01*
X0360873Y0430006D01*
X0360887Y0430166D01*
X0360905Y0430326D01*
X0360926Y0430485D01*
X0360952Y0430644D01*
X0360982Y0430802D01*
X0361015Y0430959D01*
X0361053Y0431116D01*
X0361094Y0431271D01*
X0361139Y0431425D01*
X0361188Y0431578D01*
X0361241Y0431730D01*
X0361297Y0431881D01*
X0361358Y0432030D01*
X0361421Y0432178D01*
X0361489Y0432324D01*
X0361560Y0432468D01*
X0361634Y0432610D01*
X0361712Y0432751D01*
X0361794Y0432889D01*
X0361879Y0433026D01*
X0361967Y0433160D01*
X0362059Y0433292D01*
X0362154Y0433422D01*
X0362252Y0433550D01*
X0362353Y0433675D01*
X0362457Y0433797D01*
X0362564Y0433917D01*
X0362674Y0434034D01*
X0362787Y0434149D01*
X0362903Y0434260D01*
X0363022Y0434369D01*
X0363143Y0434474D01*
X0363267Y0434577D01*
X0363393Y0434677D01*
X0363521Y0434773D01*
X0363652Y0434866D01*
X0363786Y0434956D01*
X0363921Y0435043D01*
X0364059Y0435126D01*
X0364198Y0435206D01*
X0364340Y0435282D01*
X0364483Y0435355D01*
X0364628Y0435424D01*
X0364775Y0435490D01*
X0364923Y0435552D01*
X0365073Y0435610D01*
X0365224Y0435665D01*
X0365377Y0435716D01*
X0365531Y0435763D01*
X0365686Y0435806D01*
X0365842Y0435845D01*
X0365998Y0435881D01*
X0366156Y0435912D01*
X0366314Y0435940D01*
X0366473Y0435964D01*
X0366633Y0435984D01*
X0366793Y0436000D01*
X0366953Y0436012D01*
X0367114Y0436020D01*
X0367275Y0436024D01*
X0367435Y0436024D01*
X0367596Y0436020D01*
X0367757Y0436012D01*
X0367917Y0436000D01*
X0368077Y0435984D01*
X0368237Y0435964D01*
X0368396Y0435940D01*
X0368554Y0435912D01*
X0368712Y0435881D01*
X0368868Y0435845D01*
X0369024Y0435806D01*
X0369179Y0435763D01*
X0369333Y0435716D01*
X0369486Y0435665D01*
X0369637Y0435610D01*
X0369787Y0435552D01*
X0369935Y0435490D01*
X0370082Y0435424D01*
X0370227Y0435355D01*
X0370370Y0435282D01*
X0370512Y0435206D01*
X0370651Y0435126D01*
X0370789Y0435043D01*
X0370924Y0434956D01*
X0371058Y0434866D01*
X0371189Y0434773D01*
X0371317Y0434677D01*
X0371443Y0434577D01*
X0371567Y0434474D01*
X0371688Y0434369D01*
X0371807Y0434260D01*
X0371923Y0434149D01*
X0372036Y0434034D01*
X0372146Y0433917D01*
X0372253Y0433797D01*
X0372357Y0433675D01*
X0372458Y0433550D01*
X0372556Y0433422D01*
X0372651Y0433292D01*
X0372743Y0433160D01*
X0372831Y0433026D01*
X0372916Y0432889D01*
X0372998Y0432751D01*
X0373076Y0432610D01*
X0373150Y0432468D01*
X0373221Y0432324D01*
X0373289Y0432178D01*
X0373352Y0432030D01*
X0373413Y0431881D01*
X0373469Y0431730D01*
X0373522Y0431578D01*
X0373571Y0431425D01*
X0373616Y0431271D01*
X0373657Y0431116D01*
X0373695Y0430959D01*
X0373728Y0430802D01*
X0373758Y0430644D01*
X0373784Y0430485D01*
X0373805Y0430326D01*
X0373823Y0430166D01*
X0373837Y0430006D01*
X0373847Y0429845D01*
X0373853Y0429685D01*
X0373855Y0429524D01*
X0373853Y0429363D01*
X0373847Y0429203D01*
X0373837Y0429042D01*
X0373823Y0428882D01*
X0373805Y0428722D01*
X0373784Y0428563D01*
X0373758Y0428404D01*
X0373728Y0428246D01*
X0373695Y0428089D01*
X0373657Y0427932D01*
X0373616Y0427777D01*
X0373571Y0427623D01*
X0373522Y0427470D01*
X0373469Y0427318D01*
X0373413Y0427167D01*
X0373352Y0427018D01*
X0373289Y0426870D01*
X0373221Y0426724D01*
X0373150Y0426580D01*
X0373076Y0426438D01*
X0372998Y0426297D01*
X0372916Y0426159D01*
X0372831Y0426022D01*
X0372743Y0425888D01*
X0372651Y0425756D01*
X0372556Y0425626D01*
X0372458Y0425498D01*
X0372357Y0425373D01*
X0372253Y0425251D01*
X0372146Y0425131D01*
X0372036Y0425014D01*
X0371923Y0424899D01*
X0371807Y0424788D01*
X0371688Y0424679D01*
X0371567Y0424574D01*
X0371443Y0424471D01*
X0371317Y0424371D01*
X0371189Y0424275D01*
X0371058Y0424182D01*
X0370924Y0424092D01*
X0370789Y0424005D01*
X0370651Y0423922D01*
X0370512Y0423842D01*
X0370370Y0423766D01*
X0370227Y0423693D01*
X0370082Y0423624D01*
X0369935Y0423558D01*
X0369787Y0423496D01*
X0369637Y0423438D01*
X0369486Y0423383D01*
X0369333Y0423332D01*
X0369179Y0423285D01*
X0369024Y0423242D01*
X0368868Y0423203D01*
X0368712Y0423167D01*
X0368554Y0423136D01*
X0368396Y0423108D01*
X0368237Y0423084D01*
X0368077Y0423064D01*
X0367917Y0423048D01*
X0367757Y0423036D01*
X0367596Y0423028D01*
X0367435Y0423024D01*
X0367275Y0423024D01*
X0367114Y0423028D01*
X0366953Y0423036D01*
X0366793Y0423048D01*
X0366633Y0423064D01*
X0366473Y0423084D01*
X0366314Y0423108D01*
X0366156Y0423136D01*
X0365998Y0423167D01*
X0365842Y0423203D01*
X0365686Y0423242D01*
X0365531Y0423285D01*
X0365377Y0423332D01*
X0365224Y0423383D01*
X0365073Y0423438D01*
X0364923Y0423496D01*
X0364775Y0423558D01*
X0364628Y0423624D01*
X0364483Y0423693D01*
X0364340Y0423766D01*
X0364198Y0423842D01*
X0364059Y0423922D01*
X0363921Y0424005D01*
X0363786Y0424092D01*
X0363652Y0424182D01*
X0363521Y0424275D01*
X0363393Y0424371D01*
X0363267Y0424471D01*
X0363143Y0424574D01*
X0363022Y0424679D01*
X0362903Y0424788D01*
X0362787Y0424899D01*
X0362674Y0425014D01*
X0362564Y0425131D01*
X0362457Y0425251D01*
X0362353Y0425373D01*
X0362252Y0425498D01*
X0362154Y0425626D01*
X0362059Y0425756D01*
X0361967Y0425888D01*
X0361879Y0426022D01*
X0361794Y0426159D01*
X0361712Y0426297D01*
X0361634Y0426438D01*
X0361560Y0426580D01*
X0361489Y0426724D01*
X0361421Y0426870D01*
X0361358Y0427018D01*
X0361297Y0427167D01*
X0361241Y0427318D01*
X0361188Y0427470D01*
X0361139Y0427623D01*
X0361094Y0427777D01*
X0361053Y0427932D01*
X0361015Y0428089D01*
X0360982Y0428246D01*
X0360952Y0428404D01*
X0360926Y0428563D01*
X0360905Y0428722D01*
X0360887Y0428882D01*
X0360873Y0429042D01*
X0360863Y0429203D01*
X0360857Y0429363D01*
X0360855Y0429524D01*
X0440855Y0429524D02*
X0440857Y0429685D01*
X0440863Y0429845D01*
X0440873Y0430006D01*
X0440887Y0430166D01*
X0440905Y0430326D01*
X0440926Y0430485D01*
X0440952Y0430644D01*
X0440982Y0430802D01*
X0441015Y0430959D01*
X0441053Y0431116D01*
X0441094Y0431271D01*
X0441139Y0431425D01*
X0441188Y0431578D01*
X0441241Y0431730D01*
X0441297Y0431881D01*
X0441358Y0432030D01*
X0441421Y0432178D01*
X0441489Y0432324D01*
X0441560Y0432468D01*
X0441634Y0432610D01*
X0441712Y0432751D01*
X0441794Y0432889D01*
X0441879Y0433026D01*
X0441967Y0433160D01*
X0442059Y0433292D01*
X0442154Y0433422D01*
X0442252Y0433550D01*
X0442353Y0433675D01*
X0442457Y0433797D01*
X0442564Y0433917D01*
X0442674Y0434034D01*
X0442787Y0434149D01*
X0442903Y0434260D01*
X0443022Y0434369D01*
X0443143Y0434474D01*
X0443267Y0434577D01*
X0443393Y0434677D01*
X0443521Y0434773D01*
X0443652Y0434866D01*
X0443786Y0434956D01*
X0443921Y0435043D01*
X0444059Y0435126D01*
X0444198Y0435206D01*
X0444340Y0435282D01*
X0444483Y0435355D01*
X0444628Y0435424D01*
X0444775Y0435490D01*
X0444923Y0435552D01*
X0445073Y0435610D01*
X0445224Y0435665D01*
X0445377Y0435716D01*
X0445531Y0435763D01*
X0445686Y0435806D01*
X0445842Y0435845D01*
X0445998Y0435881D01*
X0446156Y0435912D01*
X0446314Y0435940D01*
X0446473Y0435964D01*
X0446633Y0435984D01*
X0446793Y0436000D01*
X0446953Y0436012D01*
X0447114Y0436020D01*
X0447275Y0436024D01*
X0447435Y0436024D01*
X0447596Y0436020D01*
X0447757Y0436012D01*
X0447917Y0436000D01*
X0448077Y0435984D01*
X0448237Y0435964D01*
X0448396Y0435940D01*
X0448554Y0435912D01*
X0448712Y0435881D01*
X0448868Y0435845D01*
X0449024Y0435806D01*
X0449179Y0435763D01*
X0449333Y0435716D01*
X0449486Y0435665D01*
X0449637Y0435610D01*
X0449787Y0435552D01*
X0449935Y0435490D01*
X0450082Y0435424D01*
X0450227Y0435355D01*
X0450370Y0435282D01*
X0450512Y0435206D01*
X0450651Y0435126D01*
X0450789Y0435043D01*
X0450924Y0434956D01*
X0451058Y0434866D01*
X0451189Y0434773D01*
X0451317Y0434677D01*
X0451443Y0434577D01*
X0451567Y0434474D01*
X0451688Y0434369D01*
X0451807Y0434260D01*
X0451923Y0434149D01*
X0452036Y0434034D01*
X0452146Y0433917D01*
X0452253Y0433797D01*
X0452357Y0433675D01*
X0452458Y0433550D01*
X0452556Y0433422D01*
X0452651Y0433292D01*
X0452743Y0433160D01*
X0452831Y0433026D01*
X0452916Y0432889D01*
X0452998Y0432751D01*
X0453076Y0432610D01*
X0453150Y0432468D01*
X0453221Y0432324D01*
X0453289Y0432178D01*
X0453352Y0432030D01*
X0453413Y0431881D01*
X0453469Y0431730D01*
X0453522Y0431578D01*
X0453571Y0431425D01*
X0453616Y0431271D01*
X0453657Y0431116D01*
X0453695Y0430959D01*
X0453728Y0430802D01*
X0453758Y0430644D01*
X0453784Y0430485D01*
X0453805Y0430326D01*
X0453823Y0430166D01*
X0453837Y0430006D01*
X0453847Y0429845D01*
X0453853Y0429685D01*
X0453855Y0429524D01*
X0453853Y0429363D01*
X0453847Y0429203D01*
X0453837Y0429042D01*
X0453823Y0428882D01*
X0453805Y0428722D01*
X0453784Y0428563D01*
X0453758Y0428404D01*
X0453728Y0428246D01*
X0453695Y0428089D01*
X0453657Y0427932D01*
X0453616Y0427777D01*
X0453571Y0427623D01*
X0453522Y0427470D01*
X0453469Y0427318D01*
X0453413Y0427167D01*
X0453352Y0427018D01*
X0453289Y0426870D01*
X0453221Y0426724D01*
X0453150Y0426580D01*
X0453076Y0426438D01*
X0452998Y0426297D01*
X0452916Y0426159D01*
X0452831Y0426022D01*
X0452743Y0425888D01*
X0452651Y0425756D01*
X0452556Y0425626D01*
X0452458Y0425498D01*
X0452357Y0425373D01*
X0452253Y0425251D01*
X0452146Y0425131D01*
X0452036Y0425014D01*
X0451923Y0424899D01*
X0451807Y0424788D01*
X0451688Y0424679D01*
X0451567Y0424574D01*
X0451443Y0424471D01*
X0451317Y0424371D01*
X0451189Y0424275D01*
X0451058Y0424182D01*
X0450924Y0424092D01*
X0450789Y0424005D01*
X0450651Y0423922D01*
X0450512Y0423842D01*
X0450370Y0423766D01*
X0450227Y0423693D01*
X0450082Y0423624D01*
X0449935Y0423558D01*
X0449787Y0423496D01*
X0449637Y0423438D01*
X0449486Y0423383D01*
X0449333Y0423332D01*
X0449179Y0423285D01*
X0449024Y0423242D01*
X0448868Y0423203D01*
X0448712Y0423167D01*
X0448554Y0423136D01*
X0448396Y0423108D01*
X0448237Y0423084D01*
X0448077Y0423064D01*
X0447917Y0423048D01*
X0447757Y0423036D01*
X0447596Y0423028D01*
X0447435Y0423024D01*
X0447275Y0423024D01*
X0447114Y0423028D01*
X0446953Y0423036D01*
X0446793Y0423048D01*
X0446633Y0423064D01*
X0446473Y0423084D01*
X0446314Y0423108D01*
X0446156Y0423136D01*
X0445998Y0423167D01*
X0445842Y0423203D01*
X0445686Y0423242D01*
X0445531Y0423285D01*
X0445377Y0423332D01*
X0445224Y0423383D01*
X0445073Y0423438D01*
X0444923Y0423496D01*
X0444775Y0423558D01*
X0444628Y0423624D01*
X0444483Y0423693D01*
X0444340Y0423766D01*
X0444198Y0423842D01*
X0444059Y0423922D01*
X0443921Y0424005D01*
X0443786Y0424092D01*
X0443652Y0424182D01*
X0443521Y0424275D01*
X0443393Y0424371D01*
X0443267Y0424471D01*
X0443143Y0424574D01*
X0443022Y0424679D01*
X0442903Y0424788D01*
X0442787Y0424899D01*
X0442674Y0425014D01*
X0442564Y0425131D01*
X0442457Y0425251D01*
X0442353Y0425373D01*
X0442252Y0425498D01*
X0442154Y0425626D01*
X0442059Y0425756D01*
X0441967Y0425888D01*
X0441879Y0426022D01*
X0441794Y0426159D01*
X0441712Y0426297D01*
X0441634Y0426438D01*
X0441560Y0426580D01*
X0441489Y0426724D01*
X0441421Y0426870D01*
X0441358Y0427018D01*
X0441297Y0427167D01*
X0441241Y0427318D01*
X0441188Y0427470D01*
X0441139Y0427623D01*
X0441094Y0427777D01*
X0441053Y0427932D01*
X0441015Y0428089D01*
X0440982Y0428246D01*
X0440952Y0428404D01*
X0440926Y0428563D01*
X0440905Y0428722D01*
X0440887Y0428882D01*
X0440873Y0429042D01*
X0440863Y0429203D01*
X0440857Y0429363D01*
X0440855Y0429524D01*
X0440855Y0349524D02*
X0440857Y0349685D01*
X0440863Y0349845D01*
X0440873Y0350006D01*
X0440887Y0350166D01*
X0440905Y0350326D01*
X0440926Y0350485D01*
X0440952Y0350644D01*
X0440982Y0350802D01*
X0441015Y0350959D01*
X0441053Y0351116D01*
X0441094Y0351271D01*
X0441139Y0351425D01*
X0441188Y0351578D01*
X0441241Y0351730D01*
X0441297Y0351881D01*
X0441358Y0352030D01*
X0441421Y0352178D01*
X0441489Y0352324D01*
X0441560Y0352468D01*
X0441634Y0352610D01*
X0441712Y0352751D01*
X0441794Y0352889D01*
X0441879Y0353026D01*
X0441967Y0353160D01*
X0442059Y0353292D01*
X0442154Y0353422D01*
X0442252Y0353550D01*
X0442353Y0353675D01*
X0442457Y0353797D01*
X0442564Y0353917D01*
X0442674Y0354034D01*
X0442787Y0354149D01*
X0442903Y0354260D01*
X0443022Y0354369D01*
X0443143Y0354474D01*
X0443267Y0354577D01*
X0443393Y0354677D01*
X0443521Y0354773D01*
X0443652Y0354866D01*
X0443786Y0354956D01*
X0443921Y0355043D01*
X0444059Y0355126D01*
X0444198Y0355206D01*
X0444340Y0355282D01*
X0444483Y0355355D01*
X0444628Y0355424D01*
X0444775Y0355490D01*
X0444923Y0355552D01*
X0445073Y0355610D01*
X0445224Y0355665D01*
X0445377Y0355716D01*
X0445531Y0355763D01*
X0445686Y0355806D01*
X0445842Y0355845D01*
X0445998Y0355881D01*
X0446156Y0355912D01*
X0446314Y0355940D01*
X0446473Y0355964D01*
X0446633Y0355984D01*
X0446793Y0356000D01*
X0446953Y0356012D01*
X0447114Y0356020D01*
X0447275Y0356024D01*
X0447435Y0356024D01*
X0447596Y0356020D01*
X0447757Y0356012D01*
X0447917Y0356000D01*
X0448077Y0355984D01*
X0448237Y0355964D01*
X0448396Y0355940D01*
X0448554Y0355912D01*
X0448712Y0355881D01*
X0448868Y0355845D01*
X0449024Y0355806D01*
X0449179Y0355763D01*
X0449333Y0355716D01*
X0449486Y0355665D01*
X0449637Y0355610D01*
X0449787Y0355552D01*
X0449935Y0355490D01*
X0450082Y0355424D01*
X0450227Y0355355D01*
X0450370Y0355282D01*
X0450512Y0355206D01*
X0450651Y0355126D01*
X0450789Y0355043D01*
X0450924Y0354956D01*
X0451058Y0354866D01*
X0451189Y0354773D01*
X0451317Y0354677D01*
X0451443Y0354577D01*
X0451567Y0354474D01*
X0451688Y0354369D01*
X0451807Y0354260D01*
X0451923Y0354149D01*
X0452036Y0354034D01*
X0452146Y0353917D01*
X0452253Y0353797D01*
X0452357Y0353675D01*
X0452458Y0353550D01*
X0452556Y0353422D01*
X0452651Y0353292D01*
X0452743Y0353160D01*
X0452831Y0353026D01*
X0452916Y0352889D01*
X0452998Y0352751D01*
X0453076Y0352610D01*
X0453150Y0352468D01*
X0453221Y0352324D01*
X0453289Y0352178D01*
X0453352Y0352030D01*
X0453413Y0351881D01*
X0453469Y0351730D01*
X0453522Y0351578D01*
X0453571Y0351425D01*
X0453616Y0351271D01*
X0453657Y0351116D01*
X0453695Y0350959D01*
X0453728Y0350802D01*
X0453758Y0350644D01*
X0453784Y0350485D01*
X0453805Y0350326D01*
X0453823Y0350166D01*
X0453837Y0350006D01*
X0453847Y0349845D01*
X0453853Y0349685D01*
X0453855Y0349524D01*
X0453853Y0349363D01*
X0453847Y0349203D01*
X0453837Y0349042D01*
X0453823Y0348882D01*
X0453805Y0348722D01*
X0453784Y0348563D01*
X0453758Y0348404D01*
X0453728Y0348246D01*
X0453695Y0348089D01*
X0453657Y0347932D01*
X0453616Y0347777D01*
X0453571Y0347623D01*
X0453522Y0347470D01*
X0453469Y0347318D01*
X0453413Y0347167D01*
X0453352Y0347018D01*
X0453289Y0346870D01*
X0453221Y0346724D01*
X0453150Y0346580D01*
X0453076Y0346438D01*
X0452998Y0346297D01*
X0452916Y0346159D01*
X0452831Y0346022D01*
X0452743Y0345888D01*
X0452651Y0345756D01*
X0452556Y0345626D01*
X0452458Y0345498D01*
X0452357Y0345373D01*
X0452253Y0345251D01*
X0452146Y0345131D01*
X0452036Y0345014D01*
X0451923Y0344899D01*
X0451807Y0344788D01*
X0451688Y0344679D01*
X0451567Y0344574D01*
X0451443Y0344471D01*
X0451317Y0344371D01*
X0451189Y0344275D01*
X0451058Y0344182D01*
X0450924Y0344092D01*
X0450789Y0344005D01*
X0450651Y0343922D01*
X0450512Y0343842D01*
X0450370Y0343766D01*
X0450227Y0343693D01*
X0450082Y0343624D01*
X0449935Y0343558D01*
X0449787Y0343496D01*
X0449637Y0343438D01*
X0449486Y0343383D01*
X0449333Y0343332D01*
X0449179Y0343285D01*
X0449024Y0343242D01*
X0448868Y0343203D01*
X0448712Y0343167D01*
X0448554Y0343136D01*
X0448396Y0343108D01*
X0448237Y0343084D01*
X0448077Y0343064D01*
X0447917Y0343048D01*
X0447757Y0343036D01*
X0447596Y0343028D01*
X0447435Y0343024D01*
X0447275Y0343024D01*
X0447114Y0343028D01*
X0446953Y0343036D01*
X0446793Y0343048D01*
X0446633Y0343064D01*
X0446473Y0343084D01*
X0446314Y0343108D01*
X0446156Y0343136D01*
X0445998Y0343167D01*
X0445842Y0343203D01*
X0445686Y0343242D01*
X0445531Y0343285D01*
X0445377Y0343332D01*
X0445224Y0343383D01*
X0445073Y0343438D01*
X0444923Y0343496D01*
X0444775Y0343558D01*
X0444628Y0343624D01*
X0444483Y0343693D01*
X0444340Y0343766D01*
X0444198Y0343842D01*
X0444059Y0343922D01*
X0443921Y0344005D01*
X0443786Y0344092D01*
X0443652Y0344182D01*
X0443521Y0344275D01*
X0443393Y0344371D01*
X0443267Y0344471D01*
X0443143Y0344574D01*
X0443022Y0344679D01*
X0442903Y0344788D01*
X0442787Y0344899D01*
X0442674Y0345014D01*
X0442564Y0345131D01*
X0442457Y0345251D01*
X0442353Y0345373D01*
X0442252Y0345498D01*
X0442154Y0345626D01*
X0442059Y0345756D01*
X0441967Y0345888D01*
X0441879Y0346022D01*
X0441794Y0346159D01*
X0441712Y0346297D01*
X0441634Y0346438D01*
X0441560Y0346580D01*
X0441489Y0346724D01*
X0441421Y0346870D01*
X0441358Y0347018D01*
X0441297Y0347167D01*
X0441241Y0347318D01*
X0441188Y0347470D01*
X0441139Y0347623D01*
X0441094Y0347777D01*
X0441053Y0347932D01*
X0441015Y0348089D01*
X0440982Y0348246D01*
X0440952Y0348404D01*
X0440926Y0348563D01*
X0440905Y0348722D01*
X0440887Y0348882D01*
X0440873Y0349042D01*
X0440863Y0349203D01*
X0440857Y0349363D01*
X0440855Y0349524D01*
X0440855Y0192524D02*
X0440857Y0192685D01*
X0440863Y0192845D01*
X0440873Y0193006D01*
X0440887Y0193166D01*
X0440905Y0193326D01*
X0440926Y0193485D01*
X0440952Y0193644D01*
X0440982Y0193802D01*
X0441015Y0193959D01*
X0441053Y0194116D01*
X0441094Y0194271D01*
X0441139Y0194425D01*
X0441188Y0194578D01*
X0441241Y0194730D01*
X0441297Y0194881D01*
X0441358Y0195030D01*
X0441421Y0195178D01*
X0441489Y0195324D01*
X0441560Y0195468D01*
X0441634Y0195610D01*
X0441712Y0195751D01*
X0441794Y0195889D01*
X0441879Y0196026D01*
X0441967Y0196160D01*
X0442059Y0196292D01*
X0442154Y0196422D01*
X0442252Y0196550D01*
X0442353Y0196675D01*
X0442457Y0196797D01*
X0442564Y0196917D01*
X0442674Y0197034D01*
X0442787Y0197149D01*
X0442903Y0197260D01*
X0443022Y0197369D01*
X0443143Y0197474D01*
X0443267Y0197577D01*
X0443393Y0197677D01*
X0443521Y0197773D01*
X0443652Y0197866D01*
X0443786Y0197956D01*
X0443921Y0198043D01*
X0444059Y0198126D01*
X0444198Y0198206D01*
X0444340Y0198282D01*
X0444483Y0198355D01*
X0444628Y0198424D01*
X0444775Y0198490D01*
X0444923Y0198552D01*
X0445073Y0198610D01*
X0445224Y0198665D01*
X0445377Y0198716D01*
X0445531Y0198763D01*
X0445686Y0198806D01*
X0445842Y0198845D01*
X0445998Y0198881D01*
X0446156Y0198912D01*
X0446314Y0198940D01*
X0446473Y0198964D01*
X0446633Y0198984D01*
X0446793Y0199000D01*
X0446953Y0199012D01*
X0447114Y0199020D01*
X0447275Y0199024D01*
X0447435Y0199024D01*
X0447596Y0199020D01*
X0447757Y0199012D01*
X0447917Y0199000D01*
X0448077Y0198984D01*
X0448237Y0198964D01*
X0448396Y0198940D01*
X0448554Y0198912D01*
X0448712Y0198881D01*
X0448868Y0198845D01*
X0449024Y0198806D01*
X0449179Y0198763D01*
X0449333Y0198716D01*
X0449486Y0198665D01*
X0449637Y0198610D01*
X0449787Y0198552D01*
X0449935Y0198490D01*
X0450082Y0198424D01*
X0450227Y0198355D01*
X0450370Y0198282D01*
X0450512Y0198206D01*
X0450651Y0198126D01*
X0450789Y0198043D01*
X0450924Y0197956D01*
X0451058Y0197866D01*
X0451189Y0197773D01*
X0451317Y0197677D01*
X0451443Y0197577D01*
X0451567Y0197474D01*
X0451688Y0197369D01*
X0451807Y0197260D01*
X0451923Y0197149D01*
X0452036Y0197034D01*
X0452146Y0196917D01*
X0452253Y0196797D01*
X0452357Y0196675D01*
X0452458Y0196550D01*
X0452556Y0196422D01*
X0452651Y0196292D01*
X0452743Y0196160D01*
X0452831Y0196026D01*
X0452916Y0195889D01*
X0452998Y0195751D01*
X0453076Y0195610D01*
X0453150Y0195468D01*
X0453221Y0195324D01*
X0453289Y0195178D01*
X0453352Y0195030D01*
X0453413Y0194881D01*
X0453469Y0194730D01*
X0453522Y0194578D01*
X0453571Y0194425D01*
X0453616Y0194271D01*
X0453657Y0194116D01*
X0453695Y0193959D01*
X0453728Y0193802D01*
X0453758Y0193644D01*
X0453784Y0193485D01*
X0453805Y0193326D01*
X0453823Y0193166D01*
X0453837Y0193006D01*
X0453847Y0192845D01*
X0453853Y0192685D01*
X0453855Y0192524D01*
X0453853Y0192363D01*
X0453847Y0192203D01*
X0453837Y0192042D01*
X0453823Y0191882D01*
X0453805Y0191722D01*
X0453784Y0191563D01*
X0453758Y0191404D01*
X0453728Y0191246D01*
X0453695Y0191089D01*
X0453657Y0190932D01*
X0453616Y0190777D01*
X0453571Y0190623D01*
X0453522Y0190470D01*
X0453469Y0190318D01*
X0453413Y0190167D01*
X0453352Y0190018D01*
X0453289Y0189870D01*
X0453221Y0189724D01*
X0453150Y0189580D01*
X0453076Y0189438D01*
X0452998Y0189297D01*
X0452916Y0189159D01*
X0452831Y0189022D01*
X0452743Y0188888D01*
X0452651Y0188756D01*
X0452556Y0188626D01*
X0452458Y0188498D01*
X0452357Y0188373D01*
X0452253Y0188251D01*
X0452146Y0188131D01*
X0452036Y0188014D01*
X0451923Y0187899D01*
X0451807Y0187788D01*
X0451688Y0187679D01*
X0451567Y0187574D01*
X0451443Y0187471D01*
X0451317Y0187371D01*
X0451189Y0187275D01*
X0451058Y0187182D01*
X0450924Y0187092D01*
X0450789Y0187005D01*
X0450651Y0186922D01*
X0450512Y0186842D01*
X0450370Y0186766D01*
X0450227Y0186693D01*
X0450082Y0186624D01*
X0449935Y0186558D01*
X0449787Y0186496D01*
X0449637Y0186438D01*
X0449486Y0186383D01*
X0449333Y0186332D01*
X0449179Y0186285D01*
X0449024Y0186242D01*
X0448868Y0186203D01*
X0448712Y0186167D01*
X0448554Y0186136D01*
X0448396Y0186108D01*
X0448237Y0186084D01*
X0448077Y0186064D01*
X0447917Y0186048D01*
X0447757Y0186036D01*
X0447596Y0186028D01*
X0447435Y0186024D01*
X0447275Y0186024D01*
X0447114Y0186028D01*
X0446953Y0186036D01*
X0446793Y0186048D01*
X0446633Y0186064D01*
X0446473Y0186084D01*
X0446314Y0186108D01*
X0446156Y0186136D01*
X0445998Y0186167D01*
X0445842Y0186203D01*
X0445686Y0186242D01*
X0445531Y0186285D01*
X0445377Y0186332D01*
X0445224Y0186383D01*
X0445073Y0186438D01*
X0444923Y0186496D01*
X0444775Y0186558D01*
X0444628Y0186624D01*
X0444483Y0186693D01*
X0444340Y0186766D01*
X0444198Y0186842D01*
X0444059Y0186922D01*
X0443921Y0187005D01*
X0443786Y0187092D01*
X0443652Y0187182D01*
X0443521Y0187275D01*
X0443393Y0187371D01*
X0443267Y0187471D01*
X0443143Y0187574D01*
X0443022Y0187679D01*
X0442903Y0187788D01*
X0442787Y0187899D01*
X0442674Y0188014D01*
X0442564Y0188131D01*
X0442457Y0188251D01*
X0442353Y0188373D01*
X0442252Y0188498D01*
X0442154Y0188626D01*
X0442059Y0188756D01*
X0441967Y0188888D01*
X0441879Y0189022D01*
X0441794Y0189159D01*
X0441712Y0189297D01*
X0441634Y0189438D01*
X0441560Y0189580D01*
X0441489Y0189724D01*
X0441421Y0189870D01*
X0441358Y0190018D01*
X0441297Y0190167D01*
X0441241Y0190318D01*
X0441188Y0190470D01*
X0441139Y0190623D01*
X0441094Y0190777D01*
X0441053Y0190932D01*
X0441015Y0191089D01*
X0440982Y0191246D01*
X0440952Y0191404D01*
X0440926Y0191563D01*
X0440905Y0191722D01*
X0440887Y0191882D01*
X0440873Y0192042D01*
X0440863Y0192203D01*
X0440857Y0192363D01*
X0440855Y0192524D01*
X0440855Y0112524D02*
X0440857Y0112685D01*
X0440863Y0112845D01*
X0440873Y0113006D01*
X0440887Y0113166D01*
X0440905Y0113326D01*
X0440926Y0113485D01*
X0440952Y0113644D01*
X0440982Y0113802D01*
X0441015Y0113959D01*
X0441053Y0114116D01*
X0441094Y0114271D01*
X0441139Y0114425D01*
X0441188Y0114578D01*
X0441241Y0114730D01*
X0441297Y0114881D01*
X0441358Y0115030D01*
X0441421Y0115178D01*
X0441489Y0115324D01*
X0441560Y0115468D01*
X0441634Y0115610D01*
X0441712Y0115751D01*
X0441794Y0115889D01*
X0441879Y0116026D01*
X0441967Y0116160D01*
X0442059Y0116292D01*
X0442154Y0116422D01*
X0442252Y0116550D01*
X0442353Y0116675D01*
X0442457Y0116797D01*
X0442564Y0116917D01*
X0442674Y0117034D01*
X0442787Y0117149D01*
X0442903Y0117260D01*
X0443022Y0117369D01*
X0443143Y0117474D01*
X0443267Y0117577D01*
X0443393Y0117677D01*
X0443521Y0117773D01*
X0443652Y0117866D01*
X0443786Y0117956D01*
X0443921Y0118043D01*
X0444059Y0118126D01*
X0444198Y0118206D01*
X0444340Y0118282D01*
X0444483Y0118355D01*
X0444628Y0118424D01*
X0444775Y0118490D01*
X0444923Y0118552D01*
X0445073Y0118610D01*
X0445224Y0118665D01*
X0445377Y0118716D01*
X0445531Y0118763D01*
X0445686Y0118806D01*
X0445842Y0118845D01*
X0445998Y0118881D01*
X0446156Y0118912D01*
X0446314Y0118940D01*
X0446473Y0118964D01*
X0446633Y0118984D01*
X0446793Y0119000D01*
X0446953Y0119012D01*
X0447114Y0119020D01*
X0447275Y0119024D01*
X0447435Y0119024D01*
X0447596Y0119020D01*
X0447757Y0119012D01*
X0447917Y0119000D01*
X0448077Y0118984D01*
X0448237Y0118964D01*
X0448396Y0118940D01*
X0448554Y0118912D01*
X0448712Y0118881D01*
X0448868Y0118845D01*
X0449024Y0118806D01*
X0449179Y0118763D01*
X0449333Y0118716D01*
X0449486Y0118665D01*
X0449637Y0118610D01*
X0449787Y0118552D01*
X0449935Y0118490D01*
X0450082Y0118424D01*
X0450227Y0118355D01*
X0450370Y0118282D01*
X0450512Y0118206D01*
X0450651Y0118126D01*
X0450789Y0118043D01*
X0450924Y0117956D01*
X0451058Y0117866D01*
X0451189Y0117773D01*
X0451317Y0117677D01*
X0451443Y0117577D01*
X0451567Y0117474D01*
X0451688Y0117369D01*
X0451807Y0117260D01*
X0451923Y0117149D01*
X0452036Y0117034D01*
X0452146Y0116917D01*
X0452253Y0116797D01*
X0452357Y0116675D01*
X0452458Y0116550D01*
X0452556Y0116422D01*
X0452651Y0116292D01*
X0452743Y0116160D01*
X0452831Y0116026D01*
X0452916Y0115889D01*
X0452998Y0115751D01*
X0453076Y0115610D01*
X0453150Y0115468D01*
X0453221Y0115324D01*
X0453289Y0115178D01*
X0453352Y0115030D01*
X0453413Y0114881D01*
X0453469Y0114730D01*
X0453522Y0114578D01*
X0453571Y0114425D01*
X0453616Y0114271D01*
X0453657Y0114116D01*
X0453695Y0113959D01*
X0453728Y0113802D01*
X0453758Y0113644D01*
X0453784Y0113485D01*
X0453805Y0113326D01*
X0453823Y0113166D01*
X0453837Y0113006D01*
X0453847Y0112845D01*
X0453853Y0112685D01*
X0453855Y0112524D01*
X0453853Y0112363D01*
X0453847Y0112203D01*
X0453837Y0112042D01*
X0453823Y0111882D01*
X0453805Y0111722D01*
X0453784Y0111563D01*
X0453758Y0111404D01*
X0453728Y0111246D01*
X0453695Y0111089D01*
X0453657Y0110932D01*
X0453616Y0110777D01*
X0453571Y0110623D01*
X0453522Y0110470D01*
X0453469Y0110318D01*
X0453413Y0110167D01*
X0453352Y0110018D01*
X0453289Y0109870D01*
X0453221Y0109724D01*
X0453150Y0109580D01*
X0453076Y0109438D01*
X0452998Y0109297D01*
X0452916Y0109159D01*
X0452831Y0109022D01*
X0452743Y0108888D01*
X0452651Y0108756D01*
X0452556Y0108626D01*
X0452458Y0108498D01*
X0452357Y0108373D01*
X0452253Y0108251D01*
X0452146Y0108131D01*
X0452036Y0108014D01*
X0451923Y0107899D01*
X0451807Y0107788D01*
X0451688Y0107679D01*
X0451567Y0107574D01*
X0451443Y0107471D01*
X0451317Y0107371D01*
X0451189Y0107275D01*
X0451058Y0107182D01*
X0450924Y0107092D01*
X0450789Y0107005D01*
X0450651Y0106922D01*
X0450512Y0106842D01*
X0450370Y0106766D01*
X0450227Y0106693D01*
X0450082Y0106624D01*
X0449935Y0106558D01*
X0449787Y0106496D01*
X0449637Y0106438D01*
X0449486Y0106383D01*
X0449333Y0106332D01*
X0449179Y0106285D01*
X0449024Y0106242D01*
X0448868Y0106203D01*
X0448712Y0106167D01*
X0448554Y0106136D01*
X0448396Y0106108D01*
X0448237Y0106084D01*
X0448077Y0106064D01*
X0447917Y0106048D01*
X0447757Y0106036D01*
X0447596Y0106028D01*
X0447435Y0106024D01*
X0447275Y0106024D01*
X0447114Y0106028D01*
X0446953Y0106036D01*
X0446793Y0106048D01*
X0446633Y0106064D01*
X0446473Y0106084D01*
X0446314Y0106108D01*
X0446156Y0106136D01*
X0445998Y0106167D01*
X0445842Y0106203D01*
X0445686Y0106242D01*
X0445531Y0106285D01*
X0445377Y0106332D01*
X0445224Y0106383D01*
X0445073Y0106438D01*
X0444923Y0106496D01*
X0444775Y0106558D01*
X0444628Y0106624D01*
X0444483Y0106693D01*
X0444340Y0106766D01*
X0444198Y0106842D01*
X0444059Y0106922D01*
X0443921Y0107005D01*
X0443786Y0107092D01*
X0443652Y0107182D01*
X0443521Y0107275D01*
X0443393Y0107371D01*
X0443267Y0107471D01*
X0443143Y0107574D01*
X0443022Y0107679D01*
X0442903Y0107788D01*
X0442787Y0107899D01*
X0442674Y0108014D01*
X0442564Y0108131D01*
X0442457Y0108251D01*
X0442353Y0108373D01*
X0442252Y0108498D01*
X0442154Y0108626D01*
X0442059Y0108756D01*
X0441967Y0108888D01*
X0441879Y0109022D01*
X0441794Y0109159D01*
X0441712Y0109297D01*
X0441634Y0109438D01*
X0441560Y0109580D01*
X0441489Y0109724D01*
X0441421Y0109870D01*
X0441358Y0110018D01*
X0441297Y0110167D01*
X0441241Y0110318D01*
X0441188Y0110470D01*
X0441139Y0110623D01*
X0441094Y0110777D01*
X0441053Y0110932D01*
X0441015Y0111089D01*
X0440982Y0111246D01*
X0440952Y0111404D01*
X0440926Y0111563D01*
X0440905Y0111722D01*
X0440887Y0111882D01*
X0440873Y0112042D01*
X0440863Y0112203D01*
X0440857Y0112363D01*
X0440855Y0112524D01*
X0360855Y0112524D02*
X0360857Y0112685D01*
X0360863Y0112845D01*
X0360873Y0113006D01*
X0360887Y0113166D01*
X0360905Y0113326D01*
X0360926Y0113485D01*
X0360952Y0113644D01*
X0360982Y0113802D01*
X0361015Y0113959D01*
X0361053Y0114116D01*
X0361094Y0114271D01*
X0361139Y0114425D01*
X0361188Y0114578D01*
X0361241Y0114730D01*
X0361297Y0114881D01*
X0361358Y0115030D01*
X0361421Y0115178D01*
X0361489Y0115324D01*
X0361560Y0115468D01*
X0361634Y0115610D01*
X0361712Y0115751D01*
X0361794Y0115889D01*
X0361879Y0116026D01*
X0361967Y0116160D01*
X0362059Y0116292D01*
X0362154Y0116422D01*
X0362252Y0116550D01*
X0362353Y0116675D01*
X0362457Y0116797D01*
X0362564Y0116917D01*
X0362674Y0117034D01*
X0362787Y0117149D01*
X0362903Y0117260D01*
X0363022Y0117369D01*
X0363143Y0117474D01*
X0363267Y0117577D01*
X0363393Y0117677D01*
X0363521Y0117773D01*
X0363652Y0117866D01*
X0363786Y0117956D01*
X0363921Y0118043D01*
X0364059Y0118126D01*
X0364198Y0118206D01*
X0364340Y0118282D01*
X0364483Y0118355D01*
X0364628Y0118424D01*
X0364775Y0118490D01*
X0364923Y0118552D01*
X0365073Y0118610D01*
X0365224Y0118665D01*
X0365377Y0118716D01*
X0365531Y0118763D01*
X0365686Y0118806D01*
X0365842Y0118845D01*
X0365998Y0118881D01*
X0366156Y0118912D01*
X0366314Y0118940D01*
X0366473Y0118964D01*
X0366633Y0118984D01*
X0366793Y0119000D01*
X0366953Y0119012D01*
X0367114Y0119020D01*
X0367275Y0119024D01*
X0367435Y0119024D01*
X0367596Y0119020D01*
X0367757Y0119012D01*
X0367917Y0119000D01*
X0368077Y0118984D01*
X0368237Y0118964D01*
X0368396Y0118940D01*
X0368554Y0118912D01*
X0368712Y0118881D01*
X0368868Y0118845D01*
X0369024Y0118806D01*
X0369179Y0118763D01*
X0369333Y0118716D01*
X0369486Y0118665D01*
X0369637Y0118610D01*
X0369787Y0118552D01*
X0369935Y0118490D01*
X0370082Y0118424D01*
X0370227Y0118355D01*
X0370370Y0118282D01*
X0370512Y0118206D01*
X0370651Y0118126D01*
X0370789Y0118043D01*
X0370924Y0117956D01*
X0371058Y0117866D01*
X0371189Y0117773D01*
X0371317Y0117677D01*
X0371443Y0117577D01*
X0371567Y0117474D01*
X0371688Y0117369D01*
X0371807Y0117260D01*
X0371923Y0117149D01*
X0372036Y0117034D01*
X0372146Y0116917D01*
X0372253Y0116797D01*
X0372357Y0116675D01*
X0372458Y0116550D01*
X0372556Y0116422D01*
X0372651Y0116292D01*
X0372743Y0116160D01*
X0372831Y0116026D01*
X0372916Y0115889D01*
X0372998Y0115751D01*
X0373076Y0115610D01*
X0373150Y0115468D01*
X0373221Y0115324D01*
X0373289Y0115178D01*
X0373352Y0115030D01*
X0373413Y0114881D01*
X0373469Y0114730D01*
X0373522Y0114578D01*
X0373571Y0114425D01*
X0373616Y0114271D01*
X0373657Y0114116D01*
X0373695Y0113959D01*
X0373728Y0113802D01*
X0373758Y0113644D01*
X0373784Y0113485D01*
X0373805Y0113326D01*
X0373823Y0113166D01*
X0373837Y0113006D01*
X0373847Y0112845D01*
X0373853Y0112685D01*
X0373855Y0112524D01*
X0373853Y0112363D01*
X0373847Y0112203D01*
X0373837Y0112042D01*
X0373823Y0111882D01*
X0373805Y0111722D01*
X0373784Y0111563D01*
X0373758Y0111404D01*
X0373728Y0111246D01*
X0373695Y0111089D01*
X0373657Y0110932D01*
X0373616Y0110777D01*
X0373571Y0110623D01*
X0373522Y0110470D01*
X0373469Y0110318D01*
X0373413Y0110167D01*
X0373352Y0110018D01*
X0373289Y0109870D01*
X0373221Y0109724D01*
X0373150Y0109580D01*
X0373076Y0109438D01*
X0372998Y0109297D01*
X0372916Y0109159D01*
X0372831Y0109022D01*
X0372743Y0108888D01*
X0372651Y0108756D01*
X0372556Y0108626D01*
X0372458Y0108498D01*
X0372357Y0108373D01*
X0372253Y0108251D01*
X0372146Y0108131D01*
X0372036Y0108014D01*
X0371923Y0107899D01*
X0371807Y0107788D01*
X0371688Y0107679D01*
X0371567Y0107574D01*
X0371443Y0107471D01*
X0371317Y0107371D01*
X0371189Y0107275D01*
X0371058Y0107182D01*
X0370924Y0107092D01*
X0370789Y0107005D01*
X0370651Y0106922D01*
X0370512Y0106842D01*
X0370370Y0106766D01*
X0370227Y0106693D01*
X0370082Y0106624D01*
X0369935Y0106558D01*
X0369787Y0106496D01*
X0369637Y0106438D01*
X0369486Y0106383D01*
X0369333Y0106332D01*
X0369179Y0106285D01*
X0369024Y0106242D01*
X0368868Y0106203D01*
X0368712Y0106167D01*
X0368554Y0106136D01*
X0368396Y0106108D01*
X0368237Y0106084D01*
X0368077Y0106064D01*
X0367917Y0106048D01*
X0367757Y0106036D01*
X0367596Y0106028D01*
X0367435Y0106024D01*
X0367275Y0106024D01*
X0367114Y0106028D01*
X0366953Y0106036D01*
X0366793Y0106048D01*
X0366633Y0106064D01*
X0366473Y0106084D01*
X0366314Y0106108D01*
X0366156Y0106136D01*
X0365998Y0106167D01*
X0365842Y0106203D01*
X0365686Y0106242D01*
X0365531Y0106285D01*
X0365377Y0106332D01*
X0365224Y0106383D01*
X0365073Y0106438D01*
X0364923Y0106496D01*
X0364775Y0106558D01*
X0364628Y0106624D01*
X0364483Y0106693D01*
X0364340Y0106766D01*
X0364198Y0106842D01*
X0364059Y0106922D01*
X0363921Y0107005D01*
X0363786Y0107092D01*
X0363652Y0107182D01*
X0363521Y0107275D01*
X0363393Y0107371D01*
X0363267Y0107471D01*
X0363143Y0107574D01*
X0363022Y0107679D01*
X0362903Y0107788D01*
X0362787Y0107899D01*
X0362674Y0108014D01*
X0362564Y0108131D01*
X0362457Y0108251D01*
X0362353Y0108373D01*
X0362252Y0108498D01*
X0362154Y0108626D01*
X0362059Y0108756D01*
X0361967Y0108888D01*
X0361879Y0109022D01*
X0361794Y0109159D01*
X0361712Y0109297D01*
X0361634Y0109438D01*
X0361560Y0109580D01*
X0361489Y0109724D01*
X0361421Y0109870D01*
X0361358Y0110018D01*
X0361297Y0110167D01*
X0361241Y0110318D01*
X0361188Y0110470D01*
X0361139Y0110623D01*
X0361094Y0110777D01*
X0361053Y0110932D01*
X0361015Y0111089D01*
X0360982Y0111246D01*
X0360952Y0111404D01*
X0360926Y0111563D01*
X0360905Y0111722D01*
X0360887Y0111882D01*
X0360873Y0112042D01*
X0360863Y0112203D01*
X0360857Y0112363D01*
X0360855Y0112524D01*
X0360855Y0192524D02*
X0360857Y0192685D01*
X0360863Y0192845D01*
X0360873Y0193006D01*
X0360887Y0193166D01*
X0360905Y0193326D01*
X0360926Y0193485D01*
X0360952Y0193644D01*
X0360982Y0193802D01*
X0361015Y0193959D01*
X0361053Y0194116D01*
X0361094Y0194271D01*
X0361139Y0194425D01*
X0361188Y0194578D01*
X0361241Y0194730D01*
X0361297Y0194881D01*
X0361358Y0195030D01*
X0361421Y0195178D01*
X0361489Y0195324D01*
X0361560Y0195468D01*
X0361634Y0195610D01*
X0361712Y0195751D01*
X0361794Y0195889D01*
X0361879Y0196026D01*
X0361967Y0196160D01*
X0362059Y0196292D01*
X0362154Y0196422D01*
X0362252Y0196550D01*
X0362353Y0196675D01*
X0362457Y0196797D01*
X0362564Y0196917D01*
X0362674Y0197034D01*
X0362787Y0197149D01*
X0362903Y0197260D01*
X0363022Y0197369D01*
X0363143Y0197474D01*
X0363267Y0197577D01*
X0363393Y0197677D01*
X0363521Y0197773D01*
X0363652Y0197866D01*
X0363786Y0197956D01*
X0363921Y0198043D01*
X0364059Y0198126D01*
X0364198Y0198206D01*
X0364340Y0198282D01*
X0364483Y0198355D01*
X0364628Y0198424D01*
X0364775Y0198490D01*
X0364923Y0198552D01*
X0365073Y0198610D01*
X0365224Y0198665D01*
X0365377Y0198716D01*
X0365531Y0198763D01*
X0365686Y0198806D01*
X0365842Y0198845D01*
X0365998Y0198881D01*
X0366156Y0198912D01*
X0366314Y0198940D01*
X0366473Y0198964D01*
X0366633Y0198984D01*
X0366793Y0199000D01*
X0366953Y0199012D01*
X0367114Y0199020D01*
X0367275Y0199024D01*
X0367435Y0199024D01*
X0367596Y0199020D01*
X0367757Y0199012D01*
X0367917Y0199000D01*
X0368077Y0198984D01*
X0368237Y0198964D01*
X0368396Y0198940D01*
X0368554Y0198912D01*
X0368712Y0198881D01*
X0368868Y0198845D01*
X0369024Y0198806D01*
X0369179Y0198763D01*
X0369333Y0198716D01*
X0369486Y0198665D01*
X0369637Y0198610D01*
X0369787Y0198552D01*
X0369935Y0198490D01*
X0370082Y0198424D01*
X0370227Y0198355D01*
X0370370Y0198282D01*
X0370512Y0198206D01*
X0370651Y0198126D01*
X0370789Y0198043D01*
X0370924Y0197956D01*
X0371058Y0197866D01*
X0371189Y0197773D01*
X0371317Y0197677D01*
X0371443Y0197577D01*
X0371567Y0197474D01*
X0371688Y0197369D01*
X0371807Y0197260D01*
X0371923Y0197149D01*
X0372036Y0197034D01*
X0372146Y0196917D01*
X0372253Y0196797D01*
X0372357Y0196675D01*
X0372458Y0196550D01*
X0372556Y0196422D01*
X0372651Y0196292D01*
X0372743Y0196160D01*
X0372831Y0196026D01*
X0372916Y0195889D01*
X0372998Y0195751D01*
X0373076Y0195610D01*
X0373150Y0195468D01*
X0373221Y0195324D01*
X0373289Y0195178D01*
X0373352Y0195030D01*
X0373413Y0194881D01*
X0373469Y0194730D01*
X0373522Y0194578D01*
X0373571Y0194425D01*
X0373616Y0194271D01*
X0373657Y0194116D01*
X0373695Y0193959D01*
X0373728Y0193802D01*
X0373758Y0193644D01*
X0373784Y0193485D01*
X0373805Y0193326D01*
X0373823Y0193166D01*
X0373837Y0193006D01*
X0373847Y0192845D01*
X0373853Y0192685D01*
X0373855Y0192524D01*
X0373853Y0192363D01*
X0373847Y0192203D01*
X0373837Y0192042D01*
X0373823Y0191882D01*
X0373805Y0191722D01*
X0373784Y0191563D01*
X0373758Y0191404D01*
X0373728Y0191246D01*
X0373695Y0191089D01*
X0373657Y0190932D01*
X0373616Y0190777D01*
X0373571Y0190623D01*
X0373522Y0190470D01*
X0373469Y0190318D01*
X0373413Y0190167D01*
X0373352Y0190018D01*
X0373289Y0189870D01*
X0373221Y0189724D01*
X0373150Y0189580D01*
X0373076Y0189438D01*
X0372998Y0189297D01*
X0372916Y0189159D01*
X0372831Y0189022D01*
X0372743Y0188888D01*
X0372651Y0188756D01*
X0372556Y0188626D01*
X0372458Y0188498D01*
X0372357Y0188373D01*
X0372253Y0188251D01*
X0372146Y0188131D01*
X0372036Y0188014D01*
X0371923Y0187899D01*
X0371807Y0187788D01*
X0371688Y0187679D01*
X0371567Y0187574D01*
X0371443Y0187471D01*
X0371317Y0187371D01*
X0371189Y0187275D01*
X0371058Y0187182D01*
X0370924Y0187092D01*
X0370789Y0187005D01*
X0370651Y0186922D01*
X0370512Y0186842D01*
X0370370Y0186766D01*
X0370227Y0186693D01*
X0370082Y0186624D01*
X0369935Y0186558D01*
X0369787Y0186496D01*
X0369637Y0186438D01*
X0369486Y0186383D01*
X0369333Y0186332D01*
X0369179Y0186285D01*
X0369024Y0186242D01*
X0368868Y0186203D01*
X0368712Y0186167D01*
X0368554Y0186136D01*
X0368396Y0186108D01*
X0368237Y0186084D01*
X0368077Y0186064D01*
X0367917Y0186048D01*
X0367757Y0186036D01*
X0367596Y0186028D01*
X0367435Y0186024D01*
X0367275Y0186024D01*
X0367114Y0186028D01*
X0366953Y0186036D01*
X0366793Y0186048D01*
X0366633Y0186064D01*
X0366473Y0186084D01*
X0366314Y0186108D01*
X0366156Y0186136D01*
X0365998Y0186167D01*
X0365842Y0186203D01*
X0365686Y0186242D01*
X0365531Y0186285D01*
X0365377Y0186332D01*
X0365224Y0186383D01*
X0365073Y0186438D01*
X0364923Y0186496D01*
X0364775Y0186558D01*
X0364628Y0186624D01*
X0364483Y0186693D01*
X0364340Y0186766D01*
X0364198Y0186842D01*
X0364059Y0186922D01*
X0363921Y0187005D01*
X0363786Y0187092D01*
X0363652Y0187182D01*
X0363521Y0187275D01*
X0363393Y0187371D01*
X0363267Y0187471D01*
X0363143Y0187574D01*
X0363022Y0187679D01*
X0362903Y0187788D01*
X0362787Y0187899D01*
X0362674Y0188014D01*
X0362564Y0188131D01*
X0362457Y0188251D01*
X0362353Y0188373D01*
X0362252Y0188498D01*
X0362154Y0188626D01*
X0362059Y0188756D01*
X0361967Y0188888D01*
X0361879Y0189022D01*
X0361794Y0189159D01*
X0361712Y0189297D01*
X0361634Y0189438D01*
X0361560Y0189580D01*
X0361489Y0189724D01*
X0361421Y0189870D01*
X0361358Y0190018D01*
X0361297Y0190167D01*
X0361241Y0190318D01*
X0361188Y0190470D01*
X0361139Y0190623D01*
X0361094Y0190777D01*
X0361053Y0190932D01*
X0361015Y0191089D01*
X0360982Y0191246D01*
X0360952Y0191404D01*
X0360926Y0191563D01*
X0360905Y0191722D01*
X0360887Y0191882D01*
X0360873Y0192042D01*
X0360863Y0192203D01*
X0360857Y0192363D01*
X0360855Y0192524D01*
X0228855Y0192524D02*
X0228857Y0192685D01*
X0228863Y0192845D01*
X0228873Y0193006D01*
X0228887Y0193166D01*
X0228905Y0193326D01*
X0228926Y0193485D01*
X0228952Y0193644D01*
X0228982Y0193802D01*
X0229015Y0193959D01*
X0229053Y0194116D01*
X0229094Y0194271D01*
X0229139Y0194425D01*
X0229188Y0194578D01*
X0229241Y0194730D01*
X0229297Y0194881D01*
X0229358Y0195030D01*
X0229421Y0195178D01*
X0229489Y0195324D01*
X0229560Y0195468D01*
X0229634Y0195610D01*
X0229712Y0195751D01*
X0229794Y0195889D01*
X0229879Y0196026D01*
X0229967Y0196160D01*
X0230059Y0196292D01*
X0230154Y0196422D01*
X0230252Y0196550D01*
X0230353Y0196675D01*
X0230457Y0196797D01*
X0230564Y0196917D01*
X0230674Y0197034D01*
X0230787Y0197149D01*
X0230903Y0197260D01*
X0231022Y0197369D01*
X0231143Y0197474D01*
X0231267Y0197577D01*
X0231393Y0197677D01*
X0231521Y0197773D01*
X0231652Y0197866D01*
X0231786Y0197956D01*
X0231921Y0198043D01*
X0232059Y0198126D01*
X0232198Y0198206D01*
X0232340Y0198282D01*
X0232483Y0198355D01*
X0232628Y0198424D01*
X0232775Y0198490D01*
X0232923Y0198552D01*
X0233073Y0198610D01*
X0233224Y0198665D01*
X0233377Y0198716D01*
X0233531Y0198763D01*
X0233686Y0198806D01*
X0233842Y0198845D01*
X0233998Y0198881D01*
X0234156Y0198912D01*
X0234314Y0198940D01*
X0234473Y0198964D01*
X0234633Y0198984D01*
X0234793Y0199000D01*
X0234953Y0199012D01*
X0235114Y0199020D01*
X0235275Y0199024D01*
X0235435Y0199024D01*
X0235596Y0199020D01*
X0235757Y0199012D01*
X0235917Y0199000D01*
X0236077Y0198984D01*
X0236237Y0198964D01*
X0236396Y0198940D01*
X0236554Y0198912D01*
X0236712Y0198881D01*
X0236868Y0198845D01*
X0237024Y0198806D01*
X0237179Y0198763D01*
X0237333Y0198716D01*
X0237486Y0198665D01*
X0237637Y0198610D01*
X0237787Y0198552D01*
X0237935Y0198490D01*
X0238082Y0198424D01*
X0238227Y0198355D01*
X0238370Y0198282D01*
X0238512Y0198206D01*
X0238651Y0198126D01*
X0238789Y0198043D01*
X0238924Y0197956D01*
X0239058Y0197866D01*
X0239189Y0197773D01*
X0239317Y0197677D01*
X0239443Y0197577D01*
X0239567Y0197474D01*
X0239688Y0197369D01*
X0239807Y0197260D01*
X0239923Y0197149D01*
X0240036Y0197034D01*
X0240146Y0196917D01*
X0240253Y0196797D01*
X0240357Y0196675D01*
X0240458Y0196550D01*
X0240556Y0196422D01*
X0240651Y0196292D01*
X0240743Y0196160D01*
X0240831Y0196026D01*
X0240916Y0195889D01*
X0240998Y0195751D01*
X0241076Y0195610D01*
X0241150Y0195468D01*
X0241221Y0195324D01*
X0241289Y0195178D01*
X0241352Y0195030D01*
X0241413Y0194881D01*
X0241469Y0194730D01*
X0241522Y0194578D01*
X0241571Y0194425D01*
X0241616Y0194271D01*
X0241657Y0194116D01*
X0241695Y0193959D01*
X0241728Y0193802D01*
X0241758Y0193644D01*
X0241784Y0193485D01*
X0241805Y0193326D01*
X0241823Y0193166D01*
X0241837Y0193006D01*
X0241847Y0192845D01*
X0241853Y0192685D01*
X0241855Y0192524D01*
X0241853Y0192363D01*
X0241847Y0192203D01*
X0241837Y0192042D01*
X0241823Y0191882D01*
X0241805Y0191722D01*
X0241784Y0191563D01*
X0241758Y0191404D01*
X0241728Y0191246D01*
X0241695Y0191089D01*
X0241657Y0190932D01*
X0241616Y0190777D01*
X0241571Y0190623D01*
X0241522Y0190470D01*
X0241469Y0190318D01*
X0241413Y0190167D01*
X0241352Y0190018D01*
X0241289Y0189870D01*
X0241221Y0189724D01*
X0241150Y0189580D01*
X0241076Y0189438D01*
X0240998Y0189297D01*
X0240916Y0189159D01*
X0240831Y0189022D01*
X0240743Y0188888D01*
X0240651Y0188756D01*
X0240556Y0188626D01*
X0240458Y0188498D01*
X0240357Y0188373D01*
X0240253Y0188251D01*
X0240146Y0188131D01*
X0240036Y0188014D01*
X0239923Y0187899D01*
X0239807Y0187788D01*
X0239688Y0187679D01*
X0239567Y0187574D01*
X0239443Y0187471D01*
X0239317Y0187371D01*
X0239189Y0187275D01*
X0239058Y0187182D01*
X0238924Y0187092D01*
X0238789Y0187005D01*
X0238651Y0186922D01*
X0238512Y0186842D01*
X0238370Y0186766D01*
X0238227Y0186693D01*
X0238082Y0186624D01*
X0237935Y0186558D01*
X0237787Y0186496D01*
X0237637Y0186438D01*
X0237486Y0186383D01*
X0237333Y0186332D01*
X0237179Y0186285D01*
X0237024Y0186242D01*
X0236868Y0186203D01*
X0236712Y0186167D01*
X0236554Y0186136D01*
X0236396Y0186108D01*
X0236237Y0186084D01*
X0236077Y0186064D01*
X0235917Y0186048D01*
X0235757Y0186036D01*
X0235596Y0186028D01*
X0235435Y0186024D01*
X0235275Y0186024D01*
X0235114Y0186028D01*
X0234953Y0186036D01*
X0234793Y0186048D01*
X0234633Y0186064D01*
X0234473Y0186084D01*
X0234314Y0186108D01*
X0234156Y0186136D01*
X0233998Y0186167D01*
X0233842Y0186203D01*
X0233686Y0186242D01*
X0233531Y0186285D01*
X0233377Y0186332D01*
X0233224Y0186383D01*
X0233073Y0186438D01*
X0232923Y0186496D01*
X0232775Y0186558D01*
X0232628Y0186624D01*
X0232483Y0186693D01*
X0232340Y0186766D01*
X0232198Y0186842D01*
X0232059Y0186922D01*
X0231921Y0187005D01*
X0231786Y0187092D01*
X0231652Y0187182D01*
X0231521Y0187275D01*
X0231393Y0187371D01*
X0231267Y0187471D01*
X0231143Y0187574D01*
X0231022Y0187679D01*
X0230903Y0187788D01*
X0230787Y0187899D01*
X0230674Y0188014D01*
X0230564Y0188131D01*
X0230457Y0188251D01*
X0230353Y0188373D01*
X0230252Y0188498D01*
X0230154Y0188626D01*
X0230059Y0188756D01*
X0229967Y0188888D01*
X0229879Y0189022D01*
X0229794Y0189159D01*
X0229712Y0189297D01*
X0229634Y0189438D01*
X0229560Y0189580D01*
X0229489Y0189724D01*
X0229421Y0189870D01*
X0229358Y0190018D01*
X0229297Y0190167D01*
X0229241Y0190318D01*
X0229188Y0190470D01*
X0229139Y0190623D01*
X0229094Y0190777D01*
X0229053Y0190932D01*
X0229015Y0191089D01*
X0228982Y0191246D01*
X0228952Y0191404D01*
X0228926Y0191563D01*
X0228905Y0191722D01*
X0228887Y0191882D01*
X0228873Y0192042D01*
X0228863Y0192203D01*
X0228857Y0192363D01*
X0228855Y0192524D01*
X0228855Y0112524D02*
X0228857Y0112685D01*
X0228863Y0112845D01*
X0228873Y0113006D01*
X0228887Y0113166D01*
X0228905Y0113326D01*
X0228926Y0113485D01*
X0228952Y0113644D01*
X0228982Y0113802D01*
X0229015Y0113959D01*
X0229053Y0114116D01*
X0229094Y0114271D01*
X0229139Y0114425D01*
X0229188Y0114578D01*
X0229241Y0114730D01*
X0229297Y0114881D01*
X0229358Y0115030D01*
X0229421Y0115178D01*
X0229489Y0115324D01*
X0229560Y0115468D01*
X0229634Y0115610D01*
X0229712Y0115751D01*
X0229794Y0115889D01*
X0229879Y0116026D01*
X0229967Y0116160D01*
X0230059Y0116292D01*
X0230154Y0116422D01*
X0230252Y0116550D01*
X0230353Y0116675D01*
X0230457Y0116797D01*
X0230564Y0116917D01*
X0230674Y0117034D01*
X0230787Y0117149D01*
X0230903Y0117260D01*
X0231022Y0117369D01*
X0231143Y0117474D01*
X0231267Y0117577D01*
X0231393Y0117677D01*
X0231521Y0117773D01*
X0231652Y0117866D01*
X0231786Y0117956D01*
X0231921Y0118043D01*
X0232059Y0118126D01*
X0232198Y0118206D01*
X0232340Y0118282D01*
X0232483Y0118355D01*
X0232628Y0118424D01*
X0232775Y0118490D01*
X0232923Y0118552D01*
X0233073Y0118610D01*
X0233224Y0118665D01*
X0233377Y0118716D01*
X0233531Y0118763D01*
X0233686Y0118806D01*
X0233842Y0118845D01*
X0233998Y0118881D01*
X0234156Y0118912D01*
X0234314Y0118940D01*
X0234473Y0118964D01*
X0234633Y0118984D01*
X0234793Y0119000D01*
X0234953Y0119012D01*
X0235114Y0119020D01*
X0235275Y0119024D01*
X0235435Y0119024D01*
X0235596Y0119020D01*
X0235757Y0119012D01*
X0235917Y0119000D01*
X0236077Y0118984D01*
X0236237Y0118964D01*
X0236396Y0118940D01*
X0236554Y0118912D01*
X0236712Y0118881D01*
X0236868Y0118845D01*
X0237024Y0118806D01*
X0237179Y0118763D01*
X0237333Y0118716D01*
X0237486Y0118665D01*
X0237637Y0118610D01*
X0237787Y0118552D01*
X0237935Y0118490D01*
X0238082Y0118424D01*
X0238227Y0118355D01*
X0238370Y0118282D01*
X0238512Y0118206D01*
X0238651Y0118126D01*
X0238789Y0118043D01*
X0238924Y0117956D01*
X0239058Y0117866D01*
X0239189Y0117773D01*
X0239317Y0117677D01*
X0239443Y0117577D01*
X0239567Y0117474D01*
X0239688Y0117369D01*
X0239807Y0117260D01*
X0239923Y0117149D01*
X0240036Y0117034D01*
X0240146Y0116917D01*
X0240253Y0116797D01*
X0240357Y0116675D01*
X0240458Y0116550D01*
X0240556Y0116422D01*
X0240651Y0116292D01*
X0240743Y0116160D01*
X0240831Y0116026D01*
X0240916Y0115889D01*
X0240998Y0115751D01*
X0241076Y0115610D01*
X0241150Y0115468D01*
X0241221Y0115324D01*
X0241289Y0115178D01*
X0241352Y0115030D01*
X0241413Y0114881D01*
X0241469Y0114730D01*
X0241522Y0114578D01*
X0241571Y0114425D01*
X0241616Y0114271D01*
X0241657Y0114116D01*
X0241695Y0113959D01*
X0241728Y0113802D01*
X0241758Y0113644D01*
X0241784Y0113485D01*
X0241805Y0113326D01*
X0241823Y0113166D01*
X0241837Y0113006D01*
X0241847Y0112845D01*
X0241853Y0112685D01*
X0241855Y0112524D01*
X0241853Y0112363D01*
X0241847Y0112203D01*
X0241837Y0112042D01*
X0241823Y0111882D01*
X0241805Y0111722D01*
X0241784Y0111563D01*
X0241758Y0111404D01*
X0241728Y0111246D01*
X0241695Y0111089D01*
X0241657Y0110932D01*
X0241616Y0110777D01*
X0241571Y0110623D01*
X0241522Y0110470D01*
X0241469Y0110318D01*
X0241413Y0110167D01*
X0241352Y0110018D01*
X0241289Y0109870D01*
X0241221Y0109724D01*
X0241150Y0109580D01*
X0241076Y0109438D01*
X0240998Y0109297D01*
X0240916Y0109159D01*
X0240831Y0109022D01*
X0240743Y0108888D01*
X0240651Y0108756D01*
X0240556Y0108626D01*
X0240458Y0108498D01*
X0240357Y0108373D01*
X0240253Y0108251D01*
X0240146Y0108131D01*
X0240036Y0108014D01*
X0239923Y0107899D01*
X0239807Y0107788D01*
X0239688Y0107679D01*
X0239567Y0107574D01*
X0239443Y0107471D01*
X0239317Y0107371D01*
X0239189Y0107275D01*
X0239058Y0107182D01*
X0238924Y0107092D01*
X0238789Y0107005D01*
X0238651Y0106922D01*
X0238512Y0106842D01*
X0238370Y0106766D01*
X0238227Y0106693D01*
X0238082Y0106624D01*
X0237935Y0106558D01*
X0237787Y0106496D01*
X0237637Y0106438D01*
X0237486Y0106383D01*
X0237333Y0106332D01*
X0237179Y0106285D01*
X0237024Y0106242D01*
X0236868Y0106203D01*
X0236712Y0106167D01*
X0236554Y0106136D01*
X0236396Y0106108D01*
X0236237Y0106084D01*
X0236077Y0106064D01*
X0235917Y0106048D01*
X0235757Y0106036D01*
X0235596Y0106028D01*
X0235435Y0106024D01*
X0235275Y0106024D01*
X0235114Y0106028D01*
X0234953Y0106036D01*
X0234793Y0106048D01*
X0234633Y0106064D01*
X0234473Y0106084D01*
X0234314Y0106108D01*
X0234156Y0106136D01*
X0233998Y0106167D01*
X0233842Y0106203D01*
X0233686Y0106242D01*
X0233531Y0106285D01*
X0233377Y0106332D01*
X0233224Y0106383D01*
X0233073Y0106438D01*
X0232923Y0106496D01*
X0232775Y0106558D01*
X0232628Y0106624D01*
X0232483Y0106693D01*
X0232340Y0106766D01*
X0232198Y0106842D01*
X0232059Y0106922D01*
X0231921Y0107005D01*
X0231786Y0107092D01*
X0231652Y0107182D01*
X0231521Y0107275D01*
X0231393Y0107371D01*
X0231267Y0107471D01*
X0231143Y0107574D01*
X0231022Y0107679D01*
X0230903Y0107788D01*
X0230787Y0107899D01*
X0230674Y0108014D01*
X0230564Y0108131D01*
X0230457Y0108251D01*
X0230353Y0108373D01*
X0230252Y0108498D01*
X0230154Y0108626D01*
X0230059Y0108756D01*
X0229967Y0108888D01*
X0229879Y0109022D01*
X0229794Y0109159D01*
X0229712Y0109297D01*
X0229634Y0109438D01*
X0229560Y0109580D01*
X0229489Y0109724D01*
X0229421Y0109870D01*
X0229358Y0110018D01*
X0229297Y0110167D01*
X0229241Y0110318D01*
X0229188Y0110470D01*
X0229139Y0110623D01*
X0229094Y0110777D01*
X0229053Y0110932D01*
X0229015Y0111089D01*
X0228982Y0111246D01*
X0228952Y0111404D01*
X0228926Y0111563D01*
X0228905Y0111722D01*
X0228887Y0111882D01*
X0228873Y0112042D01*
X0228863Y0112203D01*
X0228857Y0112363D01*
X0228855Y0112524D01*
X0148855Y0112524D02*
X0148857Y0112685D01*
X0148863Y0112845D01*
X0148873Y0113006D01*
X0148887Y0113166D01*
X0148905Y0113326D01*
X0148926Y0113485D01*
X0148952Y0113644D01*
X0148982Y0113802D01*
X0149015Y0113959D01*
X0149053Y0114116D01*
X0149094Y0114271D01*
X0149139Y0114425D01*
X0149188Y0114578D01*
X0149241Y0114730D01*
X0149297Y0114881D01*
X0149358Y0115030D01*
X0149421Y0115178D01*
X0149489Y0115324D01*
X0149560Y0115468D01*
X0149634Y0115610D01*
X0149712Y0115751D01*
X0149794Y0115889D01*
X0149879Y0116026D01*
X0149967Y0116160D01*
X0150059Y0116292D01*
X0150154Y0116422D01*
X0150252Y0116550D01*
X0150353Y0116675D01*
X0150457Y0116797D01*
X0150564Y0116917D01*
X0150674Y0117034D01*
X0150787Y0117149D01*
X0150903Y0117260D01*
X0151022Y0117369D01*
X0151143Y0117474D01*
X0151267Y0117577D01*
X0151393Y0117677D01*
X0151521Y0117773D01*
X0151652Y0117866D01*
X0151786Y0117956D01*
X0151921Y0118043D01*
X0152059Y0118126D01*
X0152198Y0118206D01*
X0152340Y0118282D01*
X0152483Y0118355D01*
X0152628Y0118424D01*
X0152775Y0118490D01*
X0152923Y0118552D01*
X0153073Y0118610D01*
X0153224Y0118665D01*
X0153377Y0118716D01*
X0153531Y0118763D01*
X0153686Y0118806D01*
X0153842Y0118845D01*
X0153998Y0118881D01*
X0154156Y0118912D01*
X0154314Y0118940D01*
X0154473Y0118964D01*
X0154633Y0118984D01*
X0154793Y0119000D01*
X0154953Y0119012D01*
X0155114Y0119020D01*
X0155275Y0119024D01*
X0155435Y0119024D01*
X0155596Y0119020D01*
X0155757Y0119012D01*
X0155917Y0119000D01*
X0156077Y0118984D01*
X0156237Y0118964D01*
X0156396Y0118940D01*
X0156554Y0118912D01*
X0156712Y0118881D01*
X0156868Y0118845D01*
X0157024Y0118806D01*
X0157179Y0118763D01*
X0157333Y0118716D01*
X0157486Y0118665D01*
X0157637Y0118610D01*
X0157787Y0118552D01*
X0157935Y0118490D01*
X0158082Y0118424D01*
X0158227Y0118355D01*
X0158370Y0118282D01*
X0158512Y0118206D01*
X0158651Y0118126D01*
X0158789Y0118043D01*
X0158924Y0117956D01*
X0159058Y0117866D01*
X0159189Y0117773D01*
X0159317Y0117677D01*
X0159443Y0117577D01*
X0159567Y0117474D01*
X0159688Y0117369D01*
X0159807Y0117260D01*
X0159923Y0117149D01*
X0160036Y0117034D01*
X0160146Y0116917D01*
X0160253Y0116797D01*
X0160357Y0116675D01*
X0160458Y0116550D01*
X0160556Y0116422D01*
X0160651Y0116292D01*
X0160743Y0116160D01*
X0160831Y0116026D01*
X0160916Y0115889D01*
X0160998Y0115751D01*
X0161076Y0115610D01*
X0161150Y0115468D01*
X0161221Y0115324D01*
X0161289Y0115178D01*
X0161352Y0115030D01*
X0161413Y0114881D01*
X0161469Y0114730D01*
X0161522Y0114578D01*
X0161571Y0114425D01*
X0161616Y0114271D01*
X0161657Y0114116D01*
X0161695Y0113959D01*
X0161728Y0113802D01*
X0161758Y0113644D01*
X0161784Y0113485D01*
X0161805Y0113326D01*
X0161823Y0113166D01*
X0161837Y0113006D01*
X0161847Y0112845D01*
X0161853Y0112685D01*
X0161855Y0112524D01*
X0161853Y0112363D01*
X0161847Y0112203D01*
X0161837Y0112042D01*
X0161823Y0111882D01*
X0161805Y0111722D01*
X0161784Y0111563D01*
X0161758Y0111404D01*
X0161728Y0111246D01*
X0161695Y0111089D01*
X0161657Y0110932D01*
X0161616Y0110777D01*
X0161571Y0110623D01*
X0161522Y0110470D01*
X0161469Y0110318D01*
X0161413Y0110167D01*
X0161352Y0110018D01*
X0161289Y0109870D01*
X0161221Y0109724D01*
X0161150Y0109580D01*
X0161076Y0109438D01*
X0160998Y0109297D01*
X0160916Y0109159D01*
X0160831Y0109022D01*
X0160743Y0108888D01*
X0160651Y0108756D01*
X0160556Y0108626D01*
X0160458Y0108498D01*
X0160357Y0108373D01*
X0160253Y0108251D01*
X0160146Y0108131D01*
X0160036Y0108014D01*
X0159923Y0107899D01*
X0159807Y0107788D01*
X0159688Y0107679D01*
X0159567Y0107574D01*
X0159443Y0107471D01*
X0159317Y0107371D01*
X0159189Y0107275D01*
X0159058Y0107182D01*
X0158924Y0107092D01*
X0158789Y0107005D01*
X0158651Y0106922D01*
X0158512Y0106842D01*
X0158370Y0106766D01*
X0158227Y0106693D01*
X0158082Y0106624D01*
X0157935Y0106558D01*
X0157787Y0106496D01*
X0157637Y0106438D01*
X0157486Y0106383D01*
X0157333Y0106332D01*
X0157179Y0106285D01*
X0157024Y0106242D01*
X0156868Y0106203D01*
X0156712Y0106167D01*
X0156554Y0106136D01*
X0156396Y0106108D01*
X0156237Y0106084D01*
X0156077Y0106064D01*
X0155917Y0106048D01*
X0155757Y0106036D01*
X0155596Y0106028D01*
X0155435Y0106024D01*
X0155275Y0106024D01*
X0155114Y0106028D01*
X0154953Y0106036D01*
X0154793Y0106048D01*
X0154633Y0106064D01*
X0154473Y0106084D01*
X0154314Y0106108D01*
X0154156Y0106136D01*
X0153998Y0106167D01*
X0153842Y0106203D01*
X0153686Y0106242D01*
X0153531Y0106285D01*
X0153377Y0106332D01*
X0153224Y0106383D01*
X0153073Y0106438D01*
X0152923Y0106496D01*
X0152775Y0106558D01*
X0152628Y0106624D01*
X0152483Y0106693D01*
X0152340Y0106766D01*
X0152198Y0106842D01*
X0152059Y0106922D01*
X0151921Y0107005D01*
X0151786Y0107092D01*
X0151652Y0107182D01*
X0151521Y0107275D01*
X0151393Y0107371D01*
X0151267Y0107471D01*
X0151143Y0107574D01*
X0151022Y0107679D01*
X0150903Y0107788D01*
X0150787Y0107899D01*
X0150674Y0108014D01*
X0150564Y0108131D01*
X0150457Y0108251D01*
X0150353Y0108373D01*
X0150252Y0108498D01*
X0150154Y0108626D01*
X0150059Y0108756D01*
X0149967Y0108888D01*
X0149879Y0109022D01*
X0149794Y0109159D01*
X0149712Y0109297D01*
X0149634Y0109438D01*
X0149560Y0109580D01*
X0149489Y0109724D01*
X0149421Y0109870D01*
X0149358Y0110018D01*
X0149297Y0110167D01*
X0149241Y0110318D01*
X0149188Y0110470D01*
X0149139Y0110623D01*
X0149094Y0110777D01*
X0149053Y0110932D01*
X0149015Y0111089D01*
X0148982Y0111246D01*
X0148952Y0111404D01*
X0148926Y0111563D01*
X0148905Y0111722D01*
X0148887Y0111882D01*
X0148873Y0112042D01*
X0148863Y0112203D01*
X0148857Y0112363D01*
X0148855Y0112524D01*
X0148855Y0192524D02*
X0148857Y0192685D01*
X0148863Y0192845D01*
X0148873Y0193006D01*
X0148887Y0193166D01*
X0148905Y0193326D01*
X0148926Y0193485D01*
X0148952Y0193644D01*
X0148982Y0193802D01*
X0149015Y0193959D01*
X0149053Y0194116D01*
X0149094Y0194271D01*
X0149139Y0194425D01*
X0149188Y0194578D01*
X0149241Y0194730D01*
X0149297Y0194881D01*
X0149358Y0195030D01*
X0149421Y0195178D01*
X0149489Y0195324D01*
X0149560Y0195468D01*
X0149634Y0195610D01*
X0149712Y0195751D01*
X0149794Y0195889D01*
X0149879Y0196026D01*
X0149967Y0196160D01*
X0150059Y0196292D01*
X0150154Y0196422D01*
X0150252Y0196550D01*
X0150353Y0196675D01*
X0150457Y0196797D01*
X0150564Y0196917D01*
X0150674Y0197034D01*
X0150787Y0197149D01*
X0150903Y0197260D01*
X0151022Y0197369D01*
X0151143Y0197474D01*
X0151267Y0197577D01*
X0151393Y0197677D01*
X0151521Y0197773D01*
X0151652Y0197866D01*
X0151786Y0197956D01*
X0151921Y0198043D01*
X0152059Y0198126D01*
X0152198Y0198206D01*
X0152340Y0198282D01*
X0152483Y0198355D01*
X0152628Y0198424D01*
X0152775Y0198490D01*
X0152923Y0198552D01*
X0153073Y0198610D01*
X0153224Y0198665D01*
X0153377Y0198716D01*
X0153531Y0198763D01*
X0153686Y0198806D01*
X0153842Y0198845D01*
X0153998Y0198881D01*
X0154156Y0198912D01*
X0154314Y0198940D01*
X0154473Y0198964D01*
X0154633Y0198984D01*
X0154793Y0199000D01*
X0154953Y0199012D01*
X0155114Y0199020D01*
X0155275Y0199024D01*
X0155435Y0199024D01*
X0155596Y0199020D01*
X0155757Y0199012D01*
X0155917Y0199000D01*
X0156077Y0198984D01*
X0156237Y0198964D01*
X0156396Y0198940D01*
X0156554Y0198912D01*
X0156712Y0198881D01*
X0156868Y0198845D01*
X0157024Y0198806D01*
X0157179Y0198763D01*
X0157333Y0198716D01*
X0157486Y0198665D01*
X0157637Y0198610D01*
X0157787Y0198552D01*
X0157935Y0198490D01*
X0158082Y0198424D01*
X0158227Y0198355D01*
X0158370Y0198282D01*
X0158512Y0198206D01*
X0158651Y0198126D01*
X0158789Y0198043D01*
X0158924Y0197956D01*
X0159058Y0197866D01*
X0159189Y0197773D01*
X0159317Y0197677D01*
X0159443Y0197577D01*
X0159567Y0197474D01*
X0159688Y0197369D01*
X0159807Y0197260D01*
X0159923Y0197149D01*
X0160036Y0197034D01*
X0160146Y0196917D01*
X0160253Y0196797D01*
X0160357Y0196675D01*
X0160458Y0196550D01*
X0160556Y0196422D01*
X0160651Y0196292D01*
X0160743Y0196160D01*
X0160831Y0196026D01*
X0160916Y0195889D01*
X0160998Y0195751D01*
X0161076Y0195610D01*
X0161150Y0195468D01*
X0161221Y0195324D01*
X0161289Y0195178D01*
X0161352Y0195030D01*
X0161413Y0194881D01*
X0161469Y0194730D01*
X0161522Y0194578D01*
X0161571Y0194425D01*
X0161616Y0194271D01*
X0161657Y0194116D01*
X0161695Y0193959D01*
X0161728Y0193802D01*
X0161758Y0193644D01*
X0161784Y0193485D01*
X0161805Y0193326D01*
X0161823Y0193166D01*
X0161837Y0193006D01*
X0161847Y0192845D01*
X0161853Y0192685D01*
X0161855Y0192524D01*
X0161853Y0192363D01*
X0161847Y0192203D01*
X0161837Y0192042D01*
X0161823Y0191882D01*
X0161805Y0191722D01*
X0161784Y0191563D01*
X0161758Y0191404D01*
X0161728Y0191246D01*
X0161695Y0191089D01*
X0161657Y0190932D01*
X0161616Y0190777D01*
X0161571Y0190623D01*
X0161522Y0190470D01*
X0161469Y0190318D01*
X0161413Y0190167D01*
X0161352Y0190018D01*
X0161289Y0189870D01*
X0161221Y0189724D01*
X0161150Y0189580D01*
X0161076Y0189438D01*
X0160998Y0189297D01*
X0160916Y0189159D01*
X0160831Y0189022D01*
X0160743Y0188888D01*
X0160651Y0188756D01*
X0160556Y0188626D01*
X0160458Y0188498D01*
X0160357Y0188373D01*
X0160253Y0188251D01*
X0160146Y0188131D01*
X0160036Y0188014D01*
X0159923Y0187899D01*
X0159807Y0187788D01*
X0159688Y0187679D01*
X0159567Y0187574D01*
X0159443Y0187471D01*
X0159317Y0187371D01*
X0159189Y0187275D01*
X0159058Y0187182D01*
X0158924Y0187092D01*
X0158789Y0187005D01*
X0158651Y0186922D01*
X0158512Y0186842D01*
X0158370Y0186766D01*
X0158227Y0186693D01*
X0158082Y0186624D01*
X0157935Y0186558D01*
X0157787Y0186496D01*
X0157637Y0186438D01*
X0157486Y0186383D01*
X0157333Y0186332D01*
X0157179Y0186285D01*
X0157024Y0186242D01*
X0156868Y0186203D01*
X0156712Y0186167D01*
X0156554Y0186136D01*
X0156396Y0186108D01*
X0156237Y0186084D01*
X0156077Y0186064D01*
X0155917Y0186048D01*
X0155757Y0186036D01*
X0155596Y0186028D01*
X0155435Y0186024D01*
X0155275Y0186024D01*
X0155114Y0186028D01*
X0154953Y0186036D01*
X0154793Y0186048D01*
X0154633Y0186064D01*
X0154473Y0186084D01*
X0154314Y0186108D01*
X0154156Y0186136D01*
X0153998Y0186167D01*
X0153842Y0186203D01*
X0153686Y0186242D01*
X0153531Y0186285D01*
X0153377Y0186332D01*
X0153224Y0186383D01*
X0153073Y0186438D01*
X0152923Y0186496D01*
X0152775Y0186558D01*
X0152628Y0186624D01*
X0152483Y0186693D01*
X0152340Y0186766D01*
X0152198Y0186842D01*
X0152059Y0186922D01*
X0151921Y0187005D01*
X0151786Y0187092D01*
X0151652Y0187182D01*
X0151521Y0187275D01*
X0151393Y0187371D01*
X0151267Y0187471D01*
X0151143Y0187574D01*
X0151022Y0187679D01*
X0150903Y0187788D01*
X0150787Y0187899D01*
X0150674Y0188014D01*
X0150564Y0188131D01*
X0150457Y0188251D01*
X0150353Y0188373D01*
X0150252Y0188498D01*
X0150154Y0188626D01*
X0150059Y0188756D01*
X0149967Y0188888D01*
X0149879Y0189022D01*
X0149794Y0189159D01*
X0149712Y0189297D01*
X0149634Y0189438D01*
X0149560Y0189580D01*
X0149489Y0189724D01*
X0149421Y0189870D01*
X0149358Y0190018D01*
X0149297Y0190167D01*
X0149241Y0190318D01*
X0149188Y0190470D01*
X0149139Y0190623D01*
X0149094Y0190777D01*
X0149053Y0190932D01*
X0149015Y0191089D01*
X0148982Y0191246D01*
X0148952Y0191404D01*
X0148926Y0191563D01*
X0148905Y0191722D01*
X0148887Y0191882D01*
X0148873Y0192042D01*
X0148863Y0192203D01*
X0148857Y0192363D01*
X0148855Y0192524D01*
X0148855Y0349524D02*
X0148857Y0349685D01*
X0148863Y0349845D01*
X0148873Y0350006D01*
X0148887Y0350166D01*
X0148905Y0350326D01*
X0148926Y0350485D01*
X0148952Y0350644D01*
X0148982Y0350802D01*
X0149015Y0350959D01*
X0149053Y0351116D01*
X0149094Y0351271D01*
X0149139Y0351425D01*
X0149188Y0351578D01*
X0149241Y0351730D01*
X0149297Y0351881D01*
X0149358Y0352030D01*
X0149421Y0352178D01*
X0149489Y0352324D01*
X0149560Y0352468D01*
X0149634Y0352610D01*
X0149712Y0352751D01*
X0149794Y0352889D01*
X0149879Y0353026D01*
X0149967Y0353160D01*
X0150059Y0353292D01*
X0150154Y0353422D01*
X0150252Y0353550D01*
X0150353Y0353675D01*
X0150457Y0353797D01*
X0150564Y0353917D01*
X0150674Y0354034D01*
X0150787Y0354149D01*
X0150903Y0354260D01*
X0151022Y0354369D01*
X0151143Y0354474D01*
X0151267Y0354577D01*
X0151393Y0354677D01*
X0151521Y0354773D01*
X0151652Y0354866D01*
X0151786Y0354956D01*
X0151921Y0355043D01*
X0152059Y0355126D01*
X0152198Y0355206D01*
X0152340Y0355282D01*
X0152483Y0355355D01*
X0152628Y0355424D01*
X0152775Y0355490D01*
X0152923Y0355552D01*
X0153073Y0355610D01*
X0153224Y0355665D01*
X0153377Y0355716D01*
X0153531Y0355763D01*
X0153686Y0355806D01*
X0153842Y0355845D01*
X0153998Y0355881D01*
X0154156Y0355912D01*
X0154314Y0355940D01*
X0154473Y0355964D01*
X0154633Y0355984D01*
X0154793Y0356000D01*
X0154953Y0356012D01*
X0155114Y0356020D01*
X0155275Y0356024D01*
X0155435Y0356024D01*
X0155596Y0356020D01*
X0155757Y0356012D01*
X0155917Y0356000D01*
X0156077Y0355984D01*
X0156237Y0355964D01*
X0156396Y0355940D01*
X0156554Y0355912D01*
X0156712Y0355881D01*
X0156868Y0355845D01*
X0157024Y0355806D01*
X0157179Y0355763D01*
X0157333Y0355716D01*
X0157486Y0355665D01*
X0157637Y0355610D01*
X0157787Y0355552D01*
X0157935Y0355490D01*
X0158082Y0355424D01*
X0158227Y0355355D01*
X0158370Y0355282D01*
X0158512Y0355206D01*
X0158651Y0355126D01*
X0158789Y0355043D01*
X0158924Y0354956D01*
X0159058Y0354866D01*
X0159189Y0354773D01*
X0159317Y0354677D01*
X0159443Y0354577D01*
X0159567Y0354474D01*
X0159688Y0354369D01*
X0159807Y0354260D01*
X0159923Y0354149D01*
X0160036Y0354034D01*
X0160146Y0353917D01*
X0160253Y0353797D01*
X0160357Y0353675D01*
X0160458Y0353550D01*
X0160556Y0353422D01*
X0160651Y0353292D01*
X0160743Y0353160D01*
X0160831Y0353026D01*
X0160916Y0352889D01*
X0160998Y0352751D01*
X0161076Y0352610D01*
X0161150Y0352468D01*
X0161221Y0352324D01*
X0161289Y0352178D01*
X0161352Y0352030D01*
X0161413Y0351881D01*
X0161469Y0351730D01*
X0161522Y0351578D01*
X0161571Y0351425D01*
X0161616Y0351271D01*
X0161657Y0351116D01*
X0161695Y0350959D01*
X0161728Y0350802D01*
X0161758Y0350644D01*
X0161784Y0350485D01*
X0161805Y0350326D01*
X0161823Y0350166D01*
X0161837Y0350006D01*
X0161847Y0349845D01*
X0161853Y0349685D01*
X0161855Y0349524D01*
X0161853Y0349363D01*
X0161847Y0349203D01*
X0161837Y0349042D01*
X0161823Y0348882D01*
X0161805Y0348722D01*
X0161784Y0348563D01*
X0161758Y0348404D01*
X0161728Y0348246D01*
X0161695Y0348089D01*
X0161657Y0347932D01*
X0161616Y0347777D01*
X0161571Y0347623D01*
X0161522Y0347470D01*
X0161469Y0347318D01*
X0161413Y0347167D01*
X0161352Y0347018D01*
X0161289Y0346870D01*
X0161221Y0346724D01*
X0161150Y0346580D01*
X0161076Y0346438D01*
X0160998Y0346297D01*
X0160916Y0346159D01*
X0160831Y0346022D01*
X0160743Y0345888D01*
X0160651Y0345756D01*
X0160556Y0345626D01*
X0160458Y0345498D01*
X0160357Y0345373D01*
X0160253Y0345251D01*
X0160146Y0345131D01*
X0160036Y0345014D01*
X0159923Y0344899D01*
X0159807Y0344788D01*
X0159688Y0344679D01*
X0159567Y0344574D01*
X0159443Y0344471D01*
X0159317Y0344371D01*
X0159189Y0344275D01*
X0159058Y0344182D01*
X0158924Y0344092D01*
X0158789Y0344005D01*
X0158651Y0343922D01*
X0158512Y0343842D01*
X0158370Y0343766D01*
X0158227Y0343693D01*
X0158082Y0343624D01*
X0157935Y0343558D01*
X0157787Y0343496D01*
X0157637Y0343438D01*
X0157486Y0343383D01*
X0157333Y0343332D01*
X0157179Y0343285D01*
X0157024Y0343242D01*
X0156868Y0343203D01*
X0156712Y0343167D01*
X0156554Y0343136D01*
X0156396Y0343108D01*
X0156237Y0343084D01*
X0156077Y0343064D01*
X0155917Y0343048D01*
X0155757Y0343036D01*
X0155596Y0343028D01*
X0155435Y0343024D01*
X0155275Y0343024D01*
X0155114Y0343028D01*
X0154953Y0343036D01*
X0154793Y0343048D01*
X0154633Y0343064D01*
X0154473Y0343084D01*
X0154314Y0343108D01*
X0154156Y0343136D01*
X0153998Y0343167D01*
X0153842Y0343203D01*
X0153686Y0343242D01*
X0153531Y0343285D01*
X0153377Y0343332D01*
X0153224Y0343383D01*
X0153073Y0343438D01*
X0152923Y0343496D01*
X0152775Y0343558D01*
X0152628Y0343624D01*
X0152483Y0343693D01*
X0152340Y0343766D01*
X0152198Y0343842D01*
X0152059Y0343922D01*
X0151921Y0344005D01*
X0151786Y0344092D01*
X0151652Y0344182D01*
X0151521Y0344275D01*
X0151393Y0344371D01*
X0151267Y0344471D01*
X0151143Y0344574D01*
X0151022Y0344679D01*
X0150903Y0344788D01*
X0150787Y0344899D01*
X0150674Y0345014D01*
X0150564Y0345131D01*
X0150457Y0345251D01*
X0150353Y0345373D01*
X0150252Y0345498D01*
X0150154Y0345626D01*
X0150059Y0345756D01*
X0149967Y0345888D01*
X0149879Y0346022D01*
X0149794Y0346159D01*
X0149712Y0346297D01*
X0149634Y0346438D01*
X0149560Y0346580D01*
X0149489Y0346724D01*
X0149421Y0346870D01*
X0149358Y0347018D01*
X0149297Y0347167D01*
X0149241Y0347318D01*
X0149188Y0347470D01*
X0149139Y0347623D01*
X0149094Y0347777D01*
X0149053Y0347932D01*
X0149015Y0348089D01*
X0148982Y0348246D01*
X0148952Y0348404D01*
X0148926Y0348563D01*
X0148905Y0348722D01*
X0148887Y0348882D01*
X0148873Y0349042D01*
X0148863Y0349203D01*
X0148857Y0349363D01*
X0148855Y0349524D01*
X0148855Y0429524D02*
X0148857Y0429685D01*
X0148863Y0429845D01*
X0148873Y0430006D01*
X0148887Y0430166D01*
X0148905Y0430326D01*
X0148926Y0430485D01*
X0148952Y0430644D01*
X0148982Y0430802D01*
X0149015Y0430959D01*
X0149053Y0431116D01*
X0149094Y0431271D01*
X0149139Y0431425D01*
X0149188Y0431578D01*
X0149241Y0431730D01*
X0149297Y0431881D01*
X0149358Y0432030D01*
X0149421Y0432178D01*
X0149489Y0432324D01*
X0149560Y0432468D01*
X0149634Y0432610D01*
X0149712Y0432751D01*
X0149794Y0432889D01*
X0149879Y0433026D01*
X0149967Y0433160D01*
X0150059Y0433292D01*
X0150154Y0433422D01*
X0150252Y0433550D01*
X0150353Y0433675D01*
X0150457Y0433797D01*
X0150564Y0433917D01*
X0150674Y0434034D01*
X0150787Y0434149D01*
X0150903Y0434260D01*
X0151022Y0434369D01*
X0151143Y0434474D01*
X0151267Y0434577D01*
X0151393Y0434677D01*
X0151521Y0434773D01*
X0151652Y0434866D01*
X0151786Y0434956D01*
X0151921Y0435043D01*
X0152059Y0435126D01*
X0152198Y0435206D01*
X0152340Y0435282D01*
X0152483Y0435355D01*
X0152628Y0435424D01*
X0152775Y0435490D01*
X0152923Y0435552D01*
X0153073Y0435610D01*
X0153224Y0435665D01*
X0153377Y0435716D01*
X0153531Y0435763D01*
X0153686Y0435806D01*
X0153842Y0435845D01*
X0153998Y0435881D01*
X0154156Y0435912D01*
X0154314Y0435940D01*
X0154473Y0435964D01*
X0154633Y0435984D01*
X0154793Y0436000D01*
X0154953Y0436012D01*
X0155114Y0436020D01*
X0155275Y0436024D01*
X0155435Y0436024D01*
X0155596Y0436020D01*
X0155757Y0436012D01*
X0155917Y0436000D01*
X0156077Y0435984D01*
X0156237Y0435964D01*
X0156396Y0435940D01*
X0156554Y0435912D01*
X0156712Y0435881D01*
X0156868Y0435845D01*
X0157024Y0435806D01*
X0157179Y0435763D01*
X0157333Y0435716D01*
X0157486Y0435665D01*
X0157637Y0435610D01*
X0157787Y0435552D01*
X0157935Y0435490D01*
X0158082Y0435424D01*
X0158227Y0435355D01*
X0158370Y0435282D01*
X0158512Y0435206D01*
X0158651Y0435126D01*
X0158789Y0435043D01*
X0158924Y0434956D01*
X0159058Y0434866D01*
X0159189Y0434773D01*
X0159317Y0434677D01*
X0159443Y0434577D01*
X0159567Y0434474D01*
X0159688Y0434369D01*
X0159807Y0434260D01*
X0159923Y0434149D01*
X0160036Y0434034D01*
X0160146Y0433917D01*
X0160253Y0433797D01*
X0160357Y0433675D01*
X0160458Y0433550D01*
X0160556Y0433422D01*
X0160651Y0433292D01*
X0160743Y0433160D01*
X0160831Y0433026D01*
X0160916Y0432889D01*
X0160998Y0432751D01*
X0161076Y0432610D01*
X0161150Y0432468D01*
X0161221Y0432324D01*
X0161289Y0432178D01*
X0161352Y0432030D01*
X0161413Y0431881D01*
X0161469Y0431730D01*
X0161522Y0431578D01*
X0161571Y0431425D01*
X0161616Y0431271D01*
X0161657Y0431116D01*
X0161695Y0430959D01*
X0161728Y0430802D01*
X0161758Y0430644D01*
X0161784Y0430485D01*
X0161805Y0430326D01*
X0161823Y0430166D01*
X0161837Y0430006D01*
X0161847Y0429845D01*
X0161853Y0429685D01*
X0161855Y0429524D01*
X0161853Y0429363D01*
X0161847Y0429203D01*
X0161837Y0429042D01*
X0161823Y0428882D01*
X0161805Y0428722D01*
X0161784Y0428563D01*
X0161758Y0428404D01*
X0161728Y0428246D01*
X0161695Y0428089D01*
X0161657Y0427932D01*
X0161616Y0427777D01*
X0161571Y0427623D01*
X0161522Y0427470D01*
X0161469Y0427318D01*
X0161413Y0427167D01*
X0161352Y0427018D01*
X0161289Y0426870D01*
X0161221Y0426724D01*
X0161150Y0426580D01*
X0161076Y0426438D01*
X0160998Y0426297D01*
X0160916Y0426159D01*
X0160831Y0426022D01*
X0160743Y0425888D01*
X0160651Y0425756D01*
X0160556Y0425626D01*
X0160458Y0425498D01*
X0160357Y0425373D01*
X0160253Y0425251D01*
X0160146Y0425131D01*
X0160036Y0425014D01*
X0159923Y0424899D01*
X0159807Y0424788D01*
X0159688Y0424679D01*
X0159567Y0424574D01*
X0159443Y0424471D01*
X0159317Y0424371D01*
X0159189Y0424275D01*
X0159058Y0424182D01*
X0158924Y0424092D01*
X0158789Y0424005D01*
X0158651Y0423922D01*
X0158512Y0423842D01*
X0158370Y0423766D01*
X0158227Y0423693D01*
X0158082Y0423624D01*
X0157935Y0423558D01*
X0157787Y0423496D01*
X0157637Y0423438D01*
X0157486Y0423383D01*
X0157333Y0423332D01*
X0157179Y0423285D01*
X0157024Y0423242D01*
X0156868Y0423203D01*
X0156712Y0423167D01*
X0156554Y0423136D01*
X0156396Y0423108D01*
X0156237Y0423084D01*
X0156077Y0423064D01*
X0155917Y0423048D01*
X0155757Y0423036D01*
X0155596Y0423028D01*
X0155435Y0423024D01*
X0155275Y0423024D01*
X0155114Y0423028D01*
X0154953Y0423036D01*
X0154793Y0423048D01*
X0154633Y0423064D01*
X0154473Y0423084D01*
X0154314Y0423108D01*
X0154156Y0423136D01*
X0153998Y0423167D01*
X0153842Y0423203D01*
X0153686Y0423242D01*
X0153531Y0423285D01*
X0153377Y0423332D01*
X0153224Y0423383D01*
X0153073Y0423438D01*
X0152923Y0423496D01*
X0152775Y0423558D01*
X0152628Y0423624D01*
X0152483Y0423693D01*
X0152340Y0423766D01*
X0152198Y0423842D01*
X0152059Y0423922D01*
X0151921Y0424005D01*
X0151786Y0424092D01*
X0151652Y0424182D01*
X0151521Y0424275D01*
X0151393Y0424371D01*
X0151267Y0424471D01*
X0151143Y0424574D01*
X0151022Y0424679D01*
X0150903Y0424788D01*
X0150787Y0424899D01*
X0150674Y0425014D01*
X0150564Y0425131D01*
X0150457Y0425251D01*
X0150353Y0425373D01*
X0150252Y0425498D01*
X0150154Y0425626D01*
X0150059Y0425756D01*
X0149967Y0425888D01*
X0149879Y0426022D01*
X0149794Y0426159D01*
X0149712Y0426297D01*
X0149634Y0426438D01*
X0149560Y0426580D01*
X0149489Y0426724D01*
X0149421Y0426870D01*
X0149358Y0427018D01*
X0149297Y0427167D01*
X0149241Y0427318D01*
X0149188Y0427470D01*
X0149139Y0427623D01*
X0149094Y0427777D01*
X0149053Y0427932D01*
X0149015Y0428089D01*
X0148982Y0428246D01*
X0148952Y0428404D01*
X0148926Y0428563D01*
X0148905Y0428722D01*
X0148887Y0428882D01*
X0148873Y0429042D01*
X0148863Y0429203D01*
X0148857Y0429363D01*
X0148855Y0429524D01*
X0228855Y0429524D02*
X0228857Y0429685D01*
X0228863Y0429845D01*
X0228873Y0430006D01*
X0228887Y0430166D01*
X0228905Y0430326D01*
X0228926Y0430485D01*
X0228952Y0430644D01*
X0228982Y0430802D01*
X0229015Y0430959D01*
X0229053Y0431116D01*
X0229094Y0431271D01*
X0229139Y0431425D01*
X0229188Y0431578D01*
X0229241Y0431730D01*
X0229297Y0431881D01*
X0229358Y0432030D01*
X0229421Y0432178D01*
X0229489Y0432324D01*
X0229560Y0432468D01*
X0229634Y0432610D01*
X0229712Y0432751D01*
X0229794Y0432889D01*
X0229879Y0433026D01*
X0229967Y0433160D01*
X0230059Y0433292D01*
X0230154Y0433422D01*
X0230252Y0433550D01*
X0230353Y0433675D01*
X0230457Y0433797D01*
X0230564Y0433917D01*
X0230674Y0434034D01*
X0230787Y0434149D01*
X0230903Y0434260D01*
X0231022Y0434369D01*
X0231143Y0434474D01*
X0231267Y0434577D01*
X0231393Y0434677D01*
X0231521Y0434773D01*
X0231652Y0434866D01*
X0231786Y0434956D01*
X0231921Y0435043D01*
X0232059Y0435126D01*
X0232198Y0435206D01*
X0232340Y0435282D01*
X0232483Y0435355D01*
X0232628Y0435424D01*
X0232775Y0435490D01*
X0232923Y0435552D01*
X0233073Y0435610D01*
X0233224Y0435665D01*
X0233377Y0435716D01*
X0233531Y0435763D01*
X0233686Y0435806D01*
X0233842Y0435845D01*
X0233998Y0435881D01*
X0234156Y0435912D01*
X0234314Y0435940D01*
X0234473Y0435964D01*
X0234633Y0435984D01*
X0234793Y0436000D01*
X0234953Y0436012D01*
X0235114Y0436020D01*
X0235275Y0436024D01*
X0235435Y0436024D01*
X0235596Y0436020D01*
X0235757Y0436012D01*
X0235917Y0436000D01*
X0236077Y0435984D01*
X0236237Y0435964D01*
X0236396Y0435940D01*
X0236554Y0435912D01*
X0236712Y0435881D01*
X0236868Y0435845D01*
X0237024Y0435806D01*
X0237179Y0435763D01*
X0237333Y0435716D01*
X0237486Y0435665D01*
X0237637Y0435610D01*
X0237787Y0435552D01*
X0237935Y0435490D01*
X0238082Y0435424D01*
X0238227Y0435355D01*
X0238370Y0435282D01*
X0238512Y0435206D01*
X0238651Y0435126D01*
X0238789Y0435043D01*
X0238924Y0434956D01*
X0239058Y0434866D01*
X0239189Y0434773D01*
X0239317Y0434677D01*
X0239443Y0434577D01*
X0239567Y0434474D01*
X0239688Y0434369D01*
X0239807Y0434260D01*
X0239923Y0434149D01*
X0240036Y0434034D01*
X0240146Y0433917D01*
X0240253Y0433797D01*
X0240357Y0433675D01*
X0240458Y0433550D01*
X0240556Y0433422D01*
X0240651Y0433292D01*
X0240743Y0433160D01*
X0240831Y0433026D01*
X0240916Y0432889D01*
X0240998Y0432751D01*
X0241076Y0432610D01*
X0241150Y0432468D01*
X0241221Y0432324D01*
X0241289Y0432178D01*
X0241352Y0432030D01*
X0241413Y0431881D01*
X0241469Y0431730D01*
X0241522Y0431578D01*
X0241571Y0431425D01*
X0241616Y0431271D01*
X0241657Y0431116D01*
X0241695Y0430959D01*
X0241728Y0430802D01*
X0241758Y0430644D01*
X0241784Y0430485D01*
X0241805Y0430326D01*
X0241823Y0430166D01*
X0241837Y0430006D01*
X0241847Y0429845D01*
X0241853Y0429685D01*
X0241855Y0429524D01*
X0241853Y0429363D01*
X0241847Y0429203D01*
X0241837Y0429042D01*
X0241823Y0428882D01*
X0241805Y0428722D01*
X0241784Y0428563D01*
X0241758Y0428404D01*
X0241728Y0428246D01*
X0241695Y0428089D01*
X0241657Y0427932D01*
X0241616Y0427777D01*
X0241571Y0427623D01*
X0241522Y0427470D01*
X0241469Y0427318D01*
X0241413Y0427167D01*
X0241352Y0427018D01*
X0241289Y0426870D01*
X0241221Y0426724D01*
X0241150Y0426580D01*
X0241076Y0426438D01*
X0240998Y0426297D01*
X0240916Y0426159D01*
X0240831Y0426022D01*
X0240743Y0425888D01*
X0240651Y0425756D01*
X0240556Y0425626D01*
X0240458Y0425498D01*
X0240357Y0425373D01*
X0240253Y0425251D01*
X0240146Y0425131D01*
X0240036Y0425014D01*
X0239923Y0424899D01*
X0239807Y0424788D01*
X0239688Y0424679D01*
X0239567Y0424574D01*
X0239443Y0424471D01*
X0239317Y0424371D01*
X0239189Y0424275D01*
X0239058Y0424182D01*
X0238924Y0424092D01*
X0238789Y0424005D01*
X0238651Y0423922D01*
X0238512Y0423842D01*
X0238370Y0423766D01*
X0238227Y0423693D01*
X0238082Y0423624D01*
X0237935Y0423558D01*
X0237787Y0423496D01*
X0237637Y0423438D01*
X0237486Y0423383D01*
X0237333Y0423332D01*
X0237179Y0423285D01*
X0237024Y0423242D01*
X0236868Y0423203D01*
X0236712Y0423167D01*
X0236554Y0423136D01*
X0236396Y0423108D01*
X0236237Y0423084D01*
X0236077Y0423064D01*
X0235917Y0423048D01*
X0235757Y0423036D01*
X0235596Y0423028D01*
X0235435Y0423024D01*
X0235275Y0423024D01*
X0235114Y0423028D01*
X0234953Y0423036D01*
X0234793Y0423048D01*
X0234633Y0423064D01*
X0234473Y0423084D01*
X0234314Y0423108D01*
X0234156Y0423136D01*
X0233998Y0423167D01*
X0233842Y0423203D01*
X0233686Y0423242D01*
X0233531Y0423285D01*
X0233377Y0423332D01*
X0233224Y0423383D01*
X0233073Y0423438D01*
X0232923Y0423496D01*
X0232775Y0423558D01*
X0232628Y0423624D01*
X0232483Y0423693D01*
X0232340Y0423766D01*
X0232198Y0423842D01*
X0232059Y0423922D01*
X0231921Y0424005D01*
X0231786Y0424092D01*
X0231652Y0424182D01*
X0231521Y0424275D01*
X0231393Y0424371D01*
X0231267Y0424471D01*
X0231143Y0424574D01*
X0231022Y0424679D01*
X0230903Y0424788D01*
X0230787Y0424899D01*
X0230674Y0425014D01*
X0230564Y0425131D01*
X0230457Y0425251D01*
X0230353Y0425373D01*
X0230252Y0425498D01*
X0230154Y0425626D01*
X0230059Y0425756D01*
X0229967Y0425888D01*
X0229879Y0426022D01*
X0229794Y0426159D01*
X0229712Y0426297D01*
X0229634Y0426438D01*
X0229560Y0426580D01*
X0229489Y0426724D01*
X0229421Y0426870D01*
X0229358Y0427018D01*
X0229297Y0427167D01*
X0229241Y0427318D01*
X0229188Y0427470D01*
X0229139Y0427623D01*
X0229094Y0427777D01*
X0229053Y0427932D01*
X0229015Y0428089D01*
X0228982Y0428246D01*
X0228952Y0428404D01*
X0228926Y0428563D01*
X0228905Y0428722D01*
X0228887Y0428882D01*
X0228873Y0429042D01*
X0228863Y0429203D01*
X0228857Y0429363D01*
X0228855Y0429524D01*
X0228855Y0349524D02*
X0228857Y0349685D01*
X0228863Y0349845D01*
X0228873Y0350006D01*
X0228887Y0350166D01*
X0228905Y0350326D01*
X0228926Y0350485D01*
X0228952Y0350644D01*
X0228982Y0350802D01*
X0229015Y0350959D01*
X0229053Y0351116D01*
X0229094Y0351271D01*
X0229139Y0351425D01*
X0229188Y0351578D01*
X0229241Y0351730D01*
X0229297Y0351881D01*
X0229358Y0352030D01*
X0229421Y0352178D01*
X0229489Y0352324D01*
X0229560Y0352468D01*
X0229634Y0352610D01*
X0229712Y0352751D01*
X0229794Y0352889D01*
X0229879Y0353026D01*
X0229967Y0353160D01*
X0230059Y0353292D01*
X0230154Y0353422D01*
X0230252Y0353550D01*
X0230353Y0353675D01*
X0230457Y0353797D01*
X0230564Y0353917D01*
X0230674Y0354034D01*
X0230787Y0354149D01*
X0230903Y0354260D01*
X0231022Y0354369D01*
X0231143Y0354474D01*
X0231267Y0354577D01*
X0231393Y0354677D01*
X0231521Y0354773D01*
X0231652Y0354866D01*
X0231786Y0354956D01*
X0231921Y0355043D01*
X0232059Y0355126D01*
X0232198Y0355206D01*
X0232340Y0355282D01*
X0232483Y0355355D01*
X0232628Y0355424D01*
X0232775Y0355490D01*
X0232923Y0355552D01*
X0233073Y0355610D01*
X0233224Y0355665D01*
X0233377Y0355716D01*
X0233531Y0355763D01*
X0233686Y0355806D01*
X0233842Y0355845D01*
X0233998Y0355881D01*
X0234156Y0355912D01*
X0234314Y0355940D01*
X0234473Y0355964D01*
X0234633Y0355984D01*
X0234793Y0356000D01*
X0234953Y0356012D01*
X0235114Y0356020D01*
X0235275Y0356024D01*
X0235435Y0356024D01*
X0235596Y0356020D01*
X0235757Y0356012D01*
X0235917Y0356000D01*
X0236077Y0355984D01*
X0236237Y0355964D01*
X0236396Y0355940D01*
X0236554Y0355912D01*
X0236712Y0355881D01*
X0236868Y0355845D01*
X0237024Y0355806D01*
X0237179Y0355763D01*
X0237333Y0355716D01*
X0237486Y0355665D01*
X0237637Y0355610D01*
X0237787Y0355552D01*
X0237935Y0355490D01*
X0238082Y0355424D01*
X0238227Y0355355D01*
X0238370Y0355282D01*
X0238512Y0355206D01*
X0238651Y0355126D01*
X0238789Y0355043D01*
X0238924Y0354956D01*
X0239058Y0354866D01*
X0239189Y0354773D01*
X0239317Y0354677D01*
X0239443Y0354577D01*
X0239567Y0354474D01*
X0239688Y0354369D01*
X0239807Y0354260D01*
X0239923Y0354149D01*
X0240036Y0354034D01*
X0240146Y0353917D01*
X0240253Y0353797D01*
X0240357Y0353675D01*
X0240458Y0353550D01*
X0240556Y0353422D01*
X0240651Y0353292D01*
X0240743Y0353160D01*
X0240831Y0353026D01*
X0240916Y0352889D01*
X0240998Y0352751D01*
X0241076Y0352610D01*
X0241150Y0352468D01*
X0241221Y0352324D01*
X0241289Y0352178D01*
X0241352Y0352030D01*
X0241413Y0351881D01*
X0241469Y0351730D01*
X0241522Y0351578D01*
X0241571Y0351425D01*
X0241616Y0351271D01*
X0241657Y0351116D01*
X0241695Y0350959D01*
X0241728Y0350802D01*
X0241758Y0350644D01*
X0241784Y0350485D01*
X0241805Y0350326D01*
X0241823Y0350166D01*
X0241837Y0350006D01*
X0241847Y0349845D01*
X0241853Y0349685D01*
X0241855Y0349524D01*
X0241853Y0349363D01*
X0241847Y0349203D01*
X0241837Y0349042D01*
X0241823Y0348882D01*
X0241805Y0348722D01*
X0241784Y0348563D01*
X0241758Y0348404D01*
X0241728Y0348246D01*
X0241695Y0348089D01*
X0241657Y0347932D01*
X0241616Y0347777D01*
X0241571Y0347623D01*
X0241522Y0347470D01*
X0241469Y0347318D01*
X0241413Y0347167D01*
X0241352Y0347018D01*
X0241289Y0346870D01*
X0241221Y0346724D01*
X0241150Y0346580D01*
X0241076Y0346438D01*
X0240998Y0346297D01*
X0240916Y0346159D01*
X0240831Y0346022D01*
X0240743Y0345888D01*
X0240651Y0345756D01*
X0240556Y0345626D01*
X0240458Y0345498D01*
X0240357Y0345373D01*
X0240253Y0345251D01*
X0240146Y0345131D01*
X0240036Y0345014D01*
X0239923Y0344899D01*
X0239807Y0344788D01*
X0239688Y0344679D01*
X0239567Y0344574D01*
X0239443Y0344471D01*
X0239317Y0344371D01*
X0239189Y0344275D01*
X0239058Y0344182D01*
X0238924Y0344092D01*
X0238789Y0344005D01*
X0238651Y0343922D01*
X0238512Y0343842D01*
X0238370Y0343766D01*
X0238227Y0343693D01*
X0238082Y0343624D01*
X0237935Y0343558D01*
X0237787Y0343496D01*
X0237637Y0343438D01*
X0237486Y0343383D01*
X0237333Y0343332D01*
X0237179Y0343285D01*
X0237024Y0343242D01*
X0236868Y0343203D01*
X0236712Y0343167D01*
X0236554Y0343136D01*
X0236396Y0343108D01*
X0236237Y0343084D01*
X0236077Y0343064D01*
X0235917Y0343048D01*
X0235757Y0343036D01*
X0235596Y0343028D01*
X0235435Y0343024D01*
X0235275Y0343024D01*
X0235114Y0343028D01*
X0234953Y0343036D01*
X0234793Y0343048D01*
X0234633Y0343064D01*
X0234473Y0343084D01*
X0234314Y0343108D01*
X0234156Y0343136D01*
X0233998Y0343167D01*
X0233842Y0343203D01*
X0233686Y0343242D01*
X0233531Y0343285D01*
X0233377Y0343332D01*
X0233224Y0343383D01*
X0233073Y0343438D01*
X0232923Y0343496D01*
X0232775Y0343558D01*
X0232628Y0343624D01*
X0232483Y0343693D01*
X0232340Y0343766D01*
X0232198Y0343842D01*
X0232059Y0343922D01*
X0231921Y0344005D01*
X0231786Y0344092D01*
X0231652Y0344182D01*
X0231521Y0344275D01*
X0231393Y0344371D01*
X0231267Y0344471D01*
X0231143Y0344574D01*
X0231022Y0344679D01*
X0230903Y0344788D01*
X0230787Y0344899D01*
X0230674Y0345014D01*
X0230564Y0345131D01*
X0230457Y0345251D01*
X0230353Y0345373D01*
X0230252Y0345498D01*
X0230154Y0345626D01*
X0230059Y0345756D01*
X0229967Y0345888D01*
X0229879Y0346022D01*
X0229794Y0346159D01*
X0229712Y0346297D01*
X0229634Y0346438D01*
X0229560Y0346580D01*
X0229489Y0346724D01*
X0229421Y0346870D01*
X0229358Y0347018D01*
X0229297Y0347167D01*
X0229241Y0347318D01*
X0229188Y0347470D01*
X0229139Y0347623D01*
X0229094Y0347777D01*
X0229053Y0347932D01*
X0229015Y0348089D01*
X0228982Y0348246D01*
X0228952Y0348404D01*
X0228926Y0348563D01*
X0228905Y0348722D01*
X0228887Y0348882D01*
X0228873Y0349042D01*
X0228863Y0349203D01*
X0228857Y0349363D01*
X0228855Y0349524D01*
M02*
