G75*
%MOIN*%
%OFA0B0*%
%FSLAX25Y25*%
%IPPOS*%
%LPD*%
%AMOC8*
5,1,8,0,0,1.08239X$1,22.5*
%
%ADD10C,0.08200*%
%ADD11R,0.03950X0.04343*%
%ADD12R,0.05131X0.04737*%
%ADD13C,0.04737*%
%ADD14R,0.05524X0.08674*%
%ADD15R,0.03162X0.06115*%
D10*
X0015000Y0102524D03*
X0015000Y0112524D03*
X0015000Y0122524D03*
X0015000Y0132524D03*
X0015000Y0142524D03*
X0015000Y0152524D03*
X0015000Y0162524D03*
X0015000Y0172524D03*
X0015000Y0182524D03*
X0015000Y0192524D03*
X0015000Y0207524D03*
X0015000Y0217524D03*
X0015000Y0227524D03*
X0015000Y0237524D03*
X0015000Y0247524D03*
X0015000Y0257524D03*
X0015000Y0267524D03*
X0015000Y0277524D03*
X0035000Y0277524D03*
X0035000Y0267524D03*
X0035000Y0257524D03*
X0035000Y0247524D03*
X0035000Y0237524D03*
X0035000Y0227524D03*
X0035000Y0217524D03*
X0035000Y0207524D03*
X0045000Y0207524D03*
X0045000Y0217524D03*
X0045000Y0227524D03*
X0045000Y0237524D03*
X0045000Y0247524D03*
X0045000Y0257524D03*
X0045000Y0267524D03*
X0045000Y0277524D03*
X0055000Y0277524D03*
X0065000Y0277524D03*
X0075000Y0277524D03*
X0075000Y0267524D03*
X0075000Y0257524D03*
X0065000Y0257524D03*
X0065000Y0267524D03*
X0055000Y0267524D03*
X0055000Y0257524D03*
X0055000Y0247524D03*
X0065000Y0247524D03*
X0075000Y0247524D03*
X0075000Y0237524D03*
X0065000Y0237524D03*
X0055000Y0237524D03*
X0055000Y0227524D03*
X0065000Y0227524D03*
X0075000Y0227524D03*
X0075000Y0217524D03*
X0065000Y0217524D03*
X0055000Y0217524D03*
X0055000Y0207524D03*
X0065000Y0207524D03*
X0075000Y0207524D03*
X0075000Y0197524D03*
X0065000Y0197524D03*
X0055000Y0197524D03*
X0045000Y0197524D03*
X0045000Y0187524D03*
X0045000Y0177524D03*
X0055000Y0177524D03*
X0055000Y0187524D03*
X0065000Y0187524D03*
X0065000Y0177524D03*
X0075000Y0177524D03*
X0075000Y0187524D03*
X0085000Y0187524D03*
X0085000Y0177524D03*
X0095000Y0177524D03*
X0095000Y0187524D03*
X0095000Y0197524D03*
X0095000Y0207524D03*
X0095000Y0217524D03*
X0095000Y0227524D03*
X0095000Y0237524D03*
X0095000Y0247524D03*
X0095000Y0257524D03*
X0095000Y0267524D03*
X0095000Y0277524D03*
X0085000Y0277524D03*
X0085000Y0267524D03*
X0085000Y0257524D03*
X0085000Y0247524D03*
X0085000Y0237524D03*
X0085000Y0227524D03*
X0085000Y0217524D03*
X0085000Y0207524D03*
X0085000Y0197524D03*
X0105000Y0197524D03*
X0105000Y0207524D03*
X0105000Y0217524D03*
X0105000Y0227524D03*
X0105000Y0237524D03*
X0105000Y0247524D03*
X0105000Y0257524D03*
X0105000Y0267524D03*
X0105000Y0277524D03*
X0115000Y0277524D03*
X0125000Y0277524D03*
X0135000Y0277524D03*
X0145000Y0277524D03*
X0145000Y0267524D03*
X0145000Y0257524D03*
X0135000Y0257524D03*
X0135000Y0267524D03*
X0125000Y0267524D03*
X0125000Y0257524D03*
X0115000Y0257524D03*
X0115000Y0267524D03*
X0115000Y0247524D03*
X0125000Y0247524D03*
X0135000Y0247524D03*
X0145000Y0247524D03*
X0145000Y0237524D03*
X0135000Y0237524D03*
X0125000Y0237524D03*
X0115000Y0237524D03*
X0115000Y0227524D03*
X0125000Y0227524D03*
X0135000Y0227524D03*
X0145000Y0227524D03*
X0145000Y0217524D03*
X0135000Y0217524D03*
X0125000Y0217524D03*
X0115000Y0217524D03*
X0115000Y0207524D03*
X0125000Y0207524D03*
X0135000Y0207524D03*
X0145000Y0207524D03*
X0145000Y0197524D03*
X0135000Y0197524D03*
X0125000Y0197524D03*
X0115000Y0197524D03*
X0115000Y0187524D03*
X0115000Y0177524D03*
X0125000Y0177524D03*
X0125000Y0187524D03*
X0135000Y0187524D03*
X0135000Y0177524D03*
X0145000Y0177524D03*
X0145000Y0187524D03*
X0155000Y0187524D03*
X0155000Y0177524D03*
X0165000Y0177524D03*
X0165000Y0187524D03*
X0165000Y0197524D03*
X0165000Y0207524D03*
X0165000Y0217524D03*
X0165000Y0227524D03*
X0165000Y0237524D03*
X0165000Y0247524D03*
X0165000Y0257524D03*
X0165000Y0267524D03*
X0165000Y0277524D03*
X0155000Y0277524D03*
X0155000Y0267524D03*
X0155000Y0257524D03*
X0155000Y0247524D03*
X0155000Y0237524D03*
X0155000Y0227524D03*
X0155000Y0217524D03*
X0155000Y0207524D03*
X0155000Y0197524D03*
X0175000Y0197524D03*
X0175000Y0207524D03*
X0175000Y0217524D03*
X0175000Y0227524D03*
X0175000Y0237524D03*
X0175000Y0247524D03*
X0175000Y0257524D03*
X0175000Y0267524D03*
X0175000Y0277524D03*
X0185000Y0277524D03*
X0185000Y0267524D03*
X0185000Y0257524D03*
X0185000Y0247524D03*
X0185000Y0237524D03*
X0185000Y0227524D03*
X0185000Y0207524D03*
X0185000Y0197524D03*
X0185000Y0187524D03*
X0185000Y0177524D03*
X0175000Y0177524D03*
X0175000Y0187524D03*
X0175000Y0167524D03*
X0165000Y0167524D03*
X0155000Y0167524D03*
X0155000Y0157524D03*
X0165000Y0157524D03*
X0175000Y0157524D03*
X0185000Y0157524D03*
X0185000Y0167524D03*
X0185000Y0147524D03*
X0175000Y0147524D03*
X0165000Y0147524D03*
X0155000Y0147524D03*
X0155000Y0137524D03*
X0165000Y0137524D03*
X0175000Y0137524D03*
X0175000Y0127524D03*
X0165000Y0127524D03*
X0155000Y0127524D03*
X0155000Y0117524D03*
X0155000Y0107524D03*
X0165000Y0107524D03*
X0165000Y0117524D03*
X0175000Y0117524D03*
X0175000Y0107524D03*
X0145000Y0107524D03*
X0145000Y0117524D03*
X0145000Y0127524D03*
X0145000Y0137524D03*
X0145000Y0147524D03*
X0145000Y0157524D03*
X0145000Y0167524D03*
X0135000Y0167524D03*
X0125000Y0167524D03*
X0115000Y0167524D03*
X0115000Y0157524D03*
X0125000Y0157524D03*
X0135000Y0157524D03*
X0135000Y0147524D03*
X0125000Y0147524D03*
X0115000Y0147524D03*
X0115000Y0137524D03*
X0125000Y0137524D03*
X0135000Y0137524D03*
X0135000Y0127524D03*
X0125000Y0127524D03*
X0115000Y0127524D03*
X0115000Y0117524D03*
X0115000Y0107524D03*
X0125000Y0107524D03*
X0125000Y0117524D03*
X0135000Y0117524D03*
X0135000Y0107524D03*
X0105000Y0107524D03*
X0105000Y0117524D03*
X0105000Y0127524D03*
X0105000Y0137524D03*
X0105000Y0147524D03*
X0105000Y0157524D03*
X0105000Y0167524D03*
X0105000Y0177524D03*
X0105000Y0187524D03*
X0095000Y0167524D03*
X0085000Y0167524D03*
X0085000Y0157524D03*
X0095000Y0157524D03*
X0095000Y0147524D03*
X0085000Y0147524D03*
X0085000Y0137524D03*
X0095000Y0137524D03*
X0095000Y0127524D03*
X0085000Y0127524D03*
X0085000Y0117524D03*
X0085000Y0107524D03*
X0095000Y0107524D03*
X0095000Y0117524D03*
X0075000Y0117524D03*
X0075000Y0107524D03*
X0065000Y0107524D03*
X0065000Y0117524D03*
X0065000Y0127524D03*
X0065000Y0137524D03*
X0065000Y0147524D03*
X0065000Y0157524D03*
X0065000Y0167524D03*
X0055000Y0167524D03*
X0045000Y0167524D03*
X0045000Y0157524D03*
X0055000Y0157524D03*
X0055000Y0147524D03*
X0045000Y0147524D03*
X0045000Y0137524D03*
X0055000Y0137524D03*
X0055000Y0127524D03*
X0045000Y0127524D03*
X0045000Y0117524D03*
X0045000Y0107524D03*
X0055000Y0107524D03*
X0055000Y0117524D03*
X0075000Y0127524D03*
X0075000Y0137524D03*
X0075000Y0147524D03*
X0075000Y0157524D03*
X0075000Y0167524D03*
X0035000Y0172524D03*
X0035000Y0182524D03*
X0035000Y0192524D03*
X0035000Y0162524D03*
X0035000Y0152524D03*
X0035000Y0142524D03*
X0035000Y0132524D03*
X0035000Y0122524D03*
X0035000Y0112524D03*
X0035000Y0102524D03*
X0205000Y0137524D03*
X0205000Y0147524D03*
X0205000Y0157524D03*
X0205000Y0167524D03*
X0205000Y0177524D03*
X0205000Y0187524D03*
X0205000Y0197524D03*
X0205000Y0207524D03*
X0205000Y0227524D03*
X0205000Y0237524D03*
X0205000Y0247524D03*
X0205000Y0257524D03*
X0205000Y0267524D03*
X0205000Y0277524D03*
X0227000Y0277524D03*
X0227000Y0267524D03*
X0227000Y0257524D03*
X0227000Y0247524D03*
X0227000Y0237524D03*
X0227000Y0227524D03*
X0227000Y0217524D03*
X0227000Y0207524D03*
X0227000Y0192524D03*
X0227000Y0182524D03*
X0227000Y0172524D03*
X0227000Y0162524D03*
X0227000Y0152524D03*
X0227000Y0142524D03*
X0227000Y0132524D03*
X0227000Y0122524D03*
X0227000Y0112524D03*
X0227000Y0102524D03*
X0247000Y0102524D03*
X0247000Y0112524D03*
X0247000Y0122524D03*
X0247000Y0132524D03*
X0247000Y0142524D03*
X0247000Y0152524D03*
X0247000Y0162524D03*
X0247000Y0172524D03*
X0247000Y0182524D03*
X0247000Y0192524D03*
X0257000Y0197524D03*
X0257000Y0207524D03*
X0257000Y0217524D03*
X0257000Y0227524D03*
X0257000Y0237524D03*
X0257000Y0247524D03*
X0257000Y0257524D03*
X0257000Y0267524D03*
X0257000Y0277524D03*
X0267000Y0277524D03*
X0277000Y0277524D03*
X0287000Y0277524D03*
X0287000Y0267524D03*
X0287000Y0257524D03*
X0277000Y0257524D03*
X0277000Y0267524D03*
X0267000Y0267524D03*
X0267000Y0257524D03*
X0267000Y0247524D03*
X0277000Y0247524D03*
X0287000Y0247524D03*
X0287000Y0237524D03*
X0277000Y0237524D03*
X0267000Y0237524D03*
X0267000Y0227524D03*
X0277000Y0227524D03*
X0287000Y0227524D03*
X0287000Y0217524D03*
X0277000Y0217524D03*
X0267000Y0217524D03*
X0267000Y0207524D03*
X0277000Y0207524D03*
X0287000Y0207524D03*
X0287000Y0197524D03*
X0277000Y0197524D03*
X0267000Y0197524D03*
X0267000Y0187524D03*
X0267000Y0177524D03*
X0257000Y0177524D03*
X0257000Y0187524D03*
X0257000Y0167524D03*
X0267000Y0167524D03*
X0277000Y0167524D03*
X0277000Y0177524D03*
X0277000Y0187524D03*
X0287000Y0187524D03*
X0287000Y0177524D03*
X0287000Y0167524D03*
X0287000Y0157524D03*
X0277000Y0157524D03*
X0267000Y0157524D03*
X0257000Y0157524D03*
X0257000Y0147524D03*
X0267000Y0147524D03*
X0277000Y0147524D03*
X0287000Y0147524D03*
X0287000Y0137524D03*
X0277000Y0137524D03*
X0267000Y0137524D03*
X0257000Y0137524D03*
X0257000Y0127524D03*
X0267000Y0127524D03*
X0277000Y0127524D03*
X0287000Y0127524D03*
X0287000Y0117524D03*
X0287000Y0107524D03*
X0277000Y0107524D03*
X0277000Y0117524D03*
X0267000Y0117524D03*
X0267000Y0107524D03*
X0257000Y0107524D03*
X0257000Y0117524D03*
X0297000Y0117524D03*
X0297000Y0107524D03*
X0307000Y0107524D03*
X0307000Y0117524D03*
X0307000Y0127524D03*
X0307000Y0137524D03*
X0307000Y0147524D03*
X0307000Y0157524D03*
X0307000Y0167524D03*
X0307000Y0177524D03*
X0307000Y0187524D03*
X0307000Y0197524D03*
X0307000Y0207524D03*
X0307000Y0217524D03*
X0307000Y0227524D03*
X0307000Y0237524D03*
X0307000Y0247524D03*
X0307000Y0257524D03*
X0307000Y0267524D03*
X0307000Y0277524D03*
X0297000Y0277524D03*
X0297000Y0267524D03*
X0297000Y0257524D03*
X0297000Y0247524D03*
X0297000Y0237524D03*
X0297000Y0227524D03*
X0297000Y0217524D03*
X0297000Y0207524D03*
X0297000Y0197524D03*
X0297000Y0187524D03*
X0297000Y0177524D03*
X0297000Y0167524D03*
X0297000Y0157524D03*
X0297000Y0147524D03*
X0297000Y0137524D03*
X0297000Y0127524D03*
X0317000Y0127524D03*
X0317000Y0137524D03*
X0317000Y0147524D03*
X0317000Y0157524D03*
X0317000Y0167524D03*
X0317000Y0177524D03*
X0317000Y0187524D03*
X0317000Y0197524D03*
X0317000Y0207524D03*
X0317000Y0217524D03*
X0317000Y0227524D03*
X0317000Y0237524D03*
X0317000Y0247524D03*
X0317000Y0257524D03*
X0317000Y0267524D03*
X0317000Y0277524D03*
X0327000Y0277524D03*
X0337000Y0277524D03*
X0347000Y0277524D03*
X0357000Y0277524D03*
X0357000Y0267524D03*
X0357000Y0257524D03*
X0347000Y0257524D03*
X0347000Y0267524D03*
X0337000Y0267524D03*
X0337000Y0257524D03*
X0327000Y0257524D03*
X0327000Y0267524D03*
X0327000Y0247524D03*
X0337000Y0247524D03*
X0347000Y0247524D03*
X0357000Y0247524D03*
X0357000Y0237524D03*
X0347000Y0237524D03*
X0337000Y0237524D03*
X0327000Y0237524D03*
X0327000Y0227524D03*
X0337000Y0227524D03*
X0347000Y0227524D03*
X0357000Y0227524D03*
X0357000Y0217524D03*
X0347000Y0217524D03*
X0337000Y0217524D03*
X0327000Y0217524D03*
X0327000Y0207524D03*
X0337000Y0207524D03*
X0347000Y0207524D03*
X0357000Y0207524D03*
X0357000Y0197524D03*
X0347000Y0197524D03*
X0337000Y0197524D03*
X0327000Y0197524D03*
X0327000Y0187524D03*
X0327000Y0177524D03*
X0337000Y0177524D03*
X0337000Y0187524D03*
X0347000Y0187524D03*
X0347000Y0177524D03*
X0357000Y0177524D03*
X0357000Y0187524D03*
X0367000Y0187524D03*
X0367000Y0177524D03*
X0377000Y0177524D03*
X0377000Y0187524D03*
X0377000Y0197524D03*
X0377000Y0207524D03*
X0377000Y0217524D03*
X0377000Y0227524D03*
X0377000Y0237524D03*
X0377000Y0247524D03*
X0377000Y0257524D03*
X0377000Y0267524D03*
X0377000Y0277524D03*
X0367000Y0277524D03*
X0367000Y0267524D03*
X0367000Y0257524D03*
X0367000Y0247524D03*
X0367000Y0237524D03*
X0367000Y0227524D03*
X0367000Y0217524D03*
X0367000Y0207524D03*
X0367000Y0197524D03*
X0387000Y0197524D03*
X0387000Y0207524D03*
X0387000Y0217524D03*
X0387000Y0227524D03*
X0387000Y0237524D03*
X0387000Y0247524D03*
X0387000Y0257524D03*
X0387000Y0267524D03*
X0387000Y0277524D03*
X0397000Y0277524D03*
X0397000Y0267524D03*
X0397000Y0257524D03*
X0397000Y0247524D03*
X0397000Y0237524D03*
X0397000Y0227524D03*
X0397000Y0207524D03*
X0397000Y0197524D03*
X0397000Y0187524D03*
X0397000Y0177524D03*
X0387000Y0177524D03*
X0387000Y0187524D03*
X0387000Y0167524D03*
X0377000Y0167524D03*
X0367000Y0167524D03*
X0367000Y0157524D03*
X0377000Y0157524D03*
X0387000Y0157524D03*
X0397000Y0157524D03*
X0397000Y0167524D03*
X0397000Y0147524D03*
X0387000Y0147524D03*
X0377000Y0147524D03*
X0367000Y0147524D03*
X0367000Y0137524D03*
X0377000Y0137524D03*
X0387000Y0137524D03*
X0387000Y0127524D03*
X0377000Y0127524D03*
X0367000Y0127524D03*
X0367000Y0117524D03*
X0367000Y0107524D03*
X0377000Y0107524D03*
X0377000Y0117524D03*
X0387000Y0117524D03*
X0387000Y0107524D03*
X0357000Y0107524D03*
X0357000Y0117524D03*
X0357000Y0127524D03*
X0357000Y0137524D03*
X0357000Y0147524D03*
X0357000Y0157524D03*
X0357000Y0167524D03*
X0347000Y0167524D03*
X0337000Y0167524D03*
X0327000Y0167524D03*
X0327000Y0157524D03*
X0337000Y0157524D03*
X0347000Y0157524D03*
X0347000Y0147524D03*
X0337000Y0147524D03*
X0327000Y0147524D03*
X0327000Y0137524D03*
X0337000Y0137524D03*
X0347000Y0137524D03*
X0347000Y0127524D03*
X0337000Y0127524D03*
X0327000Y0127524D03*
X0327000Y0117524D03*
X0327000Y0107524D03*
X0337000Y0107524D03*
X0337000Y0117524D03*
X0347000Y0117524D03*
X0347000Y0107524D03*
X0317000Y0107524D03*
X0317000Y0117524D03*
X0247000Y0207524D03*
X0247000Y0217524D03*
X0247000Y0227524D03*
X0247000Y0237524D03*
X0247000Y0247524D03*
X0247000Y0257524D03*
X0247000Y0267524D03*
X0247000Y0277524D03*
X0247000Y0339524D03*
X0247000Y0349524D03*
X0247000Y0359524D03*
X0247000Y0369524D03*
X0247000Y0379524D03*
X0247000Y0389524D03*
X0247000Y0399524D03*
X0247000Y0409524D03*
X0247000Y0419524D03*
X0247000Y0429524D03*
X0247000Y0444524D03*
X0247000Y0454524D03*
X0247000Y0464524D03*
X0247000Y0474524D03*
X0247000Y0484524D03*
X0247000Y0494524D03*
X0247000Y0504524D03*
X0247000Y0514524D03*
X0257000Y0514524D03*
X0257000Y0504524D03*
X0267000Y0504524D03*
X0267000Y0514524D03*
X0277000Y0514524D03*
X0277000Y0504524D03*
X0287000Y0504524D03*
X0287000Y0514524D03*
X0297000Y0514524D03*
X0297000Y0504524D03*
X0307000Y0504524D03*
X0307000Y0514524D03*
X0317000Y0514524D03*
X0317000Y0504524D03*
X0317000Y0494524D03*
X0307000Y0494524D03*
X0297000Y0494524D03*
X0297000Y0484524D03*
X0307000Y0484524D03*
X0317000Y0484524D03*
X0317000Y0474524D03*
X0307000Y0474524D03*
X0297000Y0474524D03*
X0297000Y0464524D03*
X0307000Y0464524D03*
X0317000Y0464524D03*
X0317000Y0454524D03*
X0307000Y0454524D03*
X0297000Y0454524D03*
X0297000Y0444524D03*
X0297000Y0434524D03*
X0307000Y0434524D03*
X0307000Y0444524D03*
X0317000Y0444524D03*
X0317000Y0434524D03*
X0317000Y0424524D03*
X0307000Y0424524D03*
X0297000Y0424524D03*
X0297000Y0414524D03*
X0307000Y0414524D03*
X0317000Y0414524D03*
X0317000Y0404524D03*
X0307000Y0404524D03*
X0297000Y0404524D03*
X0297000Y0394524D03*
X0307000Y0394524D03*
X0317000Y0394524D03*
X0317000Y0384524D03*
X0307000Y0384524D03*
X0297000Y0384524D03*
X0297000Y0374524D03*
X0297000Y0364524D03*
X0307000Y0364524D03*
X0307000Y0374524D03*
X0317000Y0374524D03*
X0317000Y0364524D03*
X0317000Y0354524D03*
X0307000Y0354524D03*
X0297000Y0354524D03*
X0297000Y0344524D03*
X0307000Y0344524D03*
X0317000Y0344524D03*
X0327000Y0344524D03*
X0327000Y0354524D03*
X0327000Y0364524D03*
X0327000Y0374524D03*
X0327000Y0384524D03*
X0327000Y0394524D03*
X0327000Y0404524D03*
X0327000Y0414524D03*
X0327000Y0424524D03*
X0327000Y0434524D03*
X0327000Y0444524D03*
X0327000Y0454524D03*
X0327000Y0464524D03*
X0327000Y0474524D03*
X0327000Y0484524D03*
X0327000Y0494524D03*
X0327000Y0504524D03*
X0327000Y0514524D03*
X0337000Y0514524D03*
X0337000Y0504524D03*
X0347000Y0504524D03*
X0347000Y0514524D03*
X0357000Y0514524D03*
X0357000Y0504524D03*
X0357000Y0494524D03*
X0347000Y0494524D03*
X0337000Y0494524D03*
X0337000Y0484524D03*
X0347000Y0484524D03*
X0357000Y0484524D03*
X0357000Y0474524D03*
X0347000Y0474524D03*
X0337000Y0474524D03*
X0337000Y0464524D03*
X0347000Y0464524D03*
X0357000Y0464524D03*
X0357000Y0454524D03*
X0347000Y0454524D03*
X0337000Y0454524D03*
X0337000Y0444524D03*
X0337000Y0434524D03*
X0347000Y0434524D03*
X0347000Y0444524D03*
X0357000Y0444524D03*
X0357000Y0434524D03*
X0357000Y0424524D03*
X0347000Y0424524D03*
X0337000Y0424524D03*
X0337000Y0414524D03*
X0347000Y0414524D03*
X0357000Y0414524D03*
X0357000Y0404524D03*
X0347000Y0404524D03*
X0337000Y0404524D03*
X0337000Y0394524D03*
X0347000Y0394524D03*
X0357000Y0394524D03*
X0357000Y0384524D03*
X0347000Y0384524D03*
X0337000Y0384524D03*
X0337000Y0374524D03*
X0337000Y0364524D03*
X0347000Y0364524D03*
X0347000Y0374524D03*
X0357000Y0374524D03*
X0357000Y0364524D03*
X0357000Y0354524D03*
X0347000Y0354524D03*
X0337000Y0354524D03*
X0337000Y0344524D03*
X0347000Y0344524D03*
X0357000Y0344524D03*
X0367000Y0344524D03*
X0367000Y0354524D03*
X0367000Y0364524D03*
X0367000Y0374524D03*
X0367000Y0384524D03*
X0367000Y0394524D03*
X0367000Y0404524D03*
X0367000Y0414524D03*
X0367000Y0424524D03*
X0367000Y0434524D03*
X0367000Y0444524D03*
X0367000Y0454524D03*
X0367000Y0464524D03*
X0367000Y0474524D03*
X0367000Y0484524D03*
X0367000Y0494524D03*
X0367000Y0504524D03*
X0367000Y0514524D03*
X0377000Y0514524D03*
X0377000Y0504524D03*
X0387000Y0504524D03*
X0387000Y0514524D03*
X0397000Y0514524D03*
X0397000Y0504524D03*
X0397000Y0494524D03*
X0387000Y0494524D03*
X0377000Y0494524D03*
X0377000Y0484524D03*
X0387000Y0484524D03*
X0397000Y0484524D03*
X0397000Y0474524D03*
X0387000Y0474524D03*
X0377000Y0474524D03*
X0377000Y0464524D03*
X0387000Y0464524D03*
X0397000Y0464524D03*
X0387000Y0454524D03*
X0377000Y0454524D03*
X0377000Y0444524D03*
X0377000Y0434524D03*
X0387000Y0434524D03*
X0387000Y0444524D03*
X0397000Y0444524D03*
X0397000Y0434524D03*
X0397000Y0424524D03*
X0387000Y0424524D03*
X0377000Y0424524D03*
X0377000Y0414524D03*
X0387000Y0414524D03*
X0397000Y0414524D03*
X0397000Y0404524D03*
X0387000Y0404524D03*
X0377000Y0404524D03*
X0377000Y0394524D03*
X0387000Y0394524D03*
X0397000Y0394524D03*
X0397000Y0384524D03*
X0387000Y0384524D03*
X0377000Y0384524D03*
X0377000Y0374524D03*
X0377000Y0364524D03*
X0387000Y0364524D03*
X0387000Y0374524D03*
X0387000Y0354524D03*
X0377000Y0354524D03*
X0377000Y0344524D03*
X0387000Y0344524D03*
X0417000Y0374524D03*
X0417000Y0384524D03*
X0417000Y0394524D03*
X0417000Y0404524D03*
X0417000Y0414524D03*
X0417000Y0424524D03*
X0417000Y0434524D03*
X0417000Y0444524D03*
X0417000Y0464524D03*
X0417000Y0474524D03*
X0417000Y0484524D03*
X0417000Y0494524D03*
X0417000Y0504524D03*
X0417000Y0514524D03*
X0287000Y0494524D03*
X0277000Y0494524D03*
X0267000Y0494524D03*
X0257000Y0494524D03*
X0257000Y0484524D03*
X0267000Y0484524D03*
X0277000Y0484524D03*
X0287000Y0484524D03*
X0287000Y0474524D03*
X0277000Y0474524D03*
X0267000Y0474524D03*
X0257000Y0474524D03*
X0257000Y0464524D03*
X0267000Y0464524D03*
X0277000Y0464524D03*
X0287000Y0464524D03*
X0287000Y0454524D03*
X0277000Y0454524D03*
X0267000Y0454524D03*
X0257000Y0454524D03*
X0257000Y0444524D03*
X0257000Y0434524D03*
X0267000Y0434524D03*
X0267000Y0444524D03*
X0277000Y0444524D03*
X0277000Y0434524D03*
X0287000Y0434524D03*
X0287000Y0444524D03*
X0287000Y0424524D03*
X0277000Y0424524D03*
X0267000Y0424524D03*
X0257000Y0424524D03*
X0257000Y0414524D03*
X0267000Y0414524D03*
X0277000Y0414524D03*
X0287000Y0414524D03*
X0287000Y0404524D03*
X0277000Y0404524D03*
X0267000Y0404524D03*
X0257000Y0404524D03*
X0257000Y0394524D03*
X0267000Y0394524D03*
X0277000Y0394524D03*
X0287000Y0394524D03*
X0287000Y0384524D03*
X0277000Y0384524D03*
X0267000Y0384524D03*
X0257000Y0384524D03*
X0257000Y0374524D03*
X0257000Y0364524D03*
X0267000Y0364524D03*
X0267000Y0374524D03*
X0277000Y0374524D03*
X0277000Y0364524D03*
X0287000Y0364524D03*
X0287000Y0374524D03*
X0287000Y0354524D03*
X0277000Y0354524D03*
X0267000Y0354524D03*
X0257000Y0354524D03*
X0257000Y0344524D03*
X0267000Y0344524D03*
X0277000Y0344524D03*
X0287000Y0344524D03*
X0227000Y0349524D03*
X0227000Y0359524D03*
X0227000Y0369524D03*
X0227000Y0379524D03*
X0227000Y0389524D03*
X0227000Y0399524D03*
X0227000Y0409524D03*
X0227000Y0419524D03*
X0227000Y0429524D03*
X0227000Y0444524D03*
X0227000Y0454524D03*
X0227000Y0464524D03*
X0227000Y0474524D03*
X0227000Y0484524D03*
X0227000Y0494524D03*
X0227000Y0504524D03*
X0227000Y0514524D03*
X0205000Y0514524D03*
X0205000Y0504524D03*
X0205000Y0494524D03*
X0205000Y0484524D03*
X0205000Y0474524D03*
X0205000Y0464524D03*
X0205000Y0444524D03*
X0205000Y0434524D03*
X0205000Y0424524D03*
X0205000Y0414524D03*
X0205000Y0404524D03*
X0205000Y0394524D03*
X0205000Y0384524D03*
X0205000Y0374524D03*
X0185000Y0384524D03*
X0185000Y0394524D03*
X0185000Y0404524D03*
X0185000Y0414524D03*
X0185000Y0424524D03*
X0185000Y0434524D03*
X0185000Y0444524D03*
X0175000Y0444524D03*
X0175000Y0434524D03*
X0165000Y0434524D03*
X0165000Y0444524D03*
X0165000Y0454524D03*
X0165000Y0464524D03*
X0165000Y0474524D03*
X0165000Y0484524D03*
X0165000Y0494524D03*
X0165000Y0504524D03*
X0165000Y0514524D03*
X0155000Y0514524D03*
X0155000Y0504524D03*
X0155000Y0494524D03*
X0155000Y0484524D03*
X0155000Y0474524D03*
X0155000Y0464524D03*
X0155000Y0454524D03*
X0155000Y0444524D03*
X0155000Y0434524D03*
X0155000Y0424524D03*
X0165000Y0424524D03*
X0175000Y0424524D03*
X0175000Y0414524D03*
X0165000Y0414524D03*
X0155000Y0414524D03*
X0155000Y0404524D03*
X0165000Y0404524D03*
X0175000Y0404524D03*
X0175000Y0394524D03*
X0165000Y0394524D03*
X0155000Y0394524D03*
X0155000Y0384524D03*
X0165000Y0384524D03*
X0175000Y0384524D03*
X0175000Y0374524D03*
X0175000Y0364524D03*
X0165000Y0364524D03*
X0165000Y0374524D03*
X0155000Y0374524D03*
X0155000Y0364524D03*
X0155000Y0354524D03*
X0165000Y0354524D03*
X0175000Y0354524D03*
X0175000Y0344524D03*
X0165000Y0344524D03*
X0155000Y0344524D03*
X0145000Y0344524D03*
X0145000Y0354524D03*
X0145000Y0364524D03*
X0145000Y0374524D03*
X0145000Y0384524D03*
X0145000Y0394524D03*
X0145000Y0404524D03*
X0145000Y0414524D03*
X0145000Y0424524D03*
X0145000Y0434524D03*
X0145000Y0444524D03*
X0145000Y0454524D03*
X0145000Y0464524D03*
X0145000Y0474524D03*
X0145000Y0484524D03*
X0145000Y0494524D03*
X0145000Y0504524D03*
X0145000Y0514524D03*
X0135000Y0514524D03*
X0135000Y0504524D03*
X0125000Y0504524D03*
X0125000Y0514524D03*
X0115000Y0514524D03*
X0115000Y0504524D03*
X0115000Y0494524D03*
X0125000Y0494524D03*
X0135000Y0494524D03*
X0135000Y0484524D03*
X0125000Y0484524D03*
X0115000Y0484524D03*
X0115000Y0474524D03*
X0125000Y0474524D03*
X0135000Y0474524D03*
X0135000Y0464524D03*
X0125000Y0464524D03*
X0115000Y0464524D03*
X0115000Y0454524D03*
X0125000Y0454524D03*
X0135000Y0454524D03*
X0135000Y0444524D03*
X0135000Y0434524D03*
X0125000Y0434524D03*
X0125000Y0444524D03*
X0115000Y0444524D03*
X0115000Y0434524D03*
X0115000Y0424524D03*
X0125000Y0424524D03*
X0135000Y0424524D03*
X0135000Y0414524D03*
X0125000Y0414524D03*
X0115000Y0414524D03*
X0115000Y0404524D03*
X0125000Y0404524D03*
X0135000Y0404524D03*
X0135000Y0394524D03*
X0125000Y0394524D03*
X0115000Y0394524D03*
X0115000Y0384524D03*
X0125000Y0384524D03*
X0135000Y0384524D03*
X0135000Y0374524D03*
X0135000Y0364524D03*
X0125000Y0364524D03*
X0125000Y0374524D03*
X0115000Y0374524D03*
X0115000Y0364524D03*
X0115000Y0354524D03*
X0125000Y0354524D03*
X0135000Y0354524D03*
X0135000Y0344524D03*
X0125000Y0344524D03*
X0115000Y0344524D03*
X0105000Y0344524D03*
X0105000Y0354524D03*
X0105000Y0364524D03*
X0105000Y0374524D03*
X0105000Y0384524D03*
X0105000Y0394524D03*
X0105000Y0404524D03*
X0105000Y0414524D03*
X0105000Y0424524D03*
X0105000Y0434524D03*
X0105000Y0444524D03*
X0105000Y0454524D03*
X0105000Y0464524D03*
X0105000Y0474524D03*
X0105000Y0484524D03*
X0105000Y0494524D03*
X0105000Y0504524D03*
X0105000Y0514524D03*
X0095000Y0514524D03*
X0095000Y0504524D03*
X0085000Y0504524D03*
X0085000Y0514524D03*
X0075000Y0514524D03*
X0075000Y0504524D03*
X0065000Y0504524D03*
X0065000Y0514524D03*
X0055000Y0514524D03*
X0055000Y0504524D03*
X0045000Y0504524D03*
X0045000Y0514524D03*
X0035000Y0514524D03*
X0035000Y0504524D03*
X0035000Y0494524D03*
X0035000Y0484524D03*
X0035000Y0474524D03*
X0035000Y0464524D03*
X0035000Y0454524D03*
X0035000Y0444524D03*
X0035000Y0429524D03*
X0035000Y0419524D03*
X0035000Y0409524D03*
X0035000Y0399524D03*
X0035000Y0389524D03*
X0035000Y0379524D03*
X0035000Y0369524D03*
X0035000Y0359524D03*
X0035000Y0349524D03*
X0035000Y0339524D03*
X0045000Y0344524D03*
X0045000Y0354524D03*
X0045000Y0364524D03*
X0045000Y0374524D03*
X0045000Y0384524D03*
X0045000Y0394524D03*
X0045000Y0404524D03*
X0045000Y0414524D03*
X0045000Y0424524D03*
X0045000Y0434524D03*
X0045000Y0444524D03*
X0045000Y0454524D03*
X0045000Y0464524D03*
X0045000Y0474524D03*
X0045000Y0484524D03*
X0045000Y0494524D03*
X0055000Y0494524D03*
X0065000Y0494524D03*
X0075000Y0494524D03*
X0075000Y0484524D03*
X0065000Y0484524D03*
X0055000Y0484524D03*
X0055000Y0474524D03*
X0065000Y0474524D03*
X0075000Y0474524D03*
X0075000Y0464524D03*
X0065000Y0464524D03*
X0055000Y0464524D03*
X0055000Y0454524D03*
X0065000Y0454524D03*
X0075000Y0454524D03*
X0075000Y0444524D03*
X0075000Y0434524D03*
X0065000Y0434524D03*
X0065000Y0444524D03*
X0055000Y0444524D03*
X0055000Y0434524D03*
X0055000Y0424524D03*
X0065000Y0424524D03*
X0075000Y0424524D03*
X0075000Y0414524D03*
X0065000Y0414524D03*
X0055000Y0414524D03*
X0055000Y0404524D03*
X0065000Y0404524D03*
X0075000Y0404524D03*
X0075000Y0394524D03*
X0065000Y0394524D03*
X0055000Y0394524D03*
X0055000Y0384524D03*
X0065000Y0384524D03*
X0075000Y0384524D03*
X0075000Y0374524D03*
X0075000Y0364524D03*
X0065000Y0364524D03*
X0065000Y0374524D03*
X0055000Y0374524D03*
X0055000Y0364524D03*
X0055000Y0354524D03*
X0065000Y0354524D03*
X0075000Y0354524D03*
X0075000Y0344524D03*
X0065000Y0344524D03*
X0055000Y0344524D03*
X0085000Y0344524D03*
X0085000Y0354524D03*
X0085000Y0364524D03*
X0085000Y0374524D03*
X0085000Y0384524D03*
X0085000Y0394524D03*
X0085000Y0404524D03*
X0085000Y0414524D03*
X0085000Y0424524D03*
X0085000Y0434524D03*
X0085000Y0444524D03*
X0085000Y0454524D03*
X0085000Y0464524D03*
X0085000Y0474524D03*
X0085000Y0484524D03*
X0085000Y0494524D03*
X0095000Y0494524D03*
X0095000Y0484524D03*
X0095000Y0474524D03*
X0095000Y0464524D03*
X0095000Y0454524D03*
X0095000Y0444524D03*
X0095000Y0434524D03*
X0095000Y0424524D03*
X0095000Y0414524D03*
X0095000Y0404524D03*
X0095000Y0394524D03*
X0095000Y0384524D03*
X0095000Y0374524D03*
X0095000Y0364524D03*
X0095000Y0354524D03*
X0095000Y0344524D03*
X0015000Y0349524D03*
X0015000Y0359524D03*
X0015000Y0369524D03*
X0015000Y0379524D03*
X0015000Y0389524D03*
X0015000Y0399524D03*
X0015000Y0409524D03*
X0015000Y0419524D03*
X0015000Y0429524D03*
X0015000Y0444524D03*
X0015000Y0454524D03*
X0015000Y0464524D03*
X0015000Y0474524D03*
X0015000Y0484524D03*
X0015000Y0494524D03*
X0015000Y0504524D03*
X0015000Y0514524D03*
X0015000Y0339524D03*
X0175000Y0454524D03*
X0175000Y0464524D03*
X0175000Y0474524D03*
X0175000Y0484524D03*
X0175000Y0494524D03*
X0175000Y0504524D03*
X0175000Y0514524D03*
X0185000Y0514524D03*
X0185000Y0504524D03*
X0185000Y0494524D03*
X0185000Y0484524D03*
X0185000Y0474524D03*
X0185000Y0464524D03*
X0227000Y0339524D03*
X0417000Y0277524D03*
X0417000Y0267524D03*
X0417000Y0257524D03*
X0417000Y0247524D03*
X0417000Y0237524D03*
X0417000Y0227524D03*
X0417000Y0207524D03*
X0417000Y0197524D03*
X0417000Y0187524D03*
X0417000Y0177524D03*
X0417000Y0167524D03*
X0417000Y0157524D03*
X0417000Y0147524D03*
X0417000Y0137524D03*
D11*
X0417000Y0116854D03*
X0413260Y0108587D03*
X0420740Y0108587D03*
X0405740Y0108587D03*
X0398260Y0108587D03*
X0402000Y0116854D03*
X0398260Y0345587D03*
X0405740Y0345587D03*
X0413260Y0345587D03*
X0420740Y0345587D03*
X0417000Y0353854D03*
X0402000Y0353854D03*
X0208740Y0345587D03*
X0201260Y0345587D03*
X0193740Y0345587D03*
X0186260Y0345587D03*
X0190000Y0353854D03*
X0205000Y0353854D03*
X0205000Y0116854D03*
X0201260Y0108587D03*
X0208740Y0108587D03*
X0193740Y0108587D03*
X0186260Y0108587D03*
X0190000Y0116854D03*
D12*
X0186654Y0122524D03*
X0193346Y0122524D03*
X0201654Y0122524D03*
X0208346Y0122524D03*
X0208346Y0097524D03*
X0201654Y0097524D03*
X0193346Y0097524D03*
X0186654Y0097524D03*
X0186654Y0334524D03*
X0193346Y0334524D03*
X0201654Y0334524D03*
X0208346Y0334524D03*
X0208346Y0359524D03*
X0201654Y0359524D03*
X0193346Y0359524D03*
X0186654Y0359524D03*
X0398654Y0359524D03*
X0405346Y0359524D03*
X0413654Y0359524D03*
X0420346Y0359524D03*
X0420346Y0334524D03*
X0413654Y0334524D03*
X0405346Y0334524D03*
X0398654Y0334524D03*
X0398654Y0122524D03*
X0405346Y0122524D03*
X0413654Y0122524D03*
X0420346Y0122524D03*
X0420346Y0097524D03*
X0413654Y0097524D03*
X0405346Y0097524D03*
X0398654Y0097524D03*
D13*
X0422000Y0082524D03*
X0232000Y0287524D03*
X0210000Y0319524D03*
X0232000Y0524524D03*
X0422000Y0319524D03*
X0210000Y0082524D03*
X0020000Y0287524D03*
X0020000Y0524524D03*
D14*
X0053976Y0068055D03*
X0076024Y0068055D03*
X0083976Y0068055D03*
X0106024Y0068055D03*
X0113976Y0068055D03*
X0136024Y0068055D03*
X0143976Y0068055D03*
X0166024Y0068055D03*
X0265976Y0068055D03*
X0288024Y0068055D03*
X0295976Y0068055D03*
X0318024Y0068055D03*
X0325976Y0068055D03*
X0348024Y0068055D03*
X0355976Y0068055D03*
X0378024Y0068055D03*
X0378024Y0305055D03*
X0355976Y0305055D03*
X0348024Y0305055D03*
X0325976Y0305055D03*
X0318024Y0305055D03*
X0295976Y0305055D03*
X0288024Y0305055D03*
X0265976Y0305055D03*
X0166024Y0305055D03*
X0143976Y0305055D03*
X0136024Y0305055D03*
X0113976Y0305055D03*
X0106024Y0305055D03*
X0083976Y0305055D03*
X0076024Y0305055D03*
X0053976Y0305055D03*
D15*
X0059094Y0319524D03*
X0063031Y0319524D03*
X0066969Y0319524D03*
X0070906Y0319524D03*
X0089094Y0319524D03*
X0093031Y0319524D03*
X0096969Y0319524D03*
X0100906Y0319524D03*
X0119094Y0319524D03*
X0123031Y0319524D03*
X0126969Y0319524D03*
X0130906Y0319524D03*
X0149094Y0319524D03*
X0153031Y0319524D03*
X0156969Y0319524D03*
X0160906Y0319524D03*
X0271094Y0319524D03*
X0275031Y0319524D03*
X0278969Y0319524D03*
X0282906Y0319524D03*
X0301094Y0319524D03*
X0305031Y0319524D03*
X0308969Y0319524D03*
X0312906Y0319524D03*
X0331094Y0319524D03*
X0335031Y0319524D03*
X0338969Y0319524D03*
X0342906Y0319524D03*
X0361094Y0319524D03*
X0365031Y0319524D03*
X0368969Y0319524D03*
X0372906Y0319524D03*
X0372906Y0082524D03*
X0368969Y0082524D03*
X0365031Y0082524D03*
X0361094Y0082524D03*
X0342906Y0082524D03*
X0338969Y0082524D03*
X0335031Y0082524D03*
X0331094Y0082524D03*
X0312906Y0082524D03*
X0308969Y0082524D03*
X0305031Y0082524D03*
X0301094Y0082524D03*
X0282906Y0082524D03*
X0278969Y0082524D03*
X0275031Y0082524D03*
X0271094Y0082524D03*
X0160906Y0082524D03*
X0156969Y0082524D03*
X0153031Y0082524D03*
X0149094Y0082524D03*
X0130906Y0082524D03*
X0126969Y0082524D03*
X0123031Y0082524D03*
X0119094Y0082524D03*
X0100906Y0082524D03*
X0096969Y0082524D03*
X0093031Y0082524D03*
X0089094Y0082524D03*
X0070906Y0082524D03*
X0066969Y0082524D03*
X0063031Y0082524D03*
X0059094Y0082524D03*
M02*
