%
M48
M72
T01C0.0150
T02C0.0400
%
T01
X5000Y8252
X7250Y9002
X8000Y8252
X10250Y9002
X11000Y8252
X13250Y9002
X14000Y8252
X16250Y9002
X19750Y10252
X19750Y11702
X26200Y8252
X28450Y9002
X29200Y8252
X31450Y9002
X32200Y8252
X34450Y9002
X35200Y8252
X37450Y9002
X40950Y10252
X40950Y11702
X35200Y31952
X34450Y32702
X32200Y31952
X31450Y32702
X29200Y31952
X28450Y32702
X26200Y31952
X19750Y33952
X19750Y35402
X16250Y32702
X14000Y31952
X13250Y32702
X11000Y31952
X10250Y32702
X8000Y31952
X7250Y32702
X5000Y31952
X37450Y32702
X40950Y33952
X40950Y35402
T02
X41700Y37452
X41700Y38452
X41700Y39452
X41700Y40452
X41700Y41452
X41700Y42452
X41700Y43452
X41700Y44452
X41700Y46452
X41700Y47452
X41700Y48452
X41700Y49452
X41700Y50452
X41700Y51452
X39700Y51452
X39700Y50452
X39700Y49452
X39700Y48452
X39700Y47452
X39700Y46452
X38700Y46452
X38700Y45452
X38700Y44452
X38700Y43452
X38700Y42452
X38700Y41452
X38700Y40452
X38700Y39452
X38700Y38452
X38700Y37452
X38700Y36452
X38700Y35452
X38700Y34452
X37700Y34452
X36700Y34452
X36700Y35452
X37700Y35452
X37700Y36452
X37700Y37452
X36700Y37452
X36700Y36452
X35700Y36452
X35700Y37452
X34700Y37452
X34700Y36452
X34700Y35452
X34700Y34452
X33700Y34452
X32700Y34452
X32700Y35452
X33700Y35452
X33700Y36452
X33700Y37452
X32700Y37452
X32700Y36452
X31700Y36452
X31700Y37452
X30700Y37452
X30700Y36452
X30700Y35452
X30700Y34452
X29700Y34452
X29700Y35452
X29700Y36452
X29700Y37452
X29700Y38452
X30700Y38452
X31700Y38452
X31700Y39452
X30700Y39452
X29700Y39452
X29700Y40452
X30700Y40452
X31700Y40452
X31700Y41452
X30700Y41452
X29700Y41452
X29700Y42452
X30700Y42452
X31700Y42452
X31700Y43452
X31700Y44452
X30700Y44452
X30700Y43452
X29700Y43452
X29700Y44452
X29700Y45452
X30700Y45452
X31700Y45452
X31700Y46452
X30700Y46452
X29700Y46452
X29700Y47452
X30700Y47452
X31700Y47452
X31700Y48452
X30700Y48452
X29700Y48452
X29700Y49452
X30700Y49452
X31700Y49452
X31700Y50452
X31700Y51452
X30700Y51452
X30700Y50452
X29700Y50452
X29700Y51452
X28700Y51452
X28700Y50452
X28700Y49452
X28700Y48452
X28700Y47452
X28700Y46452
X28700Y45452
X28700Y44452
X28700Y43452
X28700Y42452
X28700Y41452
X28700Y40452
X28700Y39452
X28700Y38452
X28700Y37452
X28700Y36452
X28700Y35452
X28700Y34452
X27700Y34452
X26700Y34452
X25700Y34452
X25700Y35452
X26700Y35452
X27700Y35452
X27700Y36452
X27700Y37452
X26700Y37452
X26700Y36452
X25700Y36452
X25700Y37452
X25700Y38452
X26700Y38452
X27700Y38452
X27700Y39452
X26700Y39452
X25700Y39452
X25700Y40452
X26700Y40452
X27700Y40452
X27700Y41452
X26700Y41452
X25700Y41452
X25700Y42452
X26700Y42452
X27700Y42452
X27700Y43452
X27700Y44452
X26700Y44452
X26700Y43452
X25700Y43452
X25700Y44452
X25700Y45452
X26700Y45452
X27700Y45452
X27700Y46452
X26700Y46452
X25700Y46452
X25700Y47452
X26700Y47452
X27700Y47452
X27700Y48452
X26700Y48452
X25700Y48452
X25700Y49452
X26700Y49452
X27700Y49452
X27700Y50452
X27700Y51452
X26700Y51452
X26700Y50452
X25700Y50452
X25700Y51452
X24700Y51452
X24700Y50452
X24700Y49452
X24700Y48452
X24700Y47452
X24700Y46452
X24700Y45452
X24700Y44452
X24700Y42952
X24700Y41952
X24700Y40952
X24700Y39952
X24700Y38952
X24700Y37952
X24700Y36952
X24700Y35952
X24700Y34952
X24700Y33952
X22700Y33952
X22700Y34952
X22700Y35952
X22700Y36952
X22700Y37952
X22700Y38952
X22700Y39952
X22700Y40952
X22700Y41952
X22700Y42952
X22700Y44452
X22700Y45452
X22700Y46452
X22700Y47452
X22700Y48452
X22700Y49452
X22700Y50452
X22700Y51452
X20500Y51452
X20500Y50452
X20500Y49452
X20500Y48452
X20500Y47452
X20500Y46452
X20500Y44452
X20500Y43452
X20500Y42452
X20500Y41452
X20500Y40452
X20500Y39452
X20500Y38452
X20500Y37452
X18500Y38452
X17500Y38452
X17500Y37452
X17500Y36452
X17500Y35452
X17500Y34452
X16500Y34452
X15500Y34452
X15500Y35452
X16500Y35452
X16500Y36452
X16500Y37452
X15500Y37452
X15500Y36452
X14500Y36452
X14500Y37452
X13500Y37452
X13500Y36452
X13500Y35452
X13500Y34452
X12500Y34452
X11500Y34452
X11500Y35452
X12500Y35452
X12500Y36452
X12500Y37452
X11500Y37452
X11500Y36452
X10500Y36452
X10500Y37452
X9500Y37452
X9500Y36452
X9500Y35452
X9500Y34452
X8500Y34452
X8500Y35452
X8500Y36452
X8500Y37452
X8500Y38452
X9500Y38452
X10500Y38452
X10500Y39452
X9500Y39452
X8500Y39452
X8500Y40452
X9500Y40452
X10500Y40452
X10500Y41452
X9500Y41452
X8500Y41452
X8500Y42452
X9500Y42452
X10500Y42452
X10500Y43452
X10500Y44452
X9500Y44452
X9500Y43452
X8500Y43452
X8500Y44452
X8500Y45452
X9500Y45452
X10500Y45452
X10500Y46452
X9500Y46452
X8500Y46452
X8500Y47452
X9500Y47452
X10500Y47452
X10500Y48452
X9500Y48452
X8500Y48452
X8500Y49452
X9500Y49452
X10500Y49452
X10500Y50452
X10500Y51452
X9500Y51452
X9500Y50452
X8500Y50452
X8500Y51452
X7500Y51452
X7500Y50452
X7500Y49452
X7500Y48452
X7500Y47452
X7500Y46452
X7500Y45452
X7500Y44452
X7500Y43452
X7500Y42452
X7500Y41452
X7500Y40452
X7500Y39452
X7500Y38452
X7500Y37452
X7500Y36452
X7500Y35452
X7500Y34452
X6500Y34452
X5500Y34452
X4500Y34452
X4500Y35452
X5500Y35452
X6500Y35452
X6500Y36452
X6500Y37452
X5500Y37452
X5500Y36452
X4500Y36452
X4500Y37452
X4500Y38452
X5500Y38452
X6500Y38452
X6500Y39452
X5500Y39452
X4500Y39452
X4500Y40452
X5500Y40452
X6500Y40452
X6500Y41452
X5500Y41452
X4500Y41452
X4500Y42452
X5500Y42452
X6500Y42452
X6500Y43452
X6500Y44452
X5500Y44452
X5500Y43452
X4500Y43452
X4500Y44452
X4500Y45452
X5500Y45452
X6500Y45452
X6500Y46452
X5500Y46452
X4500Y46452
X4500Y47452
X5500Y47452
X6500Y47452
X6500Y48452
X5500Y48452
X4500Y48452
X4500Y49452
X5500Y49452
X6500Y49452
X6500Y50452
X6500Y51452
X5500Y51452
X5500Y50452
X4500Y50452
X4500Y51452
X3500Y51452
X3500Y50452
X3500Y49452
X3500Y48452
X3500Y47452
X3500Y46452
X3500Y45452
X3500Y44452
X3500Y42952
X3500Y41952
X3500Y40952
X3500Y39952
X3500Y38952
X3500Y37952
X3500Y36952
X3500Y35952
X3500Y34952
X3500Y33952
X1500Y33952
X1500Y34952
X1500Y35952
X1500Y36952
X1500Y37952
X1500Y38952
X1500Y39952
X1500Y40952
X1500Y41952
X1500Y42952
X1500Y44452
X1500Y45452
X1500Y46452
X1500Y47452
X1500Y48452
X1500Y49452
X1500Y50452
X1500Y51452
X11500Y51452
X11500Y50452
X11500Y49452
X11500Y48452
X11500Y47452
X11500Y46452
X11500Y45452
X11500Y44452
X11500Y43452
X11500Y42452
X11500Y41452
X11500Y40452
X11500Y39452
X11500Y38452
X12500Y38452
X13500Y38452
X14500Y38452
X14500Y39452
X13500Y39452
X12500Y39452
X12500Y40452
X13500Y40452
X14500Y40452
X14500Y41452
X13500Y41452
X12500Y41452
X12500Y42452
X13500Y42452
X14500Y42452
X14500Y43452
X14500Y44452
X13500Y44452
X13500Y43452
X12500Y43452
X12500Y44452
X12500Y45452
X13500Y45452
X14500Y45452
X14500Y46452
X13500Y46452
X12500Y46452
X12500Y47452
X13500Y47452
X14500Y47452
X14500Y48452
X13500Y48452
X12500Y48452
X12500Y49452
X13500Y49452
X14500Y49452
X14500Y50452
X14500Y51452
X13500Y51452
X13500Y50452
X12500Y50452
X12500Y51452
X15500Y51452
X15500Y50452
X15500Y49452
X15500Y48452
X15500Y47452
X15500Y46452
X15500Y45452
X15500Y44452
X15500Y43452
X15500Y42452
X15500Y41452
X15500Y40452
X15500Y39452
X15500Y38452
X16500Y38452
X16500Y39452
X17500Y39452
X18500Y39452
X18500Y40452
X17500Y40452
X16500Y40452
X16500Y41452
X17500Y41452
X18500Y41452
X18500Y42452
X17500Y42452
X16500Y42452
X16500Y43452
X16500Y44452
X17500Y44452
X17500Y43452
X18500Y43452
X18500Y44452
X17500Y45452
X16500Y45452
X16500Y46452
X17500Y46452
X18500Y46452
X18500Y47452
X17500Y47452
X16500Y47452
X16500Y48452
X17500Y48452
X18500Y48452
X18500Y49452
X17500Y49452
X16500Y49452
X16500Y50452
X16500Y51452
X17500Y51452
X17500Y50452
X18500Y50452
X18500Y51452
X14500Y35452
X14500Y34452
X10500Y34452
X10500Y35452
X10500Y27752
X10500Y26752
X10500Y25752
X10500Y24752
X10500Y23752
X10500Y22752
X10500Y21752
X10500Y20752
X10500Y19752
X10500Y18752
X10500Y17752
X10500Y16752
X10500Y15752
X10500Y14752
X10500Y13752
X10500Y12752
X10500Y11752
X10500Y10752
X9500Y10752
X9500Y11752
X8500Y11752
X8500Y10752
X7500Y10752
X7500Y11752
X6500Y11752
X6500Y10752
X5500Y10752
X5500Y11752
X4500Y11752
X4500Y10752
X3500Y10252
X3500Y11252
X3500Y12252
X3500Y13252
X3500Y14252
X3500Y15252
X3500Y16252
X3500Y17252
X3500Y18252
X3500Y19252
X4500Y18752
X4500Y17752
X4500Y16752
X4500Y15752
X4500Y14752
X4500Y13752
X4500Y12752
X5500Y12752
X6500Y12752
X7500Y12752
X7500Y13752
X6500Y13752
X5500Y13752
X5500Y14752
X6500Y14752
X7500Y14752
X7500Y15752
X6500Y15752
X5500Y15752
X5500Y16752
X6500Y16752
X7500Y16752
X7500Y17752
X7500Y18752
X6500Y18752
X6500Y17752
X5500Y17752
X5500Y18752
X5500Y19752
X4500Y19752
X4500Y20752
X5500Y20752
X6500Y20752
X6500Y19752
X7500Y19752
X7500Y20752
X7500Y21752
X6500Y21752
X5500Y21752
X4500Y21752
X4500Y22752
X5500Y22752
X6500Y22752
X7500Y22752
X7500Y23752
X6500Y23752
X5500Y23752
X4500Y23752
X4500Y24752
X5500Y24752
X6500Y24752
X7500Y24752
X7500Y25752
X7500Y26752
X6500Y26752
X6500Y25752
X5500Y25752
X5500Y26752
X4500Y26752
X4500Y25752
X3500Y25752
X3500Y26752
X3500Y27752
X4500Y27752
X5500Y27752
X6500Y27752
X7500Y27752
X8500Y27752
X8500Y26752
X8500Y25752
X8500Y24752
X8500Y23752
X8500Y22752
X8500Y21752
X8500Y20752
X8500Y19752
X8500Y18752
X8500Y17752
X8500Y16752
X8500Y15752
X8500Y14752
X8500Y13752
X8500Y12752
X9500Y12752
X9500Y13752
X9500Y14752
X9500Y15752
X9500Y16752
X9500Y17752
X9500Y18752
X9500Y19752
X9500Y20752
X9500Y21752
X9500Y22752
X9500Y23752
X9500Y24752
X9500Y25752
X9500Y26752
X9500Y27752
X11500Y27752
X11500Y26752
X11500Y25752
X11500Y24752
X11500Y23752
X11500Y22752
X11500Y21752
X11500Y20752
X11500Y19752
X11500Y18752
X11500Y17752
X11500Y16752
X11500Y15752
X11500Y14752
X11500Y13752
X11500Y12752
X11500Y11752
X11500Y10752
X12500Y10752
X12500Y11752
X13500Y11752
X13500Y10752
X14500Y10752
X14500Y11752
X14500Y12752
X13500Y12752
X12500Y12752
X12500Y13752
X13500Y13752
X14500Y13752
X14500Y14752
X13500Y14752
X12500Y14752
X12500Y15752
X13500Y15752
X14500Y15752
X14500Y16752
X13500Y16752
X12500Y16752
X12500Y17752
X12500Y18752
X13500Y18752
X13500Y17752
X14500Y17752
X14500Y18752
X14500Y19752
X13500Y19752
X12500Y19752
X12500Y20752
X13500Y20752
X14500Y20752
X14500Y21752
X13500Y21752
X12500Y21752
X12500Y22752
X13500Y22752
X14500Y22752
X14500Y23752
X13500Y23752
X12500Y23752
X12500Y24752
X13500Y24752
X14500Y24752
X14500Y25752
X14500Y26752
X13500Y26752
X13500Y25752
X12500Y25752
X12500Y26752
X12500Y27752
X13500Y27752
X14500Y27752
X15500Y27752
X15500Y26752
X15500Y25752
X15500Y24752
X15500Y23752
X15500Y22752
X15500Y21752
X15500Y20752
X15500Y19752
X15500Y18752
X15500Y17752
X15500Y16752
X15500Y15752
X15500Y14752
X15500Y13752
X15500Y12752
X15500Y11752
X15500Y10752
X16500Y10752
X16500Y11752
X17500Y11752
X17500Y10752
X17500Y12752
X16500Y12752
X16500Y13752
X17500Y13752
X17500Y14752
X16500Y14752
X16500Y15752
X17500Y15752
X18500Y15752
X18500Y14752
X18500Y16752
X17500Y16752
X16500Y16752
X16500Y17752
X16500Y18752
X17500Y18752
X17500Y17752
X18500Y17752
X18500Y18752
X18500Y19752
X17500Y19752
X16500Y19752
X16500Y20752
X17500Y20752
X18500Y20752
X17500Y21752
X16500Y21752
X16500Y22752
X17500Y22752
X18500Y22752
X18500Y23752
X17500Y23752
X16500Y23752
X16500Y24752
X17500Y24752
X18500Y24752
X18500Y25752
X18500Y26752
X17500Y26752
X17500Y25752
X16500Y25752
X16500Y26752
X16500Y27752
X17500Y27752
X18500Y27752
X20500Y27752
X20500Y26752
X20500Y25752
X20500Y24752
X20500Y23752
X20500Y22752
X20500Y20752
X20500Y19752
X20500Y18752
X20500Y17752
X20500Y16752
X20500Y15752
X20500Y14752
X20500Y13752
X22700Y13252
X22700Y12252
X22700Y11252
X22700Y10252
X24700Y10252
X24700Y11252
X24700Y12252
X24700Y13252
X24700Y14252
X24700Y15252
X24700Y16252
X24700Y17252
X24700Y18252
X24700Y19252
X25700Y18752
X25700Y17752
X25700Y16752
X25700Y15752
X25700Y14752
X25700Y13752
X25700Y12752
X25700Y11752
X25700Y10752
X26700Y10752
X26700Y11752
X27700Y11752
X27700Y10752
X28700Y10752
X28700Y11752
X28700Y12752
X27700Y12752
X26700Y12752
X26700Y13752
X27700Y13752
X28700Y13752
X28700Y14752
X27700Y14752
X26700Y14752
X26700Y15752
X27700Y15752
X28700Y15752
X28700Y16752
X27700Y16752
X26700Y16752
X26700Y17752
X26700Y18752
X27700Y18752
X27700Y17752
X28700Y17752
X28700Y18752
X28700Y19752
X27700Y19752
X26700Y19752
X25700Y19752
X25700Y20752
X26700Y20752
X27700Y20752
X28700Y20752
X28700Y21752
X27700Y21752
X26700Y21752
X25700Y21752
X25700Y22752
X26700Y22752
X27700Y22752
X28700Y22752
X28700Y23752
X27700Y23752
X26700Y23752
X25700Y23752
X25700Y24752
X26700Y24752
X27700Y24752
X28700Y24752
X28700Y25752
X28700Y26752
X27700Y26752
X27700Y25752
X26700Y25752
X26700Y26752
X25700Y26752
X25700Y25752
X24700Y25752
X24700Y26752
X24700Y27752
X25700Y27752
X26700Y27752
X27700Y27752
X28700Y27752
X29700Y27752
X29700Y26752
X29700Y25752
X29700Y24752
X29700Y23752
X29700Y22752
X29700Y21752
X29700Y20752
X29700Y19752
X29700Y18752
X29700Y17752
X29700Y16752
X29700Y15752
X29700Y14752
X29700Y13752
X29700Y12752
X29700Y11752
X29700Y10752
X30700Y10752
X30700Y11752
X31700Y11752
X31700Y10752
X32700Y10752
X32700Y11752
X33700Y11752
X33700Y10752
X34700Y10752
X34700Y11752
X35700Y11752
X35700Y10752
X36700Y10752
X36700Y11752
X37700Y11752
X37700Y10752
X38700Y10752
X38700Y11752
X38700Y12752
X37700Y12752
X36700Y12752
X36700Y13752
X37700Y13752
X38700Y13752
X38700Y14752
X37700Y14752
X36700Y14752
X36700Y15752
X37700Y15752
X38700Y15752
X39700Y15752
X39700Y14752
X39700Y16752
X38700Y16752
X37700Y16752
X36700Y16752
X36700Y17752
X36700Y18752
X37700Y18752
X37700Y17752
X38700Y17752
X38700Y18752
X39700Y18752
X39700Y17752
X39700Y19752
X38700Y19752
X37700Y19752
X36700Y19752
X36700Y20752
X37700Y20752
X38700Y20752
X39700Y20752
X38700Y21752
X37700Y21752
X36700Y21752
X36700Y22752
X37700Y22752
X38700Y22752
X39700Y22752
X39700Y23752
X38700Y23752
X37700Y23752
X36700Y23752
X36700Y24752
X37700Y24752
X38700Y24752
X39700Y24752
X39700Y25752
X39700Y26752
X38700Y26752
X38700Y25752
X37700Y25752
X37700Y26752
X36700Y26752
X36700Y25752
X35700Y25752
X35700Y26752
X34700Y26752
X34700Y25752
X34700Y24752
X34700Y23752
X34700Y22752
X34700Y21752
X34700Y20752
X34700Y19752
X34700Y18752
X34700Y17752
X34700Y16752
X34700Y15752
X34700Y14752
X34700Y13752
X34700Y12752
X33700Y12752
X32700Y12752
X32700Y13752
X33700Y13752
X33700Y14752
X32700Y14752
X32700Y15752
X33700Y15752
X33700Y16752
X32700Y16752
X32700Y17752
X32700Y18752
X33700Y18752
X33700Y17752
X33700Y19752
X32700Y19752
X32700Y20752
X33700Y20752
X33700Y21752
X32700Y21752
X32700Y22752
X33700Y22752
X33700Y23752
X32700Y23752
X32700Y24752
X33700Y24752
X33700Y25752
X33700Y26752
X32700Y26752
X32700Y25752
X31700Y25752
X31700Y26752
X30700Y26752
X30700Y25752
X30700Y24752
X30700Y23752
X30700Y22752
X30700Y21752
X30700Y20752
X30700Y19752
X30700Y18752
X30700Y17752
X30700Y16752
X30700Y15752
X30700Y14752
X30700Y13752
X30700Y12752
X31700Y12752
X31700Y13752
X31700Y14752
X31700Y15752
X31700Y16752
X31700Y17752
X31700Y18752
X31700Y19752
X31700Y20752
X31700Y21752
X31700Y22752
X31700Y23752
X31700Y24752
X31700Y27752
X30700Y27752
X32700Y27752
X33700Y27752
X34700Y27752
X35700Y27752
X36700Y27752
X37700Y27752
X38700Y27752
X39700Y27752
X41700Y27752
X41700Y26752
X41700Y25752
X41700Y24752
X41700Y23752
X41700Y22752
X41700Y20752
X41700Y19752
X41700Y18752
X41700Y17752
X41700Y16752
X41700Y15752
X41700Y14752
X41700Y13752
X35700Y13752
X35700Y12752
X35700Y14752
X35700Y15752
X35700Y16752
X35700Y17752
X35700Y18752
X35700Y19752
X35700Y20752
X35700Y21752
X35700Y22752
X35700Y23752
X35700Y24752
X35700Y34452
X35700Y35452
X35700Y38452
X34700Y38452
X33700Y38452
X32700Y38452
X32700Y39452
X33700Y39452
X34700Y39452
X35700Y39452
X35700Y40452
X34700Y40452
X33700Y40452
X32700Y40452
X32700Y41452
X33700Y41452
X34700Y41452
X35700Y41452
X35700Y42452
X34700Y42452
X33700Y42452
X32700Y42452
X32700Y43452
X32700Y44452
X33700Y44452
X33700Y43452
X34700Y43452
X34700Y44452
X35700Y44452
X35700Y43452
X36700Y43452
X36700Y44452
X37700Y44452
X37700Y43452
X37700Y42452
X37700Y41452
X37700Y40452
X37700Y39452
X37700Y38452
X36700Y38452
X36700Y39452
X36700Y40452
X36700Y41452
X36700Y42452
X36700Y45452
X37700Y45452
X37700Y46452
X36700Y46452
X36700Y47452
X37700Y47452
X38700Y47452
X38700Y48452
X37700Y48452
X36700Y48452
X36700Y49452
X37700Y49452
X38700Y49452
X38700Y50452
X38700Y51452
X37700Y51452
X37700Y50452
X36700Y50452
X36700Y51452
X35700Y51452
X35700Y50452
X35700Y49452
X35700Y48452
X35700Y47452
X35700Y46452
X35700Y45452
X34700Y45452
X33700Y45452
X32700Y45452
X32700Y46452
X33700Y46452
X34700Y46452
X34700Y47452
X33700Y47452
X32700Y47452
X32700Y48452
X33700Y48452
X34700Y48452
X34700Y49452
X33700Y49452
X32700Y49452
X32700Y50452
X32700Y51452
X33700Y51452
X33700Y50452
X34700Y50452
X34700Y51452
X39700Y44452
X39700Y43452
X39700Y42452
X39700Y41452
X39700Y40452
X39700Y39452
X39700Y38452
X31700Y35452
X31700Y34452
X24700Y24752
X24700Y23752
X24700Y22752
X24700Y21752
X24700Y20752
X22700Y20752
X22700Y21752
X22700Y22752
X22700Y23752
X22700Y24752
X22700Y25752
X22700Y26752
X22700Y27752
X22700Y19252
X22700Y18252
X22700Y17252
X22700Y16252
X22700Y15252
X22700Y14252
X3500Y20752
X3500Y21752
X3500Y22752
X3500Y23752
X3500Y24752
X1500Y24752
X1500Y23752
X1500Y22752
X1500Y21752
X1500Y20752
X1500Y19252
X1500Y18252
X1500Y17252
X1500Y16252
X1500Y15252
X1500Y14252
X1500Y13252
X1500Y12252
X1500Y11252
X1500Y10252
X1500Y25752
X1500Y26752
X1500Y27752
M30
