G75*
%MOIN*%
%OFA0B0*%
%FSLAX25Y25*%
%IPPOS*%
%LPD*%
%AMOC8*
5,1,8,0,0,1.08239X$1,22.5*
%
%ADD10C,0.08200*%
D10*
X0094411Y0117699D03*
X0094411Y0127699D03*
X0094411Y0137699D03*
X0094411Y0147699D03*
X0094411Y0157699D03*
X0094411Y0167699D03*
X0094411Y0177699D03*
X0094411Y0187699D03*
X0094411Y0197699D03*
X0094411Y0207699D03*
X0094411Y0222699D03*
X0094411Y0232699D03*
X0094411Y0242699D03*
X0094411Y0252699D03*
X0094411Y0262699D03*
X0094411Y0272699D03*
X0094411Y0282699D03*
X0094411Y0292699D03*
X0114411Y0292699D03*
X0124411Y0292699D03*
X0124411Y0282699D03*
X0114411Y0282699D03*
X0114411Y0272699D03*
X0114411Y0262699D03*
X0124411Y0262699D03*
X0124411Y0272699D03*
X0134411Y0272699D03*
X0134411Y0262699D03*
X0134411Y0252699D03*
X0134411Y0242699D03*
X0134411Y0232699D03*
X0134411Y0222699D03*
X0134411Y0212699D03*
X0134411Y0202699D03*
X0134411Y0192699D03*
X0134411Y0182699D03*
X0134411Y0172699D03*
X0134411Y0162699D03*
X0134411Y0152699D03*
X0134411Y0142699D03*
X0134411Y0132699D03*
X0134411Y0122699D03*
X0144411Y0122699D03*
X0154411Y0122699D03*
X0164411Y0122699D03*
X0174411Y0122699D03*
X0184411Y0122699D03*
X0194411Y0122699D03*
X0204411Y0122699D03*
X0214411Y0122699D03*
X0224411Y0122699D03*
X0234411Y0122699D03*
X0244411Y0122699D03*
X0254411Y0122699D03*
X0254411Y0132699D03*
X0244411Y0132699D03*
X0234411Y0132699D03*
X0224411Y0132699D03*
X0214411Y0132699D03*
X0204411Y0132699D03*
X0194411Y0132699D03*
X0184411Y0132699D03*
X0174411Y0132699D03*
X0164411Y0132699D03*
X0154411Y0132699D03*
X0144411Y0132699D03*
X0144411Y0142699D03*
X0154411Y0142699D03*
X0154411Y0152699D03*
X0144411Y0152699D03*
X0144411Y0162699D03*
X0154411Y0162699D03*
X0154411Y0172699D03*
X0144411Y0172699D03*
X0144411Y0182699D03*
X0154411Y0182699D03*
X0164411Y0182699D03*
X0164411Y0172699D03*
X0164411Y0162699D03*
X0164411Y0152699D03*
X0164411Y0142699D03*
X0174411Y0142699D03*
X0184411Y0142699D03*
X0184411Y0152699D03*
X0174411Y0152699D03*
X0174411Y0162699D03*
X0184411Y0162699D03*
X0184411Y0172699D03*
X0174411Y0172699D03*
X0174411Y0182699D03*
X0184411Y0182699D03*
X0194411Y0182699D03*
X0194411Y0172699D03*
X0194411Y0162699D03*
X0194411Y0152699D03*
X0194411Y0142699D03*
X0204411Y0142699D03*
X0214411Y0142699D03*
X0214411Y0152699D03*
X0204411Y0152699D03*
X0204411Y0162699D03*
X0214411Y0162699D03*
X0214411Y0172699D03*
X0204411Y0172699D03*
X0204411Y0182699D03*
X0214411Y0182699D03*
X0224411Y0182699D03*
X0224411Y0172699D03*
X0224411Y0162699D03*
X0224411Y0152699D03*
X0224411Y0142699D03*
X0234411Y0142699D03*
X0244411Y0142699D03*
X0244411Y0152699D03*
X0234411Y0152699D03*
X0234411Y0162699D03*
X0244411Y0162699D03*
X0244411Y0172699D03*
X0234411Y0172699D03*
X0234411Y0182699D03*
X0244411Y0182699D03*
X0254411Y0182699D03*
X0254411Y0172699D03*
X0254411Y0162699D03*
X0254411Y0152699D03*
X0254411Y0142699D03*
X0264411Y0162699D03*
X0264411Y0172699D03*
X0264411Y0182699D03*
X0264411Y0192699D03*
X0264411Y0202699D03*
X0254411Y0202699D03*
X0254411Y0192699D03*
X0244411Y0192699D03*
X0234411Y0192699D03*
X0234411Y0202699D03*
X0244411Y0202699D03*
X0244411Y0212699D03*
X0234411Y0212699D03*
X0234411Y0222699D03*
X0244411Y0222699D03*
X0254411Y0222699D03*
X0254411Y0212699D03*
X0264411Y0212699D03*
X0264411Y0222699D03*
X0254411Y0232699D03*
X0244411Y0232699D03*
X0234411Y0232699D03*
X0224411Y0232699D03*
X0224411Y0222699D03*
X0224411Y0212699D03*
X0224411Y0202699D03*
X0224411Y0192699D03*
X0214411Y0192699D03*
X0204411Y0192699D03*
X0204411Y0202699D03*
X0214411Y0202699D03*
X0214411Y0212699D03*
X0204411Y0212699D03*
X0204411Y0222699D03*
X0214411Y0222699D03*
X0214411Y0232699D03*
X0204411Y0232699D03*
X0194411Y0232699D03*
X0194411Y0222699D03*
X0194411Y0212699D03*
X0194411Y0202699D03*
X0194411Y0192699D03*
X0184411Y0192699D03*
X0174411Y0192699D03*
X0174411Y0202699D03*
X0184411Y0202699D03*
X0184411Y0212699D03*
X0174411Y0212699D03*
X0174411Y0222699D03*
X0184411Y0222699D03*
X0184411Y0232699D03*
X0174411Y0232699D03*
X0164411Y0232699D03*
X0164411Y0222699D03*
X0164411Y0212699D03*
X0164411Y0202699D03*
X0164411Y0192699D03*
X0154411Y0192699D03*
X0144411Y0192699D03*
X0144411Y0202699D03*
X0154411Y0202699D03*
X0154411Y0212699D03*
X0144411Y0212699D03*
X0144411Y0222699D03*
X0154411Y0222699D03*
X0154411Y0232699D03*
X0144411Y0232699D03*
X0144411Y0242699D03*
X0154411Y0242699D03*
X0154411Y0252699D03*
X0144411Y0252699D03*
X0144411Y0262699D03*
X0154411Y0262699D03*
X0154411Y0272699D03*
X0144411Y0272699D03*
X0144411Y0282699D03*
X0154411Y0282699D03*
X0164411Y0282699D03*
X0164411Y0272699D03*
X0164411Y0262699D03*
X0164411Y0252699D03*
X0164411Y0242699D03*
X0174411Y0242699D03*
X0184411Y0242699D03*
X0184411Y0252699D03*
X0174411Y0252699D03*
X0174411Y0262699D03*
X0184411Y0262699D03*
X0184411Y0272699D03*
X0174411Y0272699D03*
X0174411Y0282699D03*
X0184411Y0282699D03*
X0194411Y0282699D03*
X0194411Y0272699D03*
X0194411Y0262699D03*
X0194411Y0252699D03*
X0194411Y0242699D03*
X0204411Y0242699D03*
X0214411Y0242699D03*
X0214411Y0252699D03*
X0204411Y0252699D03*
X0204411Y0262699D03*
X0214411Y0262699D03*
X0214411Y0272699D03*
X0204411Y0272699D03*
X0204411Y0282699D03*
X0214411Y0282699D03*
X0224411Y0282699D03*
X0224411Y0272699D03*
X0224411Y0262699D03*
X0224411Y0252699D03*
X0224411Y0242699D03*
X0234411Y0242699D03*
X0244411Y0242699D03*
X0244411Y0252699D03*
X0234411Y0252699D03*
X0234411Y0262699D03*
X0244411Y0262699D03*
X0244411Y0272699D03*
X0234411Y0272699D03*
X0234411Y0282699D03*
X0244411Y0282699D03*
X0254411Y0282699D03*
X0254411Y0272699D03*
X0254411Y0262699D03*
X0254411Y0252699D03*
X0254411Y0242699D03*
X0264411Y0242699D03*
X0264411Y0252699D03*
X0264411Y0262699D03*
X0264411Y0272699D03*
X0264411Y0282699D03*
X0264411Y0292699D03*
X0254411Y0292699D03*
X0244411Y0292699D03*
X0234411Y0292699D03*
X0224411Y0292699D03*
X0214411Y0292699D03*
X0204411Y0292699D03*
X0194411Y0292699D03*
X0184411Y0292699D03*
X0174411Y0292699D03*
X0164411Y0292699D03*
X0154411Y0292699D03*
X0144411Y0292699D03*
X0134411Y0292699D03*
X0134411Y0282699D03*
X0124411Y0252699D03*
X0124411Y0242699D03*
X0114411Y0242699D03*
X0114411Y0252699D03*
X0114411Y0232699D03*
X0124411Y0232699D03*
X0124411Y0222699D03*
X0124411Y0212699D03*
X0114411Y0207699D03*
X0124411Y0202699D03*
X0124411Y0192699D03*
X0114411Y0187699D03*
X0114411Y0197699D03*
X0124411Y0182699D03*
X0114411Y0177699D03*
X0114411Y0167699D03*
X0124411Y0162699D03*
X0124411Y0172699D03*
X0114411Y0157699D03*
X0124411Y0152699D03*
X0124411Y0142699D03*
X0114411Y0137699D03*
X0114411Y0147699D03*
X0124411Y0132699D03*
X0114411Y0127699D03*
X0124411Y0122699D03*
X0114411Y0117699D03*
X0114411Y0222699D03*
X0114411Y0365731D03*
X0124411Y0370731D03*
X0114411Y0375731D03*
X0124411Y0380731D03*
X0114411Y0385731D03*
X0114411Y0395731D03*
X0124411Y0400731D03*
X0124411Y0390731D03*
X0134411Y0390731D03*
X0134411Y0400731D03*
X0144411Y0400731D03*
X0154411Y0400731D03*
X0154411Y0390731D03*
X0144411Y0390731D03*
X0144411Y0380731D03*
X0154411Y0380731D03*
X0164411Y0380731D03*
X0174411Y0380731D03*
X0184411Y0380731D03*
X0194411Y0380731D03*
X0204411Y0380731D03*
X0214411Y0380731D03*
X0224411Y0380731D03*
X0234411Y0380731D03*
X0244411Y0380731D03*
X0254411Y0380731D03*
X0254411Y0390731D03*
X0254411Y0400731D03*
X0254411Y0410731D03*
X0254411Y0420731D03*
X0264411Y0420731D03*
X0264411Y0410731D03*
X0284411Y0410731D03*
X0284411Y0420731D03*
X0284411Y0430731D03*
X0284411Y0440731D03*
X0284411Y0450731D03*
X0284411Y0460731D03*
X0284411Y0470731D03*
X0264411Y0470731D03*
X0264411Y0460731D03*
X0264411Y0450731D03*
X0264411Y0440731D03*
X0264411Y0430731D03*
X0254411Y0430731D03*
X0254411Y0440731D03*
X0254411Y0450731D03*
X0254411Y0460731D03*
X0254411Y0470731D03*
X0254411Y0480731D03*
X0254411Y0490731D03*
X0254411Y0500731D03*
X0264411Y0500731D03*
X0264411Y0490731D03*
X0284411Y0490731D03*
X0284411Y0500731D03*
X0284411Y0510731D03*
X0284411Y0520731D03*
X0284411Y0530731D03*
X0284411Y0540731D03*
X0264411Y0540731D03*
X0264411Y0530731D03*
X0264411Y0520731D03*
X0264411Y0510731D03*
X0254411Y0510731D03*
X0254411Y0520731D03*
X0254411Y0530731D03*
X0254411Y0540731D03*
X0244411Y0540731D03*
X0234411Y0540731D03*
X0234411Y0530731D03*
X0244411Y0530731D03*
X0244411Y0520731D03*
X0244411Y0510731D03*
X0234411Y0510731D03*
X0234411Y0520731D03*
X0224411Y0520731D03*
X0224411Y0510731D03*
X0224411Y0500731D03*
X0224411Y0490731D03*
X0234411Y0490731D03*
X0244411Y0490731D03*
X0244411Y0500731D03*
X0234411Y0500731D03*
X0234411Y0480731D03*
X0244411Y0480731D03*
X0244411Y0470731D03*
X0244411Y0460731D03*
X0234411Y0460731D03*
X0234411Y0470731D03*
X0224411Y0470731D03*
X0224411Y0460731D03*
X0224411Y0450731D03*
X0224411Y0440731D03*
X0234411Y0440731D03*
X0244411Y0440731D03*
X0244411Y0450731D03*
X0234411Y0450731D03*
X0234411Y0430731D03*
X0244411Y0430731D03*
X0244411Y0420731D03*
X0244411Y0410731D03*
X0234411Y0410731D03*
X0234411Y0420731D03*
X0224411Y0420731D03*
X0224411Y0410731D03*
X0224411Y0400731D03*
X0224411Y0390731D03*
X0234411Y0390731D03*
X0244411Y0390731D03*
X0244411Y0400731D03*
X0234411Y0400731D03*
X0214411Y0400731D03*
X0214411Y0390731D03*
X0204411Y0390731D03*
X0204411Y0400731D03*
X0204411Y0410731D03*
X0214411Y0410731D03*
X0214411Y0420731D03*
X0204411Y0420731D03*
X0204411Y0430731D03*
X0214411Y0430731D03*
X0224411Y0430731D03*
X0214411Y0440731D03*
X0214411Y0450731D03*
X0204411Y0450731D03*
X0204411Y0440731D03*
X0194411Y0440731D03*
X0194411Y0450731D03*
X0194411Y0460731D03*
X0194411Y0470731D03*
X0204411Y0470731D03*
X0214411Y0470731D03*
X0214411Y0460731D03*
X0204411Y0460731D03*
X0204411Y0480731D03*
X0214411Y0480731D03*
X0224411Y0480731D03*
X0214411Y0490731D03*
X0214411Y0500731D03*
X0204411Y0500731D03*
X0204411Y0490731D03*
X0194411Y0490731D03*
X0194411Y0500731D03*
X0194411Y0510731D03*
X0194411Y0520731D03*
X0204411Y0520731D03*
X0214411Y0520731D03*
X0214411Y0510731D03*
X0204411Y0510731D03*
X0204411Y0530731D03*
X0214411Y0530731D03*
X0224411Y0530731D03*
X0224411Y0540731D03*
X0214411Y0540731D03*
X0204411Y0540731D03*
X0194411Y0540731D03*
X0194411Y0530731D03*
X0184411Y0530731D03*
X0174411Y0530731D03*
X0174411Y0540731D03*
X0184411Y0540731D03*
X0164411Y0540731D03*
X0164411Y0530731D03*
X0164411Y0520731D03*
X0164411Y0510731D03*
X0174411Y0510731D03*
X0184411Y0510731D03*
X0184411Y0520731D03*
X0174411Y0520731D03*
X0174411Y0500731D03*
X0184411Y0500731D03*
X0184411Y0490731D03*
X0174411Y0490731D03*
X0174411Y0480731D03*
X0184411Y0480731D03*
X0194411Y0480731D03*
X0184411Y0470731D03*
X0184411Y0460731D03*
X0174411Y0460731D03*
X0174411Y0470731D03*
X0164411Y0470731D03*
X0164411Y0460731D03*
X0164411Y0450731D03*
X0164411Y0440731D03*
X0174411Y0440731D03*
X0184411Y0440731D03*
X0184411Y0450731D03*
X0174411Y0450731D03*
X0174411Y0430731D03*
X0184411Y0430731D03*
X0194411Y0430731D03*
X0194411Y0420731D03*
X0194411Y0410731D03*
X0194411Y0400731D03*
X0194411Y0390731D03*
X0184411Y0390731D03*
X0184411Y0400731D03*
X0174411Y0400731D03*
X0174411Y0390731D03*
X0164411Y0390731D03*
X0164411Y0400731D03*
X0164411Y0410731D03*
X0164411Y0420731D03*
X0174411Y0420731D03*
X0184411Y0420731D03*
X0184411Y0410731D03*
X0174411Y0410731D03*
X0164411Y0430731D03*
X0154411Y0430731D03*
X0144411Y0430731D03*
X0144411Y0440731D03*
X0154411Y0440731D03*
X0154411Y0450731D03*
X0144411Y0450731D03*
X0144411Y0460731D03*
X0154411Y0460731D03*
X0154411Y0470731D03*
X0144411Y0470731D03*
X0144411Y0480731D03*
X0154411Y0480731D03*
X0164411Y0480731D03*
X0164411Y0490731D03*
X0164411Y0500731D03*
X0154411Y0500731D03*
X0154411Y0490731D03*
X0144411Y0490731D03*
X0144411Y0500731D03*
X0144411Y0510731D03*
X0154411Y0510731D03*
X0154411Y0520731D03*
X0144411Y0520731D03*
X0144411Y0530731D03*
X0154411Y0530731D03*
X0154411Y0540731D03*
X0144411Y0540731D03*
X0134411Y0540731D03*
X0134411Y0530731D03*
X0134411Y0520731D03*
X0134411Y0510731D03*
X0134411Y0500731D03*
X0134411Y0490731D03*
X0134411Y0480731D03*
X0134411Y0470731D03*
X0134411Y0460731D03*
X0134411Y0450731D03*
X0134411Y0440731D03*
X0134411Y0430731D03*
X0134411Y0420731D03*
X0134411Y0410731D03*
X0144411Y0410731D03*
X0154411Y0410731D03*
X0154411Y0420731D03*
X0144411Y0420731D03*
X0124411Y0420731D03*
X0124411Y0410731D03*
X0114411Y0415731D03*
X0114411Y0425731D03*
X0124411Y0430731D03*
X0114411Y0435731D03*
X0114411Y0445731D03*
X0124411Y0450731D03*
X0124411Y0440731D03*
X0114411Y0455731D03*
X0124411Y0460731D03*
X0124411Y0470731D03*
X0114411Y0470731D03*
X0114411Y0480731D03*
X0124411Y0480731D03*
X0124411Y0490731D03*
X0124411Y0500731D03*
X0114411Y0500731D03*
X0114411Y0490731D03*
X0114411Y0510731D03*
X0124411Y0510731D03*
X0124411Y0520731D03*
X0114411Y0520731D03*
X0114411Y0530731D03*
X0124411Y0530731D03*
X0124411Y0540731D03*
X0114411Y0540731D03*
X0094411Y0540731D03*
X0094411Y0530731D03*
X0094411Y0520731D03*
X0094411Y0510731D03*
X0094411Y0500731D03*
X0094411Y0490731D03*
X0094411Y0480731D03*
X0094411Y0470731D03*
X0094411Y0455731D03*
X0094411Y0445731D03*
X0094411Y0435731D03*
X0094411Y0425731D03*
X0094411Y0415731D03*
X0094411Y0405731D03*
X0094411Y0395731D03*
X0094411Y0385731D03*
X0094411Y0375731D03*
X0094411Y0365731D03*
X0134411Y0370731D03*
X0144411Y0370731D03*
X0154411Y0370731D03*
X0164411Y0370731D03*
X0174411Y0370731D03*
X0184411Y0370731D03*
X0194411Y0370731D03*
X0204411Y0370731D03*
X0214411Y0370731D03*
X0224411Y0370731D03*
X0234411Y0370731D03*
X0244411Y0370731D03*
X0254411Y0370731D03*
X0284411Y0400731D03*
X0318820Y0405731D03*
X0318820Y0415731D03*
X0318820Y0425731D03*
X0318820Y0435731D03*
X0318820Y0445731D03*
X0318820Y0455731D03*
X0318820Y0470731D03*
X0318820Y0480731D03*
X0318820Y0490731D03*
X0318820Y0500731D03*
X0318820Y0510731D03*
X0318820Y0520731D03*
X0318820Y0530731D03*
X0318820Y0540731D03*
X0338820Y0540731D03*
X0338820Y0530731D03*
X0338820Y0520731D03*
X0338820Y0510731D03*
X0338820Y0500731D03*
X0338820Y0490731D03*
X0338820Y0480731D03*
X0338820Y0470731D03*
X0348820Y0470731D03*
X0348820Y0460731D03*
X0348820Y0450731D03*
X0348820Y0440731D03*
X0348820Y0430731D03*
X0348820Y0420731D03*
X0348820Y0410731D03*
X0348820Y0400731D03*
X0348820Y0390731D03*
X0348820Y0380731D03*
X0348820Y0370731D03*
X0358820Y0370731D03*
X0368820Y0370731D03*
X0368820Y0380731D03*
X0358820Y0380731D03*
X0358820Y0390731D03*
X0358820Y0400731D03*
X0368820Y0400731D03*
X0368820Y0390731D03*
X0378820Y0390731D03*
X0378820Y0400731D03*
X0378820Y0410731D03*
X0378820Y0420731D03*
X0378820Y0430731D03*
X0378820Y0440731D03*
X0378820Y0450731D03*
X0378820Y0460731D03*
X0378820Y0470731D03*
X0378820Y0480731D03*
X0378820Y0490731D03*
X0378820Y0500731D03*
X0378820Y0510731D03*
X0378820Y0520731D03*
X0378820Y0530731D03*
X0378820Y0540731D03*
X0368820Y0540731D03*
X0358820Y0540731D03*
X0348820Y0540731D03*
X0348820Y0530731D03*
X0348820Y0520731D03*
X0348820Y0510731D03*
X0348820Y0500731D03*
X0348820Y0490731D03*
X0348820Y0480731D03*
X0358820Y0480731D03*
X0368820Y0480731D03*
X0368820Y0490731D03*
X0368820Y0500731D03*
X0358820Y0500731D03*
X0358820Y0490731D03*
X0358820Y0510731D03*
X0358820Y0520731D03*
X0368820Y0520731D03*
X0368820Y0510731D03*
X0368820Y0530731D03*
X0358820Y0530731D03*
X0388820Y0530731D03*
X0398820Y0530731D03*
X0398820Y0540731D03*
X0388820Y0540731D03*
X0408820Y0540731D03*
X0408820Y0530731D03*
X0408820Y0520731D03*
X0408820Y0510731D03*
X0398820Y0510731D03*
X0398820Y0520731D03*
X0388820Y0520731D03*
X0388820Y0510731D03*
X0388820Y0500731D03*
X0388820Y0490731D03*
X0398820Y0490731D03*
X0398820Y0500731D03*
X0408820Y0500731D03*
X0408820Y0490731D03*
X0408820Y0480731D03*
X0398820Y0480731D03*
X0388820Y0480731D03*
X0388820Y0470731D03*
X0388820Y0460731D03*
X0398820Y0460731D03*
X0398820Y0470731D03*
X0408820Y0470731D03*
X0408820Y0460731D03*
X0408820Y0450731D03*
X0408820Y0440731D03*
X0398820Y0440731D03*
X0398820Y0450731D03*
X0388820Y0450731D03*
X0388820Y0440731D03*
X0388820Y0430731D03*
X0398820Y0430731D03*
X0398820Y0420731D03*
X0388820Y0420731D03*
X0388820Y0410731D03*
X0398820Y0410731D03*
X0398820Y0400731D03*
X0388820Y0400731D03*
X0388820Y0390731D03*
X0398820Y0390731D03*
X0398820Y0380731D03*
X0388820Y0380731D03*
X0378820Y0380731D03*
X0378820Y0370731D03*
X0388820Y0370731D03*
X0398820Y0370731D03*
X0408820Y0370731D03*
X0408820Y0380731D03*
X0408820Y0390731D03*
X0408820Y0400731D03*
X0408820Y0410731D03*
X0408820Y0420731D03*
X0408820Y0430731D03*
X0418820Y0430731D03*
X0428820Y0430731D03*
X0428820Y0440731D03*
X0428820Y0450731D03*
X0418820Y0450731D03*
X0418820Y0440731D03*
X0418820Y0460731D03*
X0418820Y0470731D03*
X0428820Y0470731D03*
X0428820Y0460731D03*
X0438820Y0460731D03*
X0438820Y0470731D03*
X0438820Y0480731D03*
X0438820Y0490731D03*
X0438820Y0500731D03*
X0438820Y0510731D03*
X0438820Y0520731D03*
X0438820Y0530731D03*
X0438820Y0540731D03*
X0428820Y0540731D03*
X0418820Y0540731D03*
X0418820Y0530731D03*
X0428820Y0530731D03*
X0428820Y0520731D03*
X0418820Y0520731D03*
X0418820Y0510731D03*
X0428820Y0510731D03*
X0428820Y0500731D03*
X0418820Y0500731D03*
X0418820Y0490731D03*
X0428820Y0490731D03*
X0428820Y0480731D03*
X0418820Y0480731D03*
X0448820Y0480731D03*
X0458820Y0480731D03*
X0458820Y0490731D03*
X0458820Y0500731D03*
X0448820Y0500731D03*
X0448820Y0490731D03*
X0448820Y0510731D03*
X0448820Y0520731D03*
X0458820Y0520731D03*
X0458820Y0510731D03*
X0468820Y0510731D03*
X0468820Y0520731D03*
X0468820Y0530731D03*
X0468820Y0540731D03*
X0458820Y0540731D03*
X0448820Y0540731D03*
X0448820Y0530731D03*
X0458820Y0530731D03*
X0478820Y0530731D03*
X0488820Y0530731D03*
X0488820Y0540731D03*
X0478820Y0540731D03*
X0478820Y0520731D03*
X0478820Y0510731D03*
X0488820Y0510731D03*
X0488820Y0520731D03*
X0488820Y0500731D03*
X0478820Y0500731D03*
X0478820Y0490731D03*
X0488820Y0490731D03*
X0478820Y0480731D03*
X0468820Y0480731D03*
X0468820Y0490731D03*
X0468820Y0500731D03*
X0468820Y0470731D03*
X0468820Y0460731D03*
X0458820Y0460731D03*
X0458820Y0470731D03*
X0448820Y0470731D03*
X0448820Y0460731D03*
X0448820Y0450731D03*
X0448820Y0440731D03*
X0458820Y0440731D03*
X0458820Y0450731D03*
X0468820Y0450731D03*
X0468820Y0440731D03*
X0468820Y0430731D03*
X0458820Y0430731D03*
X0448820Y0430731D03*
X0438820Y0430731D03*
X0438820Y0440731D03*
X0438820Y0450731D03*
X0438820Y0420731D03*
X0438820Y0410731D03*
X0428820Y0410731D03*
X0428820Y0420731D03*
X0418820Y0420731D03*
X0418820Y0410731D03*
X0418820Y0400731D03*
X0418820Y0390731D03*
X0428820Y0390731D03*
X0428820Y0400731D03*
X0438820Y0400731D03*
X0438820Y0390731D03*
X0438820Y0380731D03*
X0428820Y0380731D03*
X0418820Y0380731D03*
X0418820Y0370731D03*
X0428820Y0370731D03*
X0438820Y0370731D03*
X0448820Y0370731D03*
X0458820Y0370731D03*
X0458820Y0380731D03*
X0448820Y0380731D03*
X0448820Y0390731D03*
X0448820Y0400731D03*
X0458820Y0400731D03*
X0458820Y0390731D03*
X0468820Y0390731D03*
X0468820Y0400731D03*
X0468820Y0410731D03*
X0468820Y0420731D03*
X0458820Y0420731D03*
X0448820Y0420731D03*
X0448820Y0410731D03*
X0458820Y0410731D03*
X0478820Y0410731D03*
X0478820Y0420731D03*
X0488820Y0420731D03*
X0488820Y0410731D03*
X0478820Y0400731D03*
X0478820Y0390731D03*
X0478820Y0380731D03*
X0468820Y0380731D03*
X0468820Y0370731D03*
X0478820Y0370731D03*
X0508820Y0400731D03*
X0508820Y0410731D03*
X0508820Y0420731D03*
X0508820Y0430731D03*
X0508820Y0440731D03*
X0508820Y0450731D03*
X0508820Y0460731D03*
X0508820Y0470731D03*
X0508820Y0490731D03*
X0508820Y0500731D03*
X0508820Y0510731D03*
X0508820Y0520731D03*
X0508820Y0530731D03*
X0508820Y0540731D03*
X0488820Y0470731D03*
X0478820Y0470731D03*
X0478820Y0460731D03*
X0488820Y0460731D03*
X0488820Y0450731D03*
X0478820Y0450731D03*
X0478820Y0440731D03*
X0488820Y0440731D03*
X0488820Y0430731D03*
X0478820Y0430731D03*
X0368820Y0430731D03*
X0358820Y0430731D03*
X0358820Y0440731D03*
X0358820Y0450731D03*
X0368820Y0450731D03*
X0368820Y0440731D03*
X0368820Y0460731D03*
X0368820Y0470731D03*
X0358820Y0470731D03*
X0358820Y0460731D03*
X0338820Y0455731D03*
X0338820Y0445731D03*
X0338820Y0435731D03*
X0338820Y0425731D03*
X0338820Y0415731D03*
X0338820Y0405731D03*
X0338820Y0395731D03*
X0338820Y0385731D03*
X0338820Y0375731D03*
X0338820Y0365731D03*
X0318820Y0365731D03*
X0318820Y0375731D03*
X0318820Y0385731D03*
X0318820Y0395731D03*
X0358820Y0410731D03*
X0358820Y0420731D03*
X0368820Y0420731D03*
X0368820Y0410731D03*
X0368820Y0292699D03*
X0358820Y0292699D03*
X0358820Y0282699D03*
X0368820Y0282699D03*
X0368820Y0272699D03*
X0368820Y0262699D03*
X0358820Y0262699D03*
X0358820Y0272699D03*
X0348820Y0272699D03*
X0348820Y0262699D03*
X0348820Y0252699D03*
X0348820Y0242699D03*
X0348820Y0232699D03*
X0348820Y0222699D03*
X0348820Y0212699D03*
X0348820Y0202699D03*
X0348820Y0192699D03*
X0348820Y0182699D03*
X0348820Y0172699D03*
X0348820Y0162699D03*
X0348820Y0152699D03*
X0348820Y0142699D03*
X0348820Y0132699D03*
X0348820Y0122699D03*
X0358820Y0122699D03*
X0368820Y0122699D03*
X0378820Y0122699D03*
X0388820Y0122699D03*
X0398820Y0122699D03*
X0408820Y0122699D03*
X0418820Y0122699D03*
X0428820Y0122699D03*
X0438820Y0122699D03*
X0448820Y0122699D03*
X0458820Y0122699D03*
X0468820Y0122699D03*
X0478820Y0122699D03*
X0478820Y0132699D03*
X0468820Y0132699D03*
X0458820Y0132699D03*
X0448820Y0132699D03*
X0438820Y0132699D03*
X0428820Y0132699D03*
X0418820Y0132699D03*
X0408820Y0132699D03*
X0398820Y0132699D03*
X0388820Y0132699D03*
X0378820Y0132699D03*
X0368820Y0132699D03*
X0358820Y0132699D03*
X0358820Y0142699D03*
X0368820Y0142699D03*
X0368820Y0152699D03*
X0358820Y0152699D03*
X0358820Y0162699D03*
X0368820Y0162699D03*
X0368820Y0172699D03*
X0358820Y0172699D03*
X0358820Y0182699D03*
X0368820Y0182699D03*
X0378820Y0182699D03*
X0378820Y0172699D03*
X0378820Y0162699D03*
X0378820Y0152699D03*
X0378820Y0142699D03*
X0388820Y0142699D03*
X0398820Y0142699D03*
X0398820Y0152699D03*
X0388820Y0152699D03*
X0388820Y0162699D03*
X0398820Y0162699D03*
X0398820Y0172699D03*
X0388820Y0172699D03*
X0388820Y0182699D03*
X0398820Y0182699D03*
X0408820Y0182699D03*
X0408820Y0172699D03*
X0408820Y0162699D03*
X0408820Y0152699D03*
X0408820Y0142699D03*
X0418820Y0142699D03*
X0428820Y0142699D03*
X0428820Y0152699D03*
X0418820Y0152699D03*
X0418820Y0162699D03*
X0428820Y0162699D03*
X0428820Y0172699D03*
X0418820Y0172699D03*
X0418820Y0182699D03*
X0428820Y0182699D03*
X0438820Y0182699D03*
X0438820Y0172699D03*
X0438820Y0162699D03*
X0438820Y0152699D03*
X0438820Y0142699D03*
X0448820Y0142699D03*
X0458820Y0142699D03*
X0458820Y0152699D03*
X0448820Y0152699D03*
X0448820Y0162699D03*
X0458820Y0162699D03*
X0458820Y0172699D03*
X0448820Y0172699D03*
X0448820Y0182699D03*
X0458820Y0182699D03*
X0468820Y0182699D03*
X0468820Y0172699D03*
X0468820Y0162699D03*
X0468820Y0152699D03*
X0468820Y0142699D03*
X0478820Y0142699D03*
X0478820Y0152699D03*
X0478820Y0162699D03*
X0488820Y0162699D03*
X0488820Y0172699D03*
X0478820Y0172699D03*
X0478820Y0182699D03*
X0488820Y0182699D03*
X0488820Y0192699D03*
X0478820Y0192699D03*
X0478820Y0202699D03*
X0488820Y0202699D03*
X0488820Y0212699D03*
X0478820Y0212699D03*
X0478820Y0222699D03*
X0488820Y0222699D03*
X0478820Y0232699D03*
X0468820Y0232699D03*
X0468820Y0222699D03*
X0468820Y0212699D03*
X0468820Y0202699D03*
X0468820Y0192699D03*
X0458820Y0192699D03*
X0448820Y0192699D03*
X0448820Y0202699D03*
X0458820Y0202699D03*
X0458820Y0212699D03*
X0448820Y0212699D03*
X0448820Y0222699D03*
X0458820Y0222699D03*
X0458820Y0232699D03*
X0448820Y0232699D03*
X0438820Y0232699D03*
X0438820Y0222699D03*
X0438820Y0212699D03*
X0438820Y0202699D03*
X0438820Y0192699D03*
X0428820Y0192699D03*
X0418820Y0192699D03*
X0418820Y0202699D03*
X0428820Y0202699D03*
X0428820Y0212699D03*
X0418820Y0212699D03*
X0418820Y0222699D03*
X0428820Y0222699D03*
X0428820Y0232699D03*
X0418820Y0232699D03*
X0408820Y0232699D03*
X0408820Y0222699D03*
X0408820Y0212699D03*
X0408820Y0202699D03*
X0408820Y0192699D03*
X0398820Y0192699D03*
X0388820Y0192699D03*
X0388820Y0202699D03*
X0398820Y0202699D03*
X0398820Y0212699D03*
X0388820Y0212699D03*
X0388820Y0222699D03*
X0398820Y0222699D03*
X0398820Y0232699D03*
X0388820Y0232699D03*
X0378820Y0232699D03*
X0378820Y0222699D03*
X0378820Y0212699D03*
X0378820Y0202699D03*
X0378820Y0192699D03*
X0368820Y0192699D03*
X0358820Y0192699D03*
X0358820Y0202699D03*
X0368820Y0202699D03*
X0368820Y0212699D03*
X0358820Y0212699D03*
X0358820Y0222699D03*
X0368820Y0222699D03*
X0368820Y0232699D03*
X0358820Y0232699D03*
X0358820Y0242699D03*
X0368820Y0242699D03*
X0368820Y0252699D03*
X0358820Y0252699D03*
X0378820Y0252699D03*
X0378820Y0242699D03*
X0388820Y0242699D03*
X0398820Y0242699D03*
X0398820Y0252699D03*
X0388820Y0252699D03*
X0388820Y0262699D03*
X0398820Y0262699D03*
X0398820Y0272699D03*
X0388820Y0272699D03*
X0378820Y0272699D03*
X0378820Y0262699D03*
X0378820Y0282699D03*
X0388820Y0282699D03*
X0398820Y0282699D03*
X0408820Y0282699D03*
X0408820Y0272699D03*
X0408820Y0262699D03*
X0408820Y0252699D03*
X0408820Y0242699D03*
X0418820Y0242699D03*
X0428820Y0242699D03*
X0428820Y0252699D03*
X0418820Y0252699D03*
X0418820Y0262699D03*
X0428820Y0262699D03*
X0428820Y0272699D03*
X0418820Y0272699D03*
X0418820Y0282699D03*
X0428820Y0282699D03*
X0438820Y0282699D03*
X0438820Y0272699D03*
X0438820Y0262699D03*
X0438820Y0252699D03*
X0438820Y0242699D03*
X0448820Y0242699D03*
X0458820Y0242699D03*
X0458820Y0252699D03*
X0448820Y0252699D03*
X0448820Y0262699D03*
X0458820Y0262699D03*
X0458820Y0272699D03*
X0448820Y0272699D03*
X0448820Y0282699D03*
X0458820Y0282699D03*
X0468820Y0282699D03*
X0468820Y0272699D03*
X0468820Y0262699D03*
X0468820Y0252699D03*
X0468820Y0242699D03*
X0478820Y0242699D03*
X0488820Y0242699D03*
X0488820Y0252699D03*
X0478820Y0252699D03*
X0478820Y0262699D03*
X0488820Y0262699D03*
X0488820Y0272699D03*
X0478820Y0272699D03*
X0478820Y0282699D03*
X0488820Y0282699D03*
X0488820Y0292699D03*
X0478820Y0292699D03*
X0468820Y0292699D03*
X0458820Y0292699D03*
X0448820Y0292699D03*
X0438820Y0292699D03*
X0428820Y0292699D03*
X0418820Y0292699D03*
X0408820Y0292699D03*
X0398820Y0292699D03*
X0388820Y0292699D03*
X0378820Y0292699D03*
X0348820Y0292699D03*
X0348820Y0282699D03*
X0338820Y0282699D03*
X0338820Y0272699D03*
X0338820Y0262699D03*
X0338820Y0252699D03*
X0338820Y0242699D03*
X0338820Y0232699D03*
X0338820Y0222699D03*
X0338820Y0207699D03*
X0338820Y0197699D03*
X0338820Y0187699D03*
X0338820Y0177699D03*
X0338820Y0167699D03*
X0338820Y0157699D03*
X0338820Y0147699D03*
X0338820Y0137699D03*
X0338820Y0127699D03*
X0338820Y0117699D03*
X0318820Y0117699D03*
X0318820Y0127699D03*
X0318820Y0137699D03*
X0318820Y0147699D03*
X0318820Y0157699D03*
X0318820Y0167699D03*
X0318820Y0177699D03*
X0318820Y0187699D03*
X0318820Y0197699D03*
X0318820Y0207699D03*
X0318820Y0222699D03*
X0318820Y0232699D03*
X0318820Y0242699D03*
X0318820Y0252699D03*
X0318820Y0262699D03*
X0318820Y0272699D03*
X0318820Y0282699D03*
X0318820Y0292699D03*
X0338820Y0292699D03*
X0284411Y0292699D03*
X0284411Y0282699D03*
X0284411Y0272699D03*
X0284411Y0262699D03*
X0284411Y0252699D03*
X0284411Y0242699D03*
X0284411Y0222699D03*
X0284411Y0212699D03*
X0284411Y0202699D03*
X0284411Y0192699D03*
X0284411Y0182699D03*
X0284411Y0172699D03*
X0284411Y0162699D03*
X0284411Y0152699D03*
X0134411Y0380731D03*
X0114411Y0405731D03*
X0508820Y0292699D03*
X0508820Y0282699D03*
X0508820Y0272699D03*
X0508820Y0262699D03*
X0508820Y0252699D03*
X0508820Y0242699D03*
X0508820Y0222699D03*
X0508820Y0212699D03*
X0508820Y0202699D03*
X0508820Y0192699D03*
X0508820Y0182699D03*
X0508820Y0172699D03*
X0508820Y0162699D03*
X0508820Y0152699D03*
M02*
