G75*
%MOIN*%
%OFA0B0*%
%FSLAX25Y25*%
%IPPOS*%
%LPD*%
%AMOC8*
5,1,8,0,0,1.08239X$1,22.5*
%
%ADD10C,0.00800*%
%ADD11C,0.01000*%
D10*
X0084411Y0087699D02*
X0084411Y0302699D01*
X0094411Y0329668D02*
X0284411Y0329668D01*
X0294411Y0339668D02*
X0294411Y0554668D01*
X0312757Y0554668D02*
X0312757Y0339668D01*
X0322757Y0329668D02*
X0512757Y0329668D01*
X0522757Y0339668D02*
X0522757Y0554668D01*
X0522757Y0302699D02*
X0522757Y0087699D01*
X0512757Y0077699D02*
X0322757Y0077699D01*
X0312757Y0087699D02*
X0312757Y0302699D01*
X0294411Y0302699D02*
X0294411Y0087699D01*
X0284411Y0077699D02*
X0094411Y0077699D01*
X0084411Y0339668D02*
X0084411Y0554668D01*
D11*
X0084411Y0087699D02*
X0094411Y0077699D01*
X0284411Y0077699D02*
X0294411Y0087699D01*
X0312757Y0087699D02*
X0322757Y0077699D01*
X0512757Y0077699D02*
X0522757Y0087699D01*
X0522757Y0302699D02*
X0512757Y0312699D01*
X0322757Y0312699D01*
X0312757Y0302699D01*
X0294411Y0302699D02*
X0284411Y0312699D01*
X0094411Y0312699D01*
X0084411Y0302699D01*
X0094411Y0329668D02*
X0084411Y0339668D01*
X0284411Y0329668D02*
X0294411Y0339668D01*
X0312757Y0339668D02*
X0322757Y0329668D01*
X0512757Y0329668D02*
X0522757Y0339668D01*
X0522757Y0554668D02*
X0512757Y0564668D01*
X0322757Y0564668D01*
X0312757Y0554668D01*
X0294411Y0554668D02*
X0284411Y0564668D01*
X0094411Y0564668D01*
X0084411Y0554668D01*
M02*
