%
M48
M72
T01C0.0150
T02C0.0400
%
T01
X12941Y9770
X15191Y10520
X15941Y9770
X18191Y10520
X18941Y9770
X21191Y10520
X21941Y9770
X24191Y10520
X27691Y11770
X27691Y13220
X35776Y9770
X38026Y10520
X38776Y9770
X41026Y10520
X41776Y9770
X44026Y10520
X44776Y9770
X47026Y10520
X50526Y11770
X50526Y13220
X44776Y34967
X44026Y35717
X41776Y34967
X41026Y35717
X38776Y34967
X38026Y35717
X35776Y34967
X27691Y36967
X27691Y38417
X24191Y35717
X21941Y34967
X21191Y35717
X18941Y34967
X18191Y35717
X15941Y34967
X15191Y35717
X12941Y34967
X47026Y35717
X50526Y36967
X50526Y38417
T02
X9441Y11770
X9441Y12770
X9441Y13770
X9441Y14770
X9441Y15770
X9441Y16770
X9441Y17770
X9441Y18770
X9441Y19770
X9441Y20770
X9441Y22270
X9441Y23270
X9441Y24270
X9441Y25270
X9441Y26270
X9441Y27270
X9441Y28270
X9441Y29270
X11441Y29270
X12441Y29270
X12441Y28270
X11441Y28270
X11441Y27270
X11441Y26270
X12441Y26270
X12441Y27270
X13441Y27270
X13441Y26270
X13441Y25270
X13441Y24270
X12441Y24270
X11441Y24270
X11441Y25270
X12441Y25270
X12441Y23270
X11441Y23270
X11441Y22270
X12441Y22270
X12441Y21270
X11441Y20770
X12441Y20270
X12441Y19270
X11441Y19770
X11441Y18770
X12441Y18270
X11441Y17770
X11441Y16770
X12441Y17270
X12441Y16270
X11441Y15770
X12441Y15270
X12441Y14270
X11441Y14770
X11441Y13770
X12441Y13270
X11441Y12770
X12441Y12270
X11441Y11770
X13441Y12270
X13441Y13270
X13441Y14270
X13441Y15270
X13441Y16270
X13441Y17270
X13441Y18270
X13441Y19270
X13441Y20270
X13441Y21270
X13441Y22270
X13441Y23270
X14441Y23270
X15441Y23270
X15441Y24270
X14441Y24270
X14441Y25270
X15441Y25270
X15441Y26270
X14441Y26270
X14441Y27270
X15441Y27270
X15441Y28270
X14441Y28270
X13441Y28270
X13441Y29270
X14441Y29270
X15441Y29270
X16441Y29270
X16441Y28270
X16441Y27270
X16441Y26270
X16441Y25270
X16441Y24270
X16441Y23270
X16441Y22270
X16441Y21270
X15441Y21270
X14441Y21270
X14441Y22270
X15441Y22270
X15441Y20270
X14441Y20270
X14441Y19270
X15441Y19270
X15441Y18270
X14441Y18270
X14441Y17270
X14441Y16270
X15441Y16270
X15441Y17270
X16441Y17270
X16441Y16270
X16441Y15270
X16441Y14270
X15441Y14270
X14441Y14270
X14441Y15270
X15441Y15270
X15441Y13270
X14441Y13270
X14441Y12270
X15441Y12270
X16441Y12270
X16441Y13270
X17441Y13270
X18441Y13270
X18441Y14270
X17441Y14270
X17441Y15270
X18441Y15270
X18441Y16270
X17441Y16270
X17441Y17270
X18441Y17270
X18441Y18270
X17441Y18270
X16441Y18270
X16441Y19270
X16441Y20270
X17441Y20270
X17441Y19270
X18441Y19270
X18441Y20270
X18441Y21270
X17441Y21270
X17441Y22270
X18441Y22270
X18441Y23270
X17441Y23270
X17441Y24270
X17441Y25270
X18441Y25270
X18441Y24270
X19441Y24270
X19441Y25270
X19441Y26270
X19441Y27270
X18441Y27270
X17441Y27270
X17441Y26270
X18441Y26270
X18441Y28270
X17441Y28270
X17441Y29270
X18441Y29270
X19441Y29270
X19441Y28270
X20441Y28270
X21441Y28270
X21441Y29270
X20441Y29270
X22441Y29270
X22441Y28270
X22441Y27270
X22441Y26270
X21441Y26270
X20441Y26270
X20441Y27270
X21441Y27270
X21441Y25270
X20441Y25270
X20441Y24270
X21441Y24270
X21441Y23270
X20441Y23270
X19441Y23270
X19441Y22270
X19441Y21270
X19441Y20270
X19441Y19270
X19441Y18270
X19441Y17270
X19441Y16270
X19441Y15270
X19441Y14270
X19441Y13270
X19441Y12270
X18441Y12270
X17441Y12270
X20441Y12270
X21441Y12270
X21441Y13270
X20441Y13270
X20441Y14270
X20441Y15270
X21441Y15270
X21441Y14270
X22441Y14270
X22441Y15270
X22441Y16270
X22441Y17270
X21441Y17270
X20441Y17270
X20441Y16270
X21441Y16270
X21441Y18270
X20441Y18270
X20441Y19270
X20441Y20270
X21441Y20270
X21441Y19270
X22441Y19270
X22441Y20270
X22441Y21270
X22441Y22270
X21441Y22270
X20441Y22270
X20441Y21270
X21441Y21270
X22441Y23270
X22441Y24270
X22441Y25270
X23441Y25270
X23441Y24270
X24441Y24270
X24441Y25270
X24441Y26270
X23441Y26270
X23441Y27270
X24441Y27270
X24441Y28270
X23441Y28270
X23441Y29270
X24441Y29270
X25441Y29270
X25441Y28270
X25441Y27270
X25441Y26270
X25441Y25270
X25441Y24270
X25441Y23270
X24441Y23270
X23441Y23270
X23441Y22270
X23441Y21270
X24441Y21270
X24441Y22270
X25441Y22270
X25441Y21270
X25441Y20270
X25441Y19270
X24441Y19270
X23441Y19270
X23441Y20270
X24441Y20270
X24441Y18270
X23441Y18270
X22441Y18270
X23441Y17270
X23441Y16270
X24441Y16270
X24441Y17270
X25441Y17270
X25441Y16270
X25441Y15270
X25441Y14270
X24441Y14270
X23441Y14270
X23441Y15270
X24441Y15270
X24441Y13270
X23441Y13270
X22441Y13270
X22441Y12270
X23441Y12270
X24441Y12270
X25441Y12270
X25441Y13270
X26441Y16270
X26441Y17270
X26441Y18270
X25441Y18270
X26441Y19270
X26441Y20270
X26441Y21270
X26441Y22270
X28441Y22270
X28441Y21270
X28441Y20270
X28441Y19270
X28441Y18270
X28441Y17270
X28441Y16270
X28441Y15270
X32276Y15770
X32276Y16770
X32276Y17770
X32276Y18770
X32276Y19770
X32276Y20770
X32276Y22270
X32276Y23270
X32276Y24270
X32276Y25270
X32276Y26270
X32276Y27270
X32276Y28270
X32276Y29270
X34276Y29270
X35276Y29270
X36276Y29270
X37276Y29270
X38276Y29270
X39276Y29270
X40276Y29270
X41276Y29270
X42276Y29270
X43276Y29270
X44276Y29270
X45276Y29270
X46276Y29270
X47276Y29270
X48276Y29270
X49276Y29270
X49276Y28270
X49276Y27270
X49276Y26270
X49276Y25270
X49276Y24270
X48276Y24270
X48276Y25270
X47276Y25270
X47276Y24270
X47276Y23270
X48276Y23270
X48276Y22270
X48276Y21270
X47276Y21270
X47276Y22270
X46276Y22270
X46276Y21270
X46276Y20270
X46276Y19270
X47276Y19270
X48276Y19270
X48276Y20270
X47276Y20270
X49276Y20270
X49276Y19270
X49276Y18270
X49276Y17270
X49276Y16270
X48276Y16270
X48276Y17270
X47276Y17270
X47276Y16270
X47276Y15270
X48276Y15270
X48276Y14270
X47276Y14270
X47276Y13270
X48276Y13270
X48276Y12270
X47276Y12270
X46276Y12270
X46276Y13270
X46276Y14270
X46276Y15270
X46276Y16270
X46276Y17270
X46276Y18270
X47276Y18270
X48276Y18270
X51276Y18270
X51276Y19270
X51276Y20270
X51276Y21270
X51276Y22270
X49276Y22270
X49276Y21270
X51276Y24270
X51276Y25270
X51276Y26270
X51276Y27270
X51276Y28270
X51276Y29270
X48276Y28270
X47276Y28270
X47276Y27270
X48276Y27270
X48276Y26270
X47276Y26270
X46276Y26270
X46276Y27270
X46276Y28270
X45276Y28270
X44276Y28270
X44276Y27270
X45276Y27270
X45276Y26270
X44276Y26270
X44276Y25270
X45276Y25270
X45276Y24270
X44276Y24270
X44276Y23270
X45276Y23270
X46276Y23270
X46276Y24270
X46276Y25270
X43276Y25270
X43276Y24270
X43276Y23270
X43276Y22270
X43276Y21270
X44276Y21270
X45276Y21270
X45276Y22270
X44276Y22270
X44276Y20270
X45276Y20270
X45276Y19270
X44276Y19270
X44276Y18270
X45276Y18270
X45276Y17270
X45276Y16270
X44276Y16270
X44276Y17270
X43276Y17270
X43276Y16270
X43276Y15270
X43276Y14270
X44276Y14270
X45276Y14270
X45276Y15270
X44276Y15270
X44276Y13270
X45276Y13270
X45276Y12270
X44276Y12270
X43276Y12270
X43276Y13270
X42276Y13270
X41276Y13270
X41276Y14270
X42276Y14270
X42276Y15270
X41276Y15270
X41276Y16270
X42276Y16270
X42276Y17270
X41276Y17270
X41276Y18270
X42276Y18270
X43276Y18270
X43276Y19270
X43276Y20270
X42276Y20270
X42276Y19270
X41276Y19270
X41276Y20270
X41276Y21270
X42276Y21270
X42276Y22270
X41276Y22270
X41276Y23270
X42276Y23270
X42276Y24270
X42276Y25270
X41276Y25270
X41276Y24270
X40276Y24270
X40276Y25270
X40276Y26270
X40276Y27270
X41276Y27270
X42276Y27270
X42276Y26270
X41276Y26270
X43276Y26270
X43276Y27270
X43276Y28270
X42276Y28270
X41276Y28270
X40276Y28270
X39276Y28270
X38276Y28270
X38276Y27270
X39276Y27270
X39276Y26270
X38276Y26270
X38276Y25270
X39276Y25270
X39276Y24270
X38276Y24270
X38276Y23270
X39276Y23270
X40276Y23270
X40276Y22270
X40276Y21270
X40276Y20270
X40276Y19270
X40276Y18270
X40276Y17270
X40276Y16270
X40276Y15270
X40276Y14270
X40276Y13270
X40276Y12270
X41276Y12270
X42276Y12270
X39276Y12270
X38276Y12270
X38276Y13270
X39276Y13270
X39276Y14270
X39276Y15270
X38276Y15270
X38276Y14270
X37276Y14270
X37276Y15270
X37276Y16270
X37276Y17270
X38276Y17270
X39276Y17270
X39276Y16270
X38276Y16270
X38276Y18270
X39276Y18270
X39276Y19270
X39276Y20270
X38276Y20270
X38276Y19270
X37276Y19270
X37276Y20270
X37276Y21270
X37276Y22270
X38276Y22270
X39276Y22270
X39276Y21270
X38276Y21270
X37276Y23270
X37276Y24270
X37276Y25270
X37276Y26270
X37276Y27270
X37276Y28270
X36276Y28270
X36276Y27270
X36276Y26270
X36276Y25270
X36276Y24270
X36276Y23270
X36276Y22270
X36276Y21270
X36276Y20270
X36276Y19270
X36276Y18270
X37276Y18270
X36276Y17270
X36276Y16270
X36276Y15270
X36276Y14270
X36276Y13270
X37276Y13270
X37276Y12270
X36276Y12270
X35276Y12270
X34276Y12770
X35276Y13270
X34276Y13770
X34276Y14770
X35276Y15270
X35276Y14270
X34276Y15770
X35276Y16270
X35276Y17270
X34276Y17770
X34276Y16770
X35276Y18270
X34276Y18770
X34276Y19770
X35276Y20270
X35276Y19270
X34276Y20770
X35276Y21270
X35276Y22270
X34276Y22270
X34276Y23270
X35276Y23270
X35276Y24270
X35276Y25270
X34276Y25270
X34276Y24270
X34276Y26270
X35276Y26270
X35276Y27270
X34276Y27270
X34276Y28270
X35276Y28270
X28441Y28270
X28441Y29270
X26441Y29270
X26441Y28270
X26441Y27270
X26441Y26270
X26441Y25270
X26441Y24270
X28441Y24270
X28441Y25270
X28441Y26270
X28441Y27270
X32276Y36967
X32276Y37967
X32276Y38967
X32276Y39967
X32276Y40967
X32276Y41967
X32276Y42967
X32276Y43967
X32276Y44967
X32276Y45967
X32276Y47467
X32276Y48467
X32276Y49467
X32276Y50467
X32276Y51467
X32276Y52467
X32276Y53467
X32276Y54467
X34276Y54467
X35276Y54467
X35276Y53467
X34276Y53467
X34276Y52467
X35276Y52467
X35276Y51467
X34276Y51467
X34276Y50467
X35276Y50467
X36276Y50467
X37276Y50467
X38276Y50467
X39276Y50467
X40276Y50467
X41276Y50467
X42276Y50467
X43276Y50467
X44276Y50467
X45276Y50467
X46276Y50467
X47276Y50467
X48276Y50467
X49276Y50467
X49276Y51467
X49276Y52467
X49276Y53467
X49276Y54467
X48276Y54467
X48276Y53467
X47276Y53467
X47276Y54467
X46276Y54467
X46276Y53467
X46276Y52467
X46276Y51467
X47276Y51467
X48276Y51467
X48276Y52467
X47276Y52467
X45276Y52467
X45276Y51467
X44276Y51467
X44276Y52467
X44276Y53467
X45276Y53467
X45276Y54467
X44276Y54467
X43276Y54467
X43276Y53467
X43276Y52467
X43276Y51467
X42276Y51467
X42276Y52467
X41276Y52467
X41276Y51467
X40276Y51467
X40276Y52467
X40276Y53467
X40276Y54467
X41276Y54467
X42276Y54467
X42276Y53467
X41276Y53467
X39276Y53467
X39276Y54467
X38276Y54467
X38276Y53467
X38276Y52467
X39276Y52467
X39276Y51467
X38276Y51467
X37276Y51467
X37276Y52467
X37276Y53467
X37276Y54467
X36276Y54467
X36276Y53467
X36276Y52467
X36276Y51467
X36276Y49467
X36276Y48467
X37276Y48467
X37276Y49467
X38276Y49467
X39276Y49467
X39276Y48467
X38276Y48467
X38276Y47467
X39276Y47467
X40276Y47467
X41276Y47467
X42276Y47467
X43276Y47467
X44276Y47467
X45276Y47467
X46276Y47467
X47276Y47467
X48276Y47467
X49276Y47467
X49276Y46467
X49276Y45467
X49276Y44467
X49276Y43467
X49276Y42467
X49276Y41467
X48276Y41467
X48276Y40467
X47276Y40467
X47276Y41467
X47276Y42467
X48276Y42467
X48276Y43467
X48276Y44467
X47276Y44467
X47276Y43467
X46276Y43467
X46276Y44467
X46276Y45467
X46276Y46467
X47276Y46467
X48276Y46467
X48276Y45467
X47276Y45467
X45276Y45467
X45276Y46467
X44276Y46467
X44276Y45467
X44276Y44467
X45276Y44467
X45276Y43467
X44276Y43467
X44276Y42467
X45276Y42467
X46276Y42467
X46276Y41467
X46276Y40467
X46276Y39467
X46276Y38467
X47276Y38467
X48276Y38467
X48276Y39467
X47276Y39467
X47276Y37467
X48276Y37467
X46276Y37467
X45276Y37467
X44276Y37467
X44276Y38467
X45276Y38467
X45276Y39467
X44276Y39467
X44276Y40467
X45276Y40467
X45276Y41467
X44276Y41467
X43276Y41467
X43276Y40467
X43276Y39467
X43276Y38467
X43276Y37467
X42276Y37467
X41276Y37467
X41276Y38467
X42276Y38467
X42276Y39467
X41276Y39467
X41276Y40467
X42276Y40467
X42276Y41467
X41276Y41467
X41276Y42467
X42276Y42467
X43276Y42467
X43276Y43467
X43276Y44467
X43276Y45467
X43276Y46467
X42276Y46467
X42276Y45467
X41276Y45467
X41276Y46467
X40276Y46467
X40276Y45467
X40276Y44467
X40276Y43467
X41276Y43467
X42276Y43467
X42276Y44467
X41276Y44467
X40276Y42467
X40276Y41467
X40276Y40467
X40276Y39467
X40276Y38467
X40276Y37467
X39276Y37467
X38276Y37467
X38276Y38467
X39276Y38467
X39276Y39467
X38276Y39467
X38276Y40467
X39276Y40467
X39276Y41467
X38276Y41467
X38276Y42467
X39276Y42467
X39276Y43467
X39276Y44467
X38276Y44467
X38276Y43467
X37276Y43467
X37276Y44467
X37276Y45467
X37276Y46467
X38276Y46467
X39276Y46467
X39276Y45467
X38276Y45467
X37276Y47467
X36276Y47467
X36276Y46467
X36276Y45467
X36276Y44467
X36276Y43467
X36276Y42467
X37276Y42467
X37276Y41467
X37276Y40467
X37276Y39467
X37276Y38467
X37276Y37467
X36276Y37467
X36276Y38467
X36276Y39467
X36276Y40467
X36276Y41467
X35276Y41467
X35276Y40467
X34276Y40967
X34276Y41967
X35276Y42467
X34276Y42967
X34276Y43967
X35276Y44467
X35276Y43467
X34276Y44967
X35276Y45467
X35276Y46467
X34276Y45967
X34276Y47467
X35276Y47467
X35276Y48467
X35276Y49467
X34276Y49467
X34276Y48467
X28441Y49467
X28441Y50467
X28441Y51467
X28441Y52467
X28441Y53467
X28441Y54467
X26441Y54467
X26441Y53467
X25441Y53467
X25441Y54467
X24441Y54467
X23441Y54467
X23441Y53467
X24441Y53467
X24441Y52467
X23441Y52467
X23441Y51467
X24441Y51467
X25441Y51467
X25441Y52467
X26441Y52467
X26441Y51467
X26441Y50467
X25441Y50467
X24441Y50467
X23441Y50467
X22441Y50467
X22441Y51467
X22441Y52467
X22441Y53467
X22441Y54467
X21441Y54467
X20441Y54467
X20441Y53467
X21441Y53467
X21441Y52467
X20441Y52467
X20441Y51467
X21441Y51467
X21441Y50467
X20441Y50467
X19441Y50467
X19441Y51467
X19441Y52467
X19441Y53467
X19441Y54467
X18441Y54467
X17441Y54467
X17441Y53467
X18441Y53467
X18441Y52467
X17441Y52467
X17441Y51467
X18441Y51467
X18441Y50467
X17441Y50467
X16441Y50467
X16441Y51467
X16441Y52467
X16441Y53467
X16441Y54467
X15441Y54467
X14441Y54467
X14441Y53467
X15441Y53467
X15441Y52467
X14441Y52467
X14441Y51467
X15441Y51467
X15441Y50467
X14441Y50467
X13441Y50467
X13441Y51467
X13441Y52467
X13441Y53467
X13441Y54467
X12441Y54467
X11441Y54467
X11441Y53467
X12441Y53467
X12441Y52467
X11441Y52467
X11441Y51467
X12441Y51467
X12441Y50467
X11441Y50467
X11441Y49467
X12441Y49467
X12441Y48467
X11441Y48467
X11441Y47467
X12441Y47467
X13441Y47467
X13441Y48467
X13441Y49467
X14441Y49467
X15441Y49467
X15441Y48467
X14441Y48467
X14441Y47467
X15441Y47467
X16441Y47467
X16441Y48467
X16441Y49467
X17441Y49467
X18441Y49467
X18441Y48467
X17441Y48467
X17441Y47467
X18441Y47467
X19441Y47467
X19441Y48467
X19441Y49467
X20441Y49467
X21441Y49467
X21441Y48467
X20441Y48467
X20441Y47467
X21441Y47467
X22441Y47467
X22441Y48467
X22441Y49467
X23441Y49467
X24441Y49467
X24441Y48467
X23441Y48467
X23441Y47467
X24441Y47467
X25441Y47467
X25441Y48467
X25441Y49467
X26441Y49467
X26441Y47467
X26441Y46467
X26441Y45467
X25441Y45467
X25441Y46467
X24441Y46467
X23441Y46467
X23441Y45467
X24441Y45467
X24441Y44467
X23441Y44467
X23441Y43467
X24441Y43467
X25441Y43467
X25441Y44467
X26441Y44467
X26441Y43467
X26441Y42467
X25441Y42467
X24441Y42467
X23441Y42467
X22441Y42467
X22441Y43467
X22441Y44467
X22441Y45467
X22441Y46467
X21441Y46467
X20441Y46467
X20441Y45467
X21441Y45467
X21441Y44467
X20441Y44467
X20441Y43467
X21441Y43467
X21441Y42467
X20441Y42467
X19441Y42467
X19441Y43467
X19441Y44467
X19441Y45467
X19441Y46467
X18441Y46467
X17441Y46467
X17441Y45467
X18441Y45467
X18441Y44467
X17441Y44467
X17441Y43467
X18441Y43467
X18441Y42467
X17441Y42467
X16441Y42467
X16441Y43467
X16441Y44467
X16441Y45467
X16441Y46467
X15441Y46467
X14441Y46467
X14441Y45467
X15441Y45467
X15441Y44467
X14441Y44467
X14441Y43467
X15441Y43467
X15441Y42467
X14441Y42467
X13441Y42467
X13441Y43467
X13441Y44467
X13441Y45467
X13441Y46467
X12441Y46467
X12441Y45467
X11441Y45967
X11441Y44967
X12441Y44467
X12441Y43467
X11441Y43967
X11441Y42967
X12441Y42467
X11441Y41967
X11441Y40967
X12441Y41467
X12441Y40467
X11441Y39967
X12441Y39467
X12441Y38467
X11441Y38967
X11441Y37967
X12441Y37467
X11441Y36967
X13441Y37467
X13441Y38467
X13441Y39467
X13441Y40467
X13441Y41467
X14441Y41467
X15441Y41467
X15441Y40467
X14441Y40467
X14441Y39467
X15441Y39467
X15441Y38467
X14441Y38467
X14441Y37467
X15441Y37467
X16441Y37467
X16441Y38467
X16441Y39467
X16441Y40467
X16441Y41467
X17441Y41467
X18441Y41467
X18441Y40467
X17441Y40467
X17441Y39467
X18441Y39467
X18441Y38467
X17441Y38467
X17441Y37467
X18441Y37467
X19441Y37467
X19441Y38467
X19441Y39467
X19441Y40467
X19441Y41467
X20441Y41467
X21441Y41467
X21441Y40467
X20441Y40467
X20441Y39467
X21441Y39467
X21441Y38467
X20441Y38467
X20441Y37467
X21441Y37467
X22441Y37467
X22441Y38467
X22441Y39467
X22441Y40467
X22441Y41467
X23441Y41467
X24441Y41467
X24441Y40467
X23441Y40467
X23441Y39467
X24441Y39467
X24441Y38467
X23441Y38467
X23441Y37467
X24441Y37467
X25441Y37467
X25441Y38467
X25441Y39467
X25441Y40467
X25441Y41467
X26441Y41467
X28441Y41467
X28441Y40467
X28441Y42467
X28441Y43467
X28441Y44467
X28441Y45467
X28441Y46467
X28441Y47467
X34276Y39967
X35276Y39467
X35276Y38467
X34276Y38967
X34276Y37967
X35276Y37467
X34276Y36967
X40276Y48467
X40276Y49467
X41276Y49467
X42276Y49467
X42276Y48467
X41276Y48467
X43276Y48467
X43276Y49467
X44276Y49467
X45276Y49467
X45276Y48467
X44276Y48467
X46276Y48467
X46276Y49467
X47276Y49467
X48276Y49467
X48276Y48467
X47276Y48467
X49276Y49467
X51276Y49467
X51276Y50467
X51276Y51467
X51276Y52467
X51276Y53467
X51276Y54467
X51276Y47467
X51276Y46467
X51276Y45467
X51276Y44467
X51276Y43467
X51276Y42467
X51276Y41467
X51276Y40467
X51276Y17270
X51276Y16270
X51276Y15270
X34276Y11770
X32276Y11770
X32276Y12770
X32276Y13770
X32276Y14770
X9441Y36967
X9441Y37967
X9441Y38967
X9441Y39967
X9441Y40967
X9441Y41967
X9441Y42967
X9441Y43967
X9441Y44967
X9441Y45967
X9441Y47467
X9441Y48467
X9441Y49467
X9441Y50467
X9441Y51467
X9441Y52467
X9441Y53467
X9441Y54467
M30
