G75*
%MOIN*%
%OFA0B0*%
%FSLAX25Y25*%
%IPPOS*%
%LPD*%
%AMOC8*
5,1,8,0,0,1.08239X$1,22.5*
%
%ADD10R,0.03150X0.03543*%
%ADD11R,0.04331X0.03937*%
%ADD12R,0.04724X0.07874*%
%ADD13R,0.02362X0.05315*%
D10*
X0265670Y0123762D03*
X0273151Y0123762D03*
X0280670Y0123762D03*
X0288151Y0123762D03*
X0284411Y0132030D03*
X0269411Y0132030D03*
X0494017Y0123762D03*
X0501497Y0123762D03*
X0509017Y0123762D03*
X0516497Y0123762D03*
X0512757Y0132030D03*
X0497757Y0132030D03*
X0494017Y0375731D03*
X0501497Y0375731D03*
X0497757Y0383999D03*
X0509017Y0375731D03*
X0516497Y0375731D03*
X0512757Y0383999D03*
X0288151Y0375731D03*
X0284411Y0383999D03*
X0280670Y0375731D03*
X0273151Y0375731D03*
X0265670Y0375731D03*
X0269411Y0383999D03*
D11*
X0272757Y0389668D03*
X0266064Y0389668D03*
X0281064Y0389668D03*
X0287757Y0389668D03*
X0287757Y0364668D03*
X0281064Y0364668D03*
X0272757Y0364668D03*
X0266064Y0364668D03*
X0266064Y0137699D03*
X0272757Y0137699D03*
X0281064Y0137699D03*
X0287757Y0137699D03*
X0287757Y0112699D03*
X0281064Y0112699D03*
X0272757Y0112699D03*
X0266064Y0112699D03*
X0494411Y0112699D03*
X0501104Y0112699D03*
X0509411Y0112699D03*
X0516104Y0112699D03*
X0516104Y0137699D03*
X0509411Y0137699D03*
X0501104Y0137699D03*
X0494411Y0137699D03*
X0494411Y0364668D03*
X0501104Y0364668D03*
X0509411Y0364668D03*
X0516104Y0364668D03*
X0516104Y0389668D03*
X0509411Y0389668D03*
X0501104Y0389668D03*
X0494411Y0389668D03*
D12*
X0133387Y0083231D03*
X0155434Y0083231D03*
X0163387Y0083231D03*
X0185434Y0083231D03*
X0193387Y0083231D03*
X0215434Y0083231D03*
X0223387Y0083231D03*
X0245434Y0083231D03*
X0361733Y0083231D03*
X0383781Y0083231D03*
X0391733Y0083231D03*
X0413781Y0083231D03*
X0421733Y0083231D03*
X0443781Y0083231D03*
X0451733Y0083231D03*
X0473781Y0083231D03*
X0473781Y0335199D03*
X0451733Y0335199D03*
X0443781Y0335199D03*
X0421733Y0335199D03*
X0413781Y0335199D03*
X0391733Y0335199D03*
X0383781Y0335199D03*
X0361733Y0335199D03*
X0245434Y0335199D03*
X0223387Y0335199D03*
X0215434Y0335199D03*
X0193387Y0335199D03*
X0185434Y0335199D03*
X0163387Y0335199D03*
X0155434Y0335199D03*
X0133387Y0335199D03*
D13*
X0138505Y0349668D03*
X0142442Y0349668D03*
X0146379Y0349668D03*
X0150316Y0349668D03*
X0168505Y0349668D03*
X0172442Y0349668D03*
X0176379Y0349668D03*
X0180316Y0349668D03*
X0198505Y0349668D03*
X0202442Y0349668D03*
X0206379Y0349668D03*
X0210316Y0349668D03*
X0228505Y0349668D03*
X0232442Y0349668D03*
X0236379Y0349668D03*
X0240316Y0349668D03*
X0366852Y0349668D03*
X0370789Y0349668D03*
X0374726Y0349668D03*
X0378663Y0349668D03*
X0396852Y0349668D03*
X0400789Y0349668D03*
X0404726Y0349668D03*
X0408663Y0349668D03*
X0426852Y0349668D03*
X0430789Y0349668D03*
X0434726Y0349668D03*
X0438663Y0349668D03*
X0456852Y0349668D03*
X0460789Y0349668D03*
X0464726Y0349668D03*
X0468663Y0349668D03*
X0468663Y0097699D03*
X0464726Y0097699D03*
X0460789Y0097699D03*
X0456852Y0097699D03*
X0438663Y0097699D03*
X0434726Y0097699D03*
X0430789Y0097699D03*
X0426852Y0097699D03*
X0408663Y0097699D03*
X0404726Y0097699D03*
X0400789Y0097699D03*
X0396852Y0097699D03*
X0378663Y0097699D03*
X0374726Y0097699D03*
X0370789Y0097699D03*
X0366852Y0097699D03*
X0240316Y0097699D03*
X0236379Y0097699D03*
X0232442Y0097699D03*
X0228505Y0097699D03*
X0210316Y0097699D03*
X0206379Y0097699D03*
X0202442Y0097699D03*
X0198505Y0097699D03*
X0180316Y0097699D03*
X0176379Y0097699D03*
X0172442Y0097699D03*
X0168505Y0097699D03*
X0150316Y0097699D03*
X0146379Y0097699D03*
X0142442Y0097699D03*
X0138505Y0097699D03*
M02*
