G75*
%MOIN*%
%OFA0B0*%
%FSLAX25Y25*%
%IPPOS*%
%LPD*%
%AMOC8*
5,1,8,0,0,1.08239X$1,22.5*
%
%ADD10C,0.00800*%
%ADD11C,0.01000*%
%ADD12C,0.01100*%
D10*
X0084411Y0087699D02*
X0084411Y0302699D01*
X0094411Y0325731D02*
X0284411Y0325731D01*
X0294411Y0335731D02*
X0294411Y0550731D01*
X0308820Y0550731D02*
X0308820Y0335731D01*
X0318820Y0325731D02*
X0508820Y0325731D01*
X0518820Y0335731D02*
X0518820Y0550731D01*
X0518820Y0302699D02*
X0518820Y0087699D01*
X0508820Y0077699D02*
X0318820Y0077699D01*
X0308820Y0087699D02*
X0308820Y0302699D01*
X0294411Y0302699D02*
X0294411Y0087699D01*
X0284411Y0077699D02*
X0094411Y0077699D01*
X0084411Y0335731D02*
X0084411Y0550731D01*
D11*
X0084411Y0087699D02*
X0094411Y0077699D01*
X0284411Y0077699D02*
X0294411Y0087699D01*
X0294647Y0091277D02*
X0294647Y0080894D01*
X0294647Y0074989D02*
X0294647Y0064606D01*
X0294647Y0058701D02*
X0294647Y0048318D01*
X0294647Y0042413D02*
X0294647Y0032030D01*
X0287560Y0019432D01*
X0308820Y0022581D02*
X0308820Y0033155D01*
X0308820Y0039061D02*
X0308820Y0049634D01*
X0308820Y0055540D02*
X0308820Y0066113D01*
X0308820Y0072019D02*
X0308820Y0082593D01*
X0308820Y0087699D02*
X0318820Y0077699D01*
X0308820Y0088498D02*
X0308820Y0099072D01*
X0308820Y0104977D02*
X0308820Y0115551D01*
X0308820Y0121456D02*
X0308820Y0132030D01*
X0308820Y0137936D02*
X0308820Y0148509D01*
X0308820Y0154415D02*
X0308820Y0164989D01*
X0308820Y0170894D02*
X0308820Y0181468D01*
X0308820Y0187373D02*
X0308820Y0197947D01*
X0308820Y0203852D02*
X0308820Y0214426D01*
X0308820Y0220332D02*
X0308820Y0230905D01*
X0308820Y0236811D02*
X0308820Y0247385D01*
X0308820Y0253290D02*
X0308820Y0263864D01*
X0308820Y0269769D02*
X0308820Y0280343D01*
X0308820Y0286248D02*
X0308820Y0296822D01*
X0308820Y0302699D02*
X0318820Y0312699D01*
X0508820Y0312699D01*
X0518820Y0302699D01*
X0518269Y0313920D02*
X0528702Y0313920D01*
X0534607Y0313920D02*
X0545041Y0313920D01*
X0564726Y0294235D01*
X0564726Y0325731D02*
X0554058Y0325731D01*
X0548152Y0325731D02*
X0537484Y0325731D01*
X0531578Y0325731D02*
X0520910Y0325731D01*
X0515005Y0325731D02*
X0504337Y0325731D01*
X0508820Y0325731D02*
X0518820Y0335731D01*
X0498431Y0325731D02*
X0487763Y0325731D01*
X0481858Y0325731D02*
X0471190Y0325731D01*
X0465284Y0325731D02*
X0454616Y0325731D01*
X0448711Y0325731D02*
X0438043Y0325731D01*
X0432137Y0325731D02*
X0421469Y0325731D01*
X0415564Y0325731D02*
X0404896Y0325731D01*
X0398990Y0325731D02*
X0388322Y0325731D01*
X0382417Y0325731D02*
X0371749Y0325731D01*
X0365843Y0325731D02*
X0355175Y0325731D01*
X0349270Y0325731D02*
X0338602Y0325731D01*
X0332696Y0325731D02*
X0322028Y0325731D01*
X0318820Y0325731D02*
X0308820Y0335731D01*
X0308820Y0335686D02*
X0308820Y0346260D01*
X0308820Y0352165D02*
X0308820Y0362739D01*
X0308820Y0368644D02*
X0308820Y0379218D01*
X0308820Y0385124D02*
X0308820Y0395697D01*
X0308820Y0401603D02*
X0308820Y0412176D01*
X0308820Y0418082D02*
X0308820Y0428656D01*
X0308820Y0434561D02*
X0308820Y0445135D01*
X0308820Y0451040D02*
X0308820Y0461614D01*
X0308820Y0467519D02*
X0308820Y0478093D01*
X0308820Y0483999D02*
X0308820Y0494572D01*
X0308820Y0500478D02*
X0308820Y0511052D01*
X0308820Y0516957D02*
X0308820Y0527531D01*
X0308820Y0533436D02*
X0308820Y0544010D01*
X0308820Y0549915D02*
X0308820Y0560489D01*
X0308820Y0566395D02*
X0308820Y0576968D01*
X0308820Y0582874D02*
X0308820Y0593448D01*
X0316694Y0601322D01*
X0294647Y0596203D02*
X0294647Y0585821D01*
X0294647Y0579915D02*
X0294647Y0569533D01*
X0294647Y0563627D02*
X0294647Y0553245D01*
X0294411Y0550731D02*
X0284411Y0560731D01*
X0094411Y0560731D01*
X0084411Y0550731D01*
X0084411Y0335731D02*
X0094411Y0325731D01*
X0089999Y0325731D02*
X0100667Y0325731D01*
X0106572Y0325731D02*
X0117240Y0325731D01*
X0123146Y0325731D02*
X0133814Y0325731D01*
X0139719Y0325731D02*
X0150387Y0325731D01*
X0156293Y0325731D02*
X0166961Y0325731D01*
X0172866Y0325731D02*
X0183534Y0325731D01*
X0189440Y0325731D02*
X0200108Y0325731D01*
X0206013Y0325731D02*
X0216681Y0325731D01*
X0222587Y0325731D02*
X0233255Y0325731D01*
X0239160Y0325731D02*
X0249828Y0325731D01*
X0255734Y0325731D02*
X0266402Y0325731D01*
X0272307Y0325731D02*
X0282975Y0325731D01*
X0284411Y0325731D02*
X0294411Y0335731D01*
X0294647Y0335596D02*
X0294647Y0325214D01*
X0299549Y0325731D02*
X0288881Y0325731D01*
X0294647Y0319308D02*
X0294647Y0308926D01*
X0294647Y0303020D02*
X0294647Y0292638D01*
X0294647Y0286732D02*
X0294647Y0276350D01*
X0294647Y0270444D02*
X0294647Y0260062D01*
X0294647Y0254156D02*
X0294647Y0243774D01*
X0294647Y0237868D02*
X0294647Y0227486D01*
X0294647Y0221580D02*
X0294647Y0211198D01*
X0294647Y0205292D02*
X0294647Y0194910D01*
X0294647Y0189004D02*
X0294647Y0178622D01*
X0294647Y0172716D02*
X0294647Y0162334D01*
X0294647Y0156428D02*
X0294647Y0146046D01*
X0294647Y0140140D02*
X0294647Y0129758D01*
X0294647Y0123852D02*
X0294647Y0113470D01*
X0294647Y0107564D02*
X0294647Y0097182D01*
X0294411Y0302699D02*
X0284411Y0312699D01*
X0094411Y0312699D01*
X0084411Y0302699D01*
X0087560Y0313920D02*
X0077127Y0313920D01*
X0071222Y0313920D02*
X0060789Y0313920D01*
X0056852Y0325731D02*
X0067520Y0325731D01*
X0073425Y0325731D02*
X0084093Y0325731D01*
X0093466Y0313920D02*
X0103899Y0313920D01*
X0109804Y0313920D02*
X0120237Y0313920D01*
X0126143Y0313920D02*
X0136576Y0313920D01*
X0142481Y0313920D02*
X0152915Y0313920D01*
X0158820Y0313920D02*
X0169253Y0313920D01*
X0175159Y0313920D02*
X0185592Y0313920D01*
X0191497Y0313920D02*
X0201930Y0313920D01*
X0207836Y0313920D02*
X0218269Y0313920D01*
X0224174Y0313920D02*
X0234607Y0313920D01*
X0240513Y0313920D02*
X0250946Y0313920D01*
X0256852Y0313920D02*
X0267285Y0313920D01*
X0273190Y0313920D02*
X0283623Y0313920D01*
X0289529Y0313920D02*
X0299962Y0313920D01*
X0305867Y0313920D02*
X0316300Y0313920D01*
X0322206Y0313920D02*
X0332639Y0313920D01*
X0338544Y0313920D02*
X0348978Y0313920D01*
X0354883Y0313920D02*
X0365316Y0313920D01*
X0371222Y0313920D02*
X0381655Y0313920D01*
X0387560Y0313920D02*
X0397993Y0313920D01*
X0403899Y0313920D02*
X0414332Y0313920D01*
X0420237Y0313920D02*
X0430670Y0313920D01*
X0436576Y0313920D02*
X0447009Y0313920D01*
X0452915Y0313920D02*
X0463348Y0313920D01*
X0469253Y0313920D02*
X0479686Y0313920D01*
X0485592Y0313920D02*
X0496025Y0313920D01*
X0501930Y0313920D02*
X0512363Y0313920D01*
X0564726Y0325731D02*
X0572600Y0333605D01*
X0518820Y0550731D02*
X0508820Y0560731D01*
X0318820Y0560731D01*
X0308820Y0550731D01*
X0294647Y0547340D02*
X0294647Y0536957D01*
X0294647Y0531052D02*
X0294647Y0520669D01*
X0294647Y0514764D02*
X0294647Y0504381D01*
X0294647Y0498476D02*
X0294647Y0488093D01*
X0294647Y0482188D02*
X0294647Y0471805D01*
X0294647Y0465900D02*
X0294647Y0455517D01*
X0294647Y0449612D02*
X0294647Y0439229D01*
X0294647Y0433324D02*
X0294647Y0422941D01*
X0294647Y0417036D02*
X0294647Y0406653D01*
X0294647Y0400748D02*
X0294647Y0390365D01*
X0294647Y0384460D02*
X0294647Y0374077D01*
X0294647Y0368172D02*
X0294647Y0357789D01*
X0294647Y0351884D02*
X0294647Y0341502D01*
X0308820Y0329780D02*
X0308820Y0319207D01*
X0308820Y0313301D02*
X0308820Y0302728D01*
X0305455Y0325731D02*
X0316123Y0325731D01*
X0518820Y0087699D02*
X0508820Y0077699D01*
X0294647Y0596203D02*
X0293072Y0597778D01*
D12*
X0296302Y0610183D02*
X0299254Y0610183D01*
X0300239Y0611167D01*
X0299254Y0612151D01*
X0297286Y0612151D01*
X0296302Y0613135D01*
X0297286Y0614119D01*
X0300239Y0614119D01*
X0302747Y0613135D02*
X0303732Y0614119D01*
X0306684Y0614119D01*
X0309193Y0613135D02*
X0310177Y0614119D01*
X0312145Y0614119D01*
X0313130Y0613135D01*
X0313130Y0611167D01*
X0312145Y0610183D01*
X0310177Y0610183D01*
X0309193Y0611167D01*
X0309193Y0613135D01*
X0306684Y0610183D02*
X0303732Y0610183D01*
X0302747Y0611167D01*
X0302747Y0613135D01*
X0293793Y0613135D02*
X0289856Y0613135D01*
X0287348Y0614119D02*
X0285379Y0610183D01*
X0283411Y0614119D01*
X0315638Y0614119D02*
X0315638Y0610183D01*
X0315638Y0612151D02*
X0317607Y0614119D01*
X0318591Y0614119D01*
X0321010Y0613135D02*
X0321994Y0614119D01*
X0323962Y0614119D01*
X0324946Y0613135D01*
X0324946Y0612151D01*
X0321010Y0612151D01*
X0321010Y0611167D02*
X0321010Y0613135D01*
X0321010Y0611167D02*
X0321994Y0610183D01*
X0323962Y0610183D01*
X0551127Y0322781D02*
X0553096Y0318844D01*
X0555064Y0322781D01*
X0557573Y0321796D02*
X0561510Y0321796D01*
X0564018Y0321796D02*
X0565003Y0322781D01*
X0567955Y0322781D01*
X0566971Y0320812D02*
X0565003Y0320812D01*
X0564018Y0321796D01*
X0564018Y0318844D02*
X0566971Y0318844D01*
X0567955Y0319828D01*
X0566971Y0320812D01*
X0570464Y0319828D02*
X0571448Y0318844D01*
X0574401Y0318844D01*
X0576909Y0319828D02*
X0577894Y0318844D01*
X0579862Y0318844D01*
X0580846Y0319828D01*
X0580846Y0321796D01*
X0579862Y0322781D01*
X0577894Y0322781D01*
X0576909Y0321796D01*
X0576909Y0319828D01*
X0574401Y0322781D02*
X0571448Y0322781D01*
X0570464Y0321796D01*
X0570464Y0319828D01*
X0583355Y0318844D02*
X0583355Y0322781D01*
X0585323Y0322781D02*
X0586307Y0322781D01*
X0585323Y0322781D02*
X0583355Y0320812D01*
X0588726Y0320812D02*
X0592663Y0320812D01*
X0592663Y0321796D01*
X0591679Y0322781D01*
X0589710Y0322781D01*
X0588726Y0321796D01*
X0588726Y0319828D01*
X0589710Y0318844D01*
X0591679Y0318844D01*
X0316088Y0007820D02*
X0317072Y0006836D01*
X0317072Y0005852D01*
X0313136Y0005852D01*
X0313136Y0006836D02*
X0313136Y0004867D01*
X0314120Y0003883D01*
X0316088Y0003883D01*
X0316088Y0007820D02*
X0314120Y0007820D01*
X0313136Y0006836D01*
X0310717Y0007820D02*
X0309733Y0007820D01*
X0307764Y0005852D01*
X0307764Y0007820D02*
X0307764Y0003883D01*
X0305256Y0004867D02*
X0305256Y0006836D01*
X0304271Y0007820D01*
X0302303Y0007820D01*
X0301319Y0006836D01*
X0301319Y0004867D01*
X0302303Y0003883D01*
X0304271Y0003883D01*
X0305256Y0004867D01*
X0298810Y0003883D02*
X0295858Y0003883D01*
X0294873Y0004867D01*
X0294873Y0006836D01*
X0295858Y0007820D01*
X0298810Y0007820D01*
X0292365Y0007820D02*
X0289412Y0007820D01*
X0288428Y0006836D01*
X0289412Y0005852D01*
X0291380Y0005852D01*
X0292365Y0004867D01*
X0291380Y0003883D01*
X0288428Y0003883D01*
X0285919Y0006836D02*
X0281982Y0006836D01*
X0279474Y0007820D02*
X0277505Y0003883D01*
X0275537Y0007820D01*
X0044435Y0318844D02*
X0042466Y0318844D01*
X0041482Y0319828D01*
X0041482Y0321796D01*
X0042466Y0322781D01*
X0044435Y0322781D01*
X0045419Y0321796D01*
X0045419Y0320812D01*
X0041482Y0320812D01*
X0039063Y0322781D02*
X0038079Y0322781D01*
X0036111Y0320812D01*
X0036111Y0318844D02*
X0036111Y0322781D01*
X0033602Y0321796D02*
X0032618Y0322781D01*
X0030649Y0322781D01*
X0029665Y0321796D01*
X0029665Y0319828D01*
X0030649Y0318844D01*
X0032618Y0318844D01*
X0033602Y0319828D01*
X0033602Y0321796D01*
X0027157Y0322781D02*
X0024204Y0322781D01*
X0023220Y0321796D01*
X0023220Y0319828D01*
X0024204Y0318844D01*
X0027157Y0318844D01*
X0020711Y0319828D02*
X0019727Y0320812D01*
X0017758Y0320812D01*
X0016774Y0321796D01*
X0017758Y0322781D01*
X0020711Y0322781D01*
X0020711Y0319828D02*
X0019727Y0318844D01*
X0016774Y0318844D01*
X0014266Y0321796D02*
X0010329Y0321796D01*
X0007820Y0322781D02*
X0005852Y0318844D01*
X0003883Y0322781D01*
M02*
