%
M48
M72
T01C0.0150
T02C0.0400
%
T01
X12941Y9770
X15191Y10520
X15941Y9770
X18191Y10520
X18941Y9770
X21191Y10520
X21941Y9770
X24191Y10520
X27691Y11770
X27691Y13220
X35382Y9770
X37632Y10520
X38382Y9770
X40632Y10520
X41382Y9770
X43632Y10520
X44382Y9770
X46632Y10520
X50132Y11770
X50132Y13220
X44382Y34573
X43632Y35323
X41382Y34573
X40632Y35323
X38382Y34573
X37632Y35323
X35382Y34573
X27691Y36573
X27691Y38023
X24191Y35323
X21941Y34573
X21191Y35323
X18941Y34573
X18191Y35323
X15941Y34573
X15191Y35323
X12941Y34573
X46632Y35323
X50132Y36573
X50132Y38023
T02
X9441Y11770
X9441Y12770
X9441Y13770
X9441Y14770
X9441Y15770
X9441Y16770
X9441Y17770
X9441Y18770
X9441Y19770
X9441Y20770
X9441Y22270
X9441Y23270
X9441Y24270
X9441Y25270
X9441Y26270
X9441Y27270
X9441Y28270
X9441Y29270
X11441Y29270
X12441Y29270
X12441Y28270
X11441Y28270
X11441Y27270
X11441Y26270
X12441Y26270
X12441Y27270
X13441Y27270
X13441Y26270
X13441Y25270
X13441Y24270
X12441Y24270
X11441Y24270
X11441Y25270
X12441Y25270
X12441Y23270
X11441Y23270
X11441Y22270
X12441Y22270
X12441Y21270
X11441Y20770
X12441Y20270
X12441Y19270
X11441Y19770
X11441Y18770
X12441Y18270
X11441Y17770
X11441Y16770
X12441Y17270
X12441Y16270
X11441Y15770
X12441Y15270
X12441Y14270
X11441Y14770
X11441Y13770
X12441Y13270
X11441Y12770
X12441Y12270
X11441Y11770
X13441Y12270
X13441Y13270
X13441Y14270
X13441Y15270
X13441Y16270
X13441Y17270
X13441Y18270
X13441Y19270
X13441Y20270
X13441Y21270
X13441Y22270
X13441Y23270
X14441Y23270
X15441Y23270
X15441Y24270
X14441Y24270
X14441Y25270
X15441Y25270
X15441Y26270
X14441Y26270
X14441Y27270
X15441Y27270
X15441Y28270
X14441Y28270
X13441Y28270
X13441Y29270
X14441Y29270
X15441Y29270
X16441Y29270
X16441Y28270
X16441Y27270
X16441Y26270
X16441Y25270
X16441Y24270
X16441Y23270
X16441Y22270
X16441Y21270
X15441Y21270
X14441Y21270
X14441Y22270
X15441Y22270
X15441Y20270
X14441Y20270
X14441Y19270
X15441Y19270
X15441Y18270
X14441Y18270
X14441Y17270
X14441Y16270
X15441Y16270
X15441Y17270
X16441Y17270
X16441Y16270
X16441Y15270
X16441Y14270
X15441Y14270
X14441Y14270
X14441Y15270
X15441Y15270
X15441Y13270
X14441Y13270
X14441Y12270
X15441Y12270
X16441Y12270
X16441Y13270
X17441Y13270
X18441Y13270
X18441Y14270
X17441Y14270
X17441Y15270
X18441Y15270
X18441Y16270
X17441Y16270
X17441Y17270
X18441Y17270
X18441Y18270
X17441Y18270
X16441Y18270
X16441Y19270
X16441Y20270
X17441Y20270
X17441Y19270
X18441Y19270
X18441Y20270
X18441Y21270
X17441Y21270
X17441Y22270
X18441Y22270
X18441Y23270
X17441Y23270
X17441Y24270
X17441Y25270
X18441Y25270
X18441Y24270
X19441Y24270
X19441Y25270
X19441Y26270
X19441Y27270
X18441Y27270
X17441Y27270
X17441Y26270
X18441Y26270
X18441Y28270
X17441Y28270
X17441Y29270
X18441Y29270
X19441Y29270
X19441Y28270
X20441Y28270
X21441Y28270
X21441Y29270
X20441Y29270
X22441Y29270
X22441Y28270
X22441Y27270
X22441Y26270
X21441Y26270
X20441Y26270
X20441Y27270
X21441Y27270
X21441Y25270
X20441Y25270
X20441Y24270
X21441Y24270
X21441Y23270
X20441Y23270
X19441Y23270
X19441Y22270
X19441Y21270
X19441Y20270
X19441Y19270
X19441Y18270
X19441Y17270
X19441Y16270
X19441Y15270
X19441Y14270
X19441Y13270
X19441Y12270
X18441Y12270
X17441Y12270
X20441Y12270
X21441Y12270
X21441Y13270
X20441Y13270
X20441Y14270
X20441Y15270
X21441Y15270
X21441Y14270
X22441Y14270
X22441Y15270
X22441Y16270
X22441Y17270
X21441Y17270
X20441Y17270
X20441Y16270
X21441Y16270
X21441Y18270
X20441Y18270
X20441Y19270
X20441Y20270
X21441Y20270
X21441Y19270
X22441Y19270
X22441Y20270
X22441Y21270
X22441Y22270
X21441Y22270
X20441Y22270
X20441Y21270
X21441Y21270
X22441Y23270
X22441Y24270
X22441Y25270
X23441Y25270
X23441Y24270
X24441Y24270
X24441Y25270
X24441Y26270
X23441Y26270
X23441Y27270
X24441Y27270
X24441Y28270
X23441Y28270
X23441Y29270
X24441Y29270
X25441Y29270
X25441Y28270
X25441Y27270
X25441Y26270
X25441Y25270
X25441Y24270
X25441Y23270
X24441Y23270
X23441Y23270
X23441Y22270
X23441Y21270
X24441Y21270
X24441Y22270
X25441Y22270
X25441Y21270
X25441Y20270
X25441Y19270
X24441Y19270
X23441Y19270
X23441Y20270
X24441Y20270
X24441Y18270
X23441Y18270
X22441Y18270
X23441Y17270
X23441Y16270
X24441Y16270
X24441Y17270
X25441Y17270
X25441Y16270
X25441Y15270
X25441Y14270
X24441Y14270
X23441Y14270
X23441Y15270
X24441Y15270
X24441Y13270
X23441Y13270
X22441Y13270
X22441Y12270
X23441Y12270
X24441Y12270
X25441Y12270
X25441Y13270
X26441Y16270
X26441Y17270
X26441Y18270
X25441Y18270
X26441Y19270
X26441Y20270
X26441Y21270
X26441Y22270
X28441Y22270
X28441Y21270
X28441Y20270
X28441Y19270
X28441Y18270
X28441Y17270
X28441Y16270
X28441Y15270
X31882Y15770
X31882Y16770
X31882Y17770
X31882Y18770
X31882Y19770
X31882Y20770
X31882Y22270
X31882Y23270
X31882Y24270
X31882Y25270
X31882Y26270
X31882Y27270
X31882Y28270
X31882Y29270
X33882Y29270
X34882Y29270
X35882Y29270
X36882Y29270
X37882Y29270
X38882Y29270
X39882Y29270
X40882Y29270
X41882Y29270
X42882Y29270
X43882Y29270
X44882Y29270
X45882Y29270
X46882Y29270
X47882Y29270
X48882Y29270
X48882Y28270
X47882Y28270
X46882Y28270
X45882Y28270
X44882Y28270
X43882Y28270
X42882Y28270
X41882Y28270
X40882Y28270
X39882Y28270
X38882Y28270
X37882Y28270
X36882Y28270
X35882Y28270
X34882Y28270
X33882Y28270
X33882Y27270
X33882Y26270
X34882Y26270
X34882Y27270
X35882Y27270
X36882Y27270
X36882Y26270
X35882Y26270
X35882Y25270
X36882Y25270
X36882Y24270
X35882Y24270
X34882Y24270
X34882Y25270
X33882Y25270
X33882Y24270
X33882Y23270
X34882Y23270
X35882Y23270
X36882Y23270
X37882Y23270
X37882Y24270
X37882Y25270
X37882Y26270
X37882Y27270
X38882Y27270
X39882Y27270
X39882Y26270
X38882Y26270
X38882Y25270
X39882Y25270
X39882Y24270
X38882Y24270
X38882Y23270
X39882Y23270
X40882Y23270
X40882Y24270
X40882Y25270
X40882Y26270
X40882Y27270
X41882Y27270
X42882Y27270
X42882Y26270
X41882Y26270
X41882Y25270
X42882Y25270
X42882Y24270
X41882Y24270
X41882Y23270
X42882Y23270
X43882Y23270
X43882Y24270
X43882Y25270
X43882Y26270
X43882Y27270
X44882Y27270
X45882Y27270
X45882Y26270
X44882Y26270
X44882Y25270
X45882Y25270
X45882Y24270
X44882Y24270
X44882Y23270
X45882Y23270
X46882Y23270
X46882Y24270
X46882Y25270
X46882Y26270
X46882Y27270
X47882Y27270
X48882Y27270
X48882Y26270
X47882Y26270
X47882Y25270
X48882Y25270
X48882Y24270
X47882Y24270
X47882Y23270
X47882Y22270
X48882Y22270
X48882Y21270
X47882Y21270
X46882Y21270
X46882Y22270
X45882Y22270
X44882Y22270
X44882Y21270
X45882Y21270
X45882Y20270
X44882Y20270
X44882Y19270
X45882Y19270
X46882Y19270
X46882Y20270
X47882Y20270
X48882Y20270
X48882Y19270
X47882Y19270
X47882Y18270
X48882Y18270
X48882Y17270
X47882Y17270
X47882Y16270
X48882Y16270
X47882Y15270
X47882Y14270
X46882Y14270
X46882Y15270
X46882Y16270
X46882Y17270
X46882Y18270
X45882Y18270
X44882Y18270
X43882Y18270
X43882Y19270
X43882Y20270
X43882Y21270
X43882Y22270
X42882Y22270
X41882Y22270
X41882Y21270
X42882Y21270
X42882Y20270
X41882Y20270
X41882Y19270
X42882Y19270
X42882Y18270
X41882Y18270
X40882Y18270
X40882Y19270
X40882Y20270
X40882Y21270
X40882Y22270
X39882Y22270
X38882Y22270
X38882Y21270
X39882Y21270
X39882Y20270
X38882Y20270
X38882Y19270
X39882Y19270
X39882Y18270
X38882Y18270
X37882Y18270
X37882Y19270
X37882Y20270
X37882Y21270
X37882Y22270
X36882Y22270
X35882Y22270
X35882Y21270
X36882Y21270
X36882Y20270
X35882Y20270
X35882Y19270
X36882Y19270
X36882Y18270
X35882Y18270
X34882Y18270
X34882Y19270
X34882Y20270
X34882Y21270
X34882Y22270
X33882Y22270
X33882Y20770
X33882Y19770
X33882Y18770
X33882Y17770
X33882Y16770
X33882Y15770
X33882Y14770
X33882Y13770
X33882Y12770
X33882Y11770
X34882Y12270
X34882Y13270
X34882Y14270
X34882Y15270
X34882Y16270
X34882Y17270
X35882Y17270
X36882Y17270
X36882Y16270
X35882Y16270
X35882Y15270
X36882Y15270
X36882Y14270
X35882Y14270
X35882Y13270
X36882Y13270
X37882Y13270
X37882Y14270
X37882Y15270
X37882Y16270
X37882Y17270
X38882Y17270
X39882Y17270
X39882Y16270
X38882Y16270
X38882Y15270
X39882Y15270
X39882Y14270
X38882Y14270
X38882Y13270
X39882Y13270
X40882Y13270
X40882Y14270
X40882Y15270
X40882Y16270
X40882Y17270
X41882Y17270
X42882Y17270
X42882Y16270
X41882Y16270
X41882Y15270
X42882Y15270
X42882Y14270
X41882Y14270
X41882Y13270
X42882Y13270
X43882Y13270
X43882Y14270
X43882Y15270
X43882Y16270
X43882Y17270
X44882Y17270
X45882Y17270
X45882Y16270
X44882Y16270
X44882Y15270
X45882Y15270
X45882Y14270
X44882Y14270
X44882Y13270
X45882Y13270
X46882Y13270
X47882Y13270
X47882Y12270
X46882Y12270
X45882Y12270
X44882Y12270
X43882Y12270
X42882Y12270
X41882Y12270
X40882Y12270
X39882Y12270
X38882Y12270
X37882Y12270
X36882Y12270
X35882Y12270
X31882Y12770
X31882Y13770
X31882Y14770
X31882Y11770
X28441Y24270
X28441Y25270
X28441Y26270
X28441Y27270
X28441Y28270
X28441Y29270
X26441Y29270
X26441Y28270
X26441Y27270
X26441Y26270
X26441Y25270
X26441Y24270
X31882Y36573
X31882Y37573
X31882Y38573
X31882Y39573
X31882Y40573
X31882Y41573
X31882Y42573
X31882Y43573
X31882Y44573
X31882Y45573
X31882Y47073
X31882Y48073
X31882Y49073
X31882Y50073
X31882Y51073
X31882Y52073
X31882Y53073
X31882Y54073
X33882Y54073
X33882Y53073
X33882Y52073
X33882Y51073
X33882Y50073
X33882Y49073
X33882Y48073
X33882Y47073
X34882Y47073
X34882Y46073
X34882Y45073
X34882Y44073
X34882Y43073
X34882Y42073
X34882Y41073
X34882Y40073
X34882Y39073
X34882Y38073
X34882Y37073
X35882Y37073
X36882Y37073
X37882Y37073
X38882Y37073
X39882Y37073
X40882Y37073
X41882Y37073
X42882Y37073
X43882Y37073
X44882Y37073
X45882Y37073
X46882Y37073
X47882Y37073
X47882Y38073
X46882Y38073
X45882Y38073
X44882Y38073
X43882Y38073
X42882Y38073
X41882Y38073
X40882Y38073
X39882Y38073
X38882Y38073
X37882Y38073
X36882Y38073
X35882Y38073
X35882Y39073
X36882Y39073
X36882Y40073
X35882Y40073
X35882Y41073
X36882Y41073
X36882Y42073
X35882Y42073
X35882Y43073
X36882Y43073
X37882Y43073
X37882Y42073
X37882Y41073
X37882Y40073
X37882Y39073
X38882Y39073
X39882Y39073
X39882Y40073
X38882Y40073
X38882Y41073
X39882Y41073
X39882Y42073
X38882Y42073
X38882Y43073
X39882Y43073
X40882Y43073
X40882Y42073
X40882Y41073
X40882Y40073
X40882Y39073
X41882Y39073
X42882Y39073
X42882Y40073
X41882Y40073
X41882Y41073
X42882Y41073
X42882Y42073
X41882Y42073
X41882Y43073
X42882Y43073
X43882Y43073
X43882Y42073
X43882Y41073
X43882Y40073
X43882Y39073
X44882Y39073
X45882Y39073
X45882Y40073
X44882Y40073
X44882Y41073
X45882Y41073
X45882Y42073
X44882Y42073
X44882Y43073
X45882Y43073
X46882Y43073
X46882Y42073
X46882Y41073
X46882Y40073
X46882Y39073
X47882Y39073
X47882Y40073
X47882Y41073
X48882Y41073
X48882Y42073
X47882Y42073
X47882Y43073
X48882Y43073
X48882Y44073
X47882Y44073
X47882Y45073
X48882Y45073
X48882Y46073
X47882Y46073
X47882Y47073
X48882Y47073
X47882Y48073
X46882Y48073
X46882Y47073
X46882Y46073
X46882Y45073
X46882Y44073
X45882Y44073
X44882Y44073
X44882Y45073
X45882Y45073
X45882Y46073
X44882Y46073
X44882Y47073
X45882Y47073
X45882Y48073
X44882Y48073
X43882Y48073
X43882Y47073
X43882Y46073
X43882Y45073
X43882Y44073
X42882Y44073
X41882Y44073
X41882Y45073
X42882Y45073
X42882Y46073
X41882Y46073
X41882Y47073
X42882Y47073
X42882Y48073
X41882Y48073
X40882Y48073
X40882Y47073
X40882Y46073
X40882Y45073
X40882Y44073
X39882Y44073
X38882Y44073
X38882Y45073
X39882Y45073
X39882Y46073
X38882Y46073
X38882Y47073
X39882Y47073
X39882Y48073
X38882Y48073
X37882Y48073
X37882Y47073
X37882Y46073
X37882Y45073
X37882Y44073
X36882Y44073
X35882Y44073
X35882Y45073
X36882Y45073
X36882Y46073
X35882Y46073
X35882Y47073
X36882Y47073
X36882Y48073
X35882Y48073
X34882Y48073
X34882Y49073
X34882Y50073
X35882Y50073
X35882Y49073
X36882Y49073
X36882Y50073
X37882Y50073
X37882Y49073
X38882Y49073
X39882Y49073
X39882Y50073
X38882Y50073
X38882Y51073
X39882Y51073
X39882Y52073
X38882Y52073
X37882Y52073
X37882Y51073
X36882Y51073
X35882Y51073
X35882Y52073
X36882Y52073
X36882Y53073
X35882Y53073
X34882Y53073
X34882Y52073
X34882Y51073
X34882Y54073
X35882Y54073
X36882Y54073
X37882Y54073
X37882Y53073
X38882Y53073
X39882Y53073
X40882Y53073
X40882Y52073
X40882Y51073
X40882Y50073
X40882Y49073
X41882Y49073
X42882Y49073
X42882Y50073
X41882Y50073
X41882Y51073
X42882Y51073
X42882Y52073
X41882Y52073
X41882Y53073
X42882Y53073
X43882Y53073
X43882Y52073
X43882Y51073
X43882Y50073
X43882Y49073
X44882Y49073
X45882Y49073
X45882Y50073
X44882Y50073
X44882Y51073
X45882Y51073
X45882Y52073
X44882Y52073
X44882Y53073
X45882Y53073
X46882Y53073
X46882Y52073
X46882Y51073
X46882Y50073
X46882Y49073
X47882Y49073
X48882Y49073
X48882Y50073
X47882Y50073
X47882Y51073
X48882Y51073
X48882Y52073
X47882Y52073
X47882Y53073
X48882Y53073
X48882Y54073
X47882Y54073
X46882Y54073
X45882Y54073
X44882Y54073
X43882Y54073
X42882Y54073
X41882Y54073
X40882Y54073
X39882Y54073
X38882Y54073
X33882Y45573
X33882Y44573
X33882Y43573
X33882Y42573
X33882Y41573
X33882Y40573
X33882Y39573
X33882Y38573
X33882Y37573
X33882Y36573
X28441Y40073
X28441Y41073
X28441Y42073
X28441Y43073
X28441Y44073
X28441Y45073
X28441Y46073
X28441Y47073
X26441Y47073
X26441Y46073
X26441Y45073
X26441Y44073
X26441Y43073
X26441Y42073
X26441Y41073
X25441Y41073
X25441Y42073
X24441Y42073
X24441Y41073
X23441Y41073
X23441Y42073
X22441Y42073
X22441Y41073
X22441Y40073
X22441Y39073
X22441Y38073
X22441Y37073
X21441Y37073
X20441Y37073
X19441Y37073
X18441Y37073
X17441Y37073
X16441Y37073
X15441Y37073
X14441Y37073
X13441Y37073
X12441Y37073
X11441Y36573
X11441Y37573
X12441Y38073
X11441Y38573
X11441Y39573
X12441Y39073
X12441Y40073
X11441Y40573
X12441Y41073
X12441Y42073
X11441Y41573
X11441Y42573
X12441Y43073
X11441Y43573
X11441Y44573
X12441Y44073
X12441Y45073
X11441Y45573
X12441Y46073
X12441Y47073
X11441Y47073
X11441Y48073
X12441Y48073
X13441Y48073
X13441Y47073
X13441Y46073
X13441Y45073
X13441Y44073
X13441Y43073
X13441Y42073
X13441Y41073
X13441Y40073
X13441Y39073
X13441Y38073
X14441Y38073
X15441Y38073
X16441Y38073
X17441Y38073
X18441Y38073
X19441Y38073
X20441Y38073
X21441Y38073
X21441Y39073
X20441Y39073
X20441Y40073
X21441Y40073
X21441Y41073
X20441Y41073
X20441Y42073
X21441Y42073
X21441Y43073
X20441Y43073
X19441Y43073
X19441Y42073
X19441Y41073
X19441Y40073
X19441Y39073
X18441Y39073
X17441Y39073
X17441Y40073
X18441Y40073
X18441Y41073
X17441Y41073
X17441Y42073
X18441Y42073
X18441Y43073
X17441Y43073
X16441Y43073
X16441Y42073
X16441Y41073
X16441Y40073
X16441Y39073
X15441Y39073
X14441Y39073
X14441Y40073
X15441Y40073
X15441Y41073
X14441Y41073
X14441Y42073
X15441Y42073
X15441Y43073
X14441Y43073
X14441Y44073
X15441Y44073
X15441Y45073
X14441Y45073
X14441Y46073
X15441Y46073
X15441Y47073
X14441Y47073
X14441Y48073
X15441Y48073
X16441Y48073
X16441Y47073
X16441Y46073
X16441Y45073
X16441Y44073
X17441Y44073
X18441Y44073
X18441Y45073
X17441Y45073
X17441Y46073
X18441Y46073
X18441Y47073
X17441Y47073
X17441Y48073
X18441Y48073
X19441Y48073
X19441Y47073
X19441Y46073
X19441Y45073
X19441Y44073
X20441Y44073
X21441Y44073
X21441Y45073
X20441Y45073
X20441Y46073
X21441Y46073
X21441Y47073
X20441Y47073
X20441Y48073
X21441Y48073
X22441Y48073
X22441Y47073
X22441Y46073
X22441Y45073
X22441Y44073
X22441Y43073
X23441Y43073
X24441Y43073
X25441Y43073
X25441Y44073
X25441Y45073
X24441Y45073
X24441Y44073
X23441Y44073
X23441Y45073
X23441Y46073
X24441Y46073
X24441Y47073
X23441Y47073
X23441Y48073
X24441Y48073
X25441Y48073
X25441Y47073
X25441Y46073
X25441Y49073
X25441Y50073
X24441Y50073
X24441Y49073
X23441Y49073
X23441Y50073
X22441Y50073
X22441Y49073
X21441Y49073
X20441Y49073
X20441Y50073
X21441Y50073
X21441Y51073
X20441Y51073
X20441Y52073
X21441Y52073
X22441Y52073
X22441Y51073
X23441Y51073
X24441Y51073
X24441Y52073
X23441Y52073
X23441Y53073
X24441Y53073
X25441Y53073
X25441Y52073
X25441Y51073
X26441Y51073
X26441Y52073
X26441Y53073
X26441Y54073
X25441Y54073
X24441Y54073
X23441Y54073
X22441Y54073
X22441Y53073
X21441Y53073
X20441Y53073
X19441Y53073
X19441Y52073
X19441Y51073
X19441Y50073
X19441Y49073
X18441Y49073
X17441Y49073
X17441Y50073
X18441Y50073
X18441Y51073
X17441Y51073
X17441Y52073
X18441Y52073
X18441Y53073
X17441Y53073
X16441Y53073
X16441Y52073
X16441Y51073
X16441Y50073
X16441Y49073
X15441Y49073
X14441Y49073
X14441Y50073
X15441Y50073
X15441Y51073
X14441Y51073
X14441Y52073
X15441Y52073
X15441Y53073
X14441Y53073
X13441Y53073
X13441Y52073
X13441Y51073
X13441Y50073
X13441Y49073
X12441Y49073
X11441Y49073
X11441Y50073
X12441Y50073
X12441Y51073
X11441Y51073
X11441Y52073
X12441Y52073
X12441Y53073
X11441Y53073
X11441Y54073
X12441Y54073
X13441Y54073
X14441Y54073
X15441Y54073
X16441Y54073
X17441Y54073
X18441Y54073
X19441Y54073
X20441Y54073
X21441Y54073
X26441Y50073
X26441Y49073
X28441Y49073
X28441Y50073
X28441Y51073
X28441Y52073
X28441Y53073
X28441Y54073
X25441Y40073
X25441Y39073
X25441Y38073
X25441Y37073
X24441Y37073
X23441Y37073
X23441Y38073
X24441Y38073
X24441Y39073
X23441Y39073
X23441Y40073
X24441Y40073
X9441Y39573
X9441Y38573
X9441Y37573
X9441Y36573
X9441Y40573
X9441Y41573
X9441Y42573
X9441Y43573
X9441Y44573
X9441Y45573
X9441Y47073
X9441Y48073
X9441Y49073
X9441Y50073
X9441Y51073
X9441Y52073
X9441Y53073
X9441Y54073
X50882Y54073
X50882Y53073
X50882Y52073
X50882Y51073
X50882Y50073
X50882Y49073
X50882Y47073
X50882Y46073
X50882Y45073
X50882Y44073
X50882Y43073
X50882Y42073
X50882Y41073
X50882Y40073
X50882Y29270
X50882Y28270
X50882Y27270
X50882Y26270
X50882Y25270
X50882Y24270
X50882Y22270
X50882Y21270
X50882Y20270
X50882Y19270
X50882Y18270
X50882Y17270
X50882Y16270
X50882Y15270
M30
